%TF.GenerationSoftware,KiCad,Pcbnew,(5.1.8-0-10_14)*%
%TF.CreationDate,2021-04-03T20:08:11-06:00*%
%TF.ProjectId,bluescsi_powerbook,626c7565-7363-4736-995f-706f77657262,rev?*%
%TF.SameCoordinates,Original*%
%TF.FileFunction,Soldermask,Top*%
%TF.FilePolarity,Negative*%
%FSLAX46Y46*%
G04 Gerber Fmt 4.6, Leading zero omitted, Abs format (unit mm)*
G04 Created by KiCad (PCBNEW (5.1.8-0-10_14)) date 2021-04-03 20:08:11*
%MOMM*%
%LPD*%
G01*
G04 APERTURE LIST*
%ADD10O,1.600000X1.600000*%
%ADD11R,1.600000X1.600000*%
%ADD12R,1.350000X1.900000*%
%ADD13R,1.000000X1.200000*%
%ADD14R,1.350000X1.550000*%
%ADD15R,1.800000X1.170000*%
%ADD16R,1.100000X0.850000*%
%ADD17R,1.100000X0.750000*%
%ADD18O,1.700000X1.700000*%
%ADD19R,1.700000X1.700000*%
%ADD20O,1.350000X1.350000*%
%ADD21R,1.350000X1.350000*%
%ADD22C,1.700000*%
G04 APERTURE END LIST*
D10*
%TO.C,RN2*%
X137160000Y-128270000D03*
X137160000Y-125730000D03*
X137160000Y-123190000D03*
X137160000Y-120650000D03*
X137160000Y-118110000D03*
X137160000Y-115570000D03*
X137160000Y-113030000D03*
X137160000Y-110490000D03*
X137160000Y-107950000D03*
D11*
X137160000Y-105410000D03*
%TD*%
D12*
%TO.C,J3*%
X103673000Y-111078000D03*
X103673000Y-117048000D03*
D13*
X98998000Y-120548000D03*
X102698000Y-120548000D03*
D14*
X92973000Y-120373000D03*
D15*
X93198000Y-109053000D03*
D16*
X92848000Y-111313000D03*
X92848000Y-112413000D03*
X92848000Y-113513000D03*
X92848000Y-114613000D03*
X92848000Y-115713000D03*
X92848000Y-116813000D03*
D17*
X92848000Y-110263000D03*
D16*
X92848000Y-117913000D03*
%TD*%
D18*
%TO.C,J9*%
X146050000Y-74422000D03*
D19*
X146050000Y-71882000D03*
%TD*%
D18*
%TO.C,J8*%
X153540000Y-133350000D03*
X151000000Y-133350000D03*
X153540000Y-130810000D03*
X151000000Y-130810000D03*
X153540000Y-128270000D03*
X151000000Y-128270000D03*
X153540000Y-125730000D03*
X151000000Y-125730000D03*
X153540000Y-123190000D03*
X151000000Y-123190000D03*
X153540000Y-120650000D03*
X151000000Y-120650000D03*
X153540000Y-118110000D03*
X151000000Y-118110000D03*
X153540000Y-115570000D03*
X151000000Y-115570000D03*
X153540000Y-113030000D03*
X151000000Y-113030000D03*
X153540000Y-110490000D03*
X151000000Y-110490000D03*
X153540000Y-107950000D03*
X151000000Y-107950000D03*
X153540000Y-105410000D03*
X151000000Y-105410000D03*
X153540000Y-102870000D03*
X151000000Y-102870000D03*
X153540000Y-100330000D03*
X151000000Y-100330000D03*
X153540000Y-97790000D03*
X151000000Y-97790000D03*
X153540000Y-95250000D03*
X151000000Y-95250000D03*
X153540000Y-92710000D03*
X151000000Y-92710000D03*
X153540000Y-90170000D03*
X151000000Y-90170000D03*
X153540000Y-87630000D03*
X151000000Y-87630000D03*
X153540000Y-85090000D03*
X151000000Y-85090000D03*
X153540000Y-82550000D03*
X151000000Y-82550000D03*
X153540000Y-80010000D03*
X151000000Y-80010000D03*
X153540000Y-77470000D03*
X151000000Y-77470000D03*
X153540000Y-74930000D03*
X151000000Y-74930000D03*
X153540000Y-72390000D03*
D19*
X151000000Y-72390000D03*
%TD*%
D20*
%TO.C,J2*%
X163290000Y-86000000D03*
X161290000Y-86000000D03*
X163290000Y-84000000D03*
X161290000Y-84000000D03*
X163290000Y-82000000D03*
X161290000Y-82000000D03*
X163290000Y-80000000D03*
D21*
X161290000Y-80000000D03*
%TD*%
D18*
%TO.C,J6*%
X103632000Y-84531200D03*
X103632000Y-87071200D03*
X103632000Y-89611200D03*
D19*
X103632000Y-92151200D03*
%TD*%
D18*
%TO.C,J5*%
X133604000Y-101854000D03*
D19*
X133604000Y-104394000D03*
%TD*%
D18*
%TO.C,J4*%
X145796000Y-104140000D03*
D19*
X145796000Y-101600000D03*
%TD*%
D10*
%TO.C,RN4*%
X142240000Y-128270000D03*
X142240000Y-125730000D03*
X142240000Y-123190000D03*
X142240000Y-120650000D03*
X142240000Y-118110000D03*
X142240000Y-115570000D03*
X142240000Y-113030000D03*
X142240000Y-110490000D03*
X142240000Y-107950000D03*
D11*
X142240000Y-105410000D03*
%TD*%
D10*
%TO.C,RN3*%
X142240000Y-77470000D03*
X142240000Y-80010000D03*
X142240000Y-82550000D03*
X142240000Y-85090000D03*
X142240000Y-87630000D03*
X142240000Y-90170000D03*
X142240000Y-92710000D03*
X142240000Y-95250000D03*
X142240000Y-97790000D03*
D11*
X142240000Y-100330000D03*
%TD*%
D10*
%TO.C,RN1*%
X137160000Y-77470000D03*
X137160000Y-80010000D03*
X137160000Y-82550000D03*
X137160000Y-85090000D03*
X137160000Y-87630000D03*
X137160000Y-90170000D03*
X137160000Y-92710000D03*
X137160000Y-95250000D03*
X137160000Y-97790000D03*
D11*
X137160000Y-100330000D03*
%TD*%
D18*
%TO.C,J7*%
X106680000Y-103886000D03*
X106680000Y-106426000D03*
X106680000Y-108966000D03*
X106680000Y-111506000D03*
X106680000Y-114046000D03*
X106680000Y-116586000D03*
X106680000Y-119126000D03*
X106680000Y-121666000D03*
D19*
X106680000Y-124206000D03*
%TD*%
D20*
%TO.C,J1*%
X163290000Y-128000000D03*
X161290000Y-128000000D03*
X163290000Y-126000000D03*
X161290000Y-126000000D03*
X163290000Y-124000000D03*
X161290000Y-124000000D03*
X163290000Y-122000000D03*
X161290000Y-122000000D03*
X163290000Y-120000000D03*
X161290000Y-120000000D03*
X163290000Y-118000000D03*
X161290000Y-118000000D03*
X163290000Y-116000000D03*
X161290000Y-116000000D03*
X163290000Y-114000000D03*
X161290000Y-114000000D03*
X163290000Y-112000000D03*
X161290000Y-112000000D03*
X163290000Y-110000000D03*
X161290000Y-110000000D03*
X163290000Y-108000000D03*
X161290000Y-108000000D03*
X163290000Y-106000000D03*
X161290000Y-106000000D03*
X163290000Y-104000000D03*
X161290000Y-104000000D03*
X163290000Y-102000000D03*
X161290000Y-102000000D03*
X163290000Y-100000000D03*
X161290000Y-100000000D03*
X163290000Y-98000000D03*
X161290000Y-98000000D03*
X163290000Y-96000000D03*
X161290000Y-96000000D03*
X163290000Y-94000000D03*
X161290000Y-94000000D03*
X163290000Y-92000000D03*
X161290000Y-92000000D03*
X163290000Y-90000000D03*
D21*
X161290000Y-90000000D03*
%TD*%
D22*
%TO.C,U1*%
X112522000Y-127000000D03*
D19*
X127762000Y-127000000D03*
D22*
X112522000Y-124460000D03*
X127762000Y-124460000D03*
X112522000Y-121920000D03*
X127762000Y-121920000D03*
X112522000Y-119380000D03*
X127762000Y-119380000D03*
X112522000Y-116840000D03*
X127762000Y-116840000D03*
X112522000Y-114300000D03*
X127762000Y-114300000D03*
X112522000Y-111760000D03*
X127762000Y-111760000D03*
X112522000Y-109220000D03*
X127762000Y-109220000D03*
X112522000Y-106680000D03*
X127762000Y-106680000D03*
X112522000Y-104140000D03*
X127762000Y-104140000D03*
X112522000Y-101600000D03*
X127762000Y-101600000D03*
X112522000Y-99060000D03*
X127762000Y-99060000D03*
X112522000Y-96520000D03*
X127762000Y-96520000D03*
X112522000Y-93980000D03*
X127762000Y-93980000D03*
X112522000Y-91440000D03*
X127762000Y-91440000D03*
X112522000Y-88900000D03*
X127762000Y-88900000D03*
X112522000Y-86360000D03*
X127762000Y-86360000D03*
X112522000Y-83820000D03*
X127762000Y-83820000D03*
X112522000Y-81280000D03*
X127762000Y-81280000D03*
X112522000Y-78740000D03*
X127762000Y-78740000D03*
%TD*%
M02*
