%TF.GenerationSoftware,KiCad,Pcbnew,(5.1.8-0-10_14)*%
%TF.CreationDate,2021-04-03T20:08:11-06:00*%
%TF.ProjectId,bluescsi_powerbook,626c7565-7363-4736-995f-706f77657262,rev?*%
%TF.SameCoordinates,Original*%
%TF.FileFunction,Legend,Top*%
%TF.FilePolarity,Positive*%
%FSLAX46Y46*%
G04 Gerber Fmt 4.6, Leading zero omitted, Abs format (unit mm)*
G04 Created by KiCad (PCBNEW (5.1.8-0-10_14)) date 2021-04-03 20:08:11*
%MOMM*%
%LPD*%
G01*
G04 APERTURE LIST*
%ADD10C,0.150000*%
%ADD11C,0.100000*%
%ADD12C,0.250000*%
%ADD13C,0.120000*%
G04 APERTURE END LIST*
D10*
X113455405Y-134405714D02*
X113693500Y-135072380D01*
X113931595Y-134405714D01*
X114836357Y-135072380D02*
X114264928Y-135072380D01*
X114550643Y-135072380D02*
X114550643Y-134072380D01*
X114455405Y-134215238D01*
X114360167Y-134310476D01*
X114264928Y-134358095D01*
X115264928Y-134977142D02*
X115312548Y-135024761D01*
X115264928Y-135072380D01*
X115217309Y-135024761D01*
X115264928Y-134977142D01*
X115264928Y-135072380D01*
X115931595Y-134072380D02*
X116026833Y-134072380D01*
X116122071Y-134120000D01*
X116169690Y-134167619D01*
X116217309Y-134262857D01*
X116264928Y-134453333D01*
X116264928Y-134691428D01*
X116217309Y-134881904D01*
X116169690Y-134977142D01*
X116122071Y-135024761D01*
X116026833Y-135072380D01*
X115931595Y-135072380D01*
X115836357Y-135024761D01*
X115788738Y-134977142D01*
X115741119Y-134881904D01*
X115693500Y-134691428D01*
X115693500Y-134453333D01*
X115741119Y-134262857D01*
X115788738Y-134167619D01*
X115836357Y-134120000D01*
X115931595Y-134072380D01*
X116741119Y-135024761D02*
X116741119Y-135072380D01*
X116693500Y-135167619D01*
X116645881Y-135215238D01*
X117931595Y-135072380D02*
X117931595Y-134072380D01*
X118264928Y-134786666D01*
X118598262Y-134072380D01*
X118598262Y-135072380D01*
X119503024Y-135072380D02*
X119503024Y-134548571D01*
X119455405Y-134453333D01*
X119360167Y-134405714D01*
X119169690Y-134405714D01*
X119074452Y-134453333D01*
X119503024Y-135024761D02*
X119407786Y-135072380D01*
X119169690Y-135072380D01*
X119074452Y-135024761D01*
X119026833Y-134929523D01*
X119026833Y-134834285D01*
X119074452Y-134739047D01*
X119169690Y-134691428D01*
X119407786Y-134691428D01*
X119503024Y-134643809D01*
X119979214Y-135072380D02*
X119979214Y-134405714D01*
X119979214Y-134596190D02*
X120026833Y-134500952D01*
X120074452Y-134453333D01*
X120169690Y-134405714D01*
X120264928Y-134405714D01*
X121026833Y-135024761D02*
X120931595Y-135072380D01*
X120741119Y-135072380D01*
X120645881Y-135024761D01*
X120598262Y-134977142D01*
X120550643Y-134881904D01*
X120550643Y-134596190D01*
X120598262Y-134500952D01*
X120645881Y-134453333D01*
X120741119Y-134405714D01*
X120931595Y-134405714D01*
X121026833Y-134453333D01*
X121455405Y-135072380D02*
X121455405Y-134072380D01*
X121883976Y-135072380D02*
X121883976Y-134548571D01*
X121836357Y-134453333D01*
X121741119Y-134405714D01*
X121598262Y-134405714D01*
X121503024Y-134453333D01*
X121455405Y-134500952D01*
X123074452Y-134167619D02*
X123122071Y-134120000D01*
X123217309Y-134072380D01*
X123455405Y-134072380D01*
X123550643Y-134120000D01*
X123598262Y-134167619D01*
X123645881Y-134262857D01*
X123645881Y-134358095D01*
X123598262Y-134500952D01*
X123026833Y-135072380D01*
X123645881Y-135072380D01*
X124264928Y-134072380D02*
X124360167Y-134072380D01*
X124455405Y-134120000D01*
X124503024Y-134167619D01*
X124550643Y-134262857D01*
X124598262Y-134453333D01*
X124598262Y-134691428D01*
X124550643Y-134881904D01*
X124503024Y-134977142D01*
X124455405Y-135024761D01*
X124360167Y-135072380D01*
X124264928Y-135072380D01*
X124169690Y-135024761D01*
X124122071Y-134977142D01*
X124074452Y-134881904D01*
X124026833Y-134691428D01*
X124026833Y-134453333D01*
X124074452Y-134262857D01*
X124122071Y-134167619D01*
X124169690Y-134120000D01*
X124264928Y-134072380D01*
X124979214Y-134167619D02*
X125026833Y-134120000D01*
X125122071Y-134072380D01*
X125360167Y-134072380D01*
X125455405Y-134120000D01*
X125503024Y-134167619D01*
X125550643Y-134262857D01*
X125550643Y-134358095D01*
X125503024Y-134500952D01*
X124931595Y-135072380D01*
X125550643Y-135072380D01*
X126503024Y-135072380D02*
X125931595Y-135072380D01*
X126217309Y-135072380D02*
X126217309Y-134072380D01*
X126122071Y-134215238D01*
X126026833Y-134310476D01*
X125931595Y-134358095D01*
X110957024Y-131262380D02*
X111480833Y-130595714D01*
X110957024Y-130595714D02*
X111480833Y-131262380D01*
X112290357Y-130595714D02*
X112290357Y-131262380D01*
X111861786Y-130595714D02*
X111861786Y-131119523D01*
X111909405Y-131214761D01*
X112004643Y-131262380D01*
X112147500Y-131262380D01*
X112242738Y-131214761D01*
X112290357Y-131167142D01*
X112766547Y-130595714D02*
X112766547Y-131262380D01*
X112766547Y-130690952D02*
X112814167Y-130643333D01*
X112909405Y-130595714D01*
X113052262Y-130595714D01*
X113147500Y-130643333D01*
X113195119Y-130738571D01*
X113195119Y-131262380D01*
X113671309Y-131262380D02*
X113671309Y-130262380D01*
X113766547Y-130881428D02*
X114052262Y-131262380D01*
X114052262Y-130595714D02*
X113671309Y-130976666D01*
X114861786Y-131214761D02*
X114766547Y-131262380D01*
X114576071Y-131262380D01*
X114480833Y-131214761D01*
X114433214Y-131119523D01*
X114433214Y-130738571D01*
X114480833Y-130643333D01*
X114576071Y-130595714D01*
X114766547Y-130595714D01*
X114861786Y-130643333D01*
X114909405Y-130738571D01*
X114909405Y-130833809D01*
X114433214Y-130929047D01*
X115337976Y-131262380D02*
X115337976Y-130595714D01*
X115337976Y-130786190D02*
X115385595Y-130690952D01*
X115433214Y-130643333D01*
X115528452Y-130595714D01*
X115623690Y-130595714D01*
X115957024Y-131167142D02*
X116004643Y-131214761D01*
X115957024Y-131262380D01*
X115909405Y-131214761D01*
X115957024Y-131167142D01*
X115957024Y-131262380D01*
X116861786Y-130595714D02*
X116861786Y-131405238D01*
X116814167Y-131500476D01*
X116766547Y-131548095D01*
X116671309Y-131595714D01*
X116528452Y-131595714D01*
X116433214Y-131548095D01*
X116861786Y-131214761D02*
X116766547Y-131262380D01*
X116576071Y-131262380D01*
X116480833Y-131214761D01*
X116433214Y-131167142D01*
X116385595Y-131071904D01*
X116385595Y-130786190D01*
X116433214Y-130690952D01*
X116480833Y-130643333D01*
X116576071Y-130595714D01*
X116766547Y-130595714D01*
X116861786Y-130643333D01*
X117337976Y-131262380D02*
X117337976Y-130595714D01*
X117337976Y-130262380D02*
X117290357Y-130310000D01*
X117337976Y-130357619D01*
X117385595Y-130310000D01*
X117337976Y-130262380D01*
X117337976Y-130357619D01*
X117671309Y-130595714D02*
X118052262Y-130595714D01*
X117814167Y-130262380D02*
X117814167Y-131119523D01*
X117861786Y-131214761D01*
X117957024Y-131262380D01*
X118052262Y-131262380D01*
X118385595Y-131262380D02*
X118385595Y-130262380D01*
X118814167Y-131262380D02*
X118814167Y-130738571D01*
X118766547Y-130643333D01*
X118671309Y-130595714D01*
X118528452Y-130595714D01*
X118433214Y-130643333D01*
X118385595Y-130690952D01*
X119718928Y-130595714D02*
X119718928Y-131262380D01*
X119290357Y-130595714D02*
X119290357Y-131119523D01*
X119337976Y-131214761D01*
X119433214Y-131262380D01*
X119576071Y-131262380D01*
X119671309Y-131214761D01*
X119718928Y-131167142D01*
X120195119Y-131262380D02*
X120195119Y-130262380D01*
X120195119Y-130643333D02*
X120290357Y-130595714D01*
X120480833Y-130595714D01*
X120576071Y-130643333D01*
X120623690Y-130690952D01*
X120671309Y-130786190D01*
X120671309Y-131071904D01*
X120623690Y-131167142D01*
X120576071Y-131214761D01*
X120480833Y-131262380D01*
X120290357Y-131262380D01*
X120195119Y-131214761D01*
X121099881Y-131167142D02*
X121147500Y-131214761D01*
X121099881Y-131262380D01*
X121052262Y-131214761D01*
X121099881Y-131167142D01*
X121099881Y-131262380D01*
X121576071Y-131262380D02*
X121576071Y-130595714D01*
X121576071Y-130262380D02*
X121528452Y-130310000D01*
X121576071Y-130357619D01*
X121623690Y-130310000D01*
X121576071Y-130262380D01*
X121576071Y-130357619D01*
X122195119Y-131262380D02*
X122099881Y-131214761D01*
X122052262Y-131167142D01*
X122004643Y-131071904D01*
X122004643Y-130786190D01*
X122052262Y-130690952D01*
X122099881Y-130643333D01*
X122195119Y-130595714D01*
X122337976Y-130595714D01*
X122433214Y-130643333D01*
X122480833Y-130690952D01*
X122528452Y-130786190D01*
X122528452Y-131071904D01*
X122480833Y-131167142D01*
X122433214Y-131214761D01*
X122337976Y-131262380D01*
X122195119Y-131262380D01*
X123671309Y-130214761D02*
X122814167Y-131500476D01*
X124004643Y-131262380D02*
X124004643Y-130262380D01*
X124004643Y-130643333D02*
X124099881Y-130595714D01*
X124290357Y-130595714D01*
X124385595Y-130643333D01*
X124433214Y-130690952D01*
X124480833Y-130786190D01*
X124480833Y-131071904D01*
X124433214Y-131167142D01*
X124385595Y-131214761D01*
X124290357Y-131262380D01*
X124099881Y-131262380D01*
X124004643Y-131214761D01*
X125052262Y-131262380D02*
X124957024Y-131214761D01*
X124909405Y-131119523D01*
X124909405Y-130262380D01*
X125861786Y-130595714D02*
X125861786Y-131262380D01*
X125433214Y-130595714D02*
X125433214Y-131119523D01*
X125480833Y-131214761D01*
X125576071Y-131262380D01*
X125718928Y-131262380D01*
X125814167Y-131214761D01*
X125861786Y-131167142D01*
X126718928Y-131214761D02*
X126623690Y-131262380D01*
X126433214Y-131262380D01*
X126337976Y-131214761D01*
X126290357Y-131119523D01*
X126290357Y-130738571D01*
X126337976Y-130643333D01*
X126433214Y-130595714D01*
X126623690Y-130595714D01*
X126718928Y-130643333D01*
X126766547Y-130738571D01*
X126766547Y-130833809D01*
X126290357Y-130929047D01*
X127147500Y-131214761D02*
X127242738Y-131262380D01*
X127433214Y-131262380D01*
X127528452Y-131214761D01*
X127576071Y-131119523D01*
X127576071Y-131071904D01*
X127528452Y-130976666D01*
X127433214Y-130929047D01*
X127290357Y-130929047D01*
X127195119Y-130881428D01*
X127147500Y-130786190D01*
X127147500Y-130738571D01*
X127195119Y-130643333D01*
X127290357Y-130595714D01*
X127433214Y-130595714D01*
X127528452Y-130643333D01*
X128433214Y-131214761D02*
X128337976Y-131262380D01*
X128147500Y-131262380D01*
X128052262Y-131214761D01*
X128004643Y-131167142D01*
X127957024Y-131071904D01*
X127957024Y-130786190D01*
X128004643Y-130690952D01*
X128052262Y-130643333D01*
X128147500Y-130595714D01*
X128337976Y-130595714D01*
X128433214Y-130643333D01*
X128814167Y-131214761D02*
X128909405Y-131262380D01*
X129099881Y-131262380D01*
X129195119Y-131214761D01*
X129242738Y-131119523D01*
X129242738Y-131071904D01*
X129195119Y-130976666D01*
X129099881Y-130929047D01*
X128957024Y-130929047D01*
X128861786Y-130881428D01*
X128814167Y-130786190D01*
X128814167Y-130738571D01*
X128861786Y-130643333D01*
X128957024Y-130595714D01*
X129099881Y-130595714D01*
X129195119Y-130643333D01*
X129671309Y-131262380D02*
X129671309Y-130595714D01*
X129671309Y-130262380D02*
X129623690Y-130310000D01*
X129671309Y-130357619D01*
X129718928Y-130310000D01*
X129671309Y-130262380D01*
X129671309Y-130357619D01*
X129909405Y-131357619D02*
X130671309Y-131357619D01*
X130909405Y-130595714D02*
X130909405Y-131595714D01*
X130909405Y-130643333D02*
X131004643Y-130595714D01*
X131195119Y-130595714D01*
X131290357Y-130643333D01*
X131337976Y-130690952D01*
X131385595Y-130786190D01*
X131385595Y-131071904D01*
X131337976Y-131167142D01*
X131290357Y-131214761D01*
X131195119Y-131262380D01*
X131004643Y-131262380D01*
X130909405Y-131214761D01*
X131814167Y-131262380D02*
X131814167Y-130262380D01*
X131814167Y-130643333D02*
X131909405Y-130595714D01*
X132099881Y-130595714D01*
X132195119Y-130643333D01*
X132242738Y-130690952D01*
X132290357Y-130786190D01*
X132290357Y-131071904D01*
X132242738Y-131167142D01*
X132195119Y-131214761D01*
X132099881Y-131262380D01*
X131909405Y-131262380D01*
X131814167Y-131214761D01*
D11*
X119623571Y-75269285D02*
X119623571Y-74519285D01*
X119802142Y-74519285D01*
X119909285Y-74555000D01*
X119980714Y-74626428D01*
X120016428Y-74697857D01*
X120052142Y-74840714D01*
X120052142Y-74947857D01*
X120016428Y-75090714D01*
X119980714Y-75162142D01*
X119909285Y-75233571D01*
X119802142Y-75269285D01*
X119623571Y-75269285D01*
X120480714Y-75269285D02*
X120409285Y-75233571D01*
X120373571Y-75197857D01*
X120337857Y-75126428D01*
X120337857Y-74912142D01*
X120373571Y-74840714D01*
X120409285Y-74805000D01*
X120480714Y-74769285D01*
X120587857Y-74769285D01*
X120659285Y-74805000D01*
X120695000Y-74840714D01*
X120730714Y-74912142D01*
X120730714Y-75126428D01*
X120695000Y-75197857D01*
X120659285Y-75233571D01*
X120587857Y-75269285D01*
X120480714Y-75269285D01*
X121623571Y-75269285D02*
X121623571Y-74519285D01*
X122052142Y-75269285D01*
X122052142Y-74519285D01*
X122552142Y-74519285D02*
X122695000Y-74519285D01*
X122766428Y-74555000D01*
X122837857Y-74626428D01*
X122873571Y-74769285D01*
X122873571Y-75019285D01*
X122837857Y-75162142D01*
X122766428Y-75233571D01*
X122695000Y-75269285D01*
X122552142Y-75269285D01*
X122480714Y-75233571D01*
X122409285Y-75162142D01*
X122373571Y-75019285D01*
X122373571Y-74769285D01*
X122409285Y-74626428D01*
X122480714Y-74555000D01*
X122552142Y-74519285D01*
X123087857Y-74519285D02*
X123516428Y-74519285D01*
X123302142Y-75269285D02*
X123302142Y-74519285D01*
X124659285Y-75233571D02*
X124587857Y-75269285D01*
X124445000Y-75269285D01*
X124373571Y-75233571D01*
X124337857Y-75197857D01*
X124302142Y-75126428D01*
X124302142Y-74912142D01*
X124337857Y-74840714D01*
X124373571Y-74805000D01*
X124445000Y-74769285D01*
X124587857Y-74769285D01*
X124659285Y-74805000D01*
X125087857Y-75269285D02*
X125016428Y-75233571D01*
X124980714Y-75162142D01*
X124980714Y-74519285D01*
X125480714Y-75269285D02*
X125409285Y-75233571D01*
X125373571Y-75197857D01*
X125337857Y-75126428D01*
X125337857Y-74912142D01*
X125373571Y-74840714D01*
X125409285Y-74805000D01*
X125480714Y-74769285D01*
X125587857Y-74769285D01*
X125659285Y-74805000D01*
X125695000Y-74840714D01*
X125730714Y-74912142D01*
X125730714Y-75126428D01*
X125695000Y-75197857D01*
X125659285Y-75233571D01*
X125587857Y-75269285D01*
X125480714Y-75269285D01*
X126016428Y-75233571D02*
X126087857Y-75269285D01*
X126230714Y-75269285D01*
X126302142Y-75233571D01*
X126337857Y-75162142D01*
X126337857Y-75126428D01*
X126302142Y-75055000D01*
X126230714Y-75019285D01*
X126123571Y-75019285D01*
X126052142Y-74983571D01*
X126016428Y-74912142D01*
X126016428Y-74876428D01*
X126052142Y-74805000D01*
X126123571Y-74769285D01*
X126230714Y-74769285D01*
X126302142Y-74805000D01*
X126945000Y-75233571D02*
X126873571Y-75269285D01*
X126730714Y-75269285D01*
X126659285Y-75233571D01*
X126623571Y-75162142D01*
X126623571Y-74876428D01*
X126659285Y-74805000D01*
X126730714Y-74769285D01*
X126873571Y-74769285D01*
X126945000Y-74805000D01*
X126980714Y-74876428D01*
X126980714Y-74947857D01*
X126623571Y-75019285D01*
X128087857Y-74519285D02*
X128087857Y-75055000D01*
X128052142Y-75162142D01*
X127980714Y-75233571D01*
X127873571Y-75269285D01*
X127802142Y-75269285D01*
X128480714Y-75269285D02*
X128623571Y-75269285D01*
X128695000Y-75233571D01*
X128730714Y-75197857D01*
X128802142Y-75090714D01*
X128837857Y-74947857D01*
X128837857Y-74662142D01*
X128802142Y-74590714D01*
X128766428Y-74555000D01*
X128695000Y-74519285D01*
X128552142Y-74519285D01*
X128480714Y-74555000D01*
X128445000Y-74590714D01*
X128409285Y-74662142D01*
X128409285Y-74840714D01*
X128445000Y-74912142D01*
X128480714Y-74947857D01*
X128552142Y-74983571D01*
X128695000Y-74983571D01*
X128766428Y-74947857D01*
X128802142Y-74912142D01*
X128837857Y-74840714D01*
X129659285Y-74769285D02*
X129802142Y-75269285D01*
X129945000Y-74912142D01*
X130087857Y-75269285D01*
X130230714Y-74769285D01*
X130516428Y-75269285D02*
X130516428Y-74519285D01*
X130837857Y-75269285D02*
X130837857Y-74876428D01*
X130802142Y-74805000D01*
X130730714Y-74769285D01*
X130623571Y-74769285D01*
X130552142Y-74805000D01*
X130516428Y-74840714D01*
X131195000Y-75269285D02*
X131195000Y-74769285D01*
X131195000Y-74519285D02*
X131159285Y-74555000D01*
X131195000Y-74590714D01*
X131230714Y-74555000D01*
X131195000Y-74519285D01*
X131195000Y-74590714D01*
X131659285Y-75269285D02*
X131587857Y-75233571D01*
X131552142Y-75162142D01*
X131552142Y-74519285D01*
X132230714Y-75233571D02*
X132159285Y-75269285D01*
X132016428Y-75269285D01*
X131945000Y-75233571D01*
X131909285Y-75162142D01*
X131909285Y-74876428D01*
X131945000Y-74805000D01*
X132016428Y-74769285D01*
X132159285Y-74769285D01*
X132230714Y-74805000D01*
X132266428Y-74876428D01*
X132266428Y-74947857D01*
X131909285Y-75019285D01*
X133159285Y-74769285D02*
X133159285Y-75519285D01*
X133159285Y-74805000D02*
X133230714Y-74769285D01*
X133373571Y-74769285D01*
X133445000Y-74805000D01*
X133480714Y-74840714D01*
X133516428Y-74912142D01*
X133516428Y-75126428D01*
X133480714Y-75197857D01*
X133445000Y-75233571D01*
X133373571Y-75269285D01*
X133230714Y-75269285D01*
X133159285Y-75233571D01*
X133945000Y-75269285D02*
X133873571Y-75233571D01*
X133837857Y-75197857D01*
X133802142Y-75126428D01*
X133802142Y-74912142D01*
X133837857Y-74840714D01*
X133873571Y-74805000D01*
X133945000Y-74769285D01*
X134052142Y-74769285D01*
X134123571Y-74805000D01*
X134159285Y-74840714D01*
X134195000Y-74912142D01*
X134195000Y-75126428D01*
X134159285Y-75197857D01*
X134123571Y-75233571D01*
X134052142Y-75269285D01*
X133945000Y-75269285D01*
X134445000Y-74769285D02*
X134587857Y-75269285D01*
X134730714Y-74912142D01*
X134873571Y-75269285D01*
X135016428Y-74769285D01*
X135587857Y-75233571D02*
X135516428Y-75269285D01*
X135373571Y-75269285D01*
X135302142Y-75233571D01*
X135266428Y-75162142D01*
X135266428Y-74876428D01*
X135302142Y-74805000D01*
X135373571Y-74769285D01*
X135516428Y-74769285D01*
X135587857Y-74805000D01*
X135623571Y-74876428D01*
X135623571Y-74947857D01*
X135266428Y-75019285D01*
X135945000Y-75269285D02*
X135945000Y-74769285D01*
X135945000Y-74912142D02*
X135980714Y-74840714D01*
X136016428Y-74805000D01*
X136087857Y-74769285D01*
X136159285Y-74769285D01*
X136695000Y-75233571D02*
X136623571Y-75269285D01*
X136480714Y-75269285D01*
X136409285Y-75233571D01*
X136373571Y-75162142D01*
X136373571Y-74876428D01*
X136409285Y-74805000D01*
X136480714Y-74769285D01*
X136623571Y-74769285D01*
X136695000Y-74805000D01*
X136730714Y-74876428D01*
X136730714Y-74947857D01*
X136373571Y-75019285D01*
X137373571Y-75269285D02*
X137373571Y-74519285D01*
X137373571Y-75233571D02*
X137302142Y-75269285D01*
X137159285Y-75269285D01*
X137087857Y-75233571D01*
X137052142Y-75197857D01*
X137016428Y-75126428D01*
X137016428Y-74912142D01*
X137052142Y-74840714D01*
X137087857Y-74805000D01*
X137159285Y-74769285D01*
X137302142Y-74769285D01*
X137373571Y-74805000D01*
X138195000Y-74769285D02*
X138480714Y-74769285D01*
X138302142Y-75269285D02*
X138302142Y-74626428D01*
X138337857Y-74555000D01*
X138409285Y-74519285D01*
X138480714Y-74519285D01*
X138730714Y-75269285D02*
X138730714Y-74769285D01*
X138730714Y-74912142D02*
X138766428Y-74840714D01*
X138802142Y-74805000D01*
X138873571Y-74769285D01*
X138945000Y-74769285D01*
X139302142Y-75269285D02*
X139230714Y-75233571D01*
X139195000Y-75197857D01*
X139159285Y-75126428D01*
X139159285Y-74912142D01*
X139195000Y-74840714D01*
X139230714Y-74805000D01*
X139302142Y-74769285D01*
X139409285Y-74769285D01*
X139480714Y-74805000D01*
X139516428Y-74840714D01*
X139552142Y-74912142D01*
X139552142Y-75126428D01*
X139516428Y-75197857D01*
X139480714Y-75233571D01*
X139409285Y-75269285D01*
X139302142Y-75269285D01*
X139873571Y-75269285D02*
X139873571Y-74769285D01*
X139873571Y-74840714D02*
X139909285Y-74805000D01*
X139980714Y-74769285D01*
X140087857Y-74769285D01*
X140159285Y-74805000D01*
X140195000Y-74876428D01*
X140195000Y-75269285D01*
X140195000Y-74876428D02*
X140230714Y-74805000D01*
X140302142Y-74769285D01*
X140409285Y-74769285D01*
X140480714Y-74805000D01*
X140516428Y-74876428D01*
X140516428Y-75269285D01*
X141445000Y-74519285D02*
X141445000Y-75126428D01*
X141480714Y-75197857D01*
X141516428Y-75233571D01*
X141587857Y-75269285D01*
X141730714Y-75269285D01*
X141802142Y-75233571D01*
X141837857Y-75197857D01*
X141873571Y-75126428D01*
X141873571Y-74519285D01*
X142195000Y-75233571D02*
X142302142Y-75269285D01*
X142480714Y-75269285D01*
X142552142Y-75233571D01*
X142587857Y-75197857D01*
X142623571Y-75126428D01*
X142623571Y-75055000D01*
X142587857Y-74983571D01*
X142552142Y-74947857D01*
X142480714Y-74912142D01*
X142337857Y-74876428D01*
X142266428Y-74840714D01*
X142230714Y-74805000D01*
X142195000Y-74733571D01*
X142195000Y-74662142D01*
X142230714Y-74590714D01*
X142266428Y-74555000D01*
X142337857Y-74519285D01*
X142516428Y-74519285D01*
X142623571Y-74555000D01*
X143195000Y-74876428D02*
X143302142Y-74912142D01*
X143337857Y-74947857D01*
X143373571Y-75019285D01*
X143373571Y-75126428D01*
X143337857Y-75197857D01*
X143302142Y-75233571D01*
X143230714Y-75269285D01*
X142945000Y-75269285D01*
X142945000Y-74519285D01*
X143195000Y-74519285D01*
X143266428Y-74555000D01*
X143302142Y-74590714D01*
X143337857Y-74662142D01*
X143337857Y-74733571D01*
X143302142Y-74805000D01*
X143266428Y-74840714D01*
X143195000Y-74876428D01*
X142945000Y-74876428D01*
D10*
X144327619Y-82581523D02*
X144280000Y-82533904D01*
X144232380Y-82438666D01*
X144232380Y-82200571D01*
X144280000Y-82105333D01*
X144327619Y-82057714D01*
X144422857Y-82010095D01*
X144518095Y-82010095D01*
X144660952Y-82057714D01*
X145232380Y-82629142D01*
X145232380Y-82010095D01*
X144327619Y-81629142D02*
X144280000Y-81581523D01*
X144232380Y-81486285D01*
X144232380Y-81248190D01*
X144280000Y-81152952D01*
X144327619Y-81105333D01*
X144422857Y-81057714D01*
X144518095Y-81057714D01*
X144660952Y-81105333D01*
X145232380Y-81676761D01*
X145232380Y-81057714D01*
X144232380Y-80438666D02*
X144232380Y-80343428D01*
X144280000Y-80248190D01*
X144327619Y-80200571D01*
X144422857Y-80152952D01*
X144613333Y-80105333D01*
X144851428Y-80105333D01*
X145041904Y-80152952D01*
X145137142Y-80200571D01*
X145184761Y-80248190D01*
X145232380Y-80343428D01*
X145232380Y-80438666D01*
X145184761Y-80533904D01*
X145137142Y-80581523D01*
X145041904Y-80629142D01*
X144851428Y-80676761D01*
X144613333Y-80676761D01*
X144422857Y-80629142D01*
X144327619Y-80581523D01*
X144280000Y-80533904D01*
X144232380Y-80438666D01*
X145232380Y-79724380D02*
X145232380Y-79486285D01*
X145041904Y-79486285D01*
X144994285Y-79581523D01*
X144899047Y-79676761D01*
X144756190Y-79724380D01*
X144518095Y-79724380D01*
X144375238Y-79676761D01*
X144280000Y-79581523D01*
X144232380Y-79438666D01*
X144232380Y-79248190D01*
X144280000Y-79105333D01*
X144375238Y-79010095D01*
X144518095Y-78962476D01*
X144756190Y-78962476D01*
X144899047Y-79010095D01*
X144994285Y-79105333D01*
X145041904Y-79200571D01*
X145232380Y-79200571D01*
X145232380Y-78962476D01*
X144327619Y-127031523D02*
X144280000Y-126983904D01*
X144232380Y-126888666D01*
X144232380Y-126650571D01*
X144280000Y-126555333D01*
X144327619Y-126507714D01*
X144422857Y-126460095D01*
X144518095Y-126460095D01*
X144660952Y-126507714D01*
X145232380Y-127079142D01*
X145232380Y-126460095D01*
X144327619Y-126079142D02*
X144280000Y-126031523D01*
X144232380Y-125936285D01*
X144232380Y-125698190D01*
X144280000Y-125602952D01*
X144327619Y-125555333D01*
X144422857Y-125507714D01*
X144518095Y-125507714D01*
X144660952Y-125555333D01*
X145232380Y-126126761D01*
X145232380Y-125507714D01*
X144232380Y-124888666D02*
X144232380Y-124793428D01*
X144280000Y-124698190D01*
X144327619Y-124650571D01*
X144422857Y-124602952D01*
X144613333Y-124555333D01*
X144851428Y-124555333D01*
X145041904Y-124602952D01*
X145137142Y-124650571D01*
X145184761Y-124698190D01*
X145232380Y-124793428D01*
X145232380Y-124888666D01*
X145184761Y-124983904D01*
X145137142Y-125031523D01*
X145041904Y-125079142D01*
X144851428Y-125126761D01*
X144613333Y-125126761D01*
X144422857Y-125079142D01*
X144327619Y-125031523D01*
X144280000Y-124983904D01*
X144232380Y-124888666D01*
X145232380Y-124174380D02*
X145232380Y-123936285D01*
X145041904Y-123936285D01*
X144994285Y-124031523D01*
X144899047Y-124126761D01*
X144756190Y-124174380D01*
X144518095Y-124174380D01*
X144375238Y-124126761D01*
X144280000Y-124031523D01*
X144232380Y-123888666D01*
X144232380Y-123698190D01*
X144280000Y-123555333D01*
X144375238Y-123460095D01*
X144518095Y-123412476D01*
X144756190Y-123412476D01*
X144899047Y-123460095D01*
X144994285Y-123555333D01*
X145041904Y-123650571D01*
X145232380Y-123650571D01*
X145232380Y-123412476D01*
X134326380Y-126825142D02*
X134326380Y-126206095D01*
X134707333Y-126539428D01*
X134707333Y-126396571D01*
X134754952Y-126301333D01*
X134802571Y-126253714D01*
X134897809Y-126206095D01*
X135135904Y-126206095D01*
X135231142Y-126253714D01*
X135278761Y-126301333D01*
X135326380Y-126396571D01*
X135326380Y-126682285D01*
X135278761Y-126777523D01*
X135231142Y-126825142D01*
X134326380Y-125872761D02*
X134326380Y-125253714D01*
X134707333Y-125587047D01*
X134707333Y-125444190D01*
X134754952Y-125348952D01*
X134802571Y-125301333D01*
X134897809Y-125253714D01*
X135135904Y-125253714D01*
X135231142Y-125301333D01*
X135278761Y-125348952D01*
X135326380Y-125444190D01*
X135326380Y-125729904D01*
X135278761Y-125825142D01*
X135231142Y-125872761D01*
X134326380Y-124634666D02*
X134326380Y-124539428D01*
X134374000Y-124444190D01*
X134421619Y-124396571D01*
X134516857Y-124348952D01*
X134707333Y-124301333D01*
X134945428Y-124301333D01*
X135135904Y-124348952D01*
X135231142Y-124396571D01*
X135278761Y-124444190D01*
X135326380Y-124539428D01*
X135326380Y-124634666D01*
X135278761Y-124729904D01*
X135231142Y-124777523D01*
X135135904Y-124825142D01*
X134945428Y-124872761D01*
X134707333Y-124872761D01*
X134516857Y-124825142D01*
X134421619Y-124777523D01*
X134374000Y-124729904D01*
X134326380Y-124634666D01*
X135326380Y-123920380D02*
X135326380Y-123682285D01*
X135135904Y-123682285D01*
X135088285Y-123777523D01*
X134993047Y-123872761D01*
X134850190Y-123920380D01*
X134612095Y-123920380D01*
X134469238Y-123872761D01*
X134374000Y-123777523D01*
X134326380Y-123634666D01*
X134326380Y-123444190D01*
X134374000Y-123301333D01*
X134469238Y-123206095D01*
X134612095Y-123158476D01*
X134850190Y-123158476D01*
X134993047Y-123206095D01*
X135088285Y-123301333D01*
X135135904Y-123396571D01*
X135326380Y-123396571D01*
X135326380Y-123158476D01*
X134326380Y-82629142D02*
X134326380Y-82010095D01*
X134707333Y-82343428D01*
X134707333Y-82200571D01*
X134754952Y-82105333D01*
X134802571Y-82057714D01*
X134897809Y-82010095D01*
X135135904Y-82010095D01*
X135231142Y-82057714D01*
X135278761Y-82105333D01*
X135326380Y-82200571D01*
X135326380Y-82486285D01*
X135278761Y-82581523D01*
X135231142Y-82629142D01*
X134326380Y-81676761D02*
X134326380Y-81057714D01*
X134707333Y-81391047D01*
X134707333Y-81248190D01*
X134754952Y-81152952D01*
X134802571Y-81105333D01*
X134897809Y-81057714D01*
X135135904Y-81057714D01*
X135231142Y-81105333D01*
X135278761Y-81152952D01*
X135326380Y-81248190D01*
X135326380Y-81533904D01*
X135278761Y-81629142D01*
X135231142Y-81676761D01*
X134326380Y-80438666D02*
X134326380Y-80343428D01*
X134374000Y-80248190D01*
X134421619Y-80200571D01*
X134516857Y-80152952D01*
X134707333Y-80105333D01*
X134945428Y-80105333D01*
X135135904Y-80152952D01*
X135231142Y-80200571D01*
X135278761Y-80248190D01*
X135326380Y-80343428D01*
X135326380Y-80438666D01*
X135278761Y-80533904D01*
X135231142Y-80581523D01*
X135135904Y-80629142D01*
X134945428Y-80676761D01*
X134707333Y-80676761D01*
X134516857Y-80629142D01*
X134421619Y-80581523D01*
X134374000Y-80533904D01*
X134326380Y-80438666D01*
X135326380Y-79724380D02*
X135326380Y-79486285D01*
X135135904Y-79486285D01*
X135088285Y-79581523D01*
X134993047Y-79676761D01*
X134850190Y-79724380D01*
X134612095Y-79724380D01*
X134469238Y-79676761D01*
X134374000Y-79581523D01*
X134326380Y-79438666D01*
X134326380Y-79248190D01*
X134374000Y-79105333D01*
X134469238Y-79010095D01*
X134612095Y-78962476D01*
X134850190Y-78962476D01*
X134993047Y-79010095D01*
X135088285Y-79105333D01*
X135135904Y-79200571D01*
X135326380Y-79200571D01*
X135326380Y-78962476D01*
X95234857Y-76272380D02*
X95234857Y-75272380D01*
X95615809Y-75272380D01*
X95711047Y-75320000D01*
X95758666Y-75367619D01*
X95806285Y-75462857D01*
X95806285Y-75605714D01*
X95758666Y-75700952D01*
X95711047Y-75748571D01*
X95615809Y-75796190D01*
X95234857Y-75796190D01*
X96377714Y-76272380D02*
X96282476Y-76224761D01*
X96234857Y-76177142D01*
X96187238Y-76081904D01*
X96187238Y-75796190D01*
X96234857Y-75700952D01*
X96282476Y-75653333D01*
X96377714Y-75605714D01*
X96520571Y-75605714D01*
X96615809Y-75653333D01*
X96663428Y-75700952D01*
X96711047Y-75796190D01*
X96711047Y-76081904D01*
X96663428Y-76177142D01*
X96615809Y-76224761D01*
X96520571Y-76272380D01*
X96377714Y-76272380D01*
X97044380Y-75605714D02*
X97234857Y-76272380D01*
X97425333Y-75796190D01*
X97615809Y-76272380D01*
X97806285Y-75605714D01*
X98568190Y-76224761D02*
X98472952Y-76272380D01*
X98282476Y-76272380D01*
X98187238Y-76224761D01*
X98139619Y-76129523D01*
X98139619Y-75748571D01*
X98187238Y-75653333D01*
X98282476Y-75605714D01*
X98472952Y-75605714D01*
X98568190Y-75653333D01*
X98615809Y-75748571D01*
X98615809Y-75843809D01*
X98139619Y-75939047D01*
X99044380Y-76272380D02*
X99044380Y-75605714D01*
X99044380Y-75796190D02*
X99092000Y-75700952D01*
X99139619Y-75653333D01*
X99234857Y-75605714D01*
X99330095Y-75605714D01*
X99996761Y-75748571D02*
X100139619Y-75796190D01*
X100187238Y-75843809D01*
X100234857Y-75939047D01*
X100234857Y-76081904D01*
X100187238Y-76177142D01*
X100139619Y-76224761D01*
X100044380Y-76272380D01*
X99663428Y-76272380D01*
X99663428Y-75272380D01*
X99996761Y-75272380D01*
X100092000Y-75320000D01*
X100139619Y-75367619D01*
X100187238Y-75462857D01*
X100187238Y-75558095D01*
X100139619Y-75653333D01*
X100092000Y-75700952D01*
X99996761Y-75748571D01*
X99663428Y-75748571D01*
X100806285Y-76272380D02*
X100711047Y-76224761D01*
X100663428Y-76177142D01*
X100615809Y-76081904D01*
X100615809Y-75796190D01*
X100663428Y-75700952D01*
X100711047Y-75653333D01*
X100806285Y-75605714D01*
X100949142Y-75605714D01*
X101044380Y-75653333D01*
X101092000Y-75700952D01*
X101139619Y-75796190D01*
X101139619Y-76081904D01*
X101092000Y-76177142D01*
X101044380Y-76224761D01*
X100949142Y-76272380D01*
X100806285Y-76272380D01*
X101711047Y-76272380D02*
X101615809Y-76224761D01*
X101568190Y-76177142D01*
X101520571Y-76081904D01*
X101520571Y-75796190D01*
X101568190Y-75700952D01*
X101615809Y-75653333D01*
X101711047Y-75605714D01*
X101853904Y-75605714D01*
X101949142Y-75653333D01*
X101996761Y-75700952D01*
X102044380Y-75796190D01*
X102044380Y-76081904D01*
X101996761Y-76177142D01*
X101949142Y-76224761D01*
X101853904Y-76272380D01*
X101711047Y-76272380D01*
X102472952Y-76272380D02*
X102472952Y-75272380D01*
X102568190Y-75891428D02*
X102853904Y-76272380D01*
X102853904Y-75605714D02*
X102472952Y-75986666D01*
X103996761Y-76224761D02*
X104139619Y-76272380D01*
X104377714Y-76272380D01*
X104472952Y-76224761D01*
X104520571Y-76177142D01*
X104568190Y-76081904D01*
X104568190Y-75986666D01*
X104520571Y-75891428D01*
X104472952Y-75843809D01*
X104377714Y-75796190D01*
X104187238Y-75748571D01*
X104092000Y-75700952D01*
X104044380Y-75653333D01*
X103996761Y-75558095D01*
X103996761Y-75462857D01*
X104044380Y-75367619D01*
X104092000Y-75320000D01*
X104187238Y-75272380D01*
X104425333Y-75272380D01*
X104568190Y-75320000D01*
X105568190Y-76177142D02*
X105520571Y-76224761D01*
X105377714Y-76272380D01*
X105282476Y-76272380D01*
X105139619Y-76224761D01*
X105044380Y-76129523D01*
X104996761Y-76034285D01*
X104949142Y-75843809D01*
X104949142Y-75700952D01*
X104996761Y-75510476D01*
X105044380Y-75415238D01*
X105139619Y-75320000D01*
X105282476Y-75272380D01*
X105377714Y-75272380D01*
X105520571Y-75320000D01*
X105568190Y-75367619D01*
X105949142Y-76224761D02*
X106092000Y-76272380D01*
X106330095Y-76272380D01*
X106425333Y-76224761D01*
X106472952Y-76177142D01*
X106520571Y-76081904D01*
X106520571Y-75986666D01*
X106472952Y-75891428D01*
X106425333Y-75843809D01*
X106330095Y-75796190D01*
X106139619Y-75748571D01*
X106044380Y-75700952D01*
X105996761Y-75653333D01*
X105949142Y-75558095D01*
X105949142Y-75462857D01*
X105996761Y-75367619D01*
X106044380Y-75320000D01*
X106139619Y-75272380D01*
X106377714Y-75272380D01*
X106520571Y-75320000D01*
X106949142Y-76272380D02*
X106949142Y-75272380D01*
X98472952Y-77636666D02*
X98949142Y-77636666D01*
X98377714Y-77922380D02*
X98711047Y-76922380D01*
X99044380Y-77922380D01*
X99806285Y-77922380D02*
X99806285Y-76922380D01*
X99806285Y-77874761D02*
X99711047Y-77922380D01*
X99520571Y-77922380D01*
X99425333Y-77874761D01*
X99377714Y-77827142D01*
X99330095Y-77731904D01*
X99330095Y-77446190D01*
X99377714Y-77350952D01*
X99425333Y-77303333D01*
X99520571Y-77255714D01*
X99711047Y-77255714D01*
X99806285Y-77303333D01*
X100711047Y-77922380D02*
X100711047Y-77398571D01*
X100663428Y-77303333D01*
X100568190Y-77255714D01*
X100377714Y-77255714D01*
X100282476Y-77303333D01*
X100711047Y-77874761D02*
X100615809Y-77922380D01*
X100377714Y-77922380D01*
X100282476Y-77874761D01*
X100234857Y-77779523D01*
X100234857Y-77684285D01*
X100282476Y-77589047D01*
X100377714Y-77541428D01*
X100615809Y-77541428D01*
X100711047Y-77493809D01*
X101187238Y-77255714D02*
X101187238Y-78255714D01*
X101187238Y-77303333D02*
X101282476Y-77255714D01*
X101472952Y-77255714D01*
X101568190Y-77303333D01*
X101615809Y-77350952D01*
X101663428Y-77446190D01*
X101663428Y-77731904D01*
X101615809Y-77827142D01*
X101568190Y-77874761D01*
X101472952Y-77922380D01*
X101282476Y-77922380D01*
X101187238Y-77874761D01*
X101949142Y-77255714D02*
X102330095Y-77255714D01*
X102092000Y-76922380D02*
X102092000Y-77779523D01*
X102139619Y-77874761D01*
X102234857Y-77922380D01*
X102330095Y-77922380D01*
X103044380Y-77874761D02*
X102949142Y-77922380D01*
X102758666Y-77922380D01*
X102663428Y-77874761D01*
X102615809Y-77779523D01*
X102615809Y-77398571D01*
X102663428Y-77303333D01*
X102758666Y-77255714D01*
X102949142Y-77255714D01*
X103044380Y-77303333D01*
X103092000Y-77398571D01*
X103092000Y-77493809D01*
X102615809Y-77589047D01*
X103520571Y-77922380D02*
X103520571Y-77255714D01*
X103520571Y-77446190D02*
X103568190Y-77350952D01*
X103615809Y-77303333D01*
X103711047Y-77255714D01*
X103806285Y-77255714D01*
X96425333Y-78905714D02*
X96806285Y-78905714D01*
X96568190Y-79572380D02*
X96568190Y-78715238D01*
X96615809Y-78620000D01*
X96711047Y-78572380D01*
X96806285Y-78572380D01*
X97282476Y-79572380D02*
X97187238Y-79524761D01*
X97139619Y-79477142D01*
X97092000Y-79381904D01*
X97092000Y-79096190D01*
X97139619Y-79000952D01*
X97187238Y-78953333D01*
X97282476Y-78905714D01*
X97425333Y-78905714D01*
X97520571Y-78953333D01*
X97568190Y-79000952D01*
X97615809Y-79096190D01*
X97615809Y-79381904D01*
X97568190Y-79477142D01*
X97520571Y-79524761D01*
X97425333Y-79572380D01*
X97282476Y-79572380D01*
X98044380Y-79572380D02*
X98044380Y-78905714D01*
X98044380Y-79096190D02*
X98092000Y-79000952D01*
X98139619Y-78953333D01*
X98234857Y-78905714D01*
X98330095Y-78905714D01*
X99758666Y-79048571D02*
X99901523Y-79096190D01*
X99949142Y-79143809D01*
X99996761Y-79239047D01*
X99996761Y-79381904D01*
X99949142Y-79477142D01*
X99901523Y-79524761D01*
X99806285Y-79572380D01*
X99425333Y-79572380D01*
X99425333Y-78572380D01*
X99758666Y-78572380D01*
X99853904Y-78620000D01*
X99901523Y-78667619D01*
X99949142Y-78762857D01*
X99949142Y-78858095D01*
X99901523Y-78953333D01*
X99853904Y-79000952D01*
X99758666Y-79048571D01*
X99425333Y-79048571D01*
X100568190Y-79572380D02*
X100472952Y-79524761D01*
X100425333Y-79429523D01*
X100425333Y-78572380D01*
X101377714Y-78905714D02*
X101377714Y-79572380D01*
X100949142Y-78905714D02*
X100949142Y-79429523D01*
X100996761Y-79524761D01*
X101092000Y-79572380D01*
X101234857Y-79572380D01*
X101330095Y-79524761D01*
X101377714Y-79477142D01*
X102234857Y-79524761D02*
X102139619Y-79572380D01*
X101949142Y-79572380D01*
X101853904Y-79524761D01*
X101806285Y-79429523D01*
X101806285Y-79048571D01*
X101853904Y-78953333D01*
X101949142Y-78905714D01*
X102139619Y-78905714D01*
X102234857Y-78953333D01*
X102282476Y-79048571D01*
X102282476Y-79143809D01*
X101806285Y-79239047D01*
X102663428Y-79524761D02*
X102806285Y-79572380D01*
X103044380Y-79572380D01*
X103139619Y-79524761D01*
X103187238Y-79477142D01*
X103234857Y-79381904D01*
X103234857Y-79286666D01*
X103187238Y-79191428D01*
X103139619Y-79143809D01*
X103044380Y-79096190D01*
X102853904Y-79048571D01*
X102758666Y-79000952D01*
X102711047Y-78953333D01*
X102663428Y-78858095D01*
X102663428Y-78762857D01*
X102711047Y-78667619D01*
X102758666Y-78620000D01*
X102853904Y-78572380D01*
X103092000Y-78572380D01*
X103234857Y-78620000D01*
X104234857Y-79477142D02*
X104187238Y-79524761D01*
X104044380Y-79572380D01*
X103949142Y-79572380D01*
X103806285Y-79524761D01*
X103711047Y-79429523D01*
X103663428Y-79334285D01*
X103615809Y-79143809D01*
X103615809Y-79000952D01*
X103663428Y-78810476D01*
X103711047Y-78715238D01*
X103806285Y-78620000D01*
X103949142Y-78572380D01*
X104044380Y-78572380D01*
X104187238Y-78620000D01*
X104234857Y-78667619D01*
X104615809Y-79524761D02*
X104758666Y-79572380D01*
X104996761Y-79572380D01*
X105092000Y-79524761D01*
X105139619Y-79477142D01*
X105187238Y-79381904D01*
X105187238Y-79286666D01*
X105139619Y-79191428D01*
X105092000Y-79143809D01*
X104996761Y-79096190D01*
X104806285Y-79048571D01*
X104711047Y-79000952D01*
X104663428Y-78953333D01*
X104615809Y-78858095D01*
X104615809Y-78762857D01*
X104663428Y-78667619D01*
X104711047Y-78620000D01*
X104806285Y-78572380D01*
X105044380Y-78572380D01*
X105187238Y-78620000D01*
X105615809Y-79572380D02*
X105615809Y-78572380D01*
X95639380Y-117292095D02*
X94639380Y-117292095D01*
X95353666Y-116958761D01*
X94639380Y-116625428D01*
X95639380Y-116625428D01*
X95639380Y-116149238D02*
X94972714Y-116149238D01*
X94639380Y-116149238D02*
X94687000Y-116196857D01*
X94734619Y-116149238D01*
X94687000Y-116101619D01*
X94639380Y-116149238D01*
X94734619Y-116149238D01*
X95591761Y-115244476D02*
X95639380Y-115339714D01*
X95639380Y-115530190D01*
X95591761Y-115625428D01*
X95544142Y-115673047D01*
X95448904Y-115720666D01*
X95163190Y-115720666D01*
X95067952Y-115673047D01*
X95020333Y-115625428D01*
X94972714Y-115530190D01*
X94972714Y-115339714D01*
X95020333Y-115244476D01*
X95639380Y-114815904D02*
X94972714Y-114815904D01*
X95163190Y-114815904D02*
X95067952Y-114768285D01*
X95020333Y-114720666D01*
X94972714Y-114625428D01*
X94972714Y-114530190D01*
X95639380Y-114054000D02*
X95591761Y-114149238D01*
X95544142Y-114196857D01*
X95448904Y-114244476D01*
X95163190Y-114244476D01*
X95067952Y-114196857D01*
X95020333Y-114149238D01*
X94972714Y-114054000D01*
X94972714Y-113911142D01*
X95020333Y-113815904D01*
X95067952Y-113768285D01*
X95163190Y-113720666D01*
X95448904Y-113720666D01*
X95544142Y-113768285D01*
X95591761Y-113815904D01*
X95639380Y-113911142D01*
X95639380Y-114054000D01*
X95591761Y-113339714D02*
X95639380Y-113196857D01*
X95639380Y-112958761D01*
X95591761Y-112863523D01*
X95544142Y-112815904D01*
X95448904Y-112768285D01*
X95353666Y-112768285D01*
X95258428Y-112815904D01*
X95210809Y-112863523D01*
X95163190Y-112958761D01*
X95115571Y-113149238D01*
X95067952Y-113244476D01*
X95020333Y-113292095D01*
X94925095Y-113339714D01*
X94829857Y-113339714D01*
X94734619Y-113292095D01*
X94687000Y-113244476D01*
X94639380Y-113149238D01*
X94639380Y-112911142D01*
X94687000Y-112768285D01*
X95639380Y-112339714D02*
X94639380Y-112339714D01*
X94639380Y-112101619D01*
X94687000Y-111958761D01*
X94782238Y-111863523D01*
X94877476Y-111815904D01*
X95067952Y-111768285D01*
X95210809Y-111768285D01*
X95401285Y-111815904D01*
X95496523Y-111863523D01*
X95591761Y-111958761D01*
X95639380Y-112101619D01*
X95639380Y-112339714D01*
X97194142Y-115458761D02*
X97241761Y-115506380D01*
X97289380Y-115649238D01*
X97289380Y-115744476D01*
X97241761Y-115887333D01*
X97146523Y-115982571D01*
X97051285Y-116030190D01*
X96860809Y-116077809D01*
X96717952Y-116077809D01*
X96527476Y-116030190D01*
X96432238Y-115982571D01*
X96337000Y-115887333D01*
X96289380Y-115744476D01*
X96289380Y-115649238D01*
X96337000Y-115506380D01*
X96384619Y-115458761D01*
X97289380Y-114601619D02*
X96765571Y-114601619D01*
X96670333Y-114649238D01*
X96622714Y-114744476D01*
X96622714Y-114934952D01*
X96670333Y-115030190D01*
X97241761Y-114601619D02*
X97289380Y-114696857D01*
X97289380Y-114934952D01*
X97241761Y-115030190D01*
X97146523Y-115077809D01*
X97051285Y-115077809D01*
X96956047Y-115030190D01*
X96908428Y-114934952D01*
X96908428Y-114696857D01*
X96860809Y-114601619D01*
X97289380Y-114125428D02*
X96622714Y-114125428D01*
X96813190Y-114125428D02*
X96717952Y-114077809D01*
X96670333Y-114030190D01*
X96622714Y-113934952D01*
X96622714Y-113839714D01*
X97289380Y-113077809D02*
X96289380Y-113077809D01*
X97241761Y-113077809D02*
X97289380Y-113173047D01*
X97289380Y-113363523D01*
X97241761Y-113458761D01*
X97194142Y-113506380D01*
X97098904Y-113554000D01*
X96813190Y-113554000D01*
X96717952Y-113506380D01*
X96670333Y-113458761D01*
X96622714Y-113363523D01*
X96622714Y-113173047D01*
X96670333Y-113077809D01*
X95734761Y-96147380D02*
X95734761Y-95147380D01*
X95972857Y-95147380D01*
X96115714Y-95195000D01*
X96210952Y-95290238D01*
X96258571Y-95385476D01*
X96306190Y-95575952D01*
X96306190Y-95718809D01*
X96258571Y-95909285D01*
X96210952Y-96004523D01*
X96115714Y-96099761D01*
X95972857Y-96147380D01*
X95734761Y-96147380D01*
X97115714Y-96099761D02*
X97020476Y-96147380D01*
X96830000Y-96147380D01*
X96734761Y-96099761D01*
X96687142Y-96004523D01*
X96687142Y-95623571D01*
X96734761Y-95528333D01*
X96830000Y-95480714D01*
X97020476Y-95480714D01*
X97115714Y-95528333D01*
X97163333Y-95623571D01*
X97163333Y-95718809D01*
X96687142Y-95814047D01*
X97591904Y-96147380D02*
X97591904Y-95147380D01*
X97591904Y-95528333D02*
X97687142Y-95480714D01*
X97877619Y-95480714D01*
X97972857Y-95528333D01*
X98020476Y-95575952D01*
X98068095Y-95671190D01*
X98068095Y-95956904D01*
X98020476Y-96052142D01*
X97972857Y-96099761D01*
X97877619Y-96147380D01*
X97687142Y-96147380D01*
X97591904Y-96099761D01*
X98925238Y-95480714D02*
X98925238Y-96147380D01*
X98496666Y-95480714D02*
X98496666Y-96004523D01*
X98544285Y-96099761D01*
X98639523Y-96147380D01*
X98782380Y-96147380D01*
X98877619Y-96099761D01*
X98925238Y-96052142D01*
X99830000Y-95480714D02*
X99830000Y-96290238D01*
X99782380Y-96385476D01*
X99734761Y-96433095D01*
X99639523Y-96480714D01*
X99496666Y-96480714D01*
X99401428Y-96433095D01*
X99830000Y-96099761D02*
X99734761Y-96147380D01*
X99544285Y-96147380D01*
X99449047Y-96099761D01*
X99401428Y-96052142D01*
X99353809Y-95956904D01*
X99353809Y-95671190D01*
X99401428Y-95575952D01*
X99449047Y-95528333D01*
X99544285Y-95480714D01*
X99734761Y-95480714D01*
X99830000Y-95528333D01*
X101020476Y-96099761D02*
X101163333Y-96147380D01*
X101401428Y-96147380D01*
X101496666Y-96099761D01*
X101544285Y-96052142D01*
X101591904Y-95956904D01*
X101591904Y-95861666D01*
X101544285Y-95766428D01*
X101496666Y-95718809D01*
X101401428Y-95671190D01*
X101210952Y-95623571D01*
X101115714Y-95575952D01*
X101068095Y-95528333D01*
X101020476Y-95433095D01*
X101020476Y-95337857D01*
X101068095Y-95242619D01*
X101115714Y-95195000D01*
X101210952Y-95147380D01*
X101449047Y-95147380D01*
X101591904Y-95195000D01*
X102401428Y-96099761D02*
X102306190Y-96147380D01*
X102115714Y-96147380D01*
X102020476Y-96099761D01*
X101972857Y-96004523D01*
X101972857Y-95623571D01*
X102020476Y-95528333D01*
X102115714Y-95480714D01*
X102306190Y-95480714D01*
X102401428Y-95528333D01*
X102449047Y-95623571D01*
X102449047Y-95718809D01*
X101972857Y-95814047D01*
X102877619Y-96147380D02*
X102877619Y-95480714D01*
X102877619Y-95671190D02*
X102925238Y-95575952D01*
X102972857Y-95528333D01*
X103068095Y-95480714D01*
X103163333Y-95480714D01*
X103496666Y-96147380D02*
X103496666Y-95480714D01*
X103496666Y-95147380D02*
X103449047Y-95195000D01*
X103496666Y-95242619D01*
X103544285Y-95195000D01*
X103496666Y-95147380D01*
X103496666Y-95242619D01*
X104401428Y-96147380D02*
X104401428Y-95623571D01*
X104353809Y-95528333D01*
X104258571Y-95480714D01*
X104068095Y-95480714D01*
X103972857Y-95528333D01*
X104401428Y-96099761D02*
X104306190Y-96147380D01*
X104068095Y-96147380D01*
X103972857Y-96099761D01*
X103925238Y-96004523D01*
X103925238Y-95909285D01*
X103972857Y-95814047D01*
X104068095Y-95766428D01*
X104306190Y-95766428D01*
X104401428Y-95718809D01*
X105020476Y-96147380D02*
X104925238Y-96099761D01*
X104877619Y-96004523D01*
X104877619Y-95147380D01*
X97377619Y-97702142D02*
X97330000Y-97749761D01*
X97187142Y-97797380D01*
X97091904Y-97797380D01*
X96949047Y-97749761D01*
X96853809Y-97654523D01*
X96806190Y-97559285D01*
X96758571Y-97368809D01*
X96758571Y-97225952D01*
X96806190Y-97035476D01*
X96853809Y-96940238D01*
X96949047Y-96845000D01*
X97091904Y-96797380D01*
X97187142Y-96797380D01*
X97330000Y-96845000D01*
X97377619Y-96892619D01*
X97949047Y-97797380D02*
X97853809Y-97749761D01*
X97806190Y-97702142D01*
X97758571Y-97606904D01*
X97758571Y-97321190D01*
X97806190Y-97225952D01*
X97853809Y-97178333D01*
X97949047Y-97130714D01*
X98091904Y-97130714D01*
X98187142Y-97178333D01*
X98234761Y-97225952D01*
X98282380Y-97321190D01*
X98282380Y-97606904D01*
X98234761Y-97702142D01*
X98187142Y-97749761D01*
X98091904Y-97797380D01*
X97949047Y-97797380D01*
X98710952Y-97130714D02*
X98710952Y-97797380D01*
X98710952Y-97225952D02*
X98758571Y-97178333D01*
X98853809Y-97130714D01*
X98996666Y-97130714D01*
X99091904Y-97178333D01*
X99139523Y-97273571D01*
X99139523Y-97797380D01*
X99615714Y-97130714D02*
X99615714Y-97797380D01*
X99615714Y-97225952D02*
X99663333Y-97178333D01*
X99758571Y-97130714D01*
X99901428Y-97130714D01*
X99996666Y-97178333D01*
X100044285Y-97273571D01*
X100044285Y-97797380D01*
X100901428Y-97749761D02*
X100806190Y-97797380D01*
X100615714Y-97797380D01*
X100520476Y-97749761D01*
X100472857Y-97654523D01*
X100472857Y-97273571D01*
X100520476Y-97178333D01*
X100615714Y-97130714D01*
X100806190Y-97130714D01*
X100901428Y-97178333D01*
X100949047Y-97273571D01*
X100949047Y-97368809D01*
X100472857Y-97464047D01*
X101806190Y-97749761D02*
X101710952Y-97797380D01*
X101520476Y-97797380D01*
X101425238Y-97749761D01*
X101377619Y-97702142D01*
X101330000Y-97606904D01*
X101330000Y-97321190D01*
X101377619Y-97225952D01*
X101425238Y-97178333D01*
X101520476Y-97130714D01*
X101710952Y-97130714D01*
X101806190Y-97178333D01*
X102091904Y-97130714D02*
X102472857Y-97130714D01*
X102234761Y-96797380D02*
X102234761Y-97654523D01*
X102282380Y-97749761D01*
X102377619Y-97797380D01*
X102472857Y-97797380D01*
X102949047Y-97797380D02*
X102853809Y-97749761D01*
X102806190Y-97702142D01*
X102758571Y-97606904D01*
X102758571Y-97321190D01*
X102806190Y-97225952D01*
X102853809Y-97178333D01*
X102949047Y-97130714D01*
X103091904Y-97130714D01*
X103187142Y-97178333D01*
X103234761Y-97225952D01*
X103282380Y-97321190D01*
X103282380Y-97606904D01*
X103234761Y-97702142D01*
X103187142Y-97749761D01*
X103091904Y-97797380D01*
X102949047Y-97797380D01*
X103710952Y-97797380D02*
X103710952Y-97130714D01*
X103710952Y-97321190D02*
X103758571Y-97225952D01*
X103806190Y-97178333D01*
X103901428Y-97130714D01*
X103996666Y-97130714D01*
X105650357Y-91654380D02*
X106269404Y-91654380D01*
X105936071Y-92035333D01*
X106078928Y-92035333D01*
X106174166Y-92082952D01*
X106221785Y-92130571D01*
X106269404Y-92225809D01*
X106269404Y-92463904D01*
X106221785Y-92559142D01*
X106174166Y-92606761D01*
X106078928Y-92654380D01*
X105793214Y-92654380D01*
X105697976Y-92606761D01*
X105650357Y-92559142D01*
X106555119Y-91654380D02*
X106888452Y-92654380D01*
X107221785Y-91654380D01*
X107459880Y-91654380D02*
X108078928Y-91654380D01*
X107745595Y-92035333D01*
X107888452Y-92035333D01*
X107983690Y-92082952D01*
X108031309Y-92130571D01*
X108078928Y-92225809D01*
X108078928Y-92463904D01*
X108031309Y-92559142D01*
X107983690Y-92606761D01*
X107888452Y-92654380D01*
X107602738Y-92654380D01*
X107507500Y-92606761D01*
X107459880Y-92559142D01*
X106269404Y-89416000D02*
X106174166Y-89368380D01*
X106031309Y-89368380D01*
X105888452Y-89416000D01*
X105793214Y-89511238D01*
X105745595Y-89606476D01*
X105697976Y-89796952D01*
X105697976Y-89939809D01*
X105745595Y-90130285D01*
X105793214Y-90225523D01*
X105888452Y-90320761D01*
X106031309Y-90368380D01*
X106126547Y-90368380D01*
X106269404Y-90320761D01*
X106317023Y-90273142D01*
X106317023Y-89939809D01*
X106126547Y-89939809D01*
X106745595Y-90368380D02*
X106745595Y-89368380D01*
X107317023Y-90368380D01*
X107317023Y-89368380D01*
X107793214Y-90368380D02*
X107793214Y-89368380D01*
X108031309Y-89368380D01*
X108174166Y-89416000D01*
X108269404Y-89511238D01*
X108317023Y-89606476D01*
X108364642Y-89796952D01*
X108364642Y-89939809D01*
X108317023Y-90130285D01*
X108269404Y-90225523D01*
X108174166Y-90320761D01*
X108031309Y-90368380D01*
X107793214Y-90368380D01*
X105602738Y-86574380D02*
X106174166Y-86574380D01*
X105888452Y-87574380D02*
X105888452Y-86574380D01*
X106412261Y-86574380D02*
X107078928Y-87574380D01*
X107078928Y-86574380D02*
X106412261Y-87574380D01*
X106317023Y-85034380D02*
X105983690Y-84558190D01*
X105745595Y-85034380D02*
X105745595Y-84034380D01*
X106126547Y-84034380D01*
X106221785Y-84082000D01*
X106269404Y-84129619D01*
X106317023Y-84224857D01*
X106317023Y-84367714D01*
X106269404Y-84462952D01*
X106221785Y-84510571D01*
X106126547Y-84558190D01*
X105745595Y-84558190D01*
X106650357Y-84034380D02*
X107317023Y-85034380D01*
X107317023Y-84034380D02*
X106650357Y-85034380D01*
D11*
X125797857Y-70498428D02*
X125905000Y-70534142D01*
X125940714Y-70569857D01*
X125976428Y-70641285D01*
X125976428Y-70748428D01*
X125940714Y-70819857D01*
X125905000Y-70855571D01*
X125833571Y-70891285D01*
X125547857Y-70891285D01*
X125547857Y-70141285D01*
X125797857Y-70141285D01*
X125869285Y-70177000D01*
X125905000Y-70212714D01*
X125940714Y-70284142D01*
X125940714Y-70355571D01*
X125905000Y-70427000D01*
X125869285Y-70462714D01*
X125797857Y-70498428D01*
X125547857Y-70498428D01*
X126297857Y-70891285D02*
X126297857Y-70391285D01*
X126297857Y-70534142D02*
X126333571Y-70462714D01*
X126369285Y-70427000D01*
X126440714Y-70391285D01*
X126512142Y-70391285D01*
X126762142Y-70891285D02*
X126762142Y-70391285D01*
X126762142Y-70141285D02*
X126726428Y-70177000D01*
X126762142Y-70212714D01*
X126797857Y-70177000D01*
X126762142Y-70141285D01*
X126762142Y-70212714D01*
X127440714Y-70891285D02*
X127440714Y-70141285D01*
X127440714Y-70855571D02*
X127369285Y-70891285D01*
X127226428Y-70891285D01*
X127155000Y-70855571D01*
X127119285Y-70819857D01*
X127083571Y-70748428D01*
X127083571Y-70534142D01*
X127119285Y-70462714D01*
X127155000Y-70427000D01*
X127226428Y-70391285D01*
X127369285Y-70391285D01*
X127440714Y-70427000D01*
X128119285Y-70391285D02*
X128119285Y-70998428D01*
X128083571Y-71069857D01*
X128047857Y-71105571D01*
X127976428Y-71141285D01*
X127869285Y-71141285D01*
X127797857Y-71105571D01*
X128119285Y-70855571D02*
X128047857Y-70891285D01*
X127905000Y-70891285D01*
X127833571Y-70855571D01*
X127797857Y-70819857D01*
X127762142Y-70748428D01*
X127762142Y-70534142D01*
X127797857Y-70462714D01*
X127833571Y-70427000D01*
X127905000Y-70391285D01*
X128047857Y-70391285D01*
X128119285Y-70427000D01*
X128762142Y-70855571D02*
X128690714Y-70891285D01*
X128547857Y-70891285D01*
X128476428Y-70855571D01*
X128440714Y-70784142D01*
X128440714Y-70498428D01*
X128476428Y-70427000D01*
X128547857Y-70391285D01*
X128690714Y-70391285D01*
X128762142Y-70427000D01*
X128797857Y-70498428D01*
X128797857Y-70569857D01*
X128440714Y-70641285D01*
X129690714Y-70605571D02*
X130262142Y-70605571D01*
X129976428Y-70891285D02*
X129976428Y-70319857D01*
X130976428Y-70141285D02*
X130619285Y-70141285D01*
X130583571Y-70498428D01*
X130619285Y-70462714D01*
X130690714Y-70427000D01*
X130869285Y-70427000D01*
X130940714Y-70462714D01*
X130976428Y-70498428D01*
X131012142Y-70569857D01*
X131012142Y-70748428D01*
X130976428Y-70819857D01*
X130940714Y-70855571D01*
X130869285Y-70891285D01*
X130690714Y-70891285D01*
X130619285Y-70855571D01*
X130583571Y-70819857D01*
X131226428Y-70141285D02*
X131476428Y-70891285D01*
X131726428Y-70141285D01*
X132869285Y-70891285D02*
X132869285Y-70498428D01*
X132833571Y-70427000D01*
X132762142Y-70391285D01*
X132619285Y-70391285D01*
X132547857Y-70427000D01*
X132869285Y-70855571D02*
X132797857Y-70891285D01*
X132619285Y-70891285D01*
X132547857Y-70855571D01*
X132512142Y-70784142D01*
X132512142Y-70712714D01*
X132547857Y-70641285D01*
X132619285Y-70605571D01*
X132797857Y-70605571D01*
X132869285Y-70569857D01*
X133226428Y-70391285D02*
X133226428Y-70891285D01*
X133226428Y-70462714D02*
X133262142Y-70427000D01*
X133333571Y-70391285D01*
X133440714Y-70391285D01*
X133512142Y-70427000D01*
X133547857Y-70498428D01*
X133547857Y-70891285D01*
X134226428Y-70891285D02*
X134226428Y-70141285D01*
X134226428Y-70855571D02*
X134155000Y-70891285D01*
X134012142Y-70891285D01*
X133940714Y-70855571D01*
X133905000Y-70819857D01*
X133869285Y-70748428D01*
X133869285Y-70534142D01*
X133905000Y-70462714D01*
X133940714Y-70427000D01*
X134012142Y-70391285D01*
X134155000Y-70391285D01*
X134226428Y-70427000D01*
X135047857Y-70141285D02*
X135476428Y-70141285D01*
X135262142Y-70891285D02*
X135262142Y-70141285D01*
X135726428Y-70498428D02*
X135976428Y-70498428D01*
X136083571Y-70891285D02*
X135726428Y-70891285D01*
X135726428Y-70141285D01*
X136083571Y-70141285D01*
X136833571Y-70891285D02*
X136583571Y-70534142D01*
X136405000Y-70891285D02*
X136405000Y-70141285D01*
X136690714Y-70141285D01*
X136762142Y-70177000D01*
X136797857Y-70212714D01*
X136833571Y-70284142D01*
X136833571Y-70391285D01*
X136797857Y-70462714D01*
X136762142Y-70498428D01*
X136690714Y-70534142D01*
X136405000Y-70534142D01*
X137155000Y-70891285D02*
X137155000Y-70141285D01*
X137405000Y-70677000D01*
X137655000Y-70141285D01*
X137655000Y-70891285D01*
X138583571Y-70891285D02*
X138583571Y-70141285D01*
X138869285Y-70141285D01*
X138940714Y-70177000D01*
X138976428Y-70212714D01*
X139012142Y-70284142D01*
X139012142Y-70391285D01*
X138976428Y-70462714D01*
X138940714Y-70498428D01*
X138869285Y-70534142D01*
X138583571Y-70534142D01*
X139476428Y-70141285D02*
X139619285Y-70141285D01*
X139690714Y-70177000D01*
X139762142Y-70248428D01*
X139797857Y-70391285D01*
X139797857Y-70641285D01*
X139762142Y-70784142D01*
X139690714Y-70855571D01*
X139619285Y-70891285D01*
X139476428Y-70891285D01*
X139405000Y-70855571D01*
X139333571Y-70784142D01*
X139297857Y-70641285D01*
X139297857Y-70391285D01*
X139333571Y-70248428D01*
X139405000Y-70177000D01*
X139476428Y-70141285D01*
X140047857Y-70141285D02*
X140226428Y-70891285D01*
X140369285Y-70355571D01*
X140512142Y-70891285D01*
X140690714Y-70141285D01*
X140976428Y-70498428D02*
X141226428Y-70498428D01*
X141333571Y-70891285D02*
X140976428Y-70891285D01*
X140976428Y-70141285D01*
X141333571Y-70141285D01*
X142083571Y-70891285D02*
X141833571Y-70534142D01*
X141655000Y-70891285D02*
X141655000Y-70141285D01*
X141940714Y-70141285D01*
X142012142Y-70177000D01*
X142047857Y-70212714D01*
X142083571Y-70284142D01*
X142083571Y-70391285D01*
X142047857Y-70462714D01*
X142012142Y-70498428D01*
X141940714Y-70534142D01*
X141655000Y-70534142D01*
X142976428Y-70605571D02*
X143547857Y-70605571D01*
X143905000Y-70391285D02*
X144476428Y-70605571D01*
X143905000Y-70819857D01*
D10*
X145502380Y-112458095D02*
X145502380Y-111886666D01*
X146502380Y-112172380D02*
X145502380Y-112172380D01*
X145978571Y-111553333D02*
X145978571Y-111220000D01*
X146502380Y-111077142D02*
X146502380Y-111553333D01*
X145502380Y-111553333D01*
X145502380Y-111077142D01*
X146502380Y-110077142D02*
X146026190Y-110410476D01*
X146502380Y-110648571D02*
X145502380Y-110648571D01*
X145502380Y-110267619D01*
X145550000Y-110172380D01*
X145597619Y-110124761D01*
X145692857Y-110077142D01*
X145835714Y-110077142D01*
X145930952Y-110124761D01*
X145978571Y-110172380D01*
X146026190Y-110267619D01*
X146026190Y-110648571D01*
X146502380Y-109648571D02*
X145502380Y-109648571D01*
X146216666Y-109315238D01*
X145502380Y-108981904D01*
X146502380Y-108981904D01*
X145502380Y-107553333D02*
X145502380Y-107362857D01*
X145550000Y-107267619D01*
X145645238Y-107172380D01*
X145835714Y-107124761D01*
X146169047Y-107124761D01*
X146359523Y-107172380D01*
X146454761Y-107267619D01*
X146502380Y-107362857D01*
X146502380Y-107553333D01*
X146454761Y-107648571D01*
X146359523Y-107743809D01*
X146169047Y-107791428D01*
X145835714Y-107791428D01*
X145645238Y-107743809D01*
X145550000Y-107648571D01*
X145502380Y-107553333D01*
X146502380Y-106696190D02*
X145502380Y-106696190D01*
X146502380Y-106124761D01*
X145502380Y-106124761D01*
X133056380Y-112712095D02*
X133056380Y-112140666D01*
X134056380Y-112426380D02*
X133056380Y-112426380D01*
X133532571Y-111807333D02*
X133532571Y-111474000D01*
X134056380Y-111331142D02*
X134056380Y-111807333D01*
X133056380Y-111807333D01*
X133056380Y-111331142D01*
X134056380Y-110331142D02*
X133580190Y-110664476D01*
X134056380Y-110902571D02*
X133056380Y-110902571D01*
X133056380Y-110521619D01*
X133104000Y-110426380D01*
X133151619Y-110378761D01*
X133246857Y-110331142D01*
X133389714Y-110331142D01*
X133484952Y-110378761D01*
X133532571Y-110426380D01*
X133580190Y-110521619D01*
X133580190Y-110902571D01*
X134056380Y-109902571D02*
X133056380Y-109902571D01*
X133770666Y-109569238D01*
X133056380Y-109235904D01*
X134056380Y-109235904D01*
X133056380Y-107807333D02*
X133056380Y-107616857D01*
X133104000Y-107521619D01*
X133199238Y-107426380D01*
X133389714Y-107378761D01*
X133723047Y-107378761D01*
X133913523Y-107426380D01*
X134008761Y-107521619D01*
X134056380Y-107616857D01*
X134056380Y-107807333D01*
X134008761Y-107902571D01*
X133913523Y-107997809D01*
X133723047Y-108045428D01*
X133389714Y-108045428D01*
X133199238Y-107997809D01*
X133104000Y-107902571D01*
X133056380Y-107807333D01*
X134056380Y-106950190D02*
X133056380Y-106950190D01*
X134056380Y-106378761D01*
X133056380Y-106378761D01*
X158789714Y-128665809D02*
X159456380Y-128665809D01*
X158408761Y-128903904D02*
X159123047Y-129142000D01*
X159123047Y-128522952D01*
X158456380Y-127951523D02*
X158456380Y-127856285D01*
X158504000Y-127761047D01*
X158551619Y-127713428D01*
X158646857Y-127665809D01*
X158837333Y-127618190D01*
X159075428Y-127618190D01*
X159265904Y-127665809D01*
X159361142Y-127713428D01*
X159408761Y-127761047D01*
X159456380Y-127856285D01*
X159456380Y-127951523D01*
X159408761Y-128046761D01*
X159361142Y-128094380D01*
X159265904Y-128142000D01*
X159075428Y-128189619D01*
X158837333Y-128189619D01*
X158646857Y-128142000D01*
X158551619Y-128094380D01*
X158504000Y-128046761D01*
X158456380Y-127951523D01*
X159075428Y-127189619D02*
X159075428Y-126427714D01*
X159456380Y-125951523D02*
X158456380Y-125951523D01*
X158456380Y-125570571D01*
X158504000Y-125475333D01*
X158551619Y-125427714D01*
X158646857Y-125380095D01*
X158789714Y-125380095D01*
X158884952Y-125427714D01*
X158932571Y-125475333D01*
X158980190Y-125570571D01*
X158980190Y-125951523D01*
X159456380Y-124951523D02*
X158789714Y-124951523D01*
X158456380Y-124951523D02*
X158504000Y-124999142D01*
X158551619Y-124951523D01*
X158504000Y-124903904D01*
X158456380Y-124951523D01*
X158551619Y-124951523D01*
X158789714Y-124475333D02*
X159456380Y-124475333D01*
X158884952Y-124475333D02*
X158837333Y-124427714D01*
X158789714Y-124332476D01*
X158789714Y-124189619D01*
X158837333Y-124094380D01*
X158932571Y-124046761D01*
X159456380Y-124046761D01*
X159456380Y-122808666D02*
X158456380Y-122808666D01*
X158456380Y-122427714D01*
X158504000Y-122332476D01*
X158551619Y-122284857D01*
X158646857Y-122237238D01*
X158789714Y-122237238D01*
X158884952Y-122284857D01*
X158932571Y-122332476D01*
X158980190Y-122427714D01*
X158980190Y-122808666D01*
X159456380Y-121665809D02*
X159408761Y-121761047D01*
X159361142Y-121808666D01*
X159265904Y-121856285D01*
X158980190Y-121856285D01*
X158884952Y-121808666D01*
X158837333Y-121761047D01*
X158789714Y-121665809D01*
X158789714Y-121522952D01*
X158837333Y-121427714D01*
X158884952Y-121380095D01*
X158980190Y-121332476D01*
X159265904Y-121332476D01*
X159361142Y-121380095D01*
X159408761Y-121427714D01*
X159456380Y-121522952D01*
X159456380Y-121665809D01*
X158789714Y-120999142D02*
X159456380Y-120808666D01*
X158980190Y-120618190D01*
X159456380Y-120427714D01*
X158789714Y-120237238D01*
X159408761Y-119475333D02*
X159456380Y-119570571D01*
X159456380Y-119761047D01*
X159408761Y-119856285D01*
X159313523Y-119903904D01*
X158932571Y-119903904D01*
X158837333Y-119856285D01*
X158789714Y-119761047D01*
X158789714Y-119570571D01*
X158837333Y-119475333D01*
X158932571Y-119427714D01*
X159027809Y-119427714D01*
X159123047Y-119903904D01*
X159456380Y-118999142D02*
X158789714Y-118999142D01*
X158980190Y-118999142D02*
X158884952Y-118951523D01*
X158837333Y-118903904D01*
X158789714Y-118808666D01*
X158789714Y-118713428D01*
X159456380Y-118380095D02*
X158456380Y-118380095D01*
X158837333Y-118380095D02*
X158789714Y-118284857D01*
X158789714Y-118094380D01*
X158837333Y-117999142D01*
X158884952Y-117951523D01*
X158980190Y-117903904D01*
X159265904Y-117903904D01*
X159361142Y-117951523D01*
X159408761Y-117999142D01*
X159456380Y-118094380D01*
X159456380Y-118284857D01*
X159408761Y-118380095D01*
X159456380Y-117332476D02*
X159408761Y-117427714D01*
X159361142Y-117475333D01*
X159265904Y-117522952D01*
X158980190Y-117522952D01*
X158884952Y-117475333D01*
X158837333Y-117427714D01*
X158789714Y-117332476D01*
X158789714Y-117189619D01*
X158837333Y-117094380D01*
X158884952Y-117046761D01*
X158980190Y-116999142D01*
X159265904Y-116999142D01*
X159361142Y-117046761D01*
X159408761Y-117094380D01*
X159456380Y-117189619D01*
X159456380Y-117332476D01*
X159456380Y-116427714D02*
X159408761Y-116522952D01*
X159361142Y-116570571D01*
X159265904Y-116618190D01*
X158980190Y-116618190D01*
X158884952Y-116570571D01*
X158837333Y-116522952D01*
X158789714Y-116427714D01*
X158789714Y-116284857D01*
X158837333Y-116189619D01*
X158884952Y-116142000D01*
X158980190Y-116094380D01*
X159265904Y-116094380D01*
X159361142Y-116142000D01*
X159408761Y-116189619D01*
X159456380Y-116284857D01*
X159456380Y-116427714D01*
X159456380Y-115665809D02*
X158456380Y-115665809D01*
X159075428Y-115570571D02*
X159456380Y-115284857D01*
X158789714Y-115284857D02*
X159170666Y-115665809D01*
X159408761Y-114142000D02*
X159456380Y-113999142D01*
X159456380Y-113761047D01*
X159408761Y-113665809D01*
X159361142Y-113618190D01*
X159265904Y-113570571D01*
X159170666Y-113570571D01*
X159075428Y-113618190D01*
X159027809Y-113665809D01*
X158980190Y-113761047D01*
X158932571Y-113951523D01*
X158884952Y-114046761D01*
X158837333Y-114094380D01*
X158742095Y-114142000D01*
X158646857Y-114142000D01*
X158551619Y-114094380D01*
X158504000Y-114046761D01*
X158456380Y-113951523D01*
X158456380Y-113713428D01*
X158504000Y-113570571D01*
X159361142Y-112570571D02*
X159408761Y-112618190D01*
X159456380Y-112761047D01*
X159456380Y-112856285D01*
X159408761Y-112999142D01*
X159313523Y-113094380D01*
X159218285Y-113142000D01*
X159027809Y-113189619D01*
X158884952Y-113189619D01*
X158694476Y-113142000D01*
X158599238Y-113094380D01*
X158504000Y-112999142D01*
X158456380Y-112856285D01*
X158456380Y-112761047D01*
X158504000Y-112618190D01*
X158551619Y-112570571D01*
X159408761Y-112189619D02*
X159456380Y-112046761D01*
X159456380Y-111808666D01*
X159408761Y-111713428D01*
X159361142Y-111665809D01*
X159265904Y-111618190D01*
X159170666Y-111618190D01*
X159075428Y-111665809D01*
X159027809Y-111713428D01*
X158980190Y-111808666D01*
X158932571Y-111999142D01*
X158884952Y-112094380D01*
X158837333Y-112142000D01*
X158742095Y-112189619D01*
X158646857Y-112189619D01*
X158551619Y-112142000D01*
X158504000Y-112094380D01*
X158456380Y-111999142D01*
X158456380Y-111761047D01*
X158504000Y-111618190D01*
X159456380Y-111189619D02*
X158456380Y-111189619D01*
X148169380Y-133920571D02*
X148169380Y-134396761D01*
X148645571Y-134444380D01*
X148597952Y-134396761D01*
X148550333Y-134301523D01*
X148550333Y-134063428D01*
X148597952Y-133968190D01*
X148645571Y-133920571D01*
X148740809Y-133872952D01*
X148978904Y-133872952D01*
X149074142Y-133920571D01*
X149121761Y-133968190D01*
X149169380Y-134063428D01*
X149169380Y-134301523D01*
X149121761Y-134396761D01*
X149074142Y-134444380D01*
X148169380Y-133253904D02*
X148169380Y-133158666D01*
X148217000Y-133063428D01*
X148264619Y-133015809D01*
X148359857Y-132968190D01*
X148550333Y-132920571D01*
X148788428Y-132920571D01*
X148978904Y-132968190D01*
X149074142Y-133015809D01*
X149121761Y-133063428D01*
X149169380Y-133158666D01*
X149169380Y-133253904D01*
X149121761Y-133349142D01*
X149074142Y-133396761D01*
X148978904Y-133444380D01*
X148788428Y-133492000D01*
X148550333Y-133492000D01*
X148359857Y-133444380D01*
X148264619Y-133396761D01*
X148217000Y-133349142D01*
X148169380Y-133253904D01*
X148788428Y-132492000D02*
X148788428Y-131730095D01*
X149169380Y-131253904D02*
X148169380Y-131253904D01*
X148169380Y-130872952D01*
X148217000Y-130777714D01*
X148264619Y-130730095D01*
X148359857Y-130682476D01*
X148502714Y-130682476D01*
X148597952Y-130730095D01*
X148645571Y-130777714D01*
X148693190Y-130872952D01*
X148693190Y-131253904D01*
X149169380Y-130253904D02*
X148502714Y-130253904D01*
X148169380Y-130253904D02*
X148217000Y-130301523D01*
X148264619Y-130253904D01*
X148217000Y-130206285D01*
X148169380Y-130253904D01*
X148264619Y-130253904D01*
X148502714Y-129777714D02*
X149169380Y-129777714D01*
X148597952Y-129777714D02*
X148550333Y-129730095D01*
X148502714Y-129634857D01*
X148502714Y-129492000D01*
X148550333Y-129396761D01*
X148645571Y-129349142D01*
X149169380Y-129349142D01*
X149169380Y-128111047D02*
X148169380Y-128111047D01*
X148169380Y-127872952D01*
X148217000Y-127730095D01*
X148312238Y-127634857D01*
X148407476Y-127587238D01*
X148597952Y-127539619D01*
X148740809Y-127539619D01*
X148931285Y-127587238D01*
X149026523Y-127634857D01*
X149121761Y-127730095D01*
X149169380Y-127872952D01*
X149169380Y-128111047D01*
X149121761Y-126730095D02*
X149169380Y-126825333D01*
X149169380Y-127015809D01*
X149121761Y-127111047D01*
X149026523Y-127158666D01*
X148645571Y-127158666D01*
X148550333Y-127111047D01*
X148502714Y-127015809D01*
X148502714Y-126825333D01*
X148550333Y-126730095D01*
X148645571Y-126682476D01*
X148740809Y-126682476D01*
X148836047Y-127158666D01*
X149121761Y-126301523D02*
X149169380Y-126206285D01*
X149169380Y-126015809D01*
X149121761Y-125920571D01*
X149026523Y-125872952D01*
X148978904Y-125872952D01*
X148883666Y-125920571D01*
X148836047Y-126015809D01*
X148836047Y-126158666D01*
X148788428Y-126253904D01*
X148693190Y-126301523D01*
X148645571Y-126301523D01*
X148550333Y-126253904D01*
X148502714Y-126158666D01*
X148502714Y-126015809D01*
X148550333Y-125920571D01*
X149169380Y-125444380D02*
X148169380Y-125444380D01*
X148788428Y-125349142D02*
X149169380Y-125063428D01*
X148502714Y-125063428D02*
X148883666Y-125444380D01*
X148502714Y-124777714D02*
X148502714Y-124396761D01*
X148169380Y-124634857D02*
X149026523Y-124634857D01*
X149121761Y-124587238D01*
X149169380Y-124492000D01*
X149169380Y-124396761D01*
X149169380Y-123920571D02*
X149121761Y-124015809D01*
X149074142Y-124063428D01*
X148978904Y-124111047D01*
X148693190Y-124111047D01*
X148597952Y-124063428D01*
X148550333Y-124015809D01*
X148502714Y-123920571D01*
X148502714Y-123777714D01*
X148550333Y-123682476D01*
X148597952Y-123634857D01*
X148693190Y-123587238D01*
X148978904Y-123587238D01*
X149074142Y-123634857D01*
X149121761Y-123682476D01*
X149169380Y-123777714D01*
X149169380Y-123920571D01*
X148502714Y-123158666D02*
X149502714Y-123158666D01*
X148550333Y-123158666D02*
X148502714Y-123063428D01*
X148502714Y-122872952D01*
X148550333Y-122777714D01*
X148597952Y-122730095D01*
X148693190Y-122682476D01*
X148978904Y-122682476D01*
X149074142Y-122730095D01*
X149121761Y-122777714D01*
X149169380Y-122872952D01*
X149169380Y-123063428D01*
X149121761Y-123158666D01*
X149121761Y-121539619D02*
X149169380Y-121396761D01*
X149169380Y-121158666D01*
X149121761Y-121063428D01*
X149074142Y-121015809D01*
X148978904Y-120968190D01*
X148883666Y-120968190D01*
X148788428Y-121015809D01*
X148740809Y-121063428D01*
X148693190Y-121158666D01*
X148645571Y-121349142D01*
X148597952Y-121444380D01*
X148550333Y-121492000D01*
X148455095Y-121539619D01*
X148359857Y-121539619D01*
X148264619Y-121492000D01*
X148217000Y-121444380D01*
X148169380Y-121349142D01*
X148169380Y-121111047D01*
X148217000Y-120968190D01*
X149074142Y-119968190D02*
X149121761Y-120015809D01*
X149169380Y-120158666D01*
X149169380Y-120253904D01*
X149121761Y-120396761D01*
X149026523Y-120492000D01*
X148931285Y-120539619D01*
X148740809Y-120587238D01*
X148597952Y-120587238D01*
X148407476Y-120539619D01*
X148312238Y-120492000D01*
X148217000Y-120396761D01*
X148169380Y-120253904D01*
X148169380Y-120158666D01*
X148217000Y-120015809D01*
X148264619Y-119968190D01*
X149121761Y-119587238D02*
X149169380Y-119444380D01*
X149169380Y-119206285D01*
X149121761Y-119111047D01*
X149074142Y-119063428D01*
X148978904Y-119015809D01*
X148883666Y-119015809D01*
X148788428Y-119063428D01*
X148740809Y-119111047D01*
X148693190Y-119206285D01*
X148645571Y-119396761D01*
X148597952Y-119492000D01*
X148550333Y-119539619D01*
X148455095Y-119587238D01*
X148359857Y-119587238D01*
X148264619Y-119539619D01*
X148217000Y-119492000D01*
X148169380Y-119396761D01*
X148169380Y-119158666D01*
X148217000Y-119015809D01*
X149169380Y-118587238D02*
X148169380Y-118587238D01*
D12*
X159130952Y-107489428D02*
X158654761Y-107489428D01*
X158654761Y-104632285D01*
X159130952Y-104632285D01*
D10*
X118880095Y-122135380D02*
X118880095Y-122944904D01*
X118927714Y-123040142D01*
X118975333Y-123087761D01*
X119070571Y-123135380D01*
X119261047Y-123135380D01*
X119356285Y-123087761D01*
X119403904Y-123040142D01*
X119451523Y-122944904D01*
X119451523Y-122135380D01*
X119880095Y-123087761D02*
X120022952Y-123135380D01*
X120261047Y-123135380D01*
X120356285Y-123087761D01*
X120403904Y-123040142D01*
X120451523Y-122944904D01*
X120451523Y-122849666D01*
X120403904Y-122754428D01*
X120356285Y-122706809D01*
X120261047Y-122659190D01*
X120070571Y-122611571D01*
X119975333Y-122563952D01*
X119927714Y-122516333D01*
X119880095Y-122421095D01*
X119880095Y-122325857D01*
X119927714Y-122230619D01*
X119975333Y-122183000D01*
X120070571Y-122135380D01*
X120308666Y-122135380D01*
X120451523Y-122183000D01*
X121213428Y-122611571D02*
X121356285Y-122659190D01*
X121403904Y-122706809D01*
X121451523Y-122802047D01*
X121451523Y-122944904D01*
X121403904Y-123040142D01*
X121356285Y-123087761D01*
X121261047Y-123135380D01*
X120880095Y-123135380D01*
X120880095Y-122135380D01*
X121213428Y-122135380D01*
X121308666Y-122183000D01*
X121356285Y-122230619D01*
X121403904Y-122325857D01*
X121403904Y-122421095D01*
X121356285Y-122516333D01*
X121308666Y-122563952D01*
X121213428Y-122611571D01*
X120880095Y-122611571D01*
X117189619Y-124690142D02*
X117142000Y-124737761D01*
X116999142Y-124785380D01*
X116903904Y-124785380D01*
X116761047Y-124737761D01*
X116665809Y-124642523D01*
X116618190Y-124547285D01*
X116570571Y-124356809D01*
X116570571Y-124213952D01*
X116618190Y-124023476D01*
X116665809Y-123928238D01*
X116761047Y-123833000D01*
X116903904Y-123785380D01*
X116999142Y-123785380D01*
X117142000Y-123833000D01*
X117189619Y-123880619D01*
X117761047Y-124785380D02*
X117665809Y-124737761D01*
X117618190Y-124690142D01*
X117570571Y-124594904D01*
X117570571Y-124309190D01*
X117618190Y-124213952D01*
X117665809Y-124166333D01*
X117761047Y-124118714D01*
X117903904Y-124118714D01*
X117999142Y-124166333D01*
X118046761Y-124213952D01*
X118094380Y-124309190D01*
X118094380Y-124594904D01*
X118046761Y-124690142D01*
X117999142Y-124737761D01*
X117903904Y-124785380D01*
X117761047Y-124785380D01*
X118522952Y-124118714D02*
X118522952Y-124785380D01*
X118522952Y-124213952D02*
X118570571Y-124166333D01*
X118665809Y-124118714D01*
X118808666Y-124118714D01*
X118903904Y-124166333D01*
X118951523Y-124261571D01*
X118951523Y-124785380D01*
X119427714Y-124118714D02*
X119427714Y-124785380D01*
X119427714Y-124213952D02*
X119475333Y-124166333D01*
X119570571Y-124118714D01*
X119713428Y-124118714D01*
X119808666Y-124166333D01*
X119856285Y-124261571D01*
X119856285Y-124785380D01*
X120713428Y-124737761D02*
X120618190Y-124785380D01*
X120427714Y-124785380D01*
X120332476Y-124737761D01*
X120284857Y-124642523D01*
X120284857Y-124261571D01*
X120332476Y-124166333D01*
X120427714Y-124118714D01*
X120618190Y-124118714D01*
X120713428Y-124166333D01*
X120761047Y-124261571D01*
X120761047Y-124356809D01*
X120284857Y-124452047D01*
X121618190Y-124737761D02*
X121522952Y-124785380D01*
X121332476Y-124785380D01*
X121237238Y-124737761D01*
X121189619Y-124690142D01*
X121142000Y-124594904D01*
X121142000Y-124309190D01*
X121189619Y-124213952D01*
X121237238Y-124166333D01*
X121332476Y-124118714D01*
X121522952Y-124118714D01*
X121618190Y-124166333D01*
X121903904Y-124118714D02*
X122284857Y-124118714D01*
X122046761Y-123785380D02*
X122046761Y-124642523D01*
X122094380Y-124737761D01*
X122189619Y-124785380D01*
X122284857Y-124785380D01*
X122761047Y-124785380D02*
X122665809Y-124737761D01*
X122618190Y-124690142D01*
X122570571Y-124594904D01*
X122570571Y-124309190D01*
X122618190Y-124213952D01*
X122665809Y-124166333D01*
X122761047Y-124118714D01*
X122903904Y-124118714D01*
X122999142Y-124166333D01*
X123046761Y-124213952D01*
X123094380Y-124309190D01*
X123094380Y-124594904D01*
X123046761Y-124690142D01*
X122999142Y-124737761D01*
X122903904Y-124785380D01*
X122761047Y-124785380D01*
X123522952Y-124785380D02*
X123522952Y-124118714D01*
X123522952Y-124309190D02*
X123570571Y-124213952D01*
X123618190Y-124166333D01*
X123713428Y-124118714D01*
X123808666Y-124118714D01*
X119022952Y-125911571D02*
X119356285Y-125911571D01*
X119499142Y-126435380D02*
X119022952Y-126435380D01*
X119022952Y-125435380D01*
X119499142Y-125435380D01*
X119927714Y-125768714D02*
X119927714Y-126435380D01*
X119927714Y-125863952D02*
X119975333Y-125816333D01*
X120070571Y-125768714D01*
X120213428Y-125768714D01*
X120308666Y-125816333D01*
X120356285Y-125911571D01*
X120356285Y-126435380D01*
X121261047Y-126435380D02*
X121261047Y-125435380D01*
X121261047Y-126387761D02*
X121165809Y-126435380D01*
X120975333Y-126435380D01*
X120880095Y-126387761D01*
X120832476Y-126340142D01*
X120784857Y-126244904D01*
X120784857Y-125959190D01*
X120832476Y-125863952D01*
X120880095Y-125816333D01*
X120975333Y-125768714D01*
X121165809Y-125768714D01*
X121261047Y-125816333D01*
X120800761Y-104869142D02*
X120848380Y-104726285D01*
X120848380Y-104488190D01*
X120800761Y-104392952D01*
X120753142Y-104345333D01*
X120657904Y-104297714D01*
X120562666Y-104297714D01*
X120467428Y-104345333D01*
X120419809Y-104392952D01*
X120372190Y-104488190D01*
X120324571Y-104678666D01*
X120276952Y-104773904D01*
X120229333Y-104821523D01*
X120134095Y-104869142D01*
X120038857Y-104869142D01*
X119943619Y-104821523D01*
X119896000Y-104773904D01*
X119848380Y-104678666D01*
X119848380Y-104440571D01*
X119896000Y-104297714D01*
X119848380Y-104012000D02*
X119848380Y-103440571D01*
X120848380Y-103726285D02*
X119848380Y-103726285D01*
X120848380Y-103107238D02*
X119848380Y-103107238D01*
X120562666Y-102773904D01*
X119848380Y-102440571D01*
X120848380Y-102440571D01*
X119848380Y-102059619D02*
X119848380Y-101440571D01*
X120229333Y-101773904D01*
X120229333Y-101631047D01*
X120276952Y-101535809D01*
X120324571Y-101488190D01*
X120419809Y-101440571D01*
X120657904Y-101440571D01*
X120753142Y-101488190D01*
X120800761Y-101535809D01*
X120848380Y-101631047D01*
X120848380Y-101916761D01*
X120800761Y-102012000D01*
X120753142Y-102059619D01*
X119943619Y-101059619D02*
X119896000Y-101012000D01*
X119848380Y-100916761D01*
X119848380Y-100678666D01*
X119896000Y-100583428D01*
X119943619Y-100535809D01*
X120038857Y-100488190D01*
X120134095Y-100488190D01*
X120276952Y-100535809D01*
X120848380Y-101107238D01*
X120848380Y-100488190D01*
X120324571Y-98964380D02*
X120372190Y-98821523D01*
X120419809Y-98773904D01*
X120515047Y-98726285D01*
X120657904Y-98726285D01*
X120753142Y-98773904D01*
X120800761Y-98821523D01*
X120848380Y-98916761D01*
X120848380Y-99297714D01*
X119848380Y-99297714D01*
X119848380Y-98964380D01*
X119896000Y-98869142D01*
X119943619Y-98821523D01*
X120038857Y-98773904D01*
X120134095Y-98773904D01*
X120229333Y-98821523D01*
X120276952Y-98869142D01*
X120324571Y-98964380D01*
X120324571Y-99297714D01*
X120848380Y-98154857D02*
X120800761Y-98250095D01*
X120705523Y-98297714D01*
X119848380Y-98297714D01*
X120181714Y-97345333D02*
X120848380Y-97345333D01*
X120181714Y-97773904D02*
X120705523Y-97773904D01*
X120800761Y-97726285D01*
X120848380Y-97631047D01*
X120848380Y-97488190D01*
X120800761Y-97392952D01*
X120753142Y-97345333D01*
X120800761Y-96488190D02*
X120848380Y-96583428D01*
X120848380Y-96773904D01*
X120800761Y-96869142D01*
X120705523Y-96916761D01*
X120324571Y-96916761D01*
X120229333Y-96869142D01*
X120181714Y-96773904D01*
X120181714Y-96583428D01*
X120229333Y-96488190D01*
X120324571Y-96440571D01*
X120419809Y-96440571D01*
X120515047Y-96916761D01*
X120848380Y-95250095D02*
X119848380Y-95250095D01*
X119848380Y-94869142D01*
X119896000Y-94773904D01*
X119943619Y-94726285D01*
X120038857Y-94678666D01*
X120181714Y-94678666D01*
X120276952Y-94726285D01*
X120324571Y-94773904D01*
X120372190Y-94869142D01*
X120372190Y-95250095D01*
X120848380Y-94250095D02*
X120181714Y-94250095D01*
X119848380Y-94250095D02*
X119896000Y-94297714D01*
X119943619Y-94250095D01*
X119896000Y-94202476D01*
X119848380Y-94250095D01*
X119943619Y-94250095D01*
X120848380Y-93631047D02*
X120800761Y-93726285D01*
X120705523Y-93773904D01*
X119848380Y-93773904D01*
X120848380Y-93107238D02*
X120800761Y-93202476D01*
X120705523Y-93250095D01*
X119848380Y-93250095D01*
X120848380Y-91964380D02*
X119848380Y-91964380D01*
X120562666Y-91631047D01*
X119848380Y-91297714D01*
X120848380Y-91297714D01*
X120848380Y-90678666D02*
X120800761Y-90773904D01*
X120753142Y-90821523D01*
X120657904Y-90869142D01*
X120372190Y-90869142D01*
X120276952Y-90821523D01*
X120229333Y-90773904D01*
X120181714Y-90678666D01*
X120181714Y-90535809D01*
X120229333Y-90440571D01*
X120276952Y-90392952D01*
X120372190Y-90345333D01*
X120657904Y-90345333D01*
X120753142Y-90392952D01*
X120800761Y-90440571D01*
X120848380Y-90535809D01*
X120848380Y-90678666D01*
X120848380Y-89488190D02*
X119848380Y-89488190D01*
X120800761Y-89488190D02*
X120848380Y-89583428D01*
X120848380Y-89773904D01*
X120800761Y-89869142D01*
X120753142Y-89916761D01*
X120657904Y-89964380D01*
X120372190Y-89964380D01*
X120276952Y-89916761D01*
X120229333Y-89869142D01*
X120181714Y-89773904D01*
X120181714Y-89583428D01*
X120229333Y-89488190D01*
X120181714Y-88583428D02*
X120848380Y-88583428D01*
X120181714Y-89012000D02*
X120705523Y-89012000D01*
X120800761Y-88964380D01*
X120848380Y-88869142D01*
X120848380Y-88726285D01*
X120800761Y-88631047D01*
X120753142Y-88583428D01*
X120848380Y-87964380D02*
X120800761Y-88059619D01*
X120705523Y-88107238D01*
X119848380Y-88107238D01*
X120800761Y-87202476D02*
X120848380Y-87297714D01*
X120848380Y-87488190D01*
X120800761Y-87583428D01*
X120705523Y-87631047D01*
X120324571Y-87631047D01*
X120229333Y-87583428D01*
X120181714Y-87488190D01*
X120181714Y-87297714D01*
X120229333Y-87202476D01*
X120324571Y-87154857D01*
X120419809Y-87154857D01*
X120515047Y-87631047D01*
D12*
X149097952Y-103171428D02*
X148621761Y-103171428D01*
X148621761Y-100314285D01*
X149097952Y-100314285D01*
D13*
%TO.C,RN2*%
X138560000Y-106680000D02*
X135760000Y-106680000D01*
X138560000Y-129710000D02*
X138560000Y-103970000D01*
X135760000Y-129710000D02*
X138560000Y-129710000D01*
X135760000Y-103970000D02*
X135760000Y-129710000D01*
X138560000Y-103970000D02*
X135760000Y-103970000D01*
%TO.C,J3*%
X93848000Y-120878000D02*
X98298000Y-120878000D01*
X99698000Y-120878000D02*
X101998000Y-120878000D01*
X103398000Y-120878000D02*
X104118000Y-120878000D01*
X104118000Y-120878000D02*
X104118000Y-118198000D01*
X104118000Y-115898000D02*
X104118000Y-112228000D01*
X104118000Y-109928000D02*
X104118000Y-108698000D01*
X104118000Y-108698000D02*
X94298000Y-108698000D01*
X92478000Y-119398000D02*
X92478000Y-118538000D01*
%TO.C,J9*%
X144720000Y-70552000D02*
X146050000Y-70552000D01*
X144720000Y-71882000D02*
X144720000Y-70552000D01*
X144720000Y-73152000D02*
X147380000Y-73152000D01*
X147380000Y-73152000D02*
X147380000Y-75752000D01*
X144720000Y-73152000D02*
X144720000Y-75752000D01*
X144720000Y-75752000D02*
X147380000Y-75752000D01*
%TO.C,J8*%
X149670000Y-71060000D02*
X151000000Y-71060000D01*
X149670000Y-72390000D02*
X149670000Y-71060000D01*
X152270000Y-71060000D02*
X154870000Y-71060000D01*
X152270000Y-73660000D02*
X152270000Y-71060000D01*
X149670000Y-73660000D02*
X152270000Y-73660000D01*
X154870000Y-71060000D02*
X154870000Y-134680000D01*
X149670000Y-73660000D02*
X149670000Y-134680000D01*
X149670000Y-134680000D02*
X154870000Y-134680000D01*
%TO.C,J2*%
X160290000Y-79000000D02*
X161290000Y-79000000D01*
X160290000Y-80000000D02*
X160290000Y-79000000D01*
X162172114Y-86310000D02*
X162407886Y-86310000D01*
X162172114Y-85690000D02*
X162407886Y-85690000D01*
X164172114Y-86310000D02*
X164730000Y-86310000D01*
X164172114Y-85690000D02*
X164730000Y-85690000D01*
X170550000Y-86310000D02*
X166350000Y-86310000D01*
X170550000Y-85690000D02*
X170550000Y-86310000D01*
X166350000Y-85690000D02*
X170550000Y-85690000D01*
X164730000Y-85000000D02*
X166350000Y-85000000D01*
X162172114Y-84310000D02*
X162407886Y-84310000D01*
X162172114Y-83690000D02*
X162407886Y-83690000D01*
X164172114Y-84310000D02*
X164730000Y-84310000D01*
X164172114Y-83690000D02*
X164730000Y-83690000D01*
X170550000Y-84310000D02*
X166350000Y-84310000D01*
X170550000Y-83690000D02*
X170550000Y-84310000D01*
X166350000Y-83690000D02*
X170550000Y-83690000D01*
X164730000Y-83000000D02*
X166350000Y-83000000D01*
X162172114Y-82310000D02*
X162407886Y-82310000D01*
X162172114Y-81690000D02*
X162407886Y-81690000D01*
X164172114Y-82310000D02*
X164730000Y-82310000D01*
X164172114Y-81690000D02*
X164730000Y-81690000D01*
X170550000Y-82310000D02*
X166350000Y-82310000D01*
X170550000Y-81690000D02*
X170550000Y-82310000D01*
X166350000Y-81690000D02*
X170550000Y-81690000D01*
X164730000Y-81000000D02*
X166350000Y-81000000D01*
X162225000Y-80310000D02*
X162407886Y-80310000D01*
X162225000Y-79690000D02*
X162407886Y-79690000D01*
X164172114Y-80310000D02*
X164730000Y-80310000D01*
X164172114Y-79690000D02*
X164730000Y-79690000D01*
X166350000Y-80230000D02*
X170550000Y-80230000D01*
X166350000Y-80110000D02*
X170550000Y-80110000D01*
X166350000Y-79990000D02*
X170550000Y-79990000D01*
X166350000Y-79870000D02*
X170550000Y-79870000D01*
X166350000Y-79750000D02*
X170550000Y-79750000D01*
X170550000Y-80310000D02*
X166350000Y-80310000D01*
X170550000Y-79690000D02*
X170550000Y-80310000D01*
X166350000Y-79690000D02*
X170550000Y-79690000D01*
X166350000Y-78940000D02*
X164730000Y-78940000D01*
X166350000Y-87060000D02*
X166350000Y-78940000D01*
X164730000Y-87060000D02*
X166350000Y-87060000D01*
X164730000Y-78940000D02*
X164730000Y-87060000D01*
%TO.C,J6*%
X104902000Y-93421200D02*
X103632000Y-93421200D01*
X104902000Y-92151200D02*
X104902000Y-93421200D01*
X102589071Y-84151200D02*
X102192000Y-84151200D01*
X102589071Y-84911200D02*
X102192000Y-84911200D01*
X93532000Y-84151200D02*
X99532000Y-84151200D01*
X93532000Y-84911200D02*
X93532000Y-84151200D01*
X99532000Y-84911200D02*
X93532000Y-84911200D01*
X102192000Y-85801200D02*
X99532000Y-85801200D01*
X102589071Y-86691200D02*
X102192000Y-86691200D01*
X102589071Y-87451200D02*
X102192000Y-87451200D01*
X93532000Y-86691200D02*
X99532000Y-86691200D01*
X93532000Y-87451200D02*
X93532000Y-86691200D01*
X99532000Y-87451200D02*
X93532000Y-87451200D01*
X102192000Y-88341200D02*
X99532000Y-88341200D01*
X102589071Y-89231200D02*
X102192000Y-89231200D01*
X102589071Y-89991200D02*
X102192000Y-89991200D01*
X93532000Y-89231200D02*
X99532000Y-89231200D01*
X93532000Y-89991200D02*
X93532000Y-89231200D01*
X99532000Y-89991200D02*
X93532000Y-89991200D01*
X102192000Y-90881200D02*
X99532000Y-90881200D01*
X102522000Y-91771200D02*
X102192000Y-91771200D01*
X102522000Y-92531200D02*
X102192000Y-92531200D01*
X99532000Y-91871200D02*
X93532000Y-91871200D01*
X99532000Y-91991200D02*
X93532000Y-91991200D01*
X99532000Y-92111200D02*
X93532000Y-92111200D01*
X99532000Y-92231200D02*
X93532000Y-92231200D01*
X99532000Y-92351200D02*
X93532000Y-92351200D01*
X99532000Y-92471200D02*
X93532000Y-92471200D01*
X93532000Y-91771200D02*
X99532000Y-91771200D01*
X93532000Y-92531200D02*
X93532000Y-91771200D01*
X99532000Y-92531200D02*
X93532000Y-92531200D01*
X99532000Y-93481200D02*
X102192000Y-93481200D01*
X99532000Y-83201200D02*
X99532000Y-93481200D01*
X102192000Y-83201200D02*
X99532000Y-83201200D01*
X102192000Y-93481200D02*
X102192000Y-83201200D01*
%TO.C,J5*%
X134934000Y-105724000D02*
X133604000Y-105724000D01*
X134934000Y-104394000D02*
X134934000Y-105724000D01*
X134934000Y-103124000D02*
X132274000Y-103124000D01*
X132274000Y-103124000D02*
X132274000Y-100524000D01*
X134934000Y-103124000D02*
X134934000Y-100524000D01*
X134934000Y-100524000D02*
X132274000Y-100524000D01*
%TO.C,J4*%
X144466000Y-100270000D02*
X145796000Y-100270000D01*
X144466000Y-101600000D02*
X144466000Y-100270000D01*
X144466000Y-102870000D02*
X147126000Y-102870000D01*
X147126000Y-102870000D02*
X147126000Y-105470000D01*
X144466000Y-102870000D02*
X144466000Y-105470000D01*
X144466000Y-105470000D02*
X147126000Y-105470000D01*
%TO.C,RN4*%
X143640000Y-106680000D02*
X140840000Y-106680000D01*
X143640000Y-129710000D02*
X143640000Y-103970000D01*
X140840000Y-129710000D02*
X143640000Y-129710000D01*
X140840000Y-103970000D02*
X140840000Y-129710000D01*
X143640000Y-103970000D02*
X140840000Y-103970000D01*
%TO.C,RN3*%
X140840000Y-99060000D02*
X143640000Y-99060000D01*
X140840000Y-76030000D02*
X140840000Y-101770000D01*
X143640000Y-76030000D02*
X140840000Y-76030000D01*
X143640000Y-101770000D02*
X143640000Y-76030000D01*
X140840000Y-101770000D02*
X143640000Y-101770000D01*
%TO.C,RN1*%
X135760000Y-99060000D02*
X138560000Y-99060000D01*
X135760000Y-76030000D02*
X135760000Y-101770000D01*
X138560000Y-76030000D02*
X135760000Y-76030000D01*
X138560000Y-101770000D02*
X138560000Y-76030000D01*
X135760000Y-101770000D02*
X138560000Y-101770000D01*
%TO.C,J7*%
X106680000Y-125536000D02*
X105350000Y-125536000D01*
X105350000Y-125536000D02*
X105350000Y-124206000D01*
X105350000Y-122936000D02*
X105350000Y-102556000D01*
X108010000Y-102556000D02*
X105350000Y-102556000D01*
X108010000Y-122936000D02*
X108010000Y-102556000D01*
X108010000Y-122936000D02*
X105350000Y-122936000D01*
%TO.C,J1*%
X164730000Y-88940000D02*
X164730000Y-129060000D01*
X164730000Y-129060000D02*
X166350000Y-129060000D01*
X166350000Y-129060000D02*
X166350000Y-88940000D01*
X166350000Y-88940000D02*
X164730000Y-88940000D01*
X166350000Y-89690000D02*
X170550000Y-89690000D01*
X170550000Y-89690000D02*
X170550000Y-90310000D01*
X170550000Y-90310000D02*
X166350000Y-90310000D01*
X166350000Y-89750000D02*
X170550000Y-89750000D01*
X166350000Y-89870000D02*
X170550000Y-89870000D01*
X166350000Y-89990000D02*
X170550000Y-89990000D01*
X166350000Y-90110000D02*
X170550000Y-90110000D01*
X166350000Y-90230000D02*
X170550000Y-90230000D01*
X164172114Y-89690000D02*
X164730000Y-89690000D01*
X164172114Y-90310000D02*
X164730000Y-90310000D01*
X162225000Y-89690000D02*
X162407886Y-89690000D01*
X162225000Y-90310000D02*
X162407886Y-90310000D01*
X164730000Y-91000000D02*
X166350000Y-91000000D01*
X166350000Y-91690000D02*
X170550000Y-91690000D01*
X170550000Y-91690000D02*
X170550000Y-92310000D01*
X170550000Y-92310000D02*
X166350000Y-92310000D01*
X164172114Y-91690000D02*
X164730000Y-91690000D01*
X164172114Y-92310000D02*
X164730000Y-92310000D01*
X162172114Y-91690000D02*
X162407886Y-91690000D01*
X162172114Y-92310000D02*
X162407886Y-92310000D01*
X164730000Y-93000000D02*
X166350000Y-93000000D01*
X166350000Y-93690000D02*
X170550000Y-93690000D01*
X170550000Y-93690000D02*
X170550000Y-94310000D01*
X170550000Y-94310000D02*
X166350000Y-94310000D01*
X164172114Y-93690000D02*
X164730000Y-93690000D01*
X164172114Y-94310000D02*
X164730000Y-94310000D01*
X162172114Y-93690000D02*
X162407886Y-93690000D01*
X162172114Y-94310000D02*
X162407886Y-94310000D01*
X164730000Y-95000000D02*
X166350000Y-95000000D01*
X166350000Y-95690000D02*
X170550000Y-95690000D01*
X170550000Y-95690000D02*
X170550000Y-96310000D01*
X170550000Y-96310000D02*
X166350000Y-96310000D01*
X164172114Y-95690000D02*
X164730000Y-95690000D01*
X164172114Y-96310000D02*
X164730000Y-96310000D01*
X162172114Y-95690000D02*
X162407886Y-95690000D01*
X162172114Y-96310000D02*
X162407886Y-96310000D01*
X164730000Y-97000000D02*
X166350000Y-97000000D01*
X166350000Y-97690000D02*
X170550000Y-97690000D01*
X170550000Y-97690000D02*
X170550000Y-98310000D01*
X170550000Y-98310000D02*
X166350000Y-98310000D01*
X164172114Y-97690000D02*
X164730000Y-97690000D01*
X164172114Y-98310000D02*
X164730000Y-98310000D01*
X162172114Y-97690000D02*
X162407886Y-97690000D01*
X162172114Y-98310000D02*
X162407886Y-98310000D01*
X164730000Y-99000000D02*
X166350000Y-99000000D01*
X166350000Y-99690000D02*
X170550000Y-99690000D01*
X170550000Y-99690000D02*
X170550000Y-100310000D01*
X170550000Y-100310000D02*
X166350000Y-100310000D01*
X164172114Y-99690000D02*
X164730000Y-99690000D01*
X164172114Y-100310000D02*
X164730000Y-100310000D01*
X162172114Y-99690000D02*
X162407886Y-99690000D01*
X162172114Y-100310000D02*
X162407886Y-100310000D01*
X164730000Y-101000000D02*
X166350000Y-101000000D01*
X166350000Y-101690000D02*
X170550000Y-101690000D01*
X170550000Y-101690000D02*
X170550000Y-102310000D01*
X170550000Y-102310000D02*
X166350000Y-102310000D01*
X164172114Y-101690000D02*
X164730000Y-101690000D01*
X164172114Y-102310000D02*
X164730000Y-102310000D01*
X162172114Y-101690000D02*
X162407886Y-101690000D01*
X162172114Y-102310000D02*
X162407886Y-102310000D01*
X164730000Y-103000000D02*
X166350000Y-103000000D01*
X166350000Y-103690000D02*
X170550000Y-103690000D01*
X170550000Y-103690000D02*
X170550000Y-104310000D01*
X170550000Y-104310000D02*
X166350000Y-104310000D01*
X164172114Y-103690000D02*
X164730000Y-103690000D01*
X164172114Y-104310000D02*
X164730000Y-104310000D01*
X162172114Y-103690000D02*
X162407886Y-103690000D01*
X162172114Y-104310000D02*
X162407886Y-104310000D01*
X164730000Y-105000000D02*
X166350000Y-105000000D01*
X166350000Y-105690000D02*
X170550000Y-105690000D01*
X170550000Y-105690000D02*
X170550000Y-106310000D01*
X170550000Y-106310000D02*
X166350000Y-106310000D01*
X164172114Y-105690000D02*
X164730000Y-105690000D01*
X164172114Y-106310000D02*
X164730000Y-106310000D01*
X162172114Y-105690000D02*
X162407886Y-105690000D01*
X162172114Y-106310000D02*
X162407886Y-106310000D01*
X164730000Y-107000000D02*
X166350000Y-107000000D01*
X166350000Y-107690000D02*
X170550000Y-107690000D01*
X170550000Y-107690000D02*
X170550000Y-108310000D01*
X170550000Y-108310000D02*
X166350000Y-108310000D01*
X164172114Y-107690000D02*
X164730000Y-107690000D01*
X164172114Y-108310000D02*
X164730000Y-108310000D01*
X162172114Y-107690000D02*
X162407886Y-107690000D01*
X162172114Y-108310000D02*
X162407886Y-108310000D01*
X164730000Y-109000000D02*
X166350000Y-109000000D01*
X166350000Y-109690000D02*
X170550000Y-109690000D01*
X170550000Y-109690000D02*
X170550000Y-110310000D01*
X170550000Y-110310000D02*
X166350000Y-110310000D01*
X164172114Y-109690000D02*
X164730000Y-109690000D01*
X164172114Y-110310000D02*
X164730000Y-110310000D01*
X162172114Y-109690000D02*
X162407886Y-109690000D01*
X162172114Y-110310000D02*
X162407886Y-110310000D01*
X164730000Y-111000000D02*
X166350000Y-111000000D01*
X166350000Y-111690000D02*
X170550000Y-111690000D01*
X170550000Y-111690000D02*
X170550000Y-112310000D01*
X170550000Y-112310000D02*
X166350000Y-112310000D01*
X164172114Y-111690000D02*
X164730000Y-111690000D01*
X164172114Y-112310000D02*
X164730000Y-112310000D01*
X162172114Y-111690000D02*
X162407886Y-111690000D01*
X162172114Y-112310000D02*
X162407886Y-112310000D01*
X164730000Y-113000000D02*
X166350000Y-113000000D01*
X166350000Y-113690000D02*
X170550000Y-113690000D01*
X170550000Y-113690000D02*
X170550000Y-114310000D01*
X170550000Y-114310000D02*
X166350000Y-114310000D01*
X164172114Y-113690000D02*
X164730000Y-113690000D01*
X164172114Y-114310000D02*
X164730000Y-114310000D01*
X162172114Y-113690000D02*
X162407886Y-113690000D01*
X162172114Y-114310000D02*
X162407886Y-114310000D01*
X164730000Y-115000000D02*
X166350000Y-115000000D01*
X166350000Y-115690000D02*
X170550000Y-115690000D01*
X170550000Y-115690000D02*
X170550000Y-116310000D01*
X170550000Y-116310000D02*
X166350000Y-116310000D01*
X164172114Y-115690000D02*
X164730000Y-115690000D01*
X164172114Y-116310000D02*
X164730000Y-116310000D01*
X162172114Y-115690000D02*
X162407886Y-115690000D01*
X162172114Y-116310000D02*
X162407886Y-116310000D01*
X164730000Y-117000000D02*
X166350000Y-117000000D01*
X166350000Y-117690000D02*
X170550000Y-117690000D01*
X170550000Y-117690000D02*
X170550000Y-118310000D01*
X170550000Y-118310000D02*
X166350000Y-118310000D01*
X164172114Y-117690000D02*
X164730000Y-117690000D01*
X164172114Y-118310000D02*
X164730000Y-118310000D01*
X162172114Y-117690000D02*
X162407886Y-117690000D01*
X162172114Y-118310000D02*
X162407886Y-118310000D01*
X164730000Y-119000000D02*
X166350000Y-119000000D01*
X166350000Y-119690000D02*
X170550000Y-119690000D01*
X170550000Y-119690000D02*
X170550000Y-120310000D01*
X170550000Y-120310000D02*
X166350000Y-120310000D01*
X164172114Y-119690000D02*
X164730000Y-119690000D01*
X164172114Y-120310000D02*
X164730000Y-120310000D01*
X162172114Y-119690000D02*
X162407886Y-119690000D01*
X162172114Y-120310000D02*
X162407886Y-120310000D01*
X164730000Y-121000000D02*
X166350000Y-121000000D01*
X166350000Y-121690000D02*
X170550000Y-121690000D01*
X170550000Y-121690000D02*
X170550000Y-122310000D01*
X170550000Y-122310000D02*
X166350000Y-122310000D01*
X164172114Y-121690000D02*
X164730000Y-121690000D01*
X164172114Y-122310000D02*
X164730000Y-122310000D01*
X162172114Y-121690000D02*
X162407886Y-121690000D01*
X162172114Y-122310000D02*
X162407886Y-122310000D01*
X164730000Y-123000000D02*
X166350000Y-123000000D01*
X166350000Y-123690000D02*
X170550000Y-123690000D01*
X170550000Y-123690000D02*
X170550000Y-124310000D01*
X170550000Y-124310000D02*
X166350000Y-124310000D01*
X164172114Y-123690000D02*
X164730000Y-123690000D01*
X164172114Y-124310000D02*
X164730000Y-124310000D01*
X162172114Y-123690000D02*
X162407886Y-123690000D01*
X162172114Y-124310000D02*
X162407886Y-124310000D01*
X164730000Y-125000000D02*
X166350000Y-125000000D01*
X166350000Y-125690000D02*
X170550000Y-125690000D01*
X170550000Y-125690000D02*
X170550000Y-126310000D01*
X170550000Y-126310000D02*
X166350000Y-126310000D01*
X164172114Y-125690000D02*
X164730000Y-125690000D01*
X164172114Y-126310000D02*
X164730000Y-126310000D01*
X162172114Y-125690000D02*
X162407886Y-125690000D01*
X162172114Y-126310000D02*
X162407886Y-126310000D01*
X164730000Y-127000000D02*
X166350000Y-127000000D01*
X166350000Y-127690000D02*
X170550000Y-127690000D01*
X170550000Y-127690000D02*
X170550000Y-128310000D01*
X170550000Y-128310000D02*
X166350000Y-128310000D01*
X164172114Y-127690000D02*
X164730000Y-127690000D01*
X164172114Y-128310000D02*
X164730000Y-128310000D01*
X162172114Y-127690000D02*
X162407886Y-127690000D01*
X162172114Y-128310000D02*
X162407886Y-128310000D01*
X160290000Y-90000000D02*
X160290000Y-89000000D01*
X160290000Y-89000000D02*
X161290000Y-89000000D01*
%TO.C,U1*%
X129092000Y-128330000D02*
X127762000Y-128330000D01*
X129092000Y-127000000D02*
X129092000Y-128330000D01*
X113792000Y-77470000D02*
X113792000Y-128270000D01*
X111252000Y-77470000D02*
X113792000Y-77470000D01*
X111252000Y-128270000D02*
X111252000Y-77470000D01*
X113792000Y-128270000D02*
X111252000Y-128270000D01*
X129092000Y-77410000D02*
X129092000Y-125730000D01*
X126432000Y-77410000D02*
X129092000Y-77410000D01*
X126432000Y-125730000D02*
X126432000Y-77410000D01*
X129092000Y-125730000D02*
X126432000Y-125730000D01*
X131517000Y-76295000D02*
X131517000Y-129445000D01*
X108767000Y-76295000D02*
X131517000Y-76295000D01*
X108767000Y-129445000D02*
X108767000Y-76295000D01*
X131517000Y-129445000D02*
X108767000Y-129445000D01*
%TO.C,RN2*%
D10*
X135326380Y-120070476D02*
X134850190Y-120403809D01*
X135326380Y-120641904D02*
X134326380Y-120641904D01*
X134326380Y-120260952D01*
X134374000Y-120165714D01*
X134421619Y-120118095D01*
X134516857Y-120070476D01*
X134659714Y-120070476D01*
X134754952Y-120118095D01*
X134802571Y-120165714D01*
X134850190Y-120260952D01*
X134850190Y-120641904D01*
X135326380Y-119641904D02*
X134326380Y-119641904D01*
X135326380Y-119070476D01*
X134326380Y-119070476D01*
X134421619Y-118641904D02*
X134374000Y-118594285D01*
X134326380Y-118499047D01*
X134326380Y-118260952D01*
X134374000Y-118165714D01*
X134421619Y-118118095D01*
X134516857Y-118070476D01*
X134612095Y-118070476D01*
X134754952Y-118118095D01*
X135326380Y-118689523D01*
X135326380Y-118070476D01*
%TO.C,J3*%
X99782380Y-115141333D02*
X100496666Y-115141333D01*
X100639523Y-115188952D01*
X100734761Y-115284190D01*
X100782380Y-115427047D01*
X100782380Y-115522285D01*
X99782380Y-114760380D02*
X99782380Y-114141333D01*
X100163333Y-114474666D01*
X100163333Y-114331809D01*
X100210952Y-114236571D01*
X100258571Y-114188952D01*
X100353809Y-114141333D01*
X100591904Y-114141333D01*
X100687142Y-114188952D01*
X100734761Y-114236571D01*
X100782380Y-114331809D01*
X100782380Y-114617523D01*
X100734761Y-114712761D01*
X100687142Y-114760380D01*
%TO.C,J9*%
X142922666Y-71842380D02*
X142922666Y-72556666D01*
X142875047Y-72699523D01*
X142779809Y-72794761D01*
X142636952Y-72842380D01*
X142541714Y-72842380D01*
X143446476Y-72842380D02*
X143636952Y-72842380D01*
X143732190Y-72794761D01*
X143779809Y-72747142D01*
X143875047Y-72604285D01*
X143922666Y-72413809D01*
X143922666Y-72032857D01*
X143875047Y-71937619D01*
X143827428Y-71890000D01*
X143732190Y-71842380D01*
X143541714Y-71842380D01*
X143446476Y-71890000D01*
X143398857Y-71937619D01*
X143351238Y-72032857D01*
X143351238Y-72270952D01*
X143398857Y-72366190D01*
X143446476Y-72413809D01*
X143541714Y-72461428D01*
X143732190Y-72461428D01*
X143827428Y-72413809D01*
X143875047Y-72366190D01*
X143922666Y-72270952D01*
%TO.C,J8*%
X151936666Y-69512380D02*
X151936666Y-70226666D01*
X151889047Y-70369523D01*
X151793809Y-70464761D01*
X151650952Y-70512380D01*
X151555714Y-70512380D01*
X152555714Y-69940952D02*
X152460476Y-69893333D01*
X152412857Y-69845714D01*
X152365238Y-69750476D01*
X152365238Y-69702857D01*
X152412857Y-69607619D01*
X152460476Y-69560000D01*
X152555714Y-69512380D01*
X152746190Y-69512380D01*
X152841428Y-69560000D01*
X152889047Y-69607619D01*
X152936666Y-69702857D01*
X152936666Y-69750476D01*
X152889047Y-69845714D01*
X152841428Y-69893333D01*
X152746190Y-69940952D01*
X152555714Y-69940952D01*
X152460476Y-69988571D01*
X152412857Y-70036190D01*
X152365238Y-70131428D01*
X152365238Y-70321904D01*
X152412857Y-70417142D01*
X152460476Y-70464761D01*
X152555714Y-70512380D01*
X152746190Y-70512380D01*
X152841428Y-70464761D01*
X152889047Y-70417142D01*
X152936666Y-70321904D01*
X152936666Y-70131428D01*
X152889047Y-70036190D01*
X152841428Y-69988571D01*
X152746190Y-69940952D01*
%TO.C,J2*%
X165056666Y-77452380D02*
X165056666Y-78166666D01*
X165009047Y-78309523D01*
X164913809Y-78404761D01*
X164770952Y-78452380D01*
X164675714Y-78452380D01*
X165485238Y-77547619D02*
X165532857Y-77500000D01*
X165628095Y-77452380D01*
X165866190Y-77452380D01*
X165961428Y-77500000D01*
X166009047Y-77547619D01*
X166056666Y-77642857D01*
X166056666Y-77738095D01*
X166009047Y-77880952D01*
X165437619Y-78452380D01*
X166056666Y-78452380D01*
%TO.C,J6*%
X100758666Y-82002380D02*
X100758666Y-82716666D01*
X100711047Y-82859523D01*
X100615809Y-82954761D01*
X100472952Y-83002380D01*
X100377714Y-83002380D01*
X101663428Y-82002380D02*
X101472952Y-82002380D01*
X101377714Y-82050000D01*
X101330095Y-82097619D01*
X101234857Y-82240476D01*
X101187238Y-82430952D01*
X101187238Y-82811904D01*
X101234857Y-82907142D01*
X101282476Y-82954761D01*
X101377714Y-83002380D01*
X101568190Y-83002380D01*
X101663428Y-82954761D01*
X101711047Y-82907142D01*
X101758666Y-82811904D01*
X101758666Y-82573809D01*
X101711047Y-82478571D01*
X101663428Y-82430952D01*
X101568190Y-82383333D01*
X101377714Y-82383333D01*
X101282476Y-82430952D01*
X101234857Y-82478571D01*
X101187238Y-82573809D01*
%TO.C,J5*%
X133270666Y-98639380D02*
X133270666Y-99353666D01*
X133223047Y-99496523D01*
X133127809Y-99591761D01*
X132984952Y-99639380D01*
X132889714Y-99639380D01*
X134223047Y-98639380D02*
X133746857Y-98639380D01*
X133699238Y-99115571D01*
X133746857Y-99067952D01*
X133842095Y-99020333D01*
X134080190Y-99020333D01*
X134175428Y-99067952D01*
X134223047Y-99115571D01*
X134270666Y-99210809D01*
X134270666Y-99448904D01*
X134223047Y-99544142D01*
X134175428Y-99591761D01*
X134080190Y-99639380D01*
X133842095Y-99639380D01*
X133746857Y-99591761D01*
X133699238Y-99544142D01*
%TO.C,J4*%
X145335666Y-98512380D02*
X145335666Y-99226666D01*
X145288047Y-99369523D01*
X145192809Y-99464761D01*
X145049952Y-99512380D01*
X144954714Y-99512380D01*
X146240428Y-98845714D02*
X146240428Y-99512380D01*
X146002333Y-98464761D02*
X145764238Y-99179047D01*
X146383285Y-99179047D01*
%TO.C,RN4*%
X145092380Y-120070476D02*
X144616190Y-120403809D01*
X145092380Y-120641904D02*
X144092380Y-120641904D01*
X144092380Y-120260952D01*
X144140000Y-120165714D01*
X144187619Y-120118095D01*
X144282857Y-120070476D01*
X144425714Y-120070476D01*
X144520952Y-120118095D01*
X144568571Y-120165714D01*
X144616190Y-120260952D01*
X144616190Y-120641904D01*
X145092380Y-119641904D02*
X144092380Y-119641904D01*
X145092380Y-119070476D01*
X144092380Y-119070476D01*
X144425714Y-118165714D02*
X145092380Y-118165714D01*
X144044761Y-118403809D02*
X144759047Y-118641904D01*
X144759047Y-118022857D01*
%TO.C,RN3*%
X145232380Y-89590476D02*
X144756190Y-89923809D01*
X145232380Y-90161904D02*
X144232380Y-90161904D01*
X144232380Y-89780952D01*
X144280000Y-89685714D01*
X144327619Y-89638095D01*
X144422857Y-89590476D01*
X144565714Y-89590476D01*
X144660952Y-89638095D01*
X144708571Y-89685714D01*
X144756190Y-89780952D01*
X144756190Y-90161904D01*
X145232380Y-89161904D02*
X144232380Y-89161904D01*
X145232380Y-88590476D01*
X144232380Y-88590476D01*
X144232380Y-88209523D02*
X144232380Y-87590476D01*
X144613333Y-87923809D01*
X144613333Y-87780952D01*
X144660952Y-87685714D01*
X144708571Y-87638095D01*
X144803809Y-87590476D01*
X145041904Y-87590476D01*
X145137142Y-87638095D01*
X145184761Y-87685714D01*
X145232380Y-87780952D01*
X145232380Y-88066666D01*
X145184761Y-88161904D01*
X145137142Y-88209523D01*
%TO.C,RN1*%
X135326380Y-89590476D02*
X134850190Y-89923809D01*
X135326380Y-90161904D02*
X134326380Y-90161904D01*
X134326380Y-89780952D01*
X134374000Y-89685714D01*
X134421619Y-89638095D01*
X134516857Y-89590476D01*
X134659714Y-89590476D01*
X134754952Y-89638095D01*
X134802571Y-89685714D01*
X134850190Y-89780952D01*
X134850190Y-90161904D01*
X135326380Y-89161904D02*
X134326380Y-89161904D01*
X135326380Y-88590476D01*
X134326380Y-88590476D01*
X135326380Y-87590476D02*
X135326380Y-88161904D01*
X135326380Y-87876190D02*
X134326380Y-87876190D01*
X134469238Y-87971428D01*
X134564476Y-88066666D01*
X134612095Y-88161904D01*
%TO.C,J7*%
X106346666Y-126428380D02*
X106346666Y-127142666D01*
X106299047Y-127285523D01*
X106203809Y-127380761D01*
X106060952Y-127428380D01*
X105965714Y-127428380D01*
X106727619Y-126428380D02*
X107394285Y-126428380D01*
X106965714Y-127428380D01*
%TO.C,J1*%
X165056666Y-87452380D02*
X165056666Y-88166666D01*
X165009047Y-88309523D01*
X164913809Y-88404761D01*
X164770952Y-88452380D01*
X164675714Y-88452380D01*
X166056666Y-88452380D02*
X165485238Y-88452380D01*
X165770952Y-88452380D02*
X165770952Y-87452380D01*
X165675714Y-87595238D01*
X165580476Y-87690476D01*
X165485238Y-87738095D01*
%TO.C,U1*%
X119253095Y-128103380D02*
X119253095Y-128912904D01*
X119300714Y-129008142D01*
X119348333Y-129055761D01*
X119443571Y-129103380D01*
X119634047Y-129103380D01*
X119729285Y-129055761D01*
X119776904Y-129008142D01*
X119824523Y-128912904D01*
X119824523Y-128103380D01*
X120824523Y-129103380D02*
X120253095Y-129103380D01*
X120538809Y-129103380D02*
X120538809Y-128103380D01*
X120443571Y-128246238D01*
X120348333Y-128341476D01*
X120253095Y-128389095D01*
%TD*%
M02*
