M48
; DRILL file {KiCad (5.1.8-0-10_14)} date Saturday, April 03, 2021 at 08:08:05 PM
; FORMAT={-:-/ absolute / inch / decimal}
; #@! TF.CreationDate,2021-04-03T20:08:05-06:00
; #@! TF.GenerationSoftware,Kicad,Pcbnew,(5.1.8-0-10_14)
; #@! TF.FileFunction,Plated,1,2,PTH
FMAT,2
INCH
T1C0.0157
T2C0.0315
T3C0.0394
%
G90
G05
T1
X4.76Y-4.29
X4.94Y-4.25
T2
X5.4Y-4.15
X5.4Y-4.25
X5.4Y-4.35
X5.4Y-4.45
X5.4Y-4.55
X5.4Y-4.65
X5.4Y-4.75
X5.4Y-4.85
X5.4Y-4.95
X5.4Y-5.05
X5.4Y-3.05
X5.4Y-3.15
X5.4Y-3.25
X5.4Y-3.35
X5.4Y-3.45
X5.4Y-3.55
X5.4Y-3.65
X5.4Y-3.75
X5.4Y-3.85
X5.4Y-3.95
X6.35Y-3.5433
X6.35Y-3.622
X6.35Y-3.7008
X6.35Y-3.7795
X6.35Y-3.8583
X6.35Y-3.937
X6.35Y-4.0157
X6.35Y-4.0945
X6.35Y-4.1732
X6.35Y-4.252
X6.35Y-4.3307
X6.35Y-4.4094
X6.35Y-4.4882
X6.35Y-4.5669
X6.35Y-4.6457
X6.35Y-4.7244
X6.35Y-4.8031
X6.35Y-4.8819
X6.35Y-4.9606
X6.35Y-5.0394
X6.4287Y-3.5433
X6.4287Y-3.622
X6.4287Y-3.7008
X6.4287Y-3.7795
X6.4287Y-3.8583
X6.4287Y-3.937
X6.4287Y-4.0157
X6.4287Y-4.0945
X6.4287Y-4.1732
X6.4287Y-4.252
X6.4287Y-4.3307
X6.4287Y-4.4094
X6.4287Y-4.4882
X6.4287Y-4.5669
X6.4287Y-4.6457
X6.4287Y-4.7244
X6.4287Y-4.8031
X6.4287Y-4.8819
X6.4287Y-4.9606
X6.4287Y-5.0394
X5.6Y-4.15
X5.6Y-4.25
X5.6Y-4.35
X5.6Y-4.45
X5.6Y-4.55
X5.6Y-4.65
X5.6Y-4.75
X5.6Y-4.85
X5.6Y-4.95
X5.6Y-5.05
X5.6Y-3.05
X5.6Y-3.15
X5.6Y-3.25
X5.6Y-3.35
X5.6Y-3.45
X5.6Y-3.55
X5.6Y-3.65
X5.6Y-3.75
X5.6Y-3.85
X5.6Y-3.95
X6.35Y-3.1496
X6.35Y-3.2283
X6.35Y-3.3071
X6.35Y-3.3858
X6.4287Y-3.1496
X6.4287Y-3.2283
X6.4287Y-3.3071
X6.4287Y-3.3858
T3
X5.75Y-2.83
X5.75Y-2.93
X4.2Y-4.09
X4.2Y-4.19
X4.2Y-4.29
X4.2Y-4.39
X4.2Y-4.49
X4.2Y-4.59
X4.2Y-4.69
X4.2Y-4.79
X4.2Y-4.89
X5.9449Y-2.85
X5.9449Y-2.95
X5.9449Y-3.05
X5.9449Y-3.15
X5.9449Y-3.25
X5.9449Y-3.35
X5.9449Y-3.45
X5.9449Y-3.55
X5.9449Y-3.65
X5.9449Y-3.75
X5.9449Y-3.85
X5.9449Y-3.95
X5.9449Y-4.05
X5.9449Y-4.15
X5.9449Y-4.25
X5.9449Y-4.35
X5.9449Y-4.45
X5.9449Y-4.55
X5.9449Y-4.65
X5.9449Y-4.75
X5.9449Y-4.85
X5.9449Y-4.95
X5.9449Y-5.05
X5.9449Y-5.15
X5.9449Y-5.25
X6.0449Y-2.85
X6.0449Y-2.95
X6.0449Y-3.05
X6.0449Y-3.15
X6.0449Y-3.25
X6.0449Y-3.35
X6.0449Y-3.45
X6.0449Y-3.55
X6.0449Y-3.65
X6.0449Y-3.75
X6.0449Y-3.85
X6.0449Y-3.95
X6.0449Y-4.05
X6.0449Y-4.15
X6.0449Y-4.25
X6.0449Y-4.35
X6.0449Y-4.45
X6.0449Y-4.55
X6.0449Y-4.65
X6.0449Y-4.75
X6.0449Y-4.85
X6.0449Y-4.95
X6.0449Y-5.05
X6.0449Y-5.15
X6.0449Y-5.25
X5.26Y-4.01
X5.26Y-4.11
X5.74Y-4.0
X5.74Y-4.1
X4.43Y-3.1
X4.43Y-3.2
X4.43Y-3.3
X4.43Y-3.4
X4.43Y-3.5
X4.43Y-3.6
X4.43Y-3.7
X4.43Y-3.8
X4.43Y-3.9
X4.43Y-4.0
X4.43Y-4.1
X4.43Y-4.2
X4.43Y-4.3
X4.43Y-4.4
X4.43Y-4.5
X4.43Y-4.6
X4.43Y-4.7
X4.43Y-4.8
X4.43Y-4.9
X4.43Y-5.0
X5.03Y-3.1
X5.03Y-3.2
X5.03Y-3.3
X5.03Y-3.4
X5.03Y-3.5
X5.03Y-3.6
X5.03Y-3.7
X5.03Y-3.8
X5.03Y-3.9
X5.03Y-4.0
X5.03Y-4.1
X5.03Y-4.2
X5.03Y-4.3
X5.03Y-4.4
X5.03Y-4.5
X5.03Y-4.6
X5.03Y-4.7
X5.03Y-4.8
X5.03Y-4.9
X5.03Y-5.0
X4.08Y-3.328
X4.08Y-3.428
X4.08Y-3.528
X4.08Y-3.628
T0
M30
