%TF.GenerationSoftware,KiCad,Pcbnew,(5.1.8-0-10_14)*%
%TF.CreationDate,2021-04-04T23:03:52-06:00*%
%TF.ProjectId,bluescsi_powerbook,626c7565-7363-4736-995f-706f77657262,rev?*%
%TF.SameCoordinates,Original*%
%TF.FileFunction,Legend,Top*%
%TF.FilePolarity,Positive*%
%FSLAX46Y46*%
G04 Gerber Fmt 4.6, Leading zero omitted, Abs format (unit mm)*
G04 Created by KiCad (PCBNEW (5.1.8-0-10_14)) date 2021-04-04 23:03:52*
%MOMM*%
%LPD*%
G01*
G04 APERTURE LIST*
%ADD10C,0.150000*%
%ADD11C,0.200000*%
%ADD12C,0.250000*%
%ADD13C,0.120000*%
G04 APERTURE END LIST*
D10*
X95537976Y-83161666D02*
X96014166Y-83161666D01*
X95442738Y-83447380D02*
X95776071Y-82447380D01*
X96109404Y-83447380D01*
X96871309Y-83399761D02*
X96776071Y-83447380D01*
X96585595Y-83447380D01*
X96490357Y-83399761D01*
X96442738Y-83352142D01*
X96395119Y-83256904D01*
X96395119Y-82971190D01*
X96442738Y-82875952D01*
X96490357Y-82828333D01*
X96585595Y-82780714D01*
X96776071Y-82780714D01*
X96871309Y-82828333D01*
X97157023Y-82780714D02*
X97537976Y-82780714D01*
X97299880Y-82447380D02*
X97299880Y-83304523D01*
X97347500Y-83399761D01*
X97442738Y-83447380D01*
X97537976Y-83447380D01*
X97871309Y-83447380D02*
X97871309Y-82780714D01*
X97871309Y-82447380D02*
X97823690Y-82495000D01*
X97871309Y-82542619D01*
X97918928Y-82495000D01*
X97871309Y-82447380D01*
X97871309Y-82542619D01*
X98252261Y-82780714D02*
X98490357Y-83447380D01*
X98728452Y-82780714D01*
X99109404Y-83447380D02*
X99109404Y-82780714D01*
X99109404Y-82447380D02*
X99061785Y-82495000D01*
X99109404Y-82542619D01*
X99157023Y-82495000D01*
X99109404Y-82447380D01*
X99109404Y-82542619D01*
X99442738Y-82780714D02*
X99823690Y-82780714D01*
X99585595Y-82447380D02*
X99585595Y-83304523D01*
X99633214Y-83399761D01*
X99728452Y-83447380D01*
X99823690Y-83447380D01*
X100061785Y-82780714D02*
X100299880Y-83447380D01*
X100537976Y-82780714D02*
X100299880Y-83447380D01*
X100204642Y-83685476D01*
X100157023Y-83733095D01*
X100061785Y-83780714D01*
X102157023Y-83447380D02*
X101680833Y-83447380D01*
X101680833Y-82447380D01*
X102490357Y-82923571D02*
X102823690Y-82923571D01*
X102966547Y-83447380D02*
X102490357Y-83447380D01*
X102490357Y-82447380D01*
X102966547Y-82447380D01*
X103395119Y-83447380D02*
X103395119Y-82447380D01*
X103633214Y-82447380D01*
X103776071Y-82495000D01*
X103871309Y-82590238D01*
X103918928Y-82685476D01*
X103966547Y-82875952D01*
X103966547Y-83018809D01*
X103918928Y-83209285D01*
X103871309Y-83304523D01*
X103776071Y-83399761D01*
X103633214Y-83447380D01*
X103395119Y-83447380D01*
X95871309Y-85478333D02*
X95823690Y-85430714D01*
X95728452Y-85287857D01*
X95680833Y-85192619D01*
X95633214Y-85049761D01*
X95585595Y-84811666D01*
X95585595Y-84621190D01*
X95633214Y-84383095D01*
X95680833Y-84240238D01*
X95728452Y-84145000D01*
X95823690Y-84002142D01*
X95871309Y-83954523D01*
X96680833Y-85097380D02*
X96680833Y-84573571D01*
X96633214Y-84478333D01*
X96537976Y-84430714D01*
X96347500Y-84430714D01*
X96252261Y-84478333D01*
X96680833Y-85049761D02*
X96585595Y-85097380D01*
X96347500Y-85097380D01*
X96252261Y-85049761D01*
X96204642Y-84954523D01*
X96204642Y-84859285D01*
X96252261Y-84764047D01*
X96347500Y-84716428D01*
X96585595Y-84716428D01*
X96680833Y-84668809D01*
X97585595Y-85049761D02*
X97490357Y-85097380D01*
X97299880Y-85097380D01*
X97204642Y-85049761D01*
X97157023Y-85002142D01*
X97109404Y-84906904D01*
X97109404Y-84621190D01*
X97157023Y-84525952D01*
X97204642Y-84478333D01*
X97299880Y-84430714D01*
X97490357Y-84430714D01*
X97585595Y-84478333D01*
X97871309Y-84430714D02*
X98252261Y-84430714D01*
X98014166Y-84097380D02*
X98014166Y-84954523D01*
X98061785Y-85049761D01*
X98157023Y-85097380D01*
X98252261Y-85097380D01*
X98585595Y-85097380D02*
X98585595Y-84430714D01*
X98585595Y-84097380D02*
X98537976Y-84145000D01*
X98585595Y-84192619D01*
X98633214Y-84145000D01*
X98585595Y-84097380D01*
X98585595Y-84192619D01*
X98966547Y-84430714D02*
X99204642Y-85097380D01*
X99442738Y-84430714D01*
X100204642Y-85049761D02*
X100109404Y-85097380D01*
X99918928Y-85097380D01*
X99823690Y-85049761D01*
X99776071Y-84954523D01*
X99776071Y-84573571D01*
X99823690Y-84478333D01*
X99918928Y-84430714D01*
X100109404Y-84430714D01*
X100204642Y-84478333D01*
X100252261Y-84573571D01*
X100252261Y-84668809D01*
X99776071Y-84764047D01*
X101585595Y-85097380D02*
X101490357Y-85049761D01*
X101442738Y-84954523D01*
X101442738Y-84097380D01*
X102109404Y-85097380D02*
X102014166Y-85049761D01*
X101966547Y-85002142D01*
X101918928Y-84906904D01*
X101918928Y-84621190D01*
X101966547Y-84525952D01*
X102014166Y-84478333D01*
X102109404Y-84430714D01*
X102252261Y-84430714D01*
X102347500Y-84478333D01*
X102395119Y-84525952D01*
X102442738Y-84621190D01*
X102442738Y-84906904D01*
X102395119Y-85002142D01*
X102347500Y-85049761D01*
X102252261Y-85097380D01*
X102109404Y-85097380D01*
X102776071Y-84430714D02*
X102966547Y-85097380D01*
X103157023Y-84621190D01*
X103347500Y-85097380D01*
X103537976Y-84430714D01*
X103823690Y-85478333D02*
X103871309Y-85430714D01*
X103966547Y-85287857D01*
X104014166Y-85192619D01*
X104061785Y-85049761D01*
X104109404Y-84811666D01*
X104109404Y-84621190D01*
X104061785Y-84383095D01*
X104014166Y-84240238D01*
X103966547Y-84145000D01*
X103871309Y-84002142D01*
X103823690Y-83954523D01*
D11*
X100055142Y-71843571D02*
X100055142Y-70343571D01*
X100626571Y-70343571D01*
X100769428Y-70415000D01*
X100840857Y-70486428D01*
X100912285Y-70629285D01*
X100912285Y-70843571D01*
X100840857Y-70986428D01*
X100769428Y-71057857D01*
X100626571Y-71129285D01*
X100055142Y-71129285D01*
X101769428Y-71843571D02*
X101626571Y-71772142D01*
X101555142Y-71700714D01*
X101483714Y-71557857D01*
X101483714Y-71129285D01*
X101555142Y-70986428D01*
X101626571Y-70915000D01*
X101769428Y-70843571D01*
X101983714Y-70843571D01*
X102126571Y-70915000D01*
X102198000Y-70986428D01*
X102269428Y-71129285D01*
X102269428Y-71557857D01*
X102198000Y-71700714D01*
X102126571Y-71772142D01*
X101983714Y-71843571D01*
X101769428Y-71843571D01*
X102769428Y-70843571D02*
X103055142Y-71843571D01*
X103340857Y-71129285D01*
X103626571Y-71843571D01*
X103912285Y-70843571D01*
X105055142Y-71772142D02*
X104912285Y-71843571D01*
X104626571Y-71843571D01*
X104483714Y-71772142D01*
X104412285Y-71629285D01*
X104412285Y-71057857D01*
X104483714Y-70915000D01*
X104626571Y-70843571D01*
X104912285Y-70843571D01*
X105055142Y-70915000D01*
X105126571Y-71057857D01*
X105126571Y-71200714D01*
X104412285Y-71343571D01*
X105769428Y-71843571D02*
X105769428Y-70843571D01*
X105769428Y-71129285D02*
X105840857Y-70986428D01*
X105912285Y-70915000D01*
X106055142Y-70843571D01*
X106198000Y-70843571D01*
X107198000Y-71057857D02*
X107412285Y-71129285D01*
X107483714Y-71200714D01*
X107555142Y-71343571D01*
X107555142Y-71557857D01*
X107483714Y-71700714D01*
X107412285Y-71772142D01*
X107269428Y-71843571D01*
X106698000Y-71843571D01*
X106698000Y-70343571D01*
X107198000Y-70343571D01*
X107340857Y-70415000D01*
X107412285Y-70486428D01*
X107483714Y-70629285D01*
X107483714Y-70772142D01*
X107412285Y-70915000D01*
X107340857Y-70986428D01*
X107198000Y-71057857D01*
X106698000Y-71057857D01*
X108412285Y-71843571D02*
X108269428Y-71772142D01*
X108198000Y-71700714D01*
X108126571Y-71557857D01*
X108126571Y-71129285D01*
X108198000Y-70986428D01*
X108269428Y-70915000D01*
X108412285Y-70843571D01*
X108626571Y-70843571D01*
X108769428Y-70915000D01*
X108840857Y-70986428D01*
X108912285Y-71129285D01*
X108912285Y-71557857D01*
X108840857Y-71700714D01*
X108769428Y-71772142D01*
X108626571Y-71843571D01*
X108412285Y-71843571D01*
X109769428Y-71843571D02*
X109626571Y-71772142D01*
X109555142Y-71700714D01*
X109483714Y-71557857D01*
X109483714Y-71129285D01*
X109555142Y-70986428D01*
X109626571Y-70915000D01*
X109769428Y-70843571D01*
X109983714Y-70843571D01*
X110126571Y-70915000D01*
X110198000Y-70986428D01*
X110269428Y-71129285D01*
X110269428Y-71557857D01*
X110198000Y-71700714D01*
X110126571Y-71772142D01*
X109983714Y-71843571D01*
X109769428Y-71843571D01*
X110912285Y-71843571D02*
X110912285Y-70343571D01*
X111055142Y-71272142D02*
X111483714Y-71843571D01*
X111483714Y-70843571D02*
X110912285Y-71415000D01*
X113198000Y-71415000D02*
X113912285Y-71415000D01*
X113055142Y-71843571D02*
X113555142Y-70343571D01*
X114055142Y-71843571D01*
X115198000Y-71843571D02*
X115198000Y-70343571D01*
X115198000Y-71772142D02*
X115055142Y-71843571D01*
X114769428Y-71843571D01*
X114626571Y-71772142D01*
X114555142Y-71700714D01*
X114483714Y-71557857D01*
X114483714Y-71129285D01*
X114555142Y-70986428D01*
X114626571Y-70915000D01*
X114769428Y-70843571D01*
X115055142Y-70843571D01*
X115198000Y-70915000D01*
X116555142Y-71843571D02*
X116555142Y-71057857D01*
X116483714Y-70915000D01*
X116340857Y-70843571D01*
X116055142Y-70843571D01*
X115912285Y-70915000D01*
X116555142Y-71772142D02*
X116412285Y-71843571D01*
X116055142Y-71843571D01*
X115912285Y-71772142D01*
X115840857Y-71629285D01*
X115840857Y-71486428D01*
X115912285Y-71343571D01*
X116055142Y-71272142D01*
X116412285Y-71272142D01*
X116555142Y-71200714D01*
X117269428Y-70843571D02*
X117269428Y-72343571D01*
X117269428Y-70915000D02*
X117412285Y-70843571D01*
X117698000Y-70843571D01*
X117840857Y-70915000D01*
X117912285Y-70986428D01*
X117983714Y-71129285D01*
X117983714Y-71557857D01*
X117912285Y-71700714D01*
X117840857Y-71772142D01*
X117698000Y-71843571D01*
X117412285Y-71843571D01*
X117269428Y-71772142D01*
X118412285Y-70843571D02*
X118983714Y-70843571D01*
X118626571Y-70343571D02*
X118626571Y-71629285D01*
X118698000Y-71772142D01*
X118840857Y-71843571D01*
X118983714Y-71843571D01*
X120055142Y-71772142D02*
X119912285Y-71843571D01*
X119626571Y-71843571D01*
X119483714Y-71772142D01*
X119412285Y-71629285D01*
X119412285Y-71057857D01*
X119483714Y-70915000D01*
X119626571Y-70843571D01*
X119912285Y-70843571D01*
X120055142Y-70915000D01*
X120126571Y-71057857D01*
X120126571Y-71200714D01*
X119412285Y-71343571D01*
X120769428Y-71843571D02*
X120769428Y-70843571D01*
X120769428Y-71129285D02*
X120840857Y-70986428D01*
X120912285Y-70915000D01*
X121055142Y-70843571D01*
X121198000Y-70843571D01*
X99840857Y-73293571D02*
X100412285Y-73293571D01*
X100055142Y-74293571D02*
X100055142Y-73007857D01*
X100126571Y-72865000D01*
X100269428Y-72793571D01*
X100412285Y-72793571D01*
X101126571Y-74293571D02*
X100983714Y-74222142D01*
X100912285Y-74150714D01*
X100840857Y-74007857D01*
X100840857Y-73579285D01*
X100912285Y-73436428D01*
X100983714Y-73365000D01*
X101126571Y-73293571D01*
X101340857Y-73293571D01*
X101483714Y-73365000D01*
X101555142Y-73436428D01*
X101626571Y-73579285D01*
X101626571Y-74007857D01*
X101555142Y-74150714D01*
X101483714Y-74222142D01*
X101340857Y-74293571D01*
X101126571Y-74293571D01*
X102269428Y-74293571D02*
X102269428Y-73293571D01*
X102269428Y-73579285D02*
X102340857Y-73436428D01*
X102412285Y-73365000D01*
X102555142Y-73293571D01*
X102698000Y-73293571D01*
X104840857Y-73507857D02*
X105055142Y-73579285D01*
X105126571Y-73650714D01*
X105198000Y-73793571D01*
X105198000Y-74007857D01*
X105126571Y-74150714D01*
X105055142Y-74222142D01*
X104912285Y-74293571D01*
X104340857Y-74293571D01*
X104340857Y-72793571D01*
X104840857Y-72793571D01*
X104983714Y-72865000D01*
X105055142Y-72936428D01*
X105126571Y-73079285D01*
X105126571Y-73222142D01*
X105055142Y-73365000D01*
X104983714Y-73436428D01*
X104840857Y-73507857D01*
X104340857Y-73507857D01*
X106055142Y-74293571D02*
X105912285Y-74222142D01*
X105840857Y-74079285D01*
X105840857Y-72793571D01*
X107269428Y-73293571D02*
X107269428Y-74293571D01*
X106626571Y-73293571D02*
X106626571Y-74079285D01*
X106698000Y-74222142D01*
X106840857Y-74293571D01*
X107055142Y-74293571D01*
X107198000Y-74222142D01*
X107269428Y-74150714D01*
X108555142Y-74222142D02*
X108412285Y-74293571D01*
X108126571Y-74293571D01*
X107983714Y-74222142D01*
X107912285Y-74079285D01*
X107912285Y-73507857D01*
X107983714Y-73365000D01*
X108126571Y-73293571D01*
X108412285Y-73293571D01*
X108555142Y-73365000D01*
X108626571Y-73507857D01*
X108626571Y-73650714D01*
X107912285Y-73793571D01*
X109198000Y-74222142D02*
X109412285Y-74293571D01*
X109769428Y-74293571D01*
X109912285Y-74222142D01*
X109983714Y-74150714D01*
X110055142Y-74007857D01*
X110055142Y-73865000D01*
X109983714Y-73722142D01*
X109912285Y-73650714D01*
X109769428Y-73579285D01*
X109483714Y-73507857D01*
X109340857Y-73436428D01*
X109269428Y-73365000D01*
X109198000Y-73222142D01*
X109198000Y-73079285D01*
X109269428Y-72936428D01*
X109340857Y-72865000D01*
X109483714Y-72793571D01*
X109840857Y-72793571D01*
X110055142Y-72865000D01*
X111555142Y-74150714D02*
X111483714Y-74222142D01*
X111269428Y-74293571D01*
X111126571Y-74293571D01*
X110912285Y-74222142D01*
X110769428Y-74079285D01*
X110698000Y-73936428D01*
X110626571Y-73650714D01*
X110626571Y-73436428D01*
X110698000Y-73150714D01*
X110769428Y-73007857D01*
X110912285Y-72865000D01*
X111126571Y-72793571D01*
X111269428Y-72793571D01*
X111483714Y-72865000D01*
X111555142Y-72936428D01*
X112126571Y-74222142D02*
X112340857Y-74293571D01*
X112698000Y-74293571D01*
X112840857Y-74222142D01*
X112912285Y-74150714D01*
X112983714Y-74007857D01*
X112983714Y-73865000D01*
X112912285Y-73722142D01*
X112840857Y-73650714D01*
X112698000Y-73579285D01*
X112412285Y-73507857D01*
X112269428Y-73436428D01*
X112198000Y-73365000D01*
X112126571Y-73222142D01*
X112126571Y-73079285D01*
X112198000Y-72936428D01*
X112269428Y-72865000D01*
X112412285Y-72793571D01*
X112769428Y-72793571D01*
X112983714Y-72865000D01*
X113626571Y-74293571D02*
X113626571Y-72793571D01*
D10*
X120230476Y-74604571D02*
X120373333Y-74652190D01*
X120420952Y-74699809D01*
X120468571Y-74795047D01*
X120468571Y-74937904D01*
X120420952Y-75033142D01*
X120373333Y-75080761D01*
X120278095Y-75128380D01*
X119897142Y-75128380D01*
X119897142Y-74128380D01*
X120230476Y-74128380D01*
X120325714Y-74176000D01*
X120373333Y-74223619D01*
X120420952Y-74318857D01*
X120420952Y-74414095D01*
X120373333Y-74509333D01*
X120325714Y-74556952D01*
X120230476Y-74604571D01*
X119897142Y-74604571D01*
X120897142Y-75128380D02*
X120897142Y-74461714D01*
X120897142Y-74652190D02*
X120944761Y-74556952D01*
X120992380Y-74509333D01*
X121087619Y-74461714D01*
X121182857Y-74461714D01*
X121516190Y-75128380D02*
X121516190Y-74461714D01*
X121516190Y-74128380D02*
X121468571Y-74176000D01*
X121516190Y-74223619D01*
X121563809Y-74176000D01*
X121516190Y-74128380D01*
X121516190Y-74223619D01*
X122420952Y-75128380D02*
X122420952Y-74128380D01*
X122420952Y-75080761D02*
X122325714Y-75128380D01*
X122135238Y-75128380D01*
X122040000Y-75080761D01*
X121992380Y-75033142D01*
X121944761Y-74937904D01*
X121944761Y-74652190D01*
X121992380Y-74556952D01*
X122040000Y-74509333D01*
X122135238Y-74461714D01*
X122325714Y-74461714D01*
X122420952Y-74509333D01*
X123325714Y-74461714D02*
X123325714Y-75271238D01*
X123278095Y-75366476D01*
X123230476Y-75414095D01*
X123135238Y-75461714D01*
X122992380Y-75461714D01*
X122897142Y-75414095D01*
X123325714Y-75080761D02*
X123230476Y-75128380D01*
X123040000Y-75128380D01*
X122944761Y-75080761D01*
X122897142Y-75033142D01*
X122849523Y-74937904D01*
X122849523Y-74652190D01*
X122897142Y-74556952D01*
X122944761Y-74509333D01*
X123040000Y-74461714D01*
X123230476Y-74461714D01*
X123325714Y-74509333D01*
X124182857Y-75080761D02*
X124087619Y-75128380D01*
X123897142Y-75128380D01*
X123801904Y-75080761D01*
X123754285Y-74985523D01*
X123754285Y-74604571D01*
X123801904Y-74509333D01*
X123897142Y-74461714D01*
X124087619Y-74461714D01*
X124182857Y-74509333D01*
X124230476Y-74604571D01*
X124230476Y-74699809D01*
X123754285Y-74795047D01*
X125278095Y-74128380D02*
X125849523Y-74128380D01*
X125563809Y-75128380D02*
X125563809Y-74128380D01*
X126182857Y-74604571D02*
X126516190Y-74604571D01*
X126659047Y-75128380D02*
X126182857Y-75128380D01*
X126182857Y-74128380D01*
X126659047Y-74128380D01*
X127659047Y-75128380D02*
X127325714Y-74652190D01*
X127087619Y-75128380D02*
X127087619Y-74128380D01*
X127468571Y-74128380D01*
X127563809Y-74176000D01*
X127611428Y-74223619D01*
X127659047Y-74318857D01*
X127659047Y-74461714D01*
X127611428Y-74556952D01*
X127563809Y-74604571D01*
X127468571Y-74652190D01*
X127087619Y-74652190D01*
X128087619Y-75128380D02*
X128087619Y-74128380D01*
X128420952Y-74842666D01*
X128754285Y-74128380D01*
X128754285Y-75128380D01*
X129230476Y-75128380D02*
X129230476Y-74128380D01*
X129611428Y-74128380D01*
X129706666Y-74176000D01*
X129754285Y-74223619D01*
X129801904Y-74318857D01*
X129801904Y-74461714D01*
X129754285Y-74556952D01*
X129706666Y-74604571D01*
X129611428Y-74652190D01*
X129230476Y-74652190D01*
X130135238Y-74128380D02*
X130373333Y-75128380D01*
X130563809Y-74414095D01*
X130754285Y-75128380D01*
X130992380Y-74128380D01*
X131944761Y-75128380D02*
X131611428Y-74652190D01*
X131373333Y-75128380D02*
X131373333Y-74128380D01*
X131754285Y-74128380D01*
X131849523Y-74176000D01*
X131897142Y-74223619D01*
X131944761Y-74318857D01*
X131944761Y-74461714D01*
X131897142Y-74556952D01*
X131849523Y-74604571D01*
X131754285Y-74652190D01*
X131373333Y-74652190D01*
X133563809Y-75128380D02*
X133563809Y-74604571D01*
X133516190Y-74509333D01*
X133420952Y-74461714D01*
X133230476Y-74461714D01*
X133135238Y-74509333D01*
X133563809Y-75080761D02*
X133468571Y-75128380D01*
X133230476Y-75128380D01*
X133135238Y-75080761D01*
X133087619Y-74985523D01*
X133087619Y-74890285D01*
X133135238Y-74795047D01*
X133230476Y-74747428D01*
X133468571Y-74747428D01*
X133563809Y-74699809D01*
X134040000Y-74461714D02*
X134040000Y-75128380D01*
X134040000Y-74556952D02*
X134087619Y-74509333D01*
X134182857Y-74461714D01*
X134325714Y-74461714D01*
X134420952Y-74509333D01*
X134468571Y-74604571D01*
X134468571Y-75128380D01*
X135373333Y-75128380D02*
X135373333Y-74128380D01*
X135373333Y-75080761D02*
X135278095Y-75128380D01*
X135087619Y-75128380D01*
X134992380Y-75080761D01*
X134944761Y-75033142D01*
X134897142Y-74937904D01*
X134897142Y-74652190D01*
X134944761Y-74556952D01*
X134992380Y-74509333D01*
X135087619Y-74461714D01*
X135278095Y-74461714D01*
X135373333Y-74509333D01*
X136611428Y-74747428D02*
X137373333Y-74747428D01*
X136992380Y-75128380D02*
X136992380Y-74366476D01*
X138325714Y-74128380D02*
X137849523Y-74128380D01*
X137801904Y-74604571D01*
X137849523Y-74556952D01*
X137944761Y-74509333D01*
X138182857Y-74509333D01*
X138278095Y-74556952D01*
X138325714Y-74604571D01*
X138373333Y-74699809D01*
X138373333Y-74937904D01*
X138325714Y-75033142D01*
X138278095Y-75080761D01*
X138182857Y-75128380D01*
X137944761Y-75128380D01*
X137849523Y-75080761D01*
X137801904Y-75033142D01*
X138659047Y-74128380D02*
X138992380Y-75128380D01*
X139325714Y-74128380D01*
X158718476Y-70414571D02*
X158861333Y-70462190D01*
X158908952Y-70509809D01*
X158956571Y-70605047D01*
X158956571Y-70747904D01*
X158908952Y-70843142D01*
X158861333Y-70890761D01*
X158766095Y-70938380D01*
X158385142Y-70938380D01*
X158385142Y-69938380D01*
X158718476Y-69938380D01*
X158813714Y-69986000D01*
X158861333Y-70033619D01*
X158908952Y-70128857D01*
X158908952Y-70224095D01*
X158861333Y-70319333D01*
X158813714Y-70366952D01*
X158718476Y-70414571D01*
X158385142Y-70414571D01*
X159385142Y-70938380D02*
X159385142Y-70271714D01*
X159385142Y-70462190D02*
X159432761Y-70366952D01*
X159480380Y-70319333D01*
X159575619Y-70271714D01*
X159670857Y-70271714D01*
X160004190Y-70938380D02*
X160004190Y-70271714D01*
X160004190Y-69938380D02*
X159956571Y-69986000D01*
X160004190Y-70033619D01*
X160051809Y-69986000D01*
X160004190Y-69938380D01*
X160004190Y-70033619D01*
X160908952Y-70938380D02*
X160908952Y-69938380D01*
X160908952Y-70890761D02*
X160813714Y-70938380D01*
X160623238Y-70938380D01*
X160528000Y-70890761D01*
X160480380Y-70843142D01*
X160432761Y-70747904D01*
X160432761Y-70462190D01*
X160480380Y-70366952D01*
X160528000Y-70319333D01*
X160623238Y-70271714D01*
X160813714Y-70271714D01*
X160908952Y-70319333D01*
X161813714Y-70271714D02*
X161813714Y-71081238D01*
X161766095Y-71176476D01*
X161718476Y-71224095D01*
X161623238Y-71271714D01*
X161480380Y-71271714D01*
X161385142Y-71224095D01*
X161813714Y-70890761D02*
X161718476Y-70938380D01*
X161528000Y-70938380D01*
X161432761Y-70890761D01*
X161385142Y-70843142D01*
X161337523Y-70747904D01*
X161337523Y-70462190D01*
X161385142Y-70366952D01*
X161432761Y-70319333D01*
X161528000Y-70271714D01*
X161718476Y-70271714D01*
X161813714Y-70319333D01*
X162670857Y-70890761D02*
X162575619Y-70938380D01*
X162385142Y-70938380D01*
X162289904Y-70890761D01*
X162242285Y-70795523D01*
X162242285Y-70414571D01*
X162289904Y-70319333D01*
X162385142Y-70271714D01*
X162575619Y-70271714D01*
X162670857Y-70319333D01*
X162718476Y-70414571D01*
X162718476Y-70509809D01*
X162242285Y-70605047D01*
X156694666Y-72588380D02*
X156694666Y-71588380D01*
X157028000Y-72302666D01*
X157361333Y-71588380D01*
X157361333Y-72588380D01*
X158028000Y-71588380D02*
X158218476Y-71588380D01*
X158313714Y-71636000D01*
X158408952Y-71731238D01*
X158456571Y-71921714D01*
X158456571Y-72255047D01*
X158408952Y-72445523D01*
X158313714Y-72540761D01*
X158218476Y-72588380D01*
X158028000Y-72588380D01*
X157932761Y-72540761D01*
X157837523Y-72445523D01*
X157789904Y-72255047D01*
X157789904Y-71921714D01*
X157837523Y-71731238D01*
X157932761Y-71636000D01*
X158028000Y-71588380D01*
X158742285Y-71588380D02*
X159313714Y-71588380D01*
X159028000Y-72588380D02*
X159028000Y-71588380D01*
X159837523Y-71588380D02*
X160028000Y-71588380D01*
X160123238Y-71636000D01*
X160218476Y-71731238D01*
X160266095Y-71921714D01*
X160266095Y-72255047D01*
X160218476Y-72445523D01*
X160123238Y-72540761D01*
X160028000Y-72588380D01*
X159837523Y-72588380D01*
X159742285Y-72540761D01*
X159647047Y-72445523D01*
X159599428Y-72255047D01*
X159599428Y-71921714D01*
X159647047Y-71731238D01*
X159742285Y-71636000D01*
X159837523Y-71588380D01*
X161266095Y-72588380D02*
X160932761Y-72112190D01*
X160694666Y-72588380D02*
X160694666Y-71588380D01*
X161075619Y-71588380D01*
X161170857Y-71636000D01*
X161218476Y-71683619D01*
X161266095Y-71778857D01*
X161266095Y-71921714D01*
X161218476Y-72016952D01*
X161170857Y-72064571D01*
X161075619Y-72112190D01*
X160694666Y-72112190D01*
X161694666Y-72588380D02*
X161694666Y-71588380D01*
X162075619Y-71588380D01*
X162170857Y-71636000D01*
X162218476Y-71683619D01*
X162266095Y-71778857D01*
X162266095Y-71921714D01*
X162218476Y-72016952D01*
X162170857Y-72064571D01*
X162075619Y-72112190D01*
X161694666Y-72112190D01*
X162599428Y-71588380D02*
X162837523Y-72588380D01*
X163028000Y-71874095D01*
X163218476Y-72588380D01*
X163456571Y-71588380D01*
X164408952Y-72588380D02*
X164075619Y-72112190D01*
X163837523Y-72588380D02*
X163837523Y-71588380D01*
X164218476Y-71588380D01*
X164313714Y-71636000D01*
X164361333Y-71683619D01*
X164408952Y-71778857D01*
X164408952Y-71921714D01*
X164361333Y-72016952D01*
X164313714Y-72064571D01*
X164218476Y-72112190D01*
X163837523Y-72112190D01*
X157932761Y-74238380D02*
X157932761Y-73714571D01*
X157885142Y-73619333D01*
X157789904Y-73571714D01*
X157599428Y-73571714D01*
X157504190Y-73619333D01*
X157932761Y-74190761D02*
X157837523Y-74238380D01*
X157599428Y-74238380D01*
X157504190Y-74190761D01*
X157456571Y-74095523D01*
X157456571Y-74000285D01*
X157504190Y-73905047D01*
X157599428Y-73857428D01*
X157837523Y-73857428D01*
X157932761Y-73809809D01*
X158408952Y-73571714D02*
X158408952Y-74238380D01*
X158408952Y-73666952D02*
X158456571Y-73619333D01*
X158551809Y-73571714D01*
X158694666Y-73571714D01*
X158789904Y-73619333D01*
X158837523Y-73714571D01*
X158837523Y-74238380D01*
X159742285Y-74238380D02*
X159742285Y-73238380D01*
X159742285Y-74190761D02*
X159647047Y-74238380D01*
X159456571Y-74238380D01*
X159361333Y-74190761D01*
X159313714Y-74143142D01*
X159266095Y-74047904D01*
X159266095Y-73762190D01*
X159313714Y-73666952D01*
X159361333Y-73619333D01*
X159456571Y-73571714D01*
X159647047Y-73571714D01*
X159742285Y-73619333D01*
X160980380Y-73857428D02*
X161742285Y-73857428D01*
X161361333Y-74238380D02*
X161361333Y-73476476D01*
X162694666Y-73238380D02*
X162218476Y-73238380D01*
X162170857Y-73714571D01*
X162218476Y-73666952D01*
X162313714Y-73619333D01*
X162551809Y-73619333D01*
X162647047Y-73666952D01*
X162694666Y-73714571D01*
X162742285Y-73809809D01*
X162742285Y-74047904D01*
X162694666Y-74143142D01*
X162647047Y-74190761D01*
X162551809Y-74238380D01*
X162313714Y-74238380D01*
X162218476Y-74190761D01*
X162170857Y-74143142D01*
X163028000Y-73238380D02*
X163361333Y-74238380D01*
X163694666Y-73238380D01*
D11*
X112830571Y-133844142D02*
X113128190Y-134677476D01*
X113425809Y-133844142D01*
X114556761Y-134677476D02*
X113842476Y-134677476D01*
X114199619Y-134677476D02*
X114199619Y-133427476D01*
X114080571Y-133606047D01*
X113961523Y-133725095D01*
X113842476Y-133784619D01*
X115092476Y-134558428D02*
X115152000Y-134617952D01*
X115092476Y-134677476D01*
X115032952Y-134617952D01*
X115092476Y-134558428D01*
X115092476Y-134677476D01*
X116342476Y-134677476D02*
X115628190Y-134677476D01*
X115985333Y-134677476D02*
X115985333Y-133427476D01*
X115866285Y-133606047D01*
X115747238Y-133725095D01*
X115628190Y-133784619D01*
X116937714Y-134617952D02*
X116937714Y-134677476D01*
X116878190Y-134796523D01*
X116818666Y-134856047D01*
X118366285Y-134320333D02*
X118961523Y-134320333D01*
X118247238Y-134677476D02*
X118663904Y-133427476D01*
X119080571Y-134677476D01*
X119497238Y-133844142D02*
X119497238Y-135094142D01*
X119497238Y-133903666D02*
X119616285Y-133844142D01*
X119854380Y-133844142D01*
X119973428Y-133903666D01*
X120032952Y-133963190D01*
X120092476Y-134082238D01*
X120092476Y-134439380D01*
X120032952Y-134558428D01*
X119973428Y-134617952D01*
X119854380Y-134677476D01*
X119616285Y-134677476D01*
X119497238Y-134617952D01*
X120628190Y-134677476D02*
X120628190Y-133844142D01*
X120628190Y-134082238D02*
X120687714Y-133963190D01*
X120747238Y-133903666D01*
X120866285Y-133844142D01*
X120985333Y-133844142D01*
X121402000Y-134677476D02*
X121402000Y-133844142D01*
X121402000Y-133427476D02*
X121342476Y-133487000D01*
X121402000Y-133546523D01*
X121461523Y-133487000D01*
X121402000Y-133427476D01*
X121402000Y-133546523D01*
X122175809Y-134677476D02*
X122056761Y-134617952D01*
X121997238Y-134498904D01*
X121997238Y-133427476D01*
X123544857Y-133546523D02*
X123604380Y-133487000D01*
X123723428Y-133427476D01*
X124021047Y-133427476D01*
X124140095Y-133487000D01*
X124199619Y-133546523D01*
X124259142Y-133665571D01*
X124259142Y-133784619D01*
X124199619Y-133963190D01*
X123485333Y-134677476D01*
X124259142Y-134677476D01*
X125032952Y-133427476D02*
X125152000Y-133427476D01*
X125271047Y-133487000D01*
X125330571Y-133546523D01*
X125390095Y-133665571D01*
X125449619Y-133903666D01*
X125449619Y-134201285D01*
X125390095Y-134439380D01*
X125330571Y-134558428D01*
X125271047Y-134617952D01*
X125152000Y-134677476D01*
X125032952Y-134677476D01*
X124913904Y-134617952D01*
X124854380Y-134558428D01*
X124794857Y-134439380D01*
X124735333Y-134201285D01*
X124735333Y-133903666D01*
X124794857Y-133665571D01*
X124854380Y-133546523D01*
X124913904Y-133487000D01*
X125032952Y-133427476D01*
X125925809Y-133546523D02*
X125985333Y-133487000D01*
X126104380Y-133427476D01*
X126402000Y-133427476D01*
X126521047Y-133487000D01*
X126580571Y-133546523D01*
X126640095Y-133665571D01*
X126640095Y-133784619D01*
X126580571Y-133963190D01*
X125866285Y-134677476D01*
X126640095Y-134677476D01*
X127830571Y-134677476D02*
X127116285Y-134677476D01*
X127473428Y-134677476D02*
X127473428Y-133427476D01*
X127354380Y-133606047D01*
X127235333Y-133725095D01*
X127116285Y-133784619D01*
X105611333Y-130796142D02*
X105611333Y-131808047D01*
X105551809Y-131927095D01*
X105492285Y-131986619D01*
X105373238Y-132046142D01*
X105194666Y-132046142D01*
X105075619Y-131986619D01*
X105611333Y-131569952D02*
X105492285Y-131629476D01*
X105254190Y-131629476D01*
X105135142Y-131569952D01*
X105075619Y-131510428D01*
X105016095Y-131391380D01*
X105016095Y-131034238D01*
X105075619Y-130915190D01*
X105135142Y-130855666D01*
X105254190Y-130796142D01*
X105492285Y-130796142D01*
X105611333Y-130855666D01*
X106206571Y-131629476D02*
X106206571Y-130796142D01*
X106206571Y-130379476D02*
X106147047Y-130439000D01*
X106206571Y-130498523D01*
X106266095Y-130439000D01*
X106206571Y-130379476D01*
X106206571Y-130498523D01*
X106623238Y-130796142D02*
X107099428Y-130796142D01*
X106801809Y-130379476D02*
X106801809Y-131450904D01*
X106861333Y-131569952D01*
X106980380Y-131629476D01*
X107099428Y-131629476D01*
X107516095Y-131629476D02*
X107516095Y-130379476D01*
X108051809Y-131629476D02*
X108051809Y-130974714D01*
X107992285Y-130855666D01*
X107873238Y-130796142D01*
X107694666Y-130796142D01*
X107575619Y-130855666D01*
X107516095Y-130915190D01*
X109182761Y-130796142D02*
X109182761Y-131629476D01*
X108647047Y-130796142D02*
X108647047Y-131450904D01*
X108706571Y-131569952D01*
X108825619Y-131629476D01*
X109004190Y-131629476D01*
X109123238Y-131569952D01*
X109182761Y-131510428D01*
X109778000Y-131629476D02*
X109778000Y-130379476D01*
X109778000Y-130855666D02*
X109897047Y-130796142D01*
X110135142Y-130796142D01*
X110254190Y-130855666D01*
X110313714Y-130915190D01*
X110373238Y-131034238D01*
X110373238Y-131391380D01*
X110313714Y-131510428D01*
X110254190Y-131569952D01*
X110135142Y-131629476D01*
X109897047Y-131629476D01*
X109778000Y-131569952D01*
X110908952Y-131510428D02*
X110968476Y-131569952D01*
X110908952Y-131629476D01*
X110849428Y-131569952D01*
X110908952Y-131510428D01*
X110908952Y-131629476D01*
X112039904Y-131569952D02*
X111920857Y-131629476D01*
X111682761Y-131629476D01*
X111563714Y-131569952D01*
X111504190Y-131510428D01*
X111444666Y-131391380D01*
X111444666Y-131034238D01*
X111504190Y-130915190D01*
X111563714Y-130855666D01*
X111682761Y-130796142D01*
X111920857Y-130796142D01*
X112039904Y-130855666D01*
X112754190Y-131629476D02*
X112635142Y-131569952D01*
X112575619Y-131510428D01*
X112516095Y-131391380D01*
X112516095Y-131034238D01*
X112575619Y-130915190D01*
X112635142Y-130855666D01*
X112754190Y-130796142D01*
X112932761Y-130796142D01*
X113051809Y-130855666D01*
X113111333Y-130915190D01*
X113170857Y-131034238D01*
X113170857Y-131391380D01*
X113111333Y-131510428D01*
X113051809Y-131569952D01*
X112932761Y-131629476D01*
X112754190Y-131629476D01*
X113706571Y-131629476D02*
X113706571Y-130796142D01*
X113706571Y-130915190D02*
X113766095Y-130855666D01*
X113885142Y-130796142D01*
X114063714Y-130796142D01*
X114182761Y-130855666D01*
X114242285Y-130974714D01*
X114242285Y-131629476D01*
X114242285Y-130974714D02*
X114301809Y-130855666D01*
X114420857Y-130796142D01*
X114599428Y-130796142D01*
X114718476Y-130855666D01*
X114778000Y-130974714D01*
X114778000Y-131629476D01*
X116266095Y-130319952D02*
X115194666Y-131927095D01*
X116563714Y-131629476D02*
X117218476Y-130796142D01*
X116563714Y-130796142D02*
X117218476Y-131629476D01*
X118230380Y-130796142D02*
X118230380Y-131629476D01*
X117694666Y-130796142D02*
X117694666Y-131450904D01*
X117754190Y-131569952D01*
X117873238Y-131629476D01*
X118051809Y-131629476D01*
X118170857Y-131569952D01*
X118230380Y-131510428D01*
X118825619Y-130796142D02*
X118825619Y-131629476D01*
X118825619Y-130915190D02*
X118885142Y-130855666D01*
X119004190Y-130796142D01*
X119182761Y-130796142D01*
X119301809Y-130855666D01*
X119361333Y-130974714D01*
X119361333Y-131629476D01*
X119956571Y-131629476D02*
X119956571Y-130379476D01*
X120075619Y-131153285D02*
X120432761Y-131629476D01*
X120432761Y-130796142D02*
X119956571Y-131272333D01*
X121444666Y-131569952D02*
X121325619Y-131629476D01*
X121087523Y-131629476D01*
X120968476Y-131569952D01*
X120908952Y-131450904D01*
X120908952Y-130974714D01*
X120968476Y-130855666D01*
X121087523Y-130796142D01*
X121325619Y-130796142D01*
X121444666Y-130855666D01*
X121504190Y-130974714D01*
X121504190Y-131093761D01*
X120908952Y-131212809D01*
X122039904Y-131629476D02*
X122039904Y-130796142D01*
X122039904Y-131034238D02*
X122099428Y-130915190D01*
X122158952Y-130855666D01*
X122278000Y-130796142D01*
X122397047Y-130796142D01*
X123706571Y-130319952D02*
X122635142Y-131927095D01*
X124123238Y-131629476D02*
X124123238Y-130379476D01*
X124123238Y-130855666D02*
X124242285Y-130796142D01*
X124480380Y-130796142D01*
X124599428Y-130855666D01*
X124658952Y-130915190D01*
X124718476Y-131034238D01*
X124718476Y-131391380D01*
X124658952Y-131510428D01*
X124599428Y-131569952D01*
X124480380Y-131629476D01*
X124242285Y-131629476D01*
X124123238Y-131569952D01*
X125432761Y-131629476D02*
X125313714Y-131569952D01*
X125254190Y-131450904D01*
X125254190Y-130379476D01*
X126444666Y-130796142D02*
X126444666Y-131629476D01*
X125908952Y-130796142D02*
X125908952Y-131450904D01*
X125968476Y-131569952D01*
X126087523Y-131629476D01*
X126266095Y-131629476D01*
X126385142Y-131569952D01*
X126444666Y-131510428D01*
X127516095Y-131569952D02*
X127397047Y-131629476D01*
X127158952Y-131629476D01*
X127039904Y-131569952D01*
X126980380Y-131450904D01*
X126980380Y-130974714D01*
X127039904Y-130855666D01*
X127158952Y-130796142D01*
X127397047Y-130796142D01*
X127516095Y-130855666D01*
X127575619Y-130974714D01*
X127575619Y-131093761D01*
X126980380Y-131212809D01*
X128051809Y-131569952D02*
X128170857Y-131629476D01*
X128408952Y-131629476D01*
X128527999Y-131569952D01*
X128587523Y-131450904D01*
X128587523Y-131391380D01*
X128527999Y-131272333D01*
X128408952Y-131212809D01*
X128230380Y-131212809D01*
X128111333Y-131153285D01*
X128051809Y-131034238D01*
X128051809Y-130974714D01*
X128111333Y-130855666D01*
X128230380Y-130796142D01*
X128408952Y-130796142D01*
X128527999Y-130855666D01*
X129658952Y-131569952D02*
X129539904Y-131629476D01*
X129301809Y-131629476D01*
X129182761Y-131569952D01*
X129123238Y-131510428D01*
X129063714Y-131391380D01*
X129063714Y-131034238D01*
X129123238Y-130915190D01*
X129182761Y-130855666D01*
X129301809Y-130796142D01*
X129539904Y-130796142D01*
X129658952Y-130855666D01*
X130135142Y-131569952D02*
X130254190Y-131629476D01*
X130492285Y-131629476D01*
X130611333Y-131569952D01*
X130670857Y-131450904D01*
X130670857Y-131391380D01*
X130611333Y-131272333D01*
X130492285Y-131212809D01*
X130313714Y-131212809D01*
X130194666Y-131153285D01*
X130135142Y-131034238D01*
X130135142Y-130974714D01*
X130194666Y-130855666D01*
X130313714Y-130796142D01*
X130492285Y-130796142D01*
X130611333Y-130855666D01*
X131206571Y-131629476D02*
X131206571Y-130796142D01*
X131206571Y-130379476D02*
X131147047Y-130439000D01*
X131206571Y-130498523D01*
X131266095Y-130439000D01*
X131206571Y-130379476D01*
X131206571Y-130498523D01*
X131504190Y-131748523D02*
X132456571Y-131748523D01*
X132754190Y-130796142D02*
X132754190Y-132046142D01*
X132754190Y-130855666D02*
X132873238Y-130796142D01*
X133111333Y-130796142D01*
X133230380Y-130855666D01*
X133289904Y-130915190D01*
X133349428Y-131034238D01*
X133349428Y-131391380D01*
X133289904Y-131510428D01*
X133230380Y-131569952D01*
X133111333Y-131629476D01*
X132873238Y-131629476D01*
X132754190Y-131569952D01*
X133885142Y-131629476D02*
X133885142Y-130379476D01*
X133885142Y-130855666D02*
X134004190Y-130796142D01*
X134242285Y-130796142D01*
X134361333Y-130855666D01*
X134420857Y-130915190D01*
X134480380Y-131034238D01*
X134480380Y-131391380D01*
X134420857Y-131510428D01*
X134361333Y-131569952D01*
X134242285Y-131629476D01*
X134004190Y-131629476D01*
X133885142Y-131569952D01*
D10*
X144327619Y-82581523D02*
X144280000Y-82533904D01*
X144232380Y-82438666D01*
X144232380Y-82200571D01*
X144280000Y-82105333D01*
X144327619Y-82057714D01*
X144422857Y-82010095D01*
X144518095Y-82010095D01*
X144660952Y-82057714D01*
X145232380Y-82629142D01*
X145232380Y-82010095D01*
X144327619Y-81629142D02*
X144280000Y-81581523D01*
X144232380Y-81486285D01*
X144232380Y-81248190D01*
X144280000Y-81152952D01*
X144327619Y-81105333D01*
X144422857Y-81057714D01*
X144518095Y-81057714D01*
X144660952Y-81105333D01*
X145232380Y-81676761D01*
X145232380Y-81057714D01*
X144232380Y-80438666D02*
X144232380Y-80343428D01*
X144280000Y-80248190D01*
X144327619Y-80200571D01*
X144422857Y-80152952D01*
X144613333Y-80105333D01*
X144851428Y-80105333D01*
X145041904Y-80152952D01*
X145137142Y-80200571D01*
X145184761Y-80248190D01*
X145232380Y-80343428D01*
X145232380Y-80438666D01*
X145184761Y-80533904D01*
X145137142Y-80581523D01*
X145041904Y-80629142D01*
X144851428Y-80676761D01*
X144613333Y-80676761D01*
X144422857Y-80629142D01*
X144327619Y-80581523D01*
X144280000Y-80533904D01*
X144232380Y-80438666D01*
X145232380Y-79724380D02*
X145232380Y-79486285D01*
X145041904Y-79486285D01*
X144994285Y-79581523D01*
X144899047Y-79676761D01*
X144756190Y-79724380D01*
X144518095Y-79724380D01*
X144375238Y-79676761D01*
X144280000Y-79581523D01*
X144232380Y-79438666D01*
X144232380Y-79248190D01*
X144280000Y-79105333D01*
X144375238Y-79010095D01*
X144518095Y-78962476D01*
X144756190Y-78962476D01*
X144899047Y-79010095D01*
X144994285Y-79105333D01*
X145041904Y-79200571D01*
X145232380Y-79200571D01*
X145232380Y-78962476D01*
X144327619Y-127031523D02*
X144280000Y-126983904D01*
X144232380Y-126888666D01*
X144232380Y-126650571D01*
X144280000Y-126555333D01*
X144327619Y-126507714D01*
X144422857Y-126460095D01*
X144518095Y-126460095D01*
X144660952Y-126507714D01*
X145232380Y-127079142D01*
X145232380Y-126460095D01*
X144327619Y-126079142D02*
X144280000Y-126031523D01*
X144232380Y-125936285D01*
X144232380Y-125698190D01*
X144280000Y-125602952D01*
X144327619Y-125555333D01*
X144422857Y-125507714D01*
X144518095Y-125507714D01*
X144660952Y-125555333D01*
X145232380Y-126126761D01*
X145232380Y-125507714D01*
X144232380Y-124888666D02*
X144232380Y-124793428D01*
X144280000Y-124698190D01*
X144327619Y-124650571D01*
X144422857Y-124602952D01*
X144613333Y-124555333D01*
X144851428Y-124555333D01*
X145041904Y-124602952D01*
X145137142Y-124650571D01*
X145184761Y-124698190D01*
X145232380Y-124793428D01*
X145232380Y-124888666D01*
X145184761Y-124983904D01*
X145137142Y-125031523D01*
X145041904Y-125079142D01*
X144851428Y-125126761D01*
X144613333Y-125126761D01*
X144422857Y-125079142D01*
X144327619Y-125031523D01*
X144280000Y-124983904D01*
X144232380Y-124888666D01*
X145232380Y-124174380D02*
X145232380Y-123936285D01*
X145041904Y-123936285D01*
X144994285Y-124031523D01*
X144899047Y-124126761D01*
X144756190Y-124174380D01*
X144518095Y-124174380D01*
X144375238Y-124126761D01*
X144280000Y-124031523D01*
X144232380Y-123888666D01*
X144232380Y-123698190D01*
X144280000Y-123555333D01*
X144375238Y-123460095D01*
X144518095Y-123412476D01*
X144756190Y-123412476D01*
X144899047Y-123460095D01*
X144994285Y-123555333D01*
X145041904Y-123650571D01*
X145232380Y-123650571D01*
X145232380Y-123412476D01*
X138898380Y-126825142D02*
X138898380Y-126206095D01*
X139279333Y-126539428D01*
X139279333Y-126396571D01*
X139326952Y-126301333D01*
X139374571Y-126253714D01*
X139469809Y-126206095D01*
X139707904Y-126206095D01*
X139803142Y-126253714D01*
X139850761Y-126301333D01*
X139898380Y-126396571D01*
X139898380Y-126682285D01*
X139850761Y-126777523D01*
X139803142Y-126825142D01*
X138898380Y-125872761D02*
X138898380Y-125253714D01*
X139279333Y-125587047D01*
X139279333Y-125444190D01*
X139326952Y-125348952D01*
X139374571Y-125301333D01*
X139469809Y-125253714D01*
X139707904Y-125253714D01*
X139803142Y-125301333D01*
X139850761Y-125348952D01*
X139898380Y-125444190D01*
X139898380Y-125729904D01*
X139850761Y-125825142D01*
X139803142Y-125872761D01*
X138898380Y-124634666D02*
X138898380Y-124539428D01*
X138946000Y-124444190D01*
X138993619Y-124396571D01*
X139088857Y-124348952D01*
X139279333Y-124301333D01*
X139517428Y-124301333D01*
X139707904Y-124348952D01*
X139803142Y-124396571D01*
X139850761Y-124444190D01*
X139898380Y-124539428D01*
X139898380Y-124634666D01*
X139850761Y-124729904D01*
X139803142Y-124777523D01*
X139707904Y-124825142D01*
X139517428Y-124872761D01*
X139279333Y-124872761D01*
X139088857Y-124825142D01*
X138993619Y-124777523D01*
X138946000Y-124729904D01*
X138898380Y-124634666D01*
X139898380Y-123920380D02*
X139898380Y-123682285D01*
X139707904Y-123682285D01*
X139660285Y-123777523D01*
X139565047Y-123872761D01*
X139422190Y-123920380D01*
X139184095Y-123920380D01*
X139041238Y-123872761D01*
X138946000Y-123777523D01*
X138898380Y-123634666D01*
X138898380Y-123444190D01*
X138946000Y-123301333D01*
X139041238Y-123206095D01*
X139184095Y-123158476D01*
X139422190Y-123158476D01*
X139565047Y-123206095D01*
X139660285Y-123301333D01*
X139707904Y-123396571D01*
X139898380Y-123396571D01*
X139898380Y-123158476D01*
X138898380Y-82629142D02*
X138898380Y-82010095D01*
X139279333Y-82343428D01*
X139279333Y-82200571D01*
X139326952Y-82105333D01*
X139374571Y-82057714D01*
X139469809Y-82010095D01*
X139707904Y-82010095D01*
X139803142Y-82057714D01*
X139850761Y-82105333D01*
X139898380Y-82200571D01*
X139898380Y-82486285D01*
X139850761Y-82581523D01*
X139803142Y-82629142D01*
X138898380Y-81676761D02*
X138898380Y-81057714D01*
X139279333Y-81391047D01*
X139279333Y-81248190D01*
X139326952Y-81152952D01*
X139374571Y-81105333D01*
X139469809Y-81057714D01*
X139707904Y-81057714D01*
X139803142Y-81105333D01*
X139850761Y-81152952D01*
X139898380Y-81248190D01*
X139898380Y-81533904D01*
X139850761Y-81629142D01*
X139803142Y-81676761D01*
X138898380Y-80438666D02*
X138898380Y-80343428D01*
X138946000Y-80248190D01*
X138993619Y-80200571D01*
X139088857Y-80152952D01*
X139279333Y-80105333D01*
X139517428Y-80105333D01*
X139707904Y-80152952D01*
X139803142Y-80200571D01*
X139850761Y-80248190D01*
X139898380Y-80343428D01*
X139898380Y-80438666D01*
X139850761Y-80533904D01*
X139803142Y-80581523D01*
X139707904Y-80629142D01*
X139517428Y-80676761D01*
X139279333Y-80676761D01*
X139088857Y-80629142D01*
X138993619Y-80581523D01*
X138946000Y-80533904D01*
X138898380Y-80438666D01*
X139898380Y-79724380D02*
X139898380Y-79486285D01*
X139707904Y-79486285D01*
X139660285Y-79581523D01*
X139565047Y-79676761D01*
X139422190Y-79724380D01*
X139184095Y-79724380D01*
X139041238Y-79676761D01*
X138946000Y-79581523D01*
X138898380Y-79438666D01*
X138898380Y-79248190D01*
X138946000Y-79105333D01*
X139041238Y-79010095D01*
X139184095Y-78962476D01*
X139422190Y-78962476D01*
X139565047Y-79010095D01*
X139660285Y-79105333D01*
X139707904Y-79200571D01*
X139898380Y-79200571D01*
X139898380Y-78962476D01*
X100194619Y-111815904D02*
X101194619Y-111815904D01*
X100480333Y-112149238D01*
X101194619Y-112482571D01*
X100194619Y-112482571D01*
X100194619Y-112958761D02*
X100861285Y-112958761D01*
X101194619Y-112958761D02*
X101147000Y-112911142D01*
X101099380Y-112958761D01*
X101147000Y-113006380D01*
X101194619Y-112958761D01*
X101099380Y-112958761D01*
X100242238Y-113863523D02*
X100194619Y-113768285D01*
X100194619Y-113577809D01*
X100242238Y-113482571D01*
X100289857Y-113434952D01*
X100385095Y-113387333D01*
X100670809Y-113387333D01*
X100766047Y-113434952D01*
X100813666Y-113482571D01*
X100861285Y-113577809D01*
X100861285Y-113768285D01*
X100813666Y-113863523D01*
X100194619Y-114292095D02*
X100861285Y-114292095D01*
X100670809Y-114292095D02*
X100766047Y-114339714D01*
X100813666Y-114387333D01*
X100861285Y-114482571D01*
X100861285Y-114577809D01*
X100194619Y-115054000D02*
X100242238Y-114958761D01*
X100289857Y-114911142D01*
X100385095Y-114863523D01*
X100670809Y-114863523D01*
X100766047Y-114911142D01*
X100813666Y-114958761D01*
X100861285Y-115054000D01*
X100861285Y-115196857D01*
X100813666Y-115292095D01*
X100766047Y-115339714D01*
X100670809Y-115387333D01*
X100385095Y-115387333D01*
X100289857Y-115339714D01*
X100242238Y-115292095D01*
X100194619Y-115196857D01*
X100194619Y-115054000D01*
X100242238Y-115768285D02*
X100194619Y-115911142D01*
X100194619Y-116149238D01*
X100242238Y-116244476D01*
X100289857Y-116292095D01*
X100385095Y-116339714D01*
X100480333Y-116339714D01*
X100575571Y-116292095D01*
X100623190Y-116244476D01*
X100670809Y-116149238D01*
X100718428Y-115958761D01*
X100766047Y-115863523D01*
X100813666Y-115815904D01*
X100908904Y-115768285D01*
X101004142Y-115768285D01*
X101099380Y-115815904D01*
X101147000Y-115863523D01*
X101194619Y-115958761D01*
X101194619Y-116196857D01*
X101147000Y-116339714D01*
X100194619Y-116768285D02*
X101194619Y-116768285D01*
X101194619Y-117006380D01*
X101147000Y-117149238D01*
X101051761Y-117244476D01*
X100956523Y-117292095D01*
X100766047Y-117339714D01*
X100623190Y-117339714D01*
X100432714Y-117292095D01*
X100337476Y-117244476D01*
X100242238Y-117149238D01*
X100194619Y-117006380D01*
X100194619Y-116768285D01*
X98639857Y-113649238D02*
X98592238Y-113601619D01*
X98544619Y-113458761D01*
X98544619Y-113363523D01*
X98592238Y-113220666D01*
X98687476Y-113125428D01*
X98782714Y-113077809D01*
X98973190Y-113030190D01*
X99116047Y-113030190D01*
X99306523Y-113077809D01*
X99401761Y-113125428D01*
X99497000Y-113220666D01*
X99544619Y-113363523D01*
X99544619Y-113458761D01*
X99497000Y-113601619D01*
X99449380Y-113649238D01*
X98544619Y-114506380D02*
X99068428Y-114506380D01*
X99163666Y-114458761D01*
X99211285Y-114363523D01*
X99211285Y-114173047D01*
X99163666Y-114077809D01*
X98592238Y-114506380D02*
X98544619Y-114411142D01*
X98544619Y-114173047D01*
X98592238Y-114077809D01*
X98687476Y-114030190D01*
X98782714Y-114030190D01*
X98877952Y-114077809D01*
X98925571Y-114173047D01*
X98925571Y-114411142D01*
X98973190Y-114506380D01*
X98544619Y-114982571D02*
X99211285Y-114982571D01*
X99020809Y-114982571D02*
X99116047Y-115030190D01*
X99163666Y-115077809D01*
X99211285Y-115173047D01*
X99211285Y-115268285D01*
X98544619Y-116030190D02*
X99544619Y-116030190D01*
X98592238Y-116030190D02*
X98544619Y-115934952D01*
X98544619Y-115744476D01*
X98592238Y-115649238D01*
X98639857Y-115601619D01*
X98735095Y-115554000D01*
X99020809Y-115554000D01*
X99116047Y-115601619D01*
X99163666Y-115649238D01*
X99211285Y-115744476D01*
X99211285Y-115934952D01*
X99163666Y-116030190D01*
D11*
X98274761Y-101202380D02*
X98274761Y-100202380D01*
X98512857Y-100202380D01*
X98655714Y-100250000D01*
X98750952Y-100345238D01*
X98798571Y-100440476D01*
X98846190Y-100630952D01*
X98846190Y-100773809D01*
X98798571Y-100964285D01*
X98750952Y-101059523D01*
X98655714Y-101154761D01*
X98512857Y-101202380D01*
X98274761Y-101202380D01*
X99655714Y-101154761D02*
X99560476Y-101202380D01*
X99370000Y-101202380D01*
X99274761Y-101154761D01*
X99227142Y-101059523D01*
X99227142Y-100678571D01*
X99274761Y-100583333D01*
X99370000Y-100535714D01*
X99560476Y-100535714D01*
X99655714Y-100583333D01*
X99703333Y-100678571D01*
X99703333Y-100773809D01*
X99227142Y-100869047D01*
X100131904Y-101202380D02*
X100131904Y-100202380D01*
X100131904Y-100583333D02*
X100227142Y-100535714D01*
X100417619Y-100535714D01*
X100512857Y-100583333D01*
X100560476Y-100630952D01*
X100608095Y-100726190D01*
X100608095Y-101011904D01*
X100560476Y-101107142D01*
X100512857Y-101154761D01*
X100417619Y-101202380D01*
X100227142Y-101202380D01*
X100131904Y-101154761D01*
X101465238Y-100535714D02*
X101465238Y-101202380D01*
X101036666Y-100535714D02*
X101036666Y-101059523D01*
X101084285Y-101154761D01*
X101179523Y-101202380D01*
X101322380Y-101202380D01*
X101417619Y-101154761D01*
X101465238Y-101107142D01*
X102370000Y-100535714D02*
X102370000Y-101345238D01*
X102322380Y-101440476D01*
X102274761Y-101488095D01*
X102179523Y-101535714D01*
X102036666Y-101535714D01*
X101941428Y-101488095D01*
X102370000Y-101154761D02*
X102274761Y-101202380D01*
X102084285Y-101202380D01*
X101989047Y-101154761D01*
X101941428Y-101107142D01*
X101893809Y-101011904D01*
X101893809Y-100726190D01*
X101941428Y-100630952D01*
X101989047Y-100583333D01*
X102084285Y-100535714D01*
X102274761Y-100535714D01*
X102370000Y-100583333D01*
X103560476Y-101154761D02*
X103703333Y-101202380D01*
X103941428Y-101202380D01*
X104036666Y-101154761D01*
X104084285Y-101107142D01*
X104131904Y-101011904D01*
X104131904Y-100916666D01*
X104084285Y-100821428D01*
X104036666Y-100773809D01*
X103941428Y-100726190D01*
X103750952Y-100678571D01*
X103655714Y-100630952D01*
X103608095Y-100583333D01*
X103560476Y-100488095D01*
X103560476Y-100392857D01*
X103608095Y-100297619D01*
X103655714Y-100250000D01*
X103750952Y-100202380D01*
X103989047Y-100202380D01*
X104131904Y-100250000D01*
X104941428Y-101154761D02*
X104846190Y-101202380D01*
X104655714Y-101202380D01*
X104560476Y-101154761D01*
X104512857Y-101059523D01*
X104512857Y-100678571D01*
X104560476Y-100583333D01*
X104655714Y-100535714D01*
X104846190Y-100535714D01*
X104941428Y-100583333D01*
X104989047Y-100678571D01*
X104989047Y-100773809D01*
X104512857Y-100869047D01*
X105417619Y-101202380D02*
X105417619Y-100535714D01*
X105417619Y-100726190D02*
X105465238Y-100630952D01*
X105512857Y-100583333D01*
X105608095Y-100535714D01*
X105703333Y-100535714D01*
X106036666Y-101202380D02*
X106036666Y-100535714D01*
X106036666Y-100202380D02*
X105989047Y-100250000D01*
X106036666Y-100297619D01*
X106084285Y-100250000D01*
X106036666Y-100202380D01*
X106036666Y-100297619D01*
X106941428Y-101202380D02*
X106941428Y-100678571D01*
X106893809Y-100583333D01*
X106798571Y-100535714D01*
X106608095Y-100535714D01*
X106512857Y-100583333D01*
X106941428Y-101154761D02*
X106846190Y-101202380D01*
X106608095Y-101202380D01*
X106512857Y-101154761D01*
X106465238Y-101059523D01*
X106465238Y-100964285D01*
X106512857Y-100869047D01*
X106608095Y-100821428D01*
X106846190Y-100821428D01*
X106941428Y-100773809D01*
X107560476Y-101202380D02*
X107465238Y-101154761D01*
X107417619Y-101059523D01*
X107417619Y-100202380D01*
X99917619Y-102807142D02*
X99870000Y-102854761D01*
X99727142Y-102902380D01*
X99631904Y-102902380D01*
X99489047Y-102854761D01*
X99393809Y-102759523D01*
X99346190Y-102664285D01*
X99298571Y-102473809D01*
X99298571Y-102330952D01*
X99346190Y-102140476D01*
X99393809Y-102045238D01*
X99489047Y-101950000D01*
X99631904Y-101902380D01*
X99727142Y-101902380D01*
X99870000Y-101950000D01*
X99917619Y-101997619D01*
X100489047Y-102902380D02*
X100393809Y-102854761D01*
X100346190Y-102807142D01*
X100298571Y-102711904D01*
X100298571Y-102426190D01*
X100346190Y-102330952D01*
X100393809Y-102283333D01*
X100489047Y-102235714D01*
X100631904Y-102235714D01*
X100727142Y-102283333D01*
X100774761Y-102330952D01*
X100822380Y-102426190D01*
X100822380Y-102711904D01*
X100774761Y-102807142D01*
X100727142Y-102854761D01*
X100631904Y-102902380D01*
X100489047Y-102902380D01*
X101250952Y-102235714D02*
X101250952Y-102902380D01*
X101250952Y-102330952D02*
X101298571Y-102283333D01*
X101393809Y-102235714D01*
X101536666Y-102235714D01*
X101631904Y-102283333D01*
X101679523Y-102378571D01*
X101679523Y-102902380D01*
X102155714Y-102235714D02*
X102155714Y-102902380D01*
X102155714Y-102330952D02*
X102203333Y-102283333D01*
X102298571Y-102235714D01*
X102441428Y-102235714D01*
X102536666Y-102283333D01*
X102584285Y-102378571D01*
X102584285Y-102902380D01*
X103441428Y-102854761D02*
X103346190Y-102902380D01*
X103155714Y-102902380D01*
X103060476Y-102854761D01*
X103012857Y-102759523D01*
X103012857Y-102378571D01*
X103060476Y-102283333D01*
X103155714Y-102235714D01*
X103346190Y-102235714D01*
X103441428Y-102283333D01*
X103489047Y-102378571D01*
X103489047Y-102473809D01*
X103012857Y-102569047D01*
X104346190Y-102854761D02*
X104250952Y-102902380D01*
X104060476Y-102902380D01*
X103965238Y-102854761D01*
X103917619Y-102807142D01*
X103870000Y-102711904D01*
X103870000Y-102426190D01*
X103917619Y-102330952D01*
X103965238Y-102283333D01*
X104060476Y-102235714D01*
X104250952Y-102235714D01*
X104346190Y-102283333D01*
X104631904Y-102235714D02*
X105012857Y-102235714D01*
X104774761Y-101902380D02*
X104774761Y-102759523D01*
X104822380Y-102854761D01*
X104917619Y-102902380D01*
X105012857Y-102902380D01*
X105489047Y-102902380D02*
X105393809Y-102854761D01*
X105346190Y-102807142D01*
X105298571Y-102711904D01*
X105298571Y-102426190D01*
X105346190Y-102330952D01*
X105393809Y-102283333D01*
X105489047Y-102235714D01*
X105631904Y-102235714D01*
X105727142Y-102283333D01*
X105774761Y-102330952D01*
X105822380Y-102426190D01*
X105822380Y-102711904D01*
X105774761Y-102807142D01*
X105727142Y-102854761D01*
X105631904Y-102902380D01*
X105489047Y-102902380D01*
X106250952Y-102902380D02*
X106250952Y-102235714D01*
X106250952Y-102426190D02*
X106298571Y-102330952D01*
X106346190Y-102283333D01*
X106441428Y-102235714D01*
X106536666Y-102235714D01*
D10*
X109460357Y-97242380D02*
X110079404Y-97242380D01*
X109746071Y-97623333D01*
X109888928Y-97623333D01*
X109984166Y-97670952D01*
X110031785Y-97718571D01*
X110079404Y-97813809D01*
X110079404Y-98051904D01*
X110031785Y-98147142D01*
X109984166Y-98194761D01*
X109888928Y-98242380D01*
X109603214Y-98242380D01*
X109507976Y-98194761D01*
X109460357Y-98147142D01*
X110365119Y-97242380D02*
X110698452Y-98242380D01*
X111031785Y-97242380D01*
X111269880Y-97242380D02*
X111888928Y-97242380D01*
X111555595Y-97623333D01*
X111698452Y-97623333D01*
X111793690Y-97670952D01*
X111841309Y-97718571D01*
X111888928Y-97813809D01*
X111888928Y-98051904D01*
X111841309Y-98147142D01*
X111793690Y-98194761D01*
X111698452Y-98242380D01*
X111412738Y-98242380D01*
X111317500Y-98194761D01*
X111269880Y-98147142D01*
X110079404Y-94750000D02*
X109984166Y-94702380D01*
X109841309Y-94702380D01*
X109698452Y-94750000D01*
X109603214Y-94845238D01*
X109555595Y-94940476D01*
X109507976Y-95130952D01*
X109507976Y-95273809D01*
X109555595Y-95464285D01*
X109603214Y-95559523D01*
X109698452Y-95654761D01*
X109841309Y-95702380D01*
X109936547Y-95702380D01*
X110079404Y-95654761D01*
X110127023Y-95607142D01*
X110127023Y-95273809D01*
X109936547Y-95273809D01*
X110555595Y-95702380D02*
X110555595Y-94702380D01*
X111127023Y-95702380D01*
X111127023Y-94702380D01*
X111603214Y-95702380D02*
X111603214Y-94702380D01*
X111841309Y-94702380D01*
X111984166Y-94750000D01*
X112079404Y-94845238D01*
X112127023Y-94940476D01*
X112174642Y-95130952D01*
X112174642Y-95273809D01*
X112127023Y-95464285D01*
X112079404Y-95559523D01*
X111984166Y-95654761D01*
X111841309Y-95702380D01*
X111603214Y-95702380D01*
X109412738Y-92162380D02*
X109984166Y-92162380D01*
X109698452Y-93162380D02*
X109698452Y-92162380D01*
X110222261Y-92162380D02*
X110888928Y-93162380D01*
X110888928Y-92162380D02*
X110222261Y-93162380D01*
X110127023Y-90622380D02*
X109793690Y-90146190D01*
X109555595Y-90622380D02*
X109555595Y-89622380D01*
X109936547Y-89622380D01*
X110031785Y-89670000D01*
X110079404Y-89717619D01*
X110127023Y-89812857D01*
X110127023Y-89955714D01*
X110079404Y-90050952D01*
X110031785Y-90098571D01*
X109936547Y-90146190D01*
X109555595Y-90146190D01*
X110460357Y-89622380D02*
X111127023Y-90622380D01*
X111127023Y-89622380D02*
X110460357Y-90622380D01*
X146772380Y-95948095D02*
X146772380Y-95376666D01*
X147772380Y-95662380D02*
X146772380Y-95662380D01*
X147248571Y-95043333D02*
X147248571Y-94710000D01*
X147772380Y-94567142D02*
X147772380Y-95043333D01*
X146772380Y-95043333D01*
X146772380Y-94567142D01*
X147772380Y-93567142D02*
X147296190Y-93900476D01*
X147772380Y-94138571D02*
X146772380Y-94138571D01*
X146772380Y-93757619D01*
X146820000Y-93662380D01*
X146867619Y-93614761D01*
X146962857Y-93567142D01*
X147105714Y-93567142D01*
X147200952Y-93614761D01*
X147248571Y-93662380D01*
X147296190Y-93757619D01*
X147296190Y-94138571D01*
X147772380Y-93138571D02*
X146772380Y-93138571D01*
X147486666Y-92805238D01*
X146772380Y-92471904D01*
X147772380Y-92471904D01*
X146772380Y-91043333D02*
X146772380Y-90852857D01*
X146820000Y-90757619D01*
X146915238Y-90662380D01*
X147105714Y-90614761D01*
X147439047Y-90614761D01*
X147629523Y-90662380D01*
X147724761Y-90757619D01*
X147772380Y-90852857D01*
X147772380Y-91043333D01*
X147724761Y-91138571D01*
X147629523Y-91233809D01*
X147439047Y-91281428D01*
X147105714Y-91281428D01*
X146915238Y-91233809D01*
X146820000Y-91138571D01*
X146772380Y-91043333D01*
X147772380Y-90186190D02*
X146772380Y-90186190D01*
X147772380Y-89614761D01*
X146772380Y-89614761D01*
X146772380Y-116268095D02*
X146772380Y-115696666D01*
X147772380Y-115982380D02*
X146772380Y-115982380D01*
X147248571Y-115363333D02*
X147248571Y-115030000D01*
X147772380Y-114887142D02*
X147772380Y-115363333D01*
X146772380Y-115363333D01*
X146772380Y-114887142D01*
X147772380Y-113887142D02*
X147296190Y-114220476D01*
X147772380Y-114458571D02*
X146772380Y-114458571D01*
X146772380Y-114077619D01*
X146820000Y-113982380D01*
X146867619Y-113934761D01*
X146962857Y-113887142D01*
X147105714Y-113887142D01*
X147200952Y-113934761D01*
X147248571Y-113982380D01*
X147296190Y-114077619D01*
X147296190Y-114458571D01*
X147772380Y-113458571D02*
X146772380Y-113458571D01*
X147486666Y-113125238D01*
X146772380Y-112791904D01*
X147772380Y-112791904D01*
X146772380Y-111363333D02*
X146772380Y-111172857D01*
X146820000Y-111077619D01*
X146915238Y-110982380D01*
X147105714Y-110934761D01*
X147439047Y-110934761D01*
X147629523Y-110982380D01*
X147724761Y-111077619D01*
X147772380Y-111172857D01*
X147772380Y-111363333D01*
X147724761Y-111458571D01*
X147629523Y-111553809D01*
X147439047Y-111601428D01*
X147105714Y-111601428D01*
X146915238Y-111553809D01*
X146820000Y-111458571D01*
X146772380Y-111363333D01*
X147772380Y-110506190D02*
X146772380Y-110506190D01*
X147772380Y-109934761D01*
X146772380Y-109934761D01*
X158789714Y-128665809D02*
X159456380Y-128665809D01*
X158408761Y-128903904D02*
X159123047Y-129142000D01*
X159123047Y-128522952D01*
X158456380Y-127951523D02*
X158456380Y-127856285D01*
X158504000Y-127761047D01*
X158551619Y-127713428D01*
X158646857Y-127665809D01*
X158837333Y-127618190D01*
X159075428Y-127618190D01*
X159265904Y-127665809D01*
X159361142Y-127713428D01*
X159408761Y-127761047D01*
X159456380Y-127856285D01*
X159456380Y-127951523D01*
X159408761Y-128046761D01*
X159361142Y-128094380D01*
X159265904Y-128142000D01*
X159075428Y-128189619D01*
X158837333Y-128189619D01*
X158646857Y-128142000D01*
X158551619Y-128094380D01*
X158504000Y-128046761D01*
X158456380Y-127951523D01*
X159075428Y-127189619D02*
X159075428Y-126427714D01*
X159456380Y-125951523D02*
X158456380Y-125951523D01*
X158456380Y-125570571D01*
X158504000Y-125475333D01*
X158551619Y-125427714D01*
X158646857Y-125380095D01*
X158789714Y-125380095D01*
X158884952Y-125427714D01*
X158932571Y-125475333D01*
X158980190Y-125570571D01*
X158980190Y-125951523D01*
X159456380Y-124951523D02*
X158789714Y-124951523D01*
X158456380Y-124951523D02*
X158504000Y-124999142D01*
X158551619Y-124951523D01*
X158504000Y-124903904D01*
X158456380Y-124951523D01*
X158551619Y-124951523D01*
X158789714Y-124475333D02*
X159456380Y-124475333D01*
X158884952Y-124475333D02*
X158837333Y-124427714D01*
X158789714Y-124332476D01*
X158789714Y-124189619D01*
X158837333Y-124094380D01*
X158932571Y-124046761D01*
X159456380Y-124046761D01*
X159456380Y-122808666D02*
X158456380Y-122808666D01*
X158456380Y-122427714D01*
X158504000Y-122332476D01*
X158551619Y-122284857D01*
X158646857Y-122237238D01*
X158789714Y-122237238D01*
X158884952Y-122284857D01*
X158932571Y-122332476D01*
X158980190Y-122427714D01*
X158980190Y-122808666D01*
X159456380Y-121665809D02*
X159408761Y-121761047D01*
X159361142Y-121808666D01*
X159265904Y-121856285D01*
X158980190Y-121856285D01*
X158884952Y-121808666D01*
X158837333Y-121761047D01*
X158789714Y-121665809D01*
X158789714Y-121522952D01*
X158837333Y-121427714D01*
X158884952Y-121380095D01*
X158980190Y-121332476D01*
X159265904Y-121332476D01*
X159361142Y-121380095D01*
X159408761Y-121427714D01*
X159456380Y-121522952D01*
X159456380Y-121665809D01*
X158789714Y-120999142D02*
X159456380Y-120808666D01*
X158980190Y-120618190D01*
X159456380Y-120427714D01*
X158789714Y-120237238D01*
X159408761Y-119475333D02*
X159456380Y-119570571D01*
X159456380Y-119761047D01*
X159408761Y-119856285D01*
X159313523Y-119903904D01*
X158932571Y-119903904D01*
X158837333Y-119856285D01*
X158789714Y-119761047D01*
X158789714Y-119570571D01*
X158837333Y-119475333D01*
X158932571Y-119427714D01*
X159027809Y-119427714D01*
X159123047Y-119903904D01*
X159456380Y-118999142D02*
X158789714Y-118999142D01*
X158980190Y-118999142D02*
X158884952Y-118951523D01*
X158837333Y-118903904D01*
X158789714Y-118808666D01*
X158789714Y-118713428D01*
X159456380Y-118380095D02*
X158456380Y-118380095D01*
X158837333Y-118380095D02*
X158789714Y-118284857D01*
X158789714Y-118094380D01*
X158837333Y-117999142D01*
X158884952Y-117951523D01*
X158980190Y-117903904D01*
X159265904Y-117903904D01*
X159361142Y-117951523D01*
X159408761Y-117999142D01*
X159456380Y-118094380D01*
X159456380Y-118284857D01*
X159408761Y-118380095D01*
X159456380Y-117332476D02*
X159408761Y-117427714D01*
X159361142Y-117475333D01*
X159265904Y-117522952D01*
X158980190Y-117522952D01*
X158884952Y-117475333D01*
X158837333Y-117427714D01*
X158789714Y-117332476D01*
X158789714Y-117189619D01*
X158837333Y-117094380D01*
X158884952Y-117046761D01*
X158980190Y-116999142D01*
X159265904Y-116999142D01*
X159361142Y-117046761D01*
X159408761Y-117094380D01*
X159456380Y-117189619D01*
X159456380Y-117332476D01*
X159456380Y-116427714D02*
X159408761Y-116522952D01*
X159361142Y-116570571D01*
X159265904Y-116618190D01*
X158980190Y-116618190D01*
X158884952Y-116570571D01*
X158837333Y-116522952D01*
X158789714Y-116427714D01*
X158789714Y-116284857D01*
X158837333Y-116189619D01*
X158884952Y-116142000D01*
X158980190Y-116094380D01*
X159265904Y-116094380D01*
X159361142Y-116142000D01*
X159408761Y-116189619D01*
X159456380Y-116284857D01*
X159456380Y-116427714D01*
X159456380Y-115665809D02*
X158456380Y-115665809D01*
X159075428Y-115570571D02*
X159456380Y-115284857D01*
X158789714Y-115284857D02*
X159170666Y-115665809D01*
X159408761Y-114142000D02*
X159456380Y-113999142D01*
X159456380Y-113761047D01*
X159408761Y-113665809D01*
X159361142Y-113618190D01*
X159265904Y-113570571D01*
X159170666Y-113570571D01*
X159075428Y-113618190D01*
X159027809Y-113665809D01*
X158980190Y-113761047D01*
X158932571Y-113951523D01*
X158884952Y-114046761D01*
X158837333Y-114094380D01*
X158742095Y-114142000D01*
X158646857Y-114142000D01*
X158551619Y-114094380D01*
X158504000Y-114046761D01*
X158456380Y-113951523D01*
X158456380Y-113713428D01*
X158504000Y-113570571D01*
X159361142Y-112570571D02*
X159408761Y-112618190D01*
X159456380Y-112761047D01*
X159456380Y-112856285D01*
X159408761Y-112999142D01*
X159313523Y-113094380D01*
X159218285Y-113142000D01*
X159027809Y-113189619D01*
X158884952Y-113189619D01*
X158694476Y-113142000D01*
X158599238Y-113094380D01*
X158504000Y-112999142D01*
X158456380Y-112856285D01*
X158456380Y-112761047D01*
X158504000Y-112618190D01*
X158551619Y-112570571D01*
X159408761Y-112189619D02*
X159456380Y-112046761D01*
X159456380Y-111808666D01*
X159408761Y-111713428D01*
X159361142Y-111665809D01*
X159265904Y-111618190D01*
X159170666Y-111618190D01*
X159075428Y-111665809D01*
X159027809Y-111713428D01*
X158980190Y-111808666D01*
X158932571Y-111999142D01*
X158884952Y-112094380D01*
X158837333Y-112142000D01*
X158742095Y-112189619D01*
X158646857Y-112189619D01*
X158551619Y-112142000D01*
X158504000Y-112094380D01*
X158456380Y-111999142D01*
X158456380Y-111761047D01*
X158504000Y-111618190D01*
X159456380Y-111189619D02*
X158456380Y-111189619D01*
X148169380Y-133920571D02*
X148169380Y-134396761D01*
X148645571Y-134444380D01*
X148597952Y-134396761D01*
X148550333Y-134301523D01*
X148550333Y-134063428D01*
X148597952Y-133968190D01*
X148645571Y-133920571D01*
X148740809Y-133872952D01*
X148978904Y-133872952D01*
X149074142Y-133920571D01*
X149121761Y-133968190D01*
X149169380Y-134063428D01*
X149169380Y-134301523D01*
X149121761Y-134396761D01*
X149074142Y-134444380D01*
X148169380Y-133253904D02*
X148169380Y-133158666D01*
X148217000Y-133063428D01*
X148264619Y-133015809D01*
X148359857Y-132968190D01*
X148550333Y-132920571D01*
X148788428Y-132920571D01*
X148978904Y-132968190D01*
X149074142Y-133015809D01*
X149121761Y-133063428D01*
X149169380Y-133158666D01*
X149169380Y-133253904D01*
X149121761Y-133349142D01*
X149074142Y-133396761D01*
X148978904Y-133444380D01*
X148788428Y-133492000D01*
X148550333Y-133492000D01*
X148359857Y-133444380D01*
X148264619Y-133396761D01*
X148217000Y-133349142D01*
X148169380Y-133253904D01*
X148788428Y-132492000D02*
X148788428Y-131730095D01*
X149169380Y-131253904D02*
X148169380Y-131253904D01*
X148169380Y-130872952D01*
X148217000Y-130777714D01*
X148264619Y-130730095D01*
X148359857Y-130682476D01*
X148502714Y-130682476D01*
X148597952Y-130730095D01*
X148645571Y-130777714D01*
X148693190Y-130872952D01*
X148693190Y-131253904D01*
X149169380Y-130253904D02*
X148502714Y-130253904D01*
X148169380Y-130253904D02*
X148217000Y-130301523D01*
X148264619Y-130253904D01*
X148217000Y-130206285D01*
X148169380Y-130253904D01*
X148264619Y-130253904D01*
X148502714Y-129777714D02*
X149169380Y-129777714D01*
X148597952Y-129777714D02*
X148550333Y-129730095D01*
X148502714Y-129634857D01*
X148502714Y-129492000D01*
X148550333Y-129396761D01*
X148645571Y-129349142D01*
X149169380Y-129349142D01*
X149169380Y-128111047D02*
X148169380Y-128111047D01*
X148169380Y-127872952D01*
X148217000Y-127730095D01*
X148312238Y-127634857D01*
X148407476Y-127587238D01*
X148597952Y-127539619D01*
X148740809Y-127539619D01*
X148931285Y-127587238D01*
X149026523Y-127634857D01*
X149121761Y-127730095D01*
X149169380Y-127872952D01*
X149169380Y-128111047D01*
X149121761Y-126730095D02*
X149169380Y-126825333D01*
X149169380Y-127015809D01*
X149121761Y-127111047D01*
X149026523Y-127158666D01*
X148645571Y-127158666D01*
X148550333Y-127111047D01*
X148502714Y-127015809D01*
X148502714Y-126825333D01*
X148550333Y-126730095D01*
X148645571Y-126682476D01*
X148740809Y-126682476D01*
X148836047Y-127158666D01*
X149121761Y-126301523D02*
X149169380Y-126206285D01*
X149169380Y-126015809D01*
X149121761Y-125920571D01*
X149026523Y-125872952D01*
X148978904Y-125872952D01*
X148883666Y-125920571D01*
X148836047Y-126015809D01*
X148836047Y-126158666D01*
X148788428Y-126253904D01*
X148693190Y-126301523D01*
X148645571Y-126301523D01*
X148550333Y-126253904D01*
X148502714Y-126158666D01*
X148502714Y-126015809D01*
X148550333Y-125920571D01*
X149169380Y-125444380D02*
X148169380Y-125444380D01*
X148788428Y-125349142D02*
X149169380Y-125063428D01*
X148502714Y-125063428D02*
X148883666Y-125444380D01*
X148502714Y-124777714D02*
X148502714Y-124396761D01*
X148169380Y-124634857D02*
X149026523Y-124634857D01*
X149121761Y-124587238D01*
X149169380Y-124492000D01*
X149169380Y-124396761D01*
X149169380Y-123920571D02*
X149121761Y-124015809D01*
X149074142Y-124063428D01*
X148978904Y-124111047D01*
X148693190Y-124111047D01*
X148597952Y-124063428D01*
X148550333Y-124015809D01*
X148502714Y-123920571D01*
X148502714Y-123777714D01*
X148550333Y-123682476D01*
X148597952Y-123634857D01*
X148693190Y-123587238D01*
X148978904Y-123587238D01*
X149074142Y-123634857D01*
X149121761Y-123682476D01*
X149169380Y-123777714D01*
X149169380Y-123920571D01*
X148502714Y-123158666D02*
X149502714Y-123158666D01*
X148550333Y-123158666D02*
X148502714Y-123063428D01*
X148502714Y-122872952D01*
X148550333Y-122777714D01*
X148597952Y-122730095D01*
X148693190Y-122682476D01*
X148978904Y-122682476D01*
X149074142Y-122730095D01*
X149121761Y-122777714D01*
X149169380Y-122872952D01*
X149169380Y-123063428D01*
X149121761Y-123158666D01*
X149121761Y-121539619D02*
X149169380Y-121396761D01*
X149169380Y-121158666D01*
X149121761Y-121063428D01*
X149074142Y-121015809D01*
X148978904Y-120968190D01*
X148883666Y-120968190D01*
X148788428Y-121015809D01*
X148740809Y-121063428D01*
X148693190Y-121158666D01*
X148645571Y-121349142D01*
X148597952Y-121444380D01*
X148550333Y-121492000D01*
X148455095Y-121539619D01*
X148359857Y-121539619D01*
X148264619Y-121492000D01*
X148217000Y-121444380D01*
X148169380Y-121349142D01*
X148169380Y-121111047D01*
X148217000Y-120968190D01*
X149074142Y-119968190D02*
X149121761Y-120015809D01*
X149169380Y-120158666D01*
X149169380Y-120253904D01*
X149121761Y-120396761D01*
X149026523Y-120492000D01*
X148931285Y-120539619D01*
X148740809Y-120587238D01*
X148597952Y-120587238D01*
X148407476Y-120539619D01*
X148312238Y-120492000D01*
X148217000Y-120396761D01*
X148169380Y-120253904D01*
X148169380Y-120158666D01*
X148217000Y-120015809D01*
X148264619Y-119968190D01*
X149121761Y-119587238D02*
X149169380Y-119444380D01*
X149169380Y-119206285D01*
X149121761Y-119111047D01*
X149074142Y-119063428D01*
X148978904Y-119015809D01*
X148883666Y-119015809D01*
X148788428Y-119063428D01*
X148740809Y-119111047D01*
X148693190Y-119206285D01*
X148645571Y-119396761D01*
X148597952Y-119492000D01*
X148550333Y-119539619D01*
X148455095Y-119587238D01*
X148359857Y-119587238D01*
X148264619Y-119539619D01*
X148217000Y-119492000D01*
X148169380Y-119396761D01*
X148169380Y-119158666D01*
X148217000Y-119015809D01*
X149169380Y-118587238D02*
X148169380Y-118587238D01*
D12*
X159130952Y-107489428D02*
X158654761Y-107489428D01*
X158654761Y-104632285D01*
X159130952Y-104632285D01*
D10*
X118547238Y-126135380D02*
X118547238Y-126944904D01*
X118594857Y-127040142D01*
X118642476Y-127087761D01*
X118737714Y-127135380D01*
X118928190Y-127135380D01*
X119023428Y-127087761D01*
X119071047Y-127040142D01*
X119118666Y-126944904D01*
X119118666Y-126135380D01*
X119547238Y-127087761D02*
X119690095Y-127135380D01*
X119928190Y-127135380D01*
X120023428Y-127087761D01*
X120071047Y-127040142D01*
X120118666Y-126944904D01*
X120118666Y-126849666D01*
X120071047Y-126754428D01*
X120023428Y-126706809D01*
X119928190Y-126659190D01*
X119737714Y-126611571D01*
X119642476Y-126563952D01*
X119594857Y-126516333D01*
X119547238Y-126421095D01*
X119547238Y-126325857D01*
X119594857Y-126230619D01*
X119642476Y-126183000D01*
X119737714Y-126135380D01*
X119975809Y-126135380D01*
X120118666Y-126183000D01*
X120880571Y-126611571D02*
X121023428Y-126659190D01*
X121071047Y-126706809D01*
X121118666Y-126802047D01*
X121118666Y-126944904D01*
X121071047Y-127040142D01*
X121023428Y-127087761D01*
X120928190Y-127135380D01*
X120547238Y-127135380D01*
X120547238Y-126135380D01*
X120880571Y-126135380D01*
X120975809Y-126183000D01*
X121023428Y-126230619D01*
X121071047Y-126325857D01*
X121071047Y-126421095D01*
X121023428Y-126516333D01*
X120975809Y-126563952D01*
X120880571Y-126611571D01*
X120547238Y-126611571D01*
X122880571Y-127040142D02*
X122832952Y-127087761D01*
X122690095Y-127135380D01*
X122594857Y-127135380D01*
X122452000Y-127087761D01*
X122356761Y-126992523D01*
X122309142Y-126897285D01*
X122261523Y-126706809D01*
X122261523Y-126563952D01*
X122309142Y-126373476D01*
X122356761Y-126278238D01*
X122452000Y-126183000D01*
X122594857Y-126135380D01*
X122690095Y-126135380D01*
X122832952Y-126183000D01*
X122880571Y-126230619D01*
X123452000Y-127135380D02*
X123356761Y-127087761D01*
X123309142Y-127040142D01*
X123261523Y-126944904D01*
X123261523Y-126659190D01*
X123309142Y-126563952D01*
X123356761Y-126516333D01*
X123452000Y-126468714D01*
X123594857Y-126468714D01*
X123690095Y-126516333D01*
X123737714Y-126563952D01*
X123785333Y-126659190D01*
X123785333Y-126944904D01*
X123737714Y-127040142D01*
X123690095Y-127087761D01*
X123594857Y-127135380D01*
X123452000Y-127135380D01*
X124213904Y-126468714D02*
X124213904Y-127135380D01*
X124213904Y-126563952D02*
X124261523Y-126516333D01*
X124356761Y-126468714D01*
X124499619Y-126468714D01*
X124594857Y-126516333D01*
X124642476Y-126611571D01*
X124642476Y-127135380D01*
X125118666Y-126468714D02*
X125118666Y-127135380D01*
X125118666Y-126563952D02*
X125166285Y-126516333D01*
X125261523Y-126468714D01*
X125404380Y-126468714D01*
X125499619Y-126516333D01*
X125547238Y-126611571D01*
X125547238Y-127135380D01*
X126404380Y-127087761D02*
X126309142Y-127135380D01*
X126118666Y-127135380D01*
X126023428Y-127087761D01*
X125975809Y-126992523D01*
X125975809Y-126611571D01*
X126023428Y-126516333D01*
X126118666Y-126468714D01*
X126309142Y-126468714D01*
X126404380Y-126516333D01*
X126452000Y-126611571D01*
X126452000Y-126706809D01*
X125975809Y-126802047D01*
X127309142Y-127087761D02*
X127213904Y-127135380D01*
X127023428Y-127135380D01*
X126928190Y-127087761D01*
X126880571Y-127040142D01*
X126832952Y-126944904D01*
X126832952Y-126659190D01*
X126880571Y-126563952D01*
X126928190Y-126516333D01*
X127023428Y-126468714D01*
X127213904Y-126468714D01*
X127309142Y-126516333D01*
X127594857Y-126468714D02*
X127975809Y-126468714D01*
X127737714Y-126135380D02*
X127737714Y-126992523D01*
X127785333Y-127087761D01*
X127880571Y-127135380D01*
X127975809Y-127135380D01*
X128452000Y-127135380D02*
X128356761Y-127087761D01*
X128309142Y-127040142D01*
X128261523Y-126944904D01*
X128261523Y-126659190D01*
X128309142Y-126563952D01*
X128356761Y-126516333D01*
X128452000Y-126468714D01*
X128594857Y-126468714D01*
X128690095Y-126516333D01*
X128737714Y-126563952D01*
X128785333Y-126659190D01*
X128785333Y-126944904D01*
X128737714Y-127040142D01*
X128690095Y-127087761D01*
X128594857Y-127135380D01*
X128452000Y-127135380D01*
X129213904Y-127135380D02*
X129213904Y-126468714D01*
X129213904Y-126659190D02*
X129261523Y-126563952D01*
X129309142Y-126516333D01*
X129404380Y-126468714D01*
X129499619Y-126468714D01*
X120832952Y-127785380D02*
X121404380Y-127785380D01*
X121118666Y-128785380D02*
X121118666Y-127785380D01*
X121737714Y-128785380D02*
X121737714Y-127785380D01*
X122166285Y-128785380D02*
X122166285Y-128261571D01*
X122118666Y-128166333D01*
X122023428Y-128118714D01*
X121880571Y-128118714D01*
X121785333Y-128166333D01*
X121737714Y-128213952D01*
X122642476Y-128785380D02*
X122642476Y-128118714D01*
X122642476Y-127785380D02*
X122594857Y-127833000D01*
X122642476Y-127880619D01*
X122690095Y-127833000D01*
X122642476Y-127785380D01*
X122642476Y-127880619D01*
X123071047Y-128737761D02*
X123166285Y-128785380D01*
X123356761Y-128785380D01*
X123452000Y-128737761D01*
X123499619Y-128642523D01*
X123499619Y-128594904D01*
X123452000Y-128499666D01*
X123356761Y-128452047D01*
X123213904Y-128452047D01*
X123118666Y-128404428D01*
X123071047Y-128309190D01*
X123071047Y-128261571D01*
X123118666Y-128166333D01*
X123213904Y-128118714D01*
X123356761Y-128118714D01*
X123452000Y-128166333D01*
X124690095Y-128261571D02*
X125023428Y-128261571D01*
X125166285Y-128785380D02*
X124690095Y-128785380D01*
X124690095Y-127785380D01*
X125166285Y-127785380D01*
X125594857Y-128118714D02*
X125594857Y-128785380D01*
X125594857Y-128213952D02*
X125642476Y-128166333D01*
X125737714Y-128118714D01*
X125880571Y-128118714D01*
X125975809Y-128166333D01*
X126023428Y-128261571D01*
X126023428Y-128785380D01*
X126928190Y-128785380D02*
X126928190Y-127785380D01*
X126928190Y-128737761D02*
X126832952Y-128785380D01*
X126642476Y-128785380D01*
X126547238Y-128737761D01*
X126499619Y-128690142D01*
X126452000Y-128594904D01*
X126452000Y-128309190D01*
X126499619Y-128213952D01*
X126547238Y-128166333D01*
X126642476Y-128118714D01*
X126832952Y-128118714D01*
X126928190Y-128166333D01*
X124610761Y-104869142D02*
X124658380Y-104726285D01*
X124658380Y-104488190D01*
X124610761Y-104392952D01*
X124563142Y-104345333D01*
X124467904Y-104297714D01*
X124372666Y-104297714D01*
X124277428Y-104345333D01*
X124229809Y-104392952D01*
X124182190Y-104488190D01*
X124134571Y-104678666D01*
X124086952Y-104773904D01*
X124039333Y-104821523D01*
X123944095Y-104869142D01*
X123848857Y-104869142D01*
X123753619Y-104821523D01*
X123706000Y-104773904D01*
X123658380Y-104678666D01*
X123658380Y-104440571D01*
X123706000Y-104297714D01*
X123658380Y-104012000D02*
X123658380Y-103440571D01*
X124658380Y-103726285D02*
X123658380Y-103726285D01*
X124658380Y-103107238D02*
X123658380Y-103107238D01*
X124372666Y-102773904D01*
X123658380Y-102440571D01*
X124658380Y-102440571D01*
X123658380Y-102059619D02*
X123658380Y-101440571D01*
X124039333Y-101773904D01*
X124039333Y-101631047D01*
X124086952Y-101535809D01*
X124134571Y-101488190D01*
X124229809Y-101440571D01*
X124467904Y-101440571D01*
X124563142Y-101488190D01*
X124610761Y-101535809D01*
X124658380Y-101631047D01*
X124658380Y-101916761D01*
X124610761Y-102012000D01*
X124563142Y-102059619D01*
X123753619Y-101059619D02*
X123706000Y-101012000D01*
X123658380Y-100916761D01*
X123658380Y-100678666D01*
X123706000Y-100583428D01*
X123753619Y-100535809D01*
X123848857Y-100488190D01*
X123944095Y-100488190D01*
X124086952Y-100535809D01*
X124658380Y-101107238D01*
X124658380Y-100488190D01*
X124134571Y-98964380D02*
X124182190Y-98821523D01*
X124229809Y-98773904D01*
X124325047Y-98726285D01*
X124467904Y-98726285D01*
X124563142Y-98773904D01*
X124610761Y-98821523D01*
X124658380Y-98916761D01*
X124658380Y-99297714D01*
X123658380Y-99297714D01*
X123658380Y-98964380D01*
X123706000Y-98869142D01*
X123753619Y-98821523D01*
X123848857Y-98773904D01*
X123944095Y-98773904D01*
X124039333Y-98821523D01*
X124086952Y-98869142D01*
X124134571Y-98964380D01*
X124134571Y-99297714D01*
X124658380Y-98154857D02*
X124610761Y-98250095D01*
X124515523Y-98297714D01*
X123658380Y-98297714D01*
X123991714Y-97345333D02*
X124658380Y-97345333D01*
X123991714Y-97773904D02*
X124515523Y-97773904D01*
X124610761Y-97726285D01*
X124658380Y-97631047D01*
X124658380Y-97488190D01*
X124610761Y-97392952D01*
X124563142Y-97345333D01*
X124610761Y-96488190D02*
X124658380Y-96583428D01*
X124658380Y-96773904D01*
X124610761Y-96869142D01*
X124515523Y-96916761D01*
X124134571Y-96916761D01*
X124039333Y-96869142D01*
X123991714Y-96773904D01*
X123991714Y-96583428D01*
X124039333Y-96488190D01*
X124134571Y-96440571D01*
X124229809Y-96440571D01*
X124325047Y-96916761D01*
X124658380Y-95250095D02*
X123658380Y-95250095D01*
X123658380Y-94869142D01*
X123706000Y-94773904D01*
X123753619Y-94726285D01*
X123848857Y-94678666D01*
X123991714Y-94678666D01*
X124086952Y-94726285D01*
X124134571Y-94773904D01*
X124182190Y-94869142D01*
X124182190Y-95250095D01*
X124658380Y-94250095D02*
X123991714Y-94250095D01*
X123658380Y-94250095D02*
X123706000Y-94297714D01*
X123753619Y-94250095D01*
X123706000Y-94202476D01*
X123658380Y-94250095D01*
X123753619Y-94250095D01*
X124658380Y-93631047D02*
X124610761Y-93726285D01*
X124515523Y-93773904D01*
X123658380Y-93773904D01*
X124658380Y-93107238D02*
X124610761Y-93202476D01*
X124515523Y-93250095D01*
X123658380Y-93250095D01*
X124658380Y-91964380D02*
X123658380Y-91964380D01*
X124372666Y-91631047D01*
X123658380Y-91297714D01*
X124658380Y-91297714D01*
X124658380Y-90678666D02*
X124610761Y-90773904D01*
X124563142Y-90821523D01*
X124467904Y-90869142D01*
X124182190Y-90869142D01*
X124086952Y-90821523D01*
X124039333Y-90773904D01*
X123991714Y-90678666D01*
X123991714Y-90535809D01*
X124039333Y-90440571D01*
X124086952Y-90392952D01*
X124182190Y-90345333D01*
X124467904Y-90345333D01*
X124563142Y-90392952D01*
X124610761Y-90440571D01*
X124658380Y-90535809D01*
X124658380Y-90678666D01*
X124658380Y-89488190D02*
X123658380Y-89488190D01*
X124610761Y-89488190D02*
X124658380Y-89583428D01*
X124658380Y-89773904D01*
X124610761Y-89869142D01*
X124563142Y-89916761D01*
X124467904Y-89964380D01*
X124182190Y-89964380D01*
X124086952Y-89916761D01*
X124039333Y-89869142D01*
X123991714Y-89773904D01*
X123991714Y-89583428D01*
X124039333Y-89488190D01*
X123991714Y-88583428D02*
X124658380Y-88583428D01*
X123991714Y-89012000D02*
X124515523Y-89012000D01*
X124610761Y-88964380D01*
X124658380Y-88869142D01*
X124658380Y-88726285D01*
X124610761Y-88631047D01*
X124563142Y-88583428D01*
X124658380Y-87964380D02*
X124610761Y-88059619D01*
X124515523Y-88107238D01*
X123658380Y-88107238D01*
X124610761Y-87202476D02*
X124658380Y-87297714D01*
X124658380Y-87488190D01*
X124610761Y-87583428D01*
X124515523Y-87631047D01*
X124134571Y-87631047D01*
X124039333Y-87583428D01*
X123991714Y-87488190D01*
X123991714Y-87297714D01*
X124039333Y-87202476D01*
X124134571Y-87154857D01*
X124229809Y-87154857D01*
X124325047Y-87631047D01*
D12*
X149097952Y-103171428D02*
X148621761Y-103171428D01*
X148621761Y-100314285D01*
X149097952Y-100314285D01*
D13*
%TO.C,R1*%
X106045000Y-79680000D02*
X106045000Y-80630000D01*
X106045000Y-85420000D02*
X106045000Y-84470000D01*
X105125000Y-80630000D02*
X105125000Y-84470000D01*
X106965000Y-80630000D02*
X105125000Y-80630000D01*
X106965000Y-84470000D02*
X106965000Y-80630000D01*
X105125000Y-84470000D02*
X106965000Y-84470000D01*
%TO.C,D1*%
X100140000Y-81570000D02*
X100296000Y-81570000D01*
X97824000Y-81570000D02*
X97980000Y-81570000D01*
X100139837Y-78968870D02*
G75*
G02*
X100140000Y-81050961I-1079837J-1041130D01*
G01*
X97980163Y-78968870D02*
G75*
G03*
X97980000Y-81050961I1079837J-1041130D01*
G01*
X100138608Y-78337665D02*
G75*
G02*
X100295516Y-81570000I-1078608J-1672335D01*
G01*
X97981392Y-78337665D02*
G75*
G03*
X97824484Y-81570000I1078608J-1672335D01*
G01*
%TO.C,J10*%
X159452000Y-77276000D02*
X159452000Y-75946000D01*
X160782000Y-77276000D02*
X159452000Y-77276000D01*
X162052000Y-77276000D02*
X162052000Y-74616000D01*
X162052000Y-74616000D02*
X164652000Y-74616000D01*
X162052000Y-77276000D02*
X164652000Y-77276000D01*
X164652000Y-77276000D02*
X164652000Y-74616000D01*
%TO.C,JP1*%
X148383500Y-70672500D02*
X148383500Y-73472500D01*
X148383500Y-73472500D02*
X146383500Y-73472500D01*
X146383500Y-73472500D02*
X146383500Y-70672500D01*
X146383500Y-70672500D02*
X148383500Y-70672500D01*
%TO.C,RN2*%
X138560000Y-103970000D02*
X135760000Y-103970000D01*
X135760000Y-103970000D02*
X135760000Y-129710000D01*
X135760000Y-129710000D02*
X138560000Y-129710000D01*
X138560000Y-129710000D02*
X138560000Y-103970000D01*
X138560000Y-106680000D02*
X135760000Y-106680000D01*
%TO.C,J3*%
X96288000Y-119398000D02*
X96288000Y-118538000D01*
X107928000Y-108698000D02*
X98108000Y-108698000D01*
X107928000Y-109928000D02*
X107928000Y-108698000D01*
X107928000Y-115898000D02*
X107928000Y-112228000D01*
X107928000Y-120878000D02*
X107928000Y-118198000D01*
X107208000Y-120878000D02*
X107928000Y-120878000D01*
X103508000Y-120878000D02*
X105808000Y-120878000D01*
X97658000Y-120878000D02*
X102108000Y-120878000D01*
%TO.C,J9*%
X145094000Y-74990000D02*
X145094000Y-72330000D01*
X142494000Y-74990000D02*
X145094000Y-74990000D01*
X142494000Y-72330000D02*
X145094000Y-72330000D01*
X142494000Y-74990000D02*
X142494000Y-72330000D01*
X141224000Y-74990000D02*
X139894000Y-74990000D01*
X139894000Y-74990000D02*
X139894000Y-73660000D01*
%TO.C,J8*%
X149670000Y-134680000D02*
X154870000Y-134680000D01*
X149670000Y-73660000D02*
X149670000Y-134680000D01*
X154870000Y-71060000D02*
X154870000Y-134680000D01*
X149670000Y-73660000D02*
X152270000Y-73660000D01*
X152270000Y-73660000D02*
X152270000Y-71060000D01*
X152270000Y-71060000D02*
X154870000Y-71060000D01*
X149670000Y-72390000D02*
X149670000Y-71060000D01*
X149670000Y-71060000D02*
X151000000Y-71060000D01*
%TO.C,J2*%
X164730000Y-78940000D02*
X164730000Y-87060000D01*
X164730000Y-87060000D02*
X166350000Y-87060000D01*
X166350000Y-87060000D02*
X166350000Y-78940000D01*
X166350000Y-78940000D02*
X164730000Y-78940000D01*
X166350000Y-79690000D02*
X170550000Y-79690000D01*
X170550000Y-79690000D02*
X170550000Y-80310000D01*
X170550000Y-80310000D02*
X166350000Y-80310000D01*
X166350000Y-79750000D02*
X170550000Y-79750000D01*
X166350000Y-79870000D02*
X170550000Y-79870000D01*
X166350000Y-79990000D02*
X170550000Y-79990000D01*
X166350000Y-80110000D02*
X170550000Y-80110000D01*
X166350000Y-80230000D02*
X170550000Y-80230000D01*
X164172114Y-79690000D02*
X164730000Y-79690000D01*
X164172114Y-80310000D02*
X164730000Y-80310000D01*
X162225000Y-79690000D02*
X162407886Y-79690000D01*
X162225000Y-80310000D02*
X162407886Y-80310000D01*
X164730000Y-81000000D02*
X166350000Y-81000000D01*
X166350000Y-81690000D02*
X170550000Y-81690000D01*
X170550000Y-81690000D02*
X170550000Y-82310000D01*
X170550000Y-82310000D02*
X166350000Y-82310000D01*
X164172114Y-81690000D02*
X164730000Y-81690000D01*
X164172114Y-82310000D02*
X164730000Y-82310000D01*
X162172114Y-81690000D02*
X162407886Y-81690000D01*
X162172114Y-82310000D02*
X162407886Y-82310000D01*
X164730000Y-83000000D02*
X166350000Y-83000000D01*
X166350000Y-83690000D02*
X170550000Y-83690000D01*
X170550000Y-83690000D02*
X170550000Y-84310000D01*
X170550000Y-84310000D02*
X166350000Y-84310000D01*
X164172114Y-83690000D02*
X164730000Y-83690000D01*
X164172114Y-84310000D02*
X164730000Y-84310000D01*
X162172114Y-83690000D02*
X162407886Y-83690000D01*
X162172114Y-84310000D02*
X162407886Y-84310000D01*
X164730000Y-85000000D02*
X166350000Y-85000000D01*
X166350000Y-85690000D02*
X170550000Y-85690000D01*
X170550000Y-85690000D02*
X170550000Y-86310000D01*
X170550000Y-86310000D02*
X166350000Y-86310000D01*
X164172114Y-85690000D02*
X164730000Y-85690000D01*
X164172114Y-86310000D02*
X164730000Y-86310000D01*
X162172114Y-85690000D02*
X162407886Y-85690000D01*
X162172114Y-86310000D02*
X162407886Y-86310000D01*
X160290000Y-80000000D02*
X160290000Y-79000000D01*
X160290000Y-79000000D02*
X161290000Y-79000000D01*
%TO.C,J6*%
X106002000Y-99120000D02*
X106002000Y-88840000D01*
X106002000Y-88840000D02*
X103342000Y-88840000D01*
X103342000Y-88840000D02*
X103342000Y-99120000D01*
X103342000Y-99120000D02*
X106002000Y-99120000D01*
X103342000Y-98170000D02*
X97342000Y-98170000D01*
X97342000Y-98170000D02*
X97342000Y-97410000D01*
X97342000Y-97410000D02*
X103342000Y-97410000D01*
X103342000Y-98110000D02*
X97342000Y-98110000D01*
X103342000Y-97990000D02*
X97342000Y-97990000D01*
X103342000Y-97870000D02*
X97342000Y-97870000D01*
X103342000Y-97750000D02*
X97342000Y-97750000D01*
X103342000Y-97630000D02*
X97342000Y-97630000D01*
X103342000Y-97510000D02*
X97342000Y-97510000D01*
X106332000Y-98170000D02*
X106002000Y-98170000D01*
X106332000Y-97410000D02*
X106002000Y-97410000D01*
X106002000Y-96520000D02*
X103342000Y-96520000D01*
X103342000Y-95630000D02*
X97342000Y-95630000D01*
X97342000Y-95630000D02*
X97342000Y-94870000D01*
X97342000Y-94870000D02*
X103342000Y-94870000D01*
X106399071Y-95630000D02*
X106002000Y-95630000D01*
X106399071Y-94870000D02*
X106002000Y-94870000D01*
X106002000Y-93980000D02*
X103342000Y-93980000D01*
X103342000Y-93090000D02*
X97342000Y-93090000D01*
X97342000Y-93090000D02*
X97342000Y-92330000D01*
X97342000Y-92330000D02*
X103342000Y-92330000D01*
X106399071Y-93090000D02*
X106002000Y-93090000D01*
X106399071Y-92330000D02*
X106002000Y-92330000D01*
X106002000Y-91440000D02*
X103342000Y-91440000D01*
X103342000Y-90550000D02*
X97342000Y-90550000D01*
X97342000Y-90550000D02*
X97342000Y-89790000D01*
X97342000Y-89790000D02*
X103342000Y-89790000D01*
X106399071Y-90550000D02*
X106002000Y-90550000D01*
X106399071Y-89790000D02*
X106002000Y-89790000D01*
X108712000Y-97790000D02*
X108712000Y-99060000D01*
X108712000Y-99060000D02*
X107442000Y-99060000D01*
%TO.C,J5*%
X147126000Y-104080000D02*
X144466000Y-104080000D01*
X147126000Y-106680000D02*
X147126000Y-104080000D01*
X144466000Y-106680000D02*
X144466000Y-104080000D01*
X147126000Y-106680000D02*
X144466000Y-106680000D01*
X147126000Y-107950000D02*
X147126000Y-109280000D01*
X147126000Y-109280000D02*
X145796000Y-109280000D01*
%TO.C,J4*%
X144466000Y-101660000D02*
X147126000Y-101660000D01*
X144466000Y-99060000D02*
X144466000Y-101660000D01*
X147126000Y-99060000D02*
X147126000Y-101660000D01*
X144466000Y-99060000D02*
X147126000Y-99060000D01*
X144466000Y-97790000D02*
X144466000Y-96460000D01*
X144466000Y-96460000D02*
X145796000Y-96460000D01*
%TO.C,RN4*%
X143640000Y-103970000D02*
X140840000Y-103970000D01*
X140840000Y-103970000D02*
X140840000Y-129710000D01*
X140840000Y-129710000D02*
X143640000Y-129710000D01*
X143640000Y-129710000D02*
X143640000Y-103970000D01*
X143640000Y-106680000D02*
X140840000Y-106680000D01*
%TO.C,RN3*%
X140840000Y-101770000D02*
X143640000Y-101770000D01*
X143640000Y-101770000D02*
X143640000Y-76030000D01*
X143640000Y-76030000D02*
X140840000Y-76030000D01*
X140840000Y-76030000D02*
X140840000Y-101770000D01*
X140840000Y-99060000D02*
X143640000Y-99060000D01*
%TO.C,RN1*%
X135760000Y-101770000D02*
X138560000Y-101770000D01*
X138560000Y-101770000D02*
X138560000Y-76030000D01*
X138560000Y-76030000D02*
X135760000Y-76030000D01*
X135760000Y-76030000D02*
X135760000Y-101770000D01*
X135760000Y-99060000D02*
X138560000Y-99060000D01*
%TO.C,J7*%
X111820000Y-122936000D02*
X109160000Y-122936000D01*
X111820000Y-122936000D02*
X111820000Y-102556000D01*
X111820000Y-102556000D02*
X109160000Y-102556000D01*
X109160000Y-122936000D02*
X109160000Y-102556000D01*
X109160000Y-125536000D02*
X109160000Y-124206000D01*
X110490000Y-125536000D02*
X109160000Y-125536000D01*
%TO.C,J1*%
X160290000Y-89000000D02*
X161290000Y-89000000D01*
X160290000Y-90000000D02*
X160290000Y-89000000D01*
X162172114Y-128310000D02*
X162407886Y-128310000D01*
X162172114Y-127690000D02*
X162407886Y-127690000D01*
X164172114Y-128310000D02*
X164730000Y-128310000D01*
X164172114Y-127690000D02*
X164730000Y-127690000D01*
X170550000Y-128310000D02*
X166350000Y-128310000D01*
X170550000Y-127690000D02*
X170550000Y-128310000D01*
X166350000Y-127690000D02*
X170550000Y-127690000D01*
X164730000Y-127000000D02*
X166350000Y-127000000D01*
X162172114Y-126310000D02*
X162407886Y-126310000D01*
X162172114Y-125690000D02*
X162407886Y-125690000D01*
X164172114Y-126310000D02*
X164730000Y-126310000D01*
X164172114Y-125690000D02*
X164730000Y-125690000D01*
X170550000Y-126310000D02*
X166350000Y-126310000D01*
X170550000Y-125690000D02*
X170550000Y-126310000D01*
X166350000Y-125690000D02*
X170550000Y-125690000D01*
X164730000Y-125000000D02*
X166350000Y-125000000D01*
X162172114Y-124310000D02*
X162407886Y-124310000D01*
X162172114Y-123690000D02*
X162407886Y-123690000D01*
X164172114Y-124310000D02*
X164730000Y-124310000D01*
X164172114Y-123690000D02*
X164730000Y-123690000D01*
X170550000Y-124310000D02*
X166350000Y-124310000D01*
X170550000Y-123690000D02*
X170550000Y-124310000D01*
X166350000Y-123690000D02*
X170550000Y-123690000D01*
X164730000Y-123000000D02*
X166350000Y-123000000D01*
X162172114Y-122310000D02*
X162407886Y-122310000D01*
X162172114Y-121690000D02*
X162407886Y-121690000D01*
X164172114Y-122310000D02*
X164730000Y-122310000D01*
X164172114Y-121690000D02*
X164730000Y-121690000D01*
X170550000Y-122310000D02*
X166350000Y-122310000D01*
X170550000Y-121690000D02*
X170550000Y-122310000D01*
X166350000Y-121690000D02*
X170550000Y-121690000D01*
X164730000Y-121000000D02*
X166350000Y-121000000D01*
X162172114Y-120310000D02*
X162407886Y-120310000D01*
X162172114Y-119690000D02*
X162407886Y-119690000D01*
X164172114Y-120310000D02*
X164730000Y-120310000D01*
X164172114Y-119690000D02*
X164730000Y-119690000D01*
X170550000Y-120310000D02*
X166350000Y-120310000D01*
X170550000Y-119690000D02*
X170550000Y-120310000D01*
X166350000Y-119690000D02*
X170550000Y-119690000D01*
X164730000Y-119000000D02*
X166350000Y-119000000D01*
X162172114Y-118310000D02*
X162407886Y-118310000D01*
X162172114Y-117690000D02*
X162407886Y-117690000D01*
X164172114Y-118310000D02*
X164730000Y-118310000D01*
X164172114Y-117690000D02*
X164730000Y-117690000D01*
X170550000Y-118310000D02*
X166350000Y-118310000D01*
X170550000Y-117690000D02*
X170550000Y-118310000D01*
X166350000Y-117690000D02*
X170550000Y-117690000D01*
X164730000Y-117000000D02*
X166350000Y-117000000D01*
X162172114Y-116310000D02*
X162407886Y-116310000D01*
X162172114Y-115690000D02*
X162407886Y-115690000D01*
X164172114Y-116310000D02*
X164730000Y-116310000D01*
X164172114Y-115690000D02*
X164730000Y-115690000D01*
X170550000Y-116310000D02*
X166350000Y-116310000D01*
X170550000Y-115690000D02*
X170550000Y-116310000D01*
X166350000Y-115690000D02*
X170550000Y-115690000D01*
X164730000Y-115000000D02*
X166350000Y-115000000D01*
X162172114Y-114310000D02*
X162407886Y-114310000D01*
X162172114Y-113690000D02*
X162407886Y-113690000D01*
X164172114Y-114310000D02*
X164730000Y-114310000D01*
X164172114Y-113690000D02*
X164730000Y-113690000D01*
X170550000Y-114310000D02*
X166350000Y-114310000D01*
X170550000Y-113690000D02*
X170550000Y-114310000D01*
X166350000Y-113690000D02*
X170550000Y-113690000D01*
X164730000Y-113000000D02*
X166350000Y-113000000D01*
X162172114Y-112310000D02*
X162407886Y-112310000D01*
X162172114Y-111690000D02*
X162407886Y-111690000D01*
X164172114Y-112310000D02*
X164730000Y-112310000D01*
X164172114Y-111690000D02*
X164730000Y-111690000D01*
X170550000Y-112310000D02*
X166350000Y-112310000D01*
X170550000Y-111690000D02*
X170550000Y-112310000D01*
X166350000Y-111690000D02*
X170550000Y-111690000D01*
X164730000Y-111000000D02*
X166350000Y-111000000D01*
X162172114Y-110310000D02*
X162407886Y-110310000D01*
X162172114Y-109690000D02*
X162407886Y-109690000D01*
X164172114Y-110310000D02*
X164730000Y-110310000D01*
X164172114Y-109690000D02*
X164730000Y-109690000D01*
X170550000Y-110310000D02*
X166350000Y-110310000D01*
X170550000Y-109690000D02*
X170550000Y-110310000D01*
X166350000Y-109690000D02*
X170550000Y-109690000D01*
X164730000Y-109000000D02*
X166350000Y-109000000D01*
X162172114Y-108310000D02*
X162407886Y-108310000D01*
X162172114Y-107690000D02*
X162407886Y-107690000D01*
X164172114Y-108310000D02*
X164730000Y-108310000D01*
X164172114Y-107690000D02*
X164730000Y-107690000D01*
X170550000Y-108310000D02*
X166350000Y-108310000D01*
X170550000Y-107690000D02*
X170550000Y-108310000D01*
X166350000Y-107690000D02*
X170550000Y-107690000D01*
X164730000Y-107000000D02*
X166350000Y-107000000D01*
X162172114Y-106310000D02*
X162407886Y-106310000D01*
X162172114Y-105690000D02*
X162407886Y-105690000D01*
X164172114Y-106310000D02*
X164730000Y-106310000D01*
X164172114Y-105690000D02*
X164730000Y-105690000D01*
X170550000Y-106310000D02*
X166350000Y-106310000D01*
X170550000Y-105690000D02*
X170550000Y-106310000D01*
X166350000Y-105690000D02*
X170550000Y-105690000D01*
X164730000Y-105000000D02*
X166350000Y-105000000D01*
X162172114Y-104310000D02*
X162407886Y-104310000D01*
X162172114Y-103690000D02*
X162407886Y-103690000D01*
X164172114Y-104310000D02*
X164730000Y-104310000D01*
X164172114Y-103690000D02*
X164730000Y-103690000D01*
X170550000Y-104310000D02*
X166350000Y-104310000D01*
X170550000Y-103690000D02*
X170550000Y-104310000D01*
X166350000Y-103690000D02*
X170550000Y-103690000D01*
X164730000Y-103000000D02*
X166350000Y-103000000D01*
X162172114Y-102310000D02*
X162407886Y-102310000D01*
X162172114Y-101690000D02*
X162407886Y-101690000D01*
X164172114Y-102310000D02*
X164730000Y-102310000D01*
X164172114Y-101690000D02*
X164730000Y-101690000D01*
X170550000Y-102310000D02*
X166350000Y-102310000D01*
X170550000Y-101690000D02*
X170550000Y-102310000D01*
X166350000Y-101690000D02*
X170550000Y-101690000D01*
X164730000Y-101000000D02*
X166350000Y-101000000D01*
X162172114Y-100310000D02*
X162407886Y-100310000D01*
X162172114Y-99690000D02*
X162407886Y-99690000D01*
X164172114Y-100310000D02*
X164730000Y-100310000D01*
X164172114Y-99690000D02*
X164730000Y-99690000D01*
X170550000Y-100310000D02*
X166350000Y-100310000D01*
X170550000Y-99690000D02*
X170550000Y-100310000D01*
X166350000Y-99690000D02*
X170550000Y-99690000D01*
X164730000Y-99000000D02*
X166350000Y-99000000D01*
X162172114Y-98310000D02*
X162407886Y-98310000D01*
X162172114Y-97690000D02*
X162407886Y-97690000D01*
X164172114Y-98310000D02*
X164730000Y-98310000D01*
X164172114Y-97690000D02*
X164730000Y-97690000D01*
X170550000Y-98310000D02*
X166350000Y-98310000D01*
X170550000Y-97690000D02*
X170550000Y-98310000D01*
X166350000Y-97690000D02*
X170550000Y-97690000D01*
X164730000Y-97000000D02*
X166350000Y-97000000D01*
X162172114Y-96310000D02*
X162407886Y-96310000D01*
X162172114Y-95690000D02*
X162407886Y-95690000D01*
X164172114Y-96310000D02*
X164730000Y-96310000D01*
X164172114Y-95690000D02*
X164730000Y-95690000D01*
X170550000Y-96310000D02*
X166350000Y-96310000D01*
X170550000Y-95690000D02*
X170550000Y-96310000D01*
X166350000Y-95690000D02*
X170550000Y-95690000D01*
X164730000Y-95000000D02*
X166350000Y-95000000D01*
X162172114Y-94310000D02*
X162407886Y-94310000D01*
X162172114Y-93690000D02*
X162407886Y-93690000D01*
X164172114Y-94310000D02*
X164730000Y-94310000D01*
X164172114Y-93690000D02*
X164730000Y-93690000D01*
X170550000Y-94310000D02*
X166350000Y-94310000D01*
X170550000Y-93690000D02*
X170550000Y-94310000D01*
X166350000Y-93690000D02*
X170550000Y-93690000D01*
X164730000Y-93000000D02*
X166350000Y-93000000D01*
X162172114Y-92310000D02*
X162407886Y-92310000D01*
X162172114Y-91690000D02*
X162407886Y-91690000D01*
X164172114Y-92310000D02*
X164730000Y-92310000D01*
X164172114Y-91690000D02*
X164730000Y-91690000D01*
X170550000Y-92310000D02*
X166350000Y-92310000D01*
X170550000Y-91690000D02*
X170550000Y-92310000D01*
X166350000Y-91690000D02*
X170550000Y-91690000D01*
X164730000Y-91000000D02*
X166350000Y-91000000D01*
X162225000Y-90310000D02*
X162407886Y-90310000D01*
X162225000Y-89690000D02*
X162407886Y-89690000D01*
X164172114Y-90310000D02*
X164730000Y-90310000D01*
X164172114Y-89690000D02*
X164730000Y-89690000D01*
X166350000Y-90230000D02*
X170550000Y-90230000D01*
X166350000Y-90110000D02*
X170550000Y-90110000D01*
X166350000Y-89990000D02*
X170550000Y-89990000D01*
X166350000Y-89870000D02*
X170550000Y-89870000D01*
X166350000Y-89750000D02*
X170550000Y-89750000D01*
X170550000Y-90310000D02*
X166350000Y-90310000D01*
X170550000Y-89690000D02*
X170550000Y-90310000D01*
X166350000Y-89690000D02*
X170550000Y-89690000D01*
X166350000Y-88940000D02*
X164730000Y-88940000D01*
X166350000Y-129060000D02*
X166350000Y-88940000D01*
X164730000Y-129060000D02*
X166350000Y-129060000D01*
X164730000Y-88940000D02*
X164730000Y-129060000D01*
%TO.C,U1*%
X135327000Y-129445000D02*
X112577000Y-129445000D01*
X112577000Y-129445000D02*
X112577000Y-76295000D01*
X112577000Y-76295000D02*
X135327000Y-76295000D01*
X135327000Y-76295000D02*
X135327000Y-129445000D01*
X132902000Y-125730000D02*
X130242000Y-125730000D01*
X130242000Y-125730000D02*
X130242000Y-77410000D01*
X130242000Y-77410000D02*
X132902000Y-77410000D01*
X132902000Y-77410000D02*
X132902000Y-125730000D01*
X117602000Y-128270000D02*
X115062000Y-128270000D01*
X115062000Y-128270000D02*
X115062000Y-77470000D01*
X115062000Y-77470000D02*
X117602000Y-77470000D01*
X117602000Y-77470000D02*
X117602000Y-128270000D01*
X132902000Y-127000000D02*
X132902000Y-128330000D01*
X132902000Y-128330000D02*
X131572000Y-128330000D01*
%TO.C,R1*%
D10*
X108402380Y-82716666D02*
X107926190Y-83050000D01*
X108402380Y-83288095D02*
X107402380Y-83288095D01*
X107402380Y-82907142D01*
X107450000Y-82811904D01*
X107497619Y-82764285D01*
X107592857Y-82716666D01*
X107735714Y-82716666D01*
X107830952Y-82764285D01*
X107878571Y-82811904D01*
X107926190Y-82907142D01*
X107926190Y-83288095D01*
X108402380Y-81764285D02*
X108402380Y-82335714D01*
X108402380Y-82050000D02*
X107402380Y-82050000D01*
X107545238Y-82145238D01*
X107640476Y-82240476D01*
X107688095Y-82335714D01*
%TO.C,D1*%
X98321904Y-77160380D02*
X98321904Y-76160380D01*
X98560000Y-76160380D01*
X98702857Y-76208000D01*
X98798095Y-76303238D01*
X98845714Y-76398476D01*
X98893333Y-76588952D01*
X98893333Y-76731809D01*
X98845714Y-76922285D01*
X98798095Y-77017523D01*
X98702857Y-77112761D01*
X98560000Y-77160380D01*
X98321904Y-77160380D01*
X99845714Y-77160380D02*
X99274285Y-77160380D01*
X99560000Y-77160380D02*
X99560000Y-76160380D01*
X99464761Y-76303238D01*
X99369523Y-76398476D01*
X99274285Y-76446095D01*
%TO.C,J10*%
X157178476Y-75398380D02*
X157178476Y-76112666D01*
X157130857Y-76255523D01*
X157035619Y-76350761D01*
X156892761Y-76398380D01*
X156797523Y-76398380D01*
X158178476Y-76398380D02*
X157607047Y-76398380D01*
X157892761Y-76398380D02*
X157892761Y-75398380D01*
X157797523Y-75541238D01*
X157702285Y-75636476D01*
X157607047Y-75684095D01*
X158797523Y-75398380D02*
X158892761Y-75398380D01*
X158988000Y-75446000D01*
X159035619Y-75493619D01*
X159083238Y-75588857D01*
X159130857Y-75779333D01*
X159130857Y-76017428D01*
X159083238Y-76207904D01*
X159035619Y-76303142D01*
X158988000Y-76350761D01*
X158892761Y-76398380D01*
X158797523Y-76398380D01*
X158702285Y-76350761D01*
X158654666Y-76303142D01*
X158607047Y-76207904D01*
X158559428Y-76017428D01*
X158559428Y-75779333D01*
X158607047Y-75588857D01*
X158654666Y-75493619D01*
X158702285Y-75446000D01*
X158797523Y-75398380D01*
%TO.C,JP1*%
X146550166Y-74064880D02*
X146550166Y-74779166D01*
X146502547Y-74922023D01*
X146407309Y-75017261D01*
X146264452Y-75064880D01*
X146169214Y-75064880D01*
X147026357Y-75064880D02*
X147026357Y-74064880D01*
X147407309Y-74064880D01*
X147502547Y-74112500D01*
X147550166Y-74160119D01*
X147597785Y-74255357D01*
X147597785Y-74398214D01*
X147550166Y-74493452D01*
X147502547Y-74541071D01*
X147407309Y-74588690D01*
X147026357Y-74588690D01*
X148550166Y-75064880D02*
X147978738Y-75064880D01*
X148264452Y-75064880D02*
X148264452Y-74064880D01*
X148169214Y-74207738D01*
X148073976Y-74302976D01*
X147978738Y-74350595D01*
%TO.C,RN2*%
X139898380Y-120070476D02*
X139422190Y-120403809D01*
X139898380Y-120641904D02*
X138898380Y-120641904D01*
X138898380Y-120260952D01*
X138946000Y-120165714D01*
X138993619Y-120118095D01*
X139088857Y-120070476D01*
X139231714Y-120070476D01*
X139326952Y-120118095D01*
X139374571Y-120165714D01*
X139422190Y-120260952D01*
X139422190Y-120641904D01*
X139898380Y-119641904D02*
X138898380Y-119641904D01*
X139898380Y-119070476D01*
X138898380Y-119070476D01*
X138993619Y-118641904D02*
X138946000Y-118594285D01*
X138898380Y-118499047D01*
X138898380Y-118260952D01*
X138946000Y-118165714D01*
X138993619Y-118118095D01*
X139088857Y-118070476D01*
X139184095Y-118070476D01*
X139326952Y-118118095D01*
X139898380Y-118689523D01*
X139898380Y-118070476D01*
%TO.C,J3*%
X103552666Y-116038380D02*
X103552666Y-116752666D01*
X103505047Y-116895523D01*
X103409809Y-116990761D01*
X103266952Y-117038380D01*
X103171714Y-117038380D01*
X103933619Y-116038380D02*
X104552666Y-116038380D01*
X104219333Y-116419333D01*
X104362190Y-116419333D01*
X104457428Y-116466952D01*
X104505047Y-116514571D01*
X104552666Y-116609809D01*
X104552666Y-116847904D01*
X104505047Y-116943142D01*
X104457428Y-116990761D01*
X104362190Y-117038380D01*
X104076476Y-117038380D01*
X103981238Y-116990761D01*
X103933619Y-116943142D01*
%TO.C,J9*%
X140636666Y-70826380D02*
X140636666Y-71540666D01*
X140589047Y-71683523D01*
X140493809Y-71778761D01*
X140350952Y-71826380D01*
X140255714Y-71826380D01*
X141160476Y-71826380D02*
X141350952Y-71826380D01*
X141446190Y-71778761D01*
X141493809Y-71731142D01*
X141589047Y-71588285D01*
X141636666Y-71397809D01*
X141636666Y-71016857D01*
X141589047Y-70921619D01*
X141541428Y-70874000D01*
X141446190Y-70826380D01*
X141255714Y-70826380D01*
X141160476Y-70874000D01*
X141112857Y-70921619D01*
X141065238Y-71016857D01*
X141065238Y-71254952D01*
X141112857Y-71350190D01*
X141160476Y-71397809D01*
X141255714Y-71445428D01*
X141446190Y-71445428D01*
X141541428Y-71397809D01*
X141589047Y-71350190D01*
X141636666Y-71254952D01*
%TO.C,J8*%
X149780666Y-69810380D02*
X149780666Y-70524666D01*
X149733047Y-70667523D01*
X149637809Y-70762761D01*
X149494952Y-70810380D01*
X149399714Y-70810380D01*
X150399714Y-70238952D02*
X150304476Y-70191333D01*
X150256857Y-70143714D01*
X150209238Y-70048476D01*
X150209238Y-70000857D01*
X150256857Y-69905619D01*
X150304476Y-69858000D01*
X150399714Y-69810380D01*
X150590190Y-69810380D01*
X150685428Y-69858000D01*
X150733047Y-69905619D01*
X150780666Y-70000857D01*
X150780666Y-70048476D01*
X150733047Y-70143714D01*
X150685428Y-70191333D01*
X150590190Y-70238952D01*
X150399714Y-70238952D01*
X150304476Y-70286571D01*
X150256857Y-70334190D01*
X150209238Y-70429428D01*
X150209238Y-70619904D01*
X150256857Y-70715142D01*
X150304476Y-70762761D01*
X150399714Y-70810380D01*
X150590190Y-70810380D01*
X150685428Y-70762761D01*
X150733047Y-70715142D01*
X150780666Y-70619904D01*
X150780666Y-70429428D01*
X150733047Y-70334190D01*
X150685428Y-70286571D01*
X150590190Y-70238952D01*
%TO.C,J2*%
X158416666Y-79208380D02*
X158416666Y-79922666D01*
X158369047Y-80065523D01*
X158273809Y-80160761D01*
X158130952Y-80208380D01*
X158035714Y-80208380D01*
X158845238Y-79303619D02*
X158892857Y-79256000D01*
X158988095Y-79208380D01*
X159226190Y-79208380D01*
X159321428Y-79256000D01*
X159369047Y-79303619D01*
X159416666Y-79398857D01*
X159416666Y-79494095D01*
X159369047Y-79636952D01*
X158797619Y-80208380D01*
X159416666Y-80208380D01*
%TO.C,J6*%
X101901666Y-90892380D02*
X101901666Y-91606666D01*
X101854047Y-91749523D01*
X101758809Y-91844761D01*
X101615952Y-91892380D01*
X101520714Y-91892380D01*
X102806428Y-90892380D02*
X102615952Y-90892380D01*
X102520714Y-90940000D01*
X102473095Y-90987619D01*
X102377857Y-91130476D01*
X102330238Y-91320952D01*
X102330238Y-91701904D01*
X102377857Y-91797142D01*
X102425476Y-91844761D01*
X102520714Y-91892380D01*
X102711190Y-91892380D01*
X102806428Y-91844761D01*
X102854047Y-91797142D01*
X102901666Y-91701904D01*
X102901666Y-91463809D01*
X102854047Y-91368571D01*
X102806428Y-91320952D01*
X102711190Y-91273333D01*
X102520714Y-91273333D01*
X102425476Y-91320952D01*
X102377857Y-91368571D01*
X102330238Y-91463809D01*
%TO.C,J5*%
X144383166Y-109624880D02*
X144383166Y-110339166D01*
X144335547Y-110482023D01*
X144240309Y-110577261D01*
X144097452Y-110624880D01*
X144002214Y-110624880D01*
X145335547Y-109624880D02*
X144859357Y-109624880D01*
X144811738Y-110101071D01*
X144859357Y-110053452D01*
X144954595Y-110005833D01*
X145192690Y-110005833D01*
X145287928Y-110053452D01*
X145335547Y-110101071D01*
X145383166Y-110196309D01*
X145383166Y-110434404D01*
X145335547Y-110529642D01*
X145287928Y-110577261D01*
X145192690Y-110624880D01*
X144954595Y-110624880D01*
X144859357Y-110577261D01*
X144811738Y-110529642D01*
%TO.C,J4*%
X144446666Y-94702380D02*
X144446666Y-95416666D01*
X144399047Y-95559523D01*
X144303809Y-95654761D01*
X144160952Y-95702380D01*
X144065714Y-95702380D01*
X145351428Y-95035714D02*
X145351428Y-95702380D01*
X145113333Y-94654761D02*
X144875238Y-95369047D01*
X145494285Y-95369047D01*
%TO.C,RN4*%
X145092380Y-120070476D02*
X144616190Y-120403809D01*
X145092380Y-120641904D02*
X144092380Y-120641904D01*
X144092380Y-120260952D01*
X144140000Y-120165714D01*
X144187619Y-120118095D01*
X144282857Y-120070476D01*
X144425714Y-120070476D01*
X144520952Y-120118095D01*
X144568571Y-120165714D01*
X144616190Y-120260952D01*
X144616190Y-120641904D01*
X145092380Y-119641904D02*
X144092380Y-119641904D01*
X145092380Y-119070476D01*
X144092380Y-119070476D01*
X144425714Y-118165714D02*
X145092380Y-118165714D01*
X144044761Y-118403809D02*
X144759047Y-118641904D01*
X144759047Y-118022857D01*
%TO.C,RN3*%
X145232380Y-89590476D02*
X144756190Y-89923809D01*
X145232380Y-90161904D02*
X144232380Y-90161904D01*
X144232380Y-89780952D01*
X144280000Y-89685714D01*
X144327619Y-89638095D01*
X144422857Y-89590476D01*
X144565714Y-89590476D01*
X144660952Y-89638095D01*
X144708571Y-89685714D01*
X144756190Y-89780952D01*
X144756190Y-90161904D01*
X145232380Y-89161904D02*
X144232380Y-89161904D01*
X145232380Y-88590476D01*
X144232380Y-88590476D01*
X144232380Y-88209523D02*
X144232380Y-87590476D01*
X144613333Y-87923809D01*
X144613333Y-87780952D01*
X144660952Y-87685714D01*
X144708571Y-87638095D01*
X144803809Y-87590476D01*
X145041904Y-87590476D01*
X145137142Y-87638095D01*
X145184761Y-87685714D01*
X145232380Y-87780952D01*
X145232380Y-88066666D01*
X145184761Y-88161904D01*
X145137142Y-88209523D01*
%TO.C,RN1*%
X139898380Y-89590476D02*
X139422190Y-89923809D01*
X139898380Y-90161904D02*
X138898380Y-90161904D01*
X138898380Y-89780952D01*
X138946000Y-89685714D01*
X138993619Y-89638095D01*
X139088857Y-89590476D01*
X139231714Y-89590476D01*
X139326952Y-89638095D01*
X139374571Y-89685714D01*
X139422190Y-89780952D01*
X139422190Y-90161904D01*
X139898380Y-89161904D02*
X138898380Y-89161904D01*
X139898380Y-88590476D01*
X138898380Y-88590476D01*
X139898380Y-87590476D02*
X139898380Y-88161904D01*
X139898380Y-87876190D02*
X138898380Y-87876190D01*
X139041238Y-87971428D01*
X139136476Y-88066666D01*
X139184095Y-88161904D01*
%TO.C,J7*%
X110156666Y-126428380D02*
X110156666Y-127142666D01*
X110109047Y-127285523D01*
X110013809Y-127380761D01*
X109870952Y-127428380D01*
X109775714Y-127428380D01*
X110537619Y-126428380D02*
X111204285Y-126428380D01*
X110775714Y-127428380D01*
%TO.C,J1*%
X158416666Y-89114380D02*
X158416666Y-89828666D01*
X158369047Y-89971523D01*
X158273809Y-90066761D01*
X158130952Y-90114380D01*
X158035714Y-90114380D01*
X159416666Y-90114380D02*
X158845238Y-90114380D01*
X159130952Y-90114380D02*
X159130952Y-89114380D01*
X159035714Y-89257238D01*
X158940476Y-89352476D01*
X158845238Y-89400095D01*
%TO.C,U1*%
X123063095Y-138390380D02*
X123063095Y-139199904D01*
X123110714Y-139295142D01*
X123158333Y-139342761D01*
X123253571Y-139390380D01*
X123444047Y-139390380D01*
X123539285Y-139342761D01*
X123586904Y-139295142D01*
X123634523Y-139199904D01*
X123634523Y-138390380D01*
X124634523Y-139390380D02*
X124063095Y-139390380D01*
X124348809Y-139390380D02*
X124348809Y-138390380D01*
X124253571Y-138533238D01*
X124158333Y-138628476D01*
X124063095Y-138676095D01*
%TD*%
M02*
