%TF.GenerationSoftware,KiCad,Pcbnew,(5.1.8-0-10_14)*%
%TF.CreationDate,2021-04-04T23:03:52-06:00*%
%TF.ProjectId,bluescsi_powerbook,626c7565-7363-4736-995f-706f77657262,rev?*%
%TF.SameCoordinates,Original*%
%TF.FileFunction,Soldermask,Bot*%
%TF.FilePolarity,Negative*%
%FSLAX46Y46*%
G04 Gerber Fmt 4.6, Leading zero omitted, Abs format (unit mm)*
G04 Created by KiCad (PCBNEW (5.1.8-0-10_14)) date 2021-04-04 23:03:52*
%MOMM*%
%LPD*%
G01*
G04 APERTURE LIST*
%ADD10O,1.400000X1.400000*%
%ADD11C,1.400000*%
%ADD12C,1.800000*%
%ADD13R,1.800000X1.800000*%
%ADD14O,1.700000X1.700000*%
%ADD15R,1.700000X1.700000*%
%ADD16O,1.600000X1.600000*%
%ADD17R,1.600000X1.600000*%
%ADD18O,1.350000X1.350000*%
%ADD19R,1.350000X1.350000*%
%ADD20C,1.700000*%
G04 APERTURE END LIST*
D10*
%TO.C,R1*%
X106045000Y-78740000D03*
D11*
X106045000Y-86360000D03*
%TD*%
D12*
%TO.C,D1*%
X99060000Y-78740000D03*
D13*
X99060000Y-81280000D03*
%TD*%
D14*
%TO.C,J10*%
X163322000Y-75946000D03*
D15*
X160782000Y-75946000D03*
%TD*%
D16*
%TO.C,RN2*%
X137160000Y-128270000D03*
X137160000Y-125730000D03*
X137160000Y-123190000D03*
X137160000Y-120650000D03*
X137160000Y-118110000D03*
X137160000Y-115570000D03*
X137160000Y-113030000D03*
X137160000Y-110490000D03*
X137160000Y-107950000D03*
D17*
X137160000Y-105410000D03*
%TD*%
D14*
%TO.C,J9*%
X143764000Y-73660000D03*
D15*
X141224000Y-73660000D03*
%TD*%
D14*
%TO.C,J8*%
X153540000Y-133350000D03*
X151000000Y-133350000D03*
X153540000Y-130810000D03*
X151000000Y-130810000D03*
X153540000Y-128270000D03*
X151000000Y-128270000D03*
X153540000Y-125730000D03*
X151000000Y-125730000D03*
X153540000Y-123190000D03*
X151000000Y-123190000D03*
X153540000Y-120650000D03*
X151000000Y-120650000D03*
X153540000Y-118110000D03*
X151000000Y-118110000D03*
X153540000Y-115570000D03*
X151000000Y-115570000D03*
X153540000Y-113030000D03*
X151000000Y-113030000D03*
X153540000Y-110490000D03*
X151000000Y-110490000D03*
X153540000Y-107950000D03*
X151000000Y-107950000D03*
X153540000Y-105410000D03*
X151000000Y-105410000D03*
X153540000Y-102870000D03*
X151000000Y-102870000D03*
X153540000Y-100330000D03*
X151000000Y-100330000D03*
X153540000Y-97790000D03*
X151000000Y-97790000D03*
X153540000Y-95250000D03*
X151000000Y-95250000D03*
X153540000Y-92710000D03*
X151000000Y-92710000D03*
X153540000Y-90170000D03*
X151000000Y-90170000D03*
X153540000Y-87630000D03*
X151000000Y-87630000D03*
X153540000Y-85090000D03*
X151000000Y-85090000D03*
X153540000Y-82550000D03*
X151000000Y-82550000D03*
X153540000Y-80010000D03*
X151000000Y-80010000D03*
X153540000Y-77470000D03*
X151000000Y-77470000D03*
X153540000Y-74930000D03*
X151000000Y-74930000D03*
X153540000Y-72390000D03*
D15*
X151000000Y-72390000D03*
%TD*%
D18*
%TO.C,J2*%
X163290000Y-86000000D03*
X161290000Y-86000000D03*
X163290000Y-84000000D03*
X161290000Y-84000000D03*
X163290000Y-82000000D03*
X161290000Y-82000000D03*
X163290000Y-80000000D03*
D19*
X161290000Y-80000000D03*
%TD*%
D14*
%TO.C,J6*%
X107442000Y-90170000D03*
X107442000Y-92710000D03*
X107442000Y-95250000D03*
D15*
X107442000Y-97790000D03*
%TD*%
D14*
%TO.C,J5*%
X145796000Y-105410000D03*
D15*
X145796000Y-107950000D03*
%TD*%
D14*
%TO.C,J4*%
X145796000Y-100330000D03*
D15*
X145796000Y-97790000D03*
%TD*%
D16*
%TO.C,RN4*%
X142240000Y-128270000D03*
X142240000Y-125730000D03*
X142240000Y-123190000D03*
X142240000Y-120650000D03*
X142240000Y-118110000D03*
X142240000Y-115570000D03*
X142240000Y-113030000D03*
X142240000Y-110490000D03*
X142240000Y-107950000D03*
D17*
X142240000Y-105410000D03*
%TD*%
D16*
%TO.C,RN3*%
X142240000Y-77470000D03*
X142240000Y-80010000D03*
X142240000Y-82550000D03*
X142240000Y-85090000D03*
X142240000Y-87630000D03*
X142240000Y-90170000D03*
X142240000Y-92710000D03*
X142240000Y-95250000D03*
X142240000Y-97790000D03*
D17*
X142240000Y-100330000D03*
%TD*%
D16*
%TO.C,RN1*%
X137160000Y-77470000D03*
X137160000Y-80010000D03*
X137160000Y-82550000D03*
X137160000Y-85090000D03*
X137160000Y-87630000D03*
X137160000Y-90170000D03*
X137160000Y-92710000D03*
X137160000Y-95250000D03*
X137160000Y-97790000D03*
D17*
X137160000Y-100330000D03*
%TD*%
D14*
%TO.C,J7*%
X110490000Y-103886000D03*
X110490000Y-106426000D03*
X110490000Y-108966000D03*
X110490000Y-111506000D03*
X110490000Y-114046000D03*
X110490000Y-116586000D03*
X110490000Y-119126000D03*
X110490000Y-121666000D03*
D15*
X110490000Y-124206000D03*
%TD*%
D18*
%TO.C,J1*%
X163290000Y-128000000D03*
X161290000Y-128000000D03*
X163290000Y-126000000D03*
X161290000Y-126000000D03*
X163290000Y-124000000D03*
X161290000Y-124000000D03*
X163290000Y-122000000D03*
X161290000Y-122000000D03*
X163290000Y-120000000D03*
X161290000Y-120000000D03*
X163290000Y-118000000D03*
X161290000Y-118000000D03*
X163290000Y-116000000D03*
X161290000Y-116000000D03*
X163290000Y-114000000D03*
X161290000Y-114000000D03*
X163290000Y-112000000D03*
X161290000Y-112000000D03*
X163290000Y-110000000D03*
X161290000Y-110000000D03*
X163290000Y-108000000D03*
X161290000Y-108000000D03*
X163290000Y-106000000D03*
X161290000Y-106000000D03*
X163290000Y-104000000D03*
X161290000Y-104000000D03*
X163290000Y-102000000D03*
X161290000Y-102000000D03*
X163290000Y-100000000D03*
X161290000Y-100000000D03*
X163290000Y-98000000D03*
X161290000Y-98000000D03*
X163290000Y-96000000D03*
X161290000Y-96000000D03*
X163290000Y-94000000D03*
X161290000Y-94000000D03*
X163290000Y-92000000D03*
X161290000Y-92000000D03*
X163290000Y-90000000D03*
D19*
X161290000Y-90000000D03*
%TD*%
D20*
%TO.C,U1*%
X116332000Y-127000000D03*
D15*
X131572000Y-127000000D03*
D20*
X116332000Y-124460000D03*
X131572000Y-124460000D03*
X116332000Y-121920000D03*
X131572000Y-121920000D03*
X116332000Y-119380000D03*
X131572000Y-119380000D03*
X116332000Y-116840000D03*
X131572000Y-116840000D03*
X116332000Y-114300000D03*
X131572000Y-114300000D03*
X116332000Y-111760000D03*
X131572000Y-111760000D03*
X116332000Y-109220000D03*
X131572000Y-109220000D03*
X116332000Y-106680000D03*
X131572000Y-106680000D03*
X116332000Y-104140000D03*
X131572000Y-104140000D03*
X116332000Y-101600000D03*
X131572000Y-101600000D03*
X116332000Y-99060000D03*
X131572000Y-99060000D03*
X116332000Y-96520000D03*
X131572000Y-96520000D03*
X116332000Y-93980000D03*
X131572000Y-93980000D03*
X116332000Y-91440000D03*
X131572000Y-91440000D03*
X116332000Y-88900000D03*
X131572000Y-88900000D03*
X116332000Y-86360000D03*
X131572000Y-86360000D03*
X116332000Y-83820000D03*
X131572000Y-83820000D03*
X116332000Y-81280000D03*
X131572000Y-81280000D03*
X116332000Y-78740000D03*
X131572000Y-78740000D03*
%TD*%
M02*
