%TF.GenerationSoftware,KiCad,Pcbnew,(5.1.8-0-10_14)*%
%TF.CreationDate,2021-04-04T23:03:52-06:00*%
%TF.ProjectId,bluescsi_powerbook,626c7565-7363-4736-995f-706f77657262,rev?*%
%TF.SameCoordinates,Original*%
%TF.FileFunction,Copper,L1,Top*%
%TF.FilePolarity,Positive*%
%FSLAX46Y46*%
G04 Gerber Fmt 4.6, Leading zero omitted, Abs format (unit mm)*
G04 Created by KiCad (PCBNEW (5.1.8-0-10_14)) date 2021-04-04 23:03:52*
%MOMM*%
%LPD*%
G01*
G04 APERTURE LIST*
%TA.AperFunction,EtchedComponent*%
%ADD10C,0.100000*%
%TD*%
%TA.AperFunction,ComponentPad*%
%ADD11O,1.400000X1.400000*%
%TD*%
%TA.AperFunction,ComponentPad*%
%ADD12C,1.400000*%
%TD*%
%TA.AperFunction,ComponentPad*%
%ADD13C,1.800000*%
%TD*%
%TA.AperFunction,ComponentPad*%
%ADD14R,1.800000X1.800000*%
%TD*%
%TA.AperFunction,ComponentPad*%
%ADD15O,1.700000X1.700000*%
%TD*%
%TA.AperFunction,ComponentPad*%
%ADD16R,1.700000X1.700000*%
%TD*%
%TA.AperFunction,SMDPad,CuDef*%
%ADD17R,1.500000X1.000000*%
%TD*%
%TA.AperFunction,ComponentPad*%
%ADD18O,1.600000X1.600000*%
%TD*%
%TA.AperFunction,ComponentPad*%
%ADD19R,1.600000X1.600000*%
%TD*%
%TA.AperFunction,SMDPad,CuDef*%
%ADD20R,1.350000X1.900000*%
%TD*%
%TA.AperFunction,SMDPad,CuDef*%
%ADD21R,1.000000X1.200000*%
%TD*%
%TA.AperFunction,SMDPad,CuDef*%
%ADD22R,1.350000X1.550000*%
%TD*%
%TA.AperFunction,SMDPad,CuDef*%
%ADD23R,1.800000X1.170000*%
%TD*%
%TA.AperFunction,SMDPad,CuDef*%
%ADD24R,1.100000X0.850000*%
%TD*%
%TA.AperFunction,SMDPad,CuDef*%
%ADD25R,1.100000X0.750000*%
%TD*%
%TA.AperFunction,ComponentPad*%
%ADD26O,1.350000X1.350000*%
%TD*%
%TA.AperFunction,ComponentPad*%
%ADD27R,1.350000X1.350000*%
%TD*%
%TA.AperFunction,ComponentPad*%
%ADD28C,1.700000*%
%TD*%
%TA.AperFunction,ViaPad*%
%ADD29C,0.800000*%
%TD*%
%TA.AperFunction,Conductor*%
%ADD30C,0.200000*%
%TD*%
%TA.AperFunction,Conductor*%
%ADD31C,0.225000*%
%TD*%
%TA.AperFunction,Conductor*%
%ADD32C,0.250000*%
%TD*%
%TA.AperFunction,Conductor*%
%ADD33C,0.350000*%
%TD*%
%TA.AperFunction,Conductor*%
%ADD34C,0.254000*%
%TD*%
%TA.AperFunction,Conductor*%
%ADD35C,0.100000*%
%TD*%
G04 APERTURE END LIST*
D10*
%TO.C,JP1*%
G36*
X147683500Y-71822500D02*
G01*
X147683500Y-72322500D01*
X147083500Y-72322500D01*
X147083500Y-71822500D01*
X147683500Y-71822500D01*
G37*
%TD*%
D11*
%TO.P,R1,2*%
%TO.N,Net-(D1-Pad2)*%
X106045000Y-78740000D03*
D12*
%TO.P,R1,1*%
%TO.N,+3V3*%
X106045000Y-86360000D03*
%TD*%
D13*
%TO.P,D1,2*%
%TO.N,Net-(D1-Pad2)*%
X99060000Y-78740000D03*
D14*
%TO.P,D1,1*%
%TO.N,Net-(D1-Pad1)*%
X99060000Y-81280000D03*
%TD*%
D15*
%TO.P,J10,2*%
%TO.N,/SCSI_+5*%
X163322000Y-75946000D03*
D16*
%TO.P,J10,1*%
%TO.N,+5V*%
X160782000Y-75946000D03*
%TD*%
D17*
%TO.P,JP1,2*%
%TO.N,/SCSI_TERMPWR*%
X147383500Y-72722500D03*
%TO.P,JP1,1*%
%TO.N,+5V*%
X147383500Y-71422500D03*
%TD*%
D18*
%TO.P,RN2,10*%
%TO.N,/SCSI_ATN*%
X137160000Y-128270000D03*
%TO.P,RN2,9*%
%TO.N,/SCSI_RST*%
X137160000Y-125730000D03*
%TO.P,RN2,8*%
%TO.N,/SCSI_I_O*%
X137160000Y-123190000D03*
%TO.P,RN2,7*%
%TO.N,/SCSI_REQ*%
X137160000Y-120650000D03*
%TO.P,RN2,6*%
%TO.N,/SCSI_C_D*%
X137160000Y-118110000D03*
%TO.P,RN2,5*%
%TO.N,/SCSI_SEL*%
X137160000Y-115570000D03*
%TO.P,RN2,4*%
%TO.N,/SCSI_MSG*%
X137160000Y-113030000D03*
%TO.P,RN2,3*%
%TO.N,/SCSI_ACK*%
X137160000Y-110490000D03*
%TO.P,RN2,2*%
%TO.N,/SCSI_BSY*%
X137160000Y-107950000D03*
D19*
%TO.P,RN2,1*%
%TO.N,/TERMGROUND_SWITCHED*%
X137160000Y-105410000D03*
%TD*%
D20*
%TO.P,J3,11*%
%TO.N,GND*%
X107483000Y-111078000D03*
X107483000Y-117048000D03*
D21*
%TO.P,J3,9*%
X102808000Y-120548000D03*
%TO.P,J3,10*%
X106508000Y-120548000D03*
D22*
%TO.P,J3,11*%
X96783000Y-120373000D03*
D23*
X97008000Y-109053000D03*
D24*
%TO.P,J3,7*%
%TO.N,/SD_MISO*%
X96658000Y-111313000D03*
%TO.P,J3,6*%
%TO.N,GND*%
X96658000Y-112413000D03*
%TO.P,J3,5*%
%TO.N,/SD_CSK*%
X96658000Y-113513000D03*
%TO.P,J3,4*%
%TO.N,+3V3*%
X96658000Y-114613000D03*
%TO.P,J3,3*%
%TO.N,/SD_MOSI*%
X96658000Y-115713000D03*
%TO.P,J3,2*%
%TO.N,/SD_CS*%
X96658000Y-116813000D03*
D25*
%TO.P,J3,8*%
%TO.N,/SD_DAT1*%
X96658000Y-110263000D03*
D24*
%TO.P,J3,1*%
%TO.N,/SD_DAT2*%
X96658000Y-117913000D03*
%TD*%
D15*
%TO.P,J9,2*%
%TO.N,/SCSI_TERMPWR*%
X143764000Y-73660000D03*
D16*
%TO.P,J9,1*%
%TO.N,+5V*%
X141224000Y-73660000D03*
%TD*%
D15*
%TO.P,J8,50*%
%TO.N,/SCSI_I_O*%
X153540000Y-133350000D03*
%TO.P,J8,49*%
%TO.N,GND*%
X151000000Y-133350000D03*
%TO.P,J8,48*%
%TO.N,/SCSI_REQ*%
X153540000Y-130810000D03*
%TO.P,J8,47*%
%TO.N,GND*%
X151000000Y-130810000D03*
%TO.P,J8,46*%
%TO.N,/SCSI_C_D*%
X153540000Y-128270000D03*
%TO.P,J8,45*%
%TO.N,GND*%
X151000000Y-128270000D03*
%TO.P,J8,44*%
%TO.N,/SCSI_SEL*%
X153540000Y-125730000D03*
%TO.P,J8,43*%
%TO.N,GND*%
X151000000Y-125730000D03*
%TO.P,J8,42*%
%TO.N,/SCSI_MSG*%
X153540000Y-123190000D03*
%TO.P,J8,41*%
%TO.N,GND*%
X151000000Y-123190000D03*
%TO.P,J8,40*%
%TO.N,/SCSI_RST*%
X153540000Y-120650000D03*
%TO.P,J8,39*%
%TO.N,GND*%
X151000000Y-120650000D03*
%TO.P,J8,38*%
%TO.N,/SCSI_ACK*%
X153540000Y-118110000D03*
%TO.P,J8,37*%
%TO.N,GND*%
X151000000Y-118110000D03*
%TO.P,J8,36*%
%TO.N,/SCSI_BSY*%
X153540000Y-115570000D03*
%TO.P,J8,35*%
%TO.N,GND*%
X151000000Y-115570000D03*
%TO.P,J8,34*%
X153540000Y-113030000D03*
%TO.P,J8,33*%
X151000000Y-113030000D03*
%TO.P,J8,32*%
%TO.N,/SCSI_ATN*%
X153540000Y-110490000D03*
%TO.P,J8,31*%
%TO.N,GND*%
X151000000Y-110490000D03*
%TO.P,J8,30*%
X153540000Y-107950000D03*
%TO.P,J8,29*%
X151000000Y-107950000D03*
%TO.P,J8,28*%
X153540000Y-105410000D03*
%TO.P,J8,27*%
X151000000Y-105410000D03*
%TO.P,J8,26*%
%TO.N,/SCSI_TERMPWR*%
X153540000Y-102870000D03*
%TO.P,J8,25*%
%TO.N,GND*%
X151000000Y-102870000D03*
%TO.P,J8,24*%
X153540000Y-100330000D03*
%TO.P,J8,23*%
X151000000Y-100330000D03*
%TO.P,J8,22*%
X153540000Y-97790000D03*
%TO.P,J8,21*%
X151000000Y-97790000D03*
%TO.P,J8,20*%
X153540000Y-95250000D03*
%TO.P,J8,19*%
X151000000Y-95250000D03*
%TO.P,J8,18*%
%TO.N,/SCSI_DBP*%
X153540000Y-92710000D03*
%TO.P,J8,17*%
%TO.N,GND*%
X151000000Y-92710000D03*
%TO.P,J8,16*%
%TO.N,/SCSI_DB7*%
X153540000Y-90170000D03*
%TO.P,J8,15*%
%TO.N,GND*%
X151000000Y-90170000D03*
%TO.P,J8,14*%
%TO.N,/SCSI_DB6*%
X153540000Y-87630000D03*
%TO.P,J8,13*%
%TO.N,GND*%
X151000000Y-87630000D03*
%TO.P,J8,12*%
%TO.N,/SCSI_DB5*%
X153540000Y-85090000D03*
%TO.P,J8,11*%
%TO.N,GND*%
X151000000Y-85090000D03*
%TO.P,J8,10*%
%TO.N,/SCSI_DB4*%
X153540000Y-82550000D03*
%TO.P,J8,9*%
%TO.N,GND*%
X151000000Y-82550000D03*
%TO.P,J8,8*%
%TO.N,/SCSI_DB3*%
X153540000Y-80010000D03*
%TO.P,J8,7*%
%TO.N,GND*%
X151000000Y-80010000D03*
%TO.P,J8,6*%
%TO.N,/SCSI_DB2*%
X153540000Y-77470000D03*
%TO.P,J8,5*%
%TO.N,GND*%
X151000000Y-77470000D03*
%TO.P,J8,4*%
%TO.N,/SCSI_DB1*%
X153540000Y-74930000D03*
%TO.P,J8,3*%
%TO.N,GND*%
X151000000Y-74930000D03*
%TO.P,J8,2*%
%TO.N,/SCSI_DB0*%
X153540000Y-72390000D03*
D16*
%TO.P,J8,1*%
%TO.N,GND*%
X151000000Y-72390000D03*
%TD*%
D26*
%TO.P,J2,8*%
%TO.N,/ACT_LED*%
X163290000Y-86000000D03*
%TO.P,J2,7*%
%TO.N,/ID4*%
X161290000Y-86000000D03*
%TO.P,J2,6*%
%TO.N,/ID2*%
X163290000Y-84000000D03*
%TO.P,J2,5*%
%TO.N,/ID1*%
X161290000Y-84000000D03*
%TO.P,J2,4*%
%TO.N,Net-(J2-Pad4)*%
X163290000Y-82000000D03*
%TO.P,J2,3*%
%TO.N,/INDEX*%
X161290000Y-82000000D03*
%TO.P,J2,2*%
%TO.N,/NO_SPIN_UP*%
X163290000Y-80000000D03*
D27*
%TO.P,J2,1*%
%TO.N,Net-(J2-Pad1)*%
X161290000Y-80000000D03*
%TD*%
D15*
%TO.P,J6,4*%
%TO.N,/DEBUG_RX*%
X107442000Y-90170000D03*
%TO.P,J6,3*%
%TO.N,/DEBUG_TX*%
X107442000Y-92710000D03*
%TO.P,J6,2*%
%TO.N,GND*%
X107442000Y-95250000D03*
D16*
%TO.P,J6,1*%
%TO.N,+3V3*%
X107442000Y-97790000D03*
%TD*%
D15*
%TO.P,J5,2*%
%TO.N,/TERMGROUND_SWITCHED*%
X145796000Y-105410000D03*
D16*
%TO.P,J5,1*%
%TO.N,GND*%
X145796000Y-107950000D03*
%TD*%
D15*
%TO.P,J4,2*%
%TO.N,/TERMPOWER_SWITCHED*%
X145796000Y-100330000D03*
D16*
%TO.P,J4,1*%
%TO.N,/SCSI_TERMPWR*%
X145796000Y-97790000D03*
%TD*%
D18*
%TO.P,RN4,10*%
%TO.N,/SCSI_ATN*%
X142240000Y-128270000D03*
%TO.P,RN4,9*%
%TO.N,/SCSI_RST*%
X142240000Y-125730000D03*
%TO.P,RN4,8*%
%TO.N,/SCSI_I_O*%
X142240000Y-123190000D03*
%TO.P,RN4,7*%
%TO.N,/SCSI_REQ*%
X142240000Y-120650000D03*
%TO.P,RN4,6*%
%TO.N,/SCSI_C_D*%
X142240000Y-118110000D03*
%TO.P,RN4,5*%
%TO.N,/SCSI_SEL*%
X142240000Y-115570000D03*
%TO.P,RN4,4*%
%TO.N,/SCSI_MSG*%
X142240000Y-113030000D03*
%TO.P,RN4,3*%
%TO.N,/SCSI_ACK*%
X142240000Y-110490000D03*
%TO.P,RN4,2*%
%TO.N,/SCSI_BSY*%
X142240000Y-107950000D03*
D19*
%TO.P,RN4,1*%
%TO.N,/TERMPOWER_SWITCHED*%
X142240000Y-105410000D03*
%TD*%
D18*
%TO.P,RN3,10*%
%TO.N,/SCSI_DB0*%
X142240000Y-77470000D03*
%TO.P,RN3,9*%
%TO.N,/SCSI_DB1*%
X142240000Y-80010000D03*
%TO.P,RN3,8*%
%TO.N,/SCSI_DB2*%
X142240000Y-82550000D03*
%TO.P,RN3,7*%
%TO.N,/SCSI_DB3*%
X142240000Y-85090000D03*
%TO.P,RN3,6*%
%TO.N,/SCSI_DB4*%
X142240000Y-87630000D03*
%TO.P,RN3,5*%
%TO.N,/SCSI_DB5*%
X142240000Y-90170000D03*
%TO.P,RN3,4*%
%TO.N,/SCSI_DB6*%
X142240000Y-92710000D03*
%TO.P,RN3,3*%
%TO.N,/SCSI_DB7*%
X142240000Y-95250000D03*
%TO.P,RN3,2*%
%TO.N,/SCSI_DBP*%
X142240000Y-97790000D03*
D19*
%TO.P,RN3,1*%
%TO.N,/TERMPOWER_SWITCHED*%
X142240000Y-100330000D03*
%TD*%
D18*
%TO.P,RN1,10*%
%TO.N,/SCSI_DB0*%
X137160000Y-77470000D03*
%TO.P,RN1,9*%
%TO.N,/SCSI_DB1*%
X137160000Y-80010000D03*
%TO.P,RN1,8*%
%TO.N,/SCSI_DB2*%
X137160000Y-82550000D03*
%TO.P,RN1,7*%
%TO.N,/SCSI_DB3*%
X137160000Y-85090000D03*
%TO.P,RN1,6*%
%TO.N,/SCSI_DB4*%
X137160000Y-87630000D03*
%TO.P,RN1,5*%
%TO.N,/SCSI_DB5*%
X137160000Y-90170000D03*
%TO.P,RN1,4*%
%TO.N,/SCSI_DB6*%
X137160000Y-92710000D03*
%TO.P,RN1,3*%
%TO.N,/SCSI_DB7*%
X137160000Y-95250000D03*
%TO.P,RN1,2*%
%TO.N,/SCSI_DBP*%
X137160000Y-97790000D03*
D19*
%TO.P,RN1,1*%
%TO.N,/TERMGROUND_SWITCHED*%
X137160000Y-100330000D03*
%TD*%
D15*
%TO.P,J7,9*%
%TO.N,/SD_DAT1*%
X110490000Y-103886000D03*
%TO.P,J7,8*%
%TO.N,/SD_MISO*%
X110490000Y-106426000D03*
%TO.P,J7,7*%
%TO.N,GND*%
X110490000Y-108966000D03*
%TO.P,J7,6*%
%TO.N,/SD_CSK*%
X110490000Y-111506000D03*
%TO.P,J7,5*%
%TO.N,+3V3*%
X110490000Y-114046000D03*
%TO.P,J7,4*%
%TO.N,GND*%
X110490000Y-116586000D03*
%TO.P,J7,3*%
%TO.N,/SD_MOSI*%
X110490000Y-119126000D03*
%TO.P,J7,2*%
%TO.N,/SD_CS*%
X110490000Y-121666000D03*
D16*
%TO.P,J7,1*%
%TO.N,/SD_DAT2*%
X110490000Y-124206000D03*
%TD*%
D26*
%TO.P,J1,40*%
%TO.N,/SCSI_+5*%
X163290000Y-128000000D03*
%TO.P,J1,39*%
X161290000Y-128000000D03*
%TO.P,J1,38*%
%TO.N,GND*%
X163290000Y-126000000D03*
%TO.P,J1,37*%
X161290000Y-126000000D03*
%TO.P,J1,36*%
%TO.N,/SCSI_REQ*%
X163290000Y-124000000D03*
%TO.P,J1,35*%
%TO.N,GND*%
X161290000Y-124000000D03*
%TO.P,J1,34*%
%TO.N,/SCSI_C_D*%
X163290000Y-122000000D03*
%TO.P,J1,33*%
%TO.N,/SCSI_I_O*%
X161290000Y-122000000D03*
%TO.P,J1,32*%
%TO.N,/SCSI_SEL*%
X163290000Y-120000000D03*
%TO.P,J1,31*%
%TO.N,GND*%
X161290000Y-120000000D03*
%TO.P,J1,30*%
%TO.N,/SCSI_MSG*%
X163290000Y-118000000D03*
%TO.P,J1,29*%
%TO.N,/SCSI_RST*%
X161290000Y-118000000D03*
%TO.P,J1,28*%
%TO.N,/SCSI_ACK*%
X163290000Y-116000000D03*
%TO.P,J1,27*%
%TO.N,GND*%
X161290000Y-116000000D03*
%TO.P,J1,26*%
%TO.N,/SCSI_BSY*%
X163290000Y-114000000D03*
%TO.P,J1,25*%
%TO.N,/SCSI_ATN*%
X161290000Y-114000000D03*
%TO.P,J1,24*%
%TO.N,/SCSI_TERMPWR*%
X163290000Y-112000000D03*
%TO.P,J1,23*%
%TO.N,GND*%
X161290000Y-112000000D03*
%TO.P,J1,22*%
%TO.N,/SCSI_DBP*%
X163290000Y-110000000D03*
%TO.P,J1,21*%
%TO.N,GND*%
X161290000Y-110000000D03*
%TO.P,J1,20*%
%TO.N,/SCSI_DB7*%
X163290000Y-108000000D03*
%TO.P,J1,19*%
%TO.N,GND*%
X161290000Y-108000000D03*
%TO.P,J1,18*%
%TO.N,/SCSI_DB6*%
X163290000Y-106000000D03*
%TO.P,J1,17*%
%TO.N,/KEY*%
X161290000Y-106000000D03*
%TO.P,J1,16*%
%TO.N,/SCSI_DB5*%
X163290000Y-104000000D03*
%TO.P,J1,15*%
%TO.N,GND*%
X161290000Y-104000000D03*
%TO.P,J1,14*%
%TO.N,/SCSI_DB4*%
X163290000Y-102000000D03*
%TO.P,J1,13*%
%TO.N,GND*%
X161290000Y-102000000D03*
%TO.P,J1,12*%
%TO.N,/SCSI_DB3*%
X163290000Y-100000000D03*
%TO.P,J1,11*%
%TO.N,GND*%
X161290000Y-100000000D03*
%TO.P,J1,10*%
%TO.N,/SCSI_DB2*%
X163290000Y-98000000D03*
%TO.P,J1,9*%
%TO.N,GND*%
X161290000Y-98000000D03*
%TO.P,J1,8*%
%TO.N,/SCSI_DB1*%
X163290000Y-96000000D03*
%TO.P,J1,7*%
%TO.N,GND*%
X161290000Y-96000000D03*
%TO.P,J1,6*%
%TO.N,/SCSI_DB0*%
X163290000Y-94000000D03*
%TO.P,J1,5*%
%TO.N,GND*%
X161290000Y-94000000D03*
%TO.P,J1,4*%
X163290000Y-92000000D03*
%TO.P,J1,3*%
X161290000Y-92000000D03*
%TO.P,J1,2*%
%TO.N,/SCSI_+5*%
X163290000Y-90000000D03*
D27*
%TO.P,J1,1*%
X161290000Y-90000000D03*
%TD*%
D28*
%TO.P,U1,40*%
%TO.N,GND*%
X116332000Y-127000000D03*
D16*
%TO.P,U1,1*%
%TO.N,/SCSI_DB4*%
X131572000Y-127000000D03*
D28*
%TO.P,U1,39*%
%TO.N,GND*%
X116332000Y-124460000D03*
%TO.P,U1,2*%
%TO.N,/SCSI_DB5*%
X131572000Y-124460000D03*
%TO.P,U1,38*%
%TO.N,+3V3*%
X116332000Y-121920000D03*
%TO.P,U1,3*%
%TO.N,/SCSI_DB6*%
X131572000Y-121920000D03*
%TO.P,U1,37*%
%TO.N,Net-(U1-Pad37)*%
X116332000Y-119380000D03*
%TO.P,U1,4*%
%TO.N,/SCSI_DB7*%
X131572000Y-119380000D03*
%TO.P,U1,36*%
%TO.N,/SCSI_DB3*%
X116332000Y-116840000D03*
%TO.P,U1,5*%
%TO.N,/SCSI_ATN*%
X131572000Y-116840000D03*
%TO.P,U1,35*%
%TO.N,/SCSI_DB2*%
X116332000Y-114300000D03*
%TO.P,U1,6*%
%TO.N,/SCSI_BSY*%
X131572000Y-114300000D03*
%TO.P,U1,34*%
%TO.N,Net-(U1-Pad34)*%
X116332000Y-111760000D03*
%TO.P,U1,7*%
%TO.N,/SCSI_ACK*%
X131572000Y-111760000D03*
%TO.P,U1,33*%
%TO.N,/SCSI_DBP*%
X116332000Y-109220000D03*
%TO.P,U1,8*%
%TO.N,Net-(U1-Pad8)*%
X131572000Y-109220000D03*
%TO.P,U1,32*%
%TO.N,/SD_MOSI*%
X116332000Y-106680000D03*
%TO.P,U1,9*%
%TO.N,Net-(U1-Pad9)*%
X131572000Y-106680000D03*
%TO.P,U1,31*%
%TO.N,/SD_MISO*%
X116332000Y-104140000D03*
%TO.P,U1,10*%
%TO.N,/SCSI_RST*%
X131572000Y-104140000D03*
%TO.P,U1,30*%
%TO.N,/SD_CSK*%
X116332000Y-101600000D03*
%TO.P,U1,11*%
%TO.N,/SCSI_MSG*%
X131572000Y-101600000D03*
%TO.P,U1,29*%
%TO.N,/SD_CS*%
X116332000Y-99060000D03*
%TO.P,U1,12*%
%TO.N,/SCSI_SEL*%
X131572000Y-99060000D03*
%TO.P,U1,28*%
%TO.N,/DEBUG_RX*%
X116332000Y-96520000D03*
%TO.P,U1,13*%
%TO.N,/SCSI_C_D*%
X131572000Y-96520000D03*
%TO.P,U1,27*%
%TO.N,/DEBUG_TX*%
X116332000Y-93980000D03*
%TO.P,U1,14*%
%TO.N,/SCSI_REQ*%
X131572000Y-93980000D03*
%TO.P,U1,26*%
%TO.N,Net-(U1-Pad26)*%
X116332000Y-91440000D03*
%TO.P,U1,15*%
%TO.N,/SCSI_I_O*%
X131572000Y-91440000D03*
%TO.P,U1,25*%
%TO.N,Net-(U1-Pad25)*%
X116332000Y-88900000D03*
%TO.P,U1,16*%
%TO.N,/SCSI_DB0*%
X131572000Y-88900000D03*
%TO.P,U1,24*%
%TO.N,Net-(U1-Pad24)*%
X116332000Y-86360000D03*
%TO.P,U1,17*%
%TO.N,/SCSI_DB1*%
X131572000Y-86360000D03*
%TO.P,U1,23*%
%TO.N,Net-(U1-Pad23)*%
X116332000Y-83820000D03*
%TO.P,U1,18*%
%TO.N,+5V*%
X131572000Y-83820000D03*
%TO.P,U1,22*%
%TO.N,Net-(D1-Pad1)*%
X116332000Y-81280000D03*
%TO.P,U1,19*%
%TO.N,GND*%
X131572000Y-81280000D03*
%TO.P,U1,21*%
%TO.N,Net-(U1-Pad21)*%
X116332000Y-78740000D03*
%TO.P,U1,20*%
%TO.N,+3V3*%
X131572000Y-78740000D03*
%TD*%
D29*
%TO.N,/SCSI_DBP*%
X129286000Y-107950000D03*
%TO.N,+3V3*%
X124714000Y-109982000D03*
%TD*%
D30*
%TO.N,/SCSI_REQ*%
X160871997Y-125024999D02*
X162265001Y-125024999D01*
D31*
X162265001Y-125024999D02*
X163290000Y-124000000D01*
X137160000Y-120650000D02*
X142113000Y-120650000D01*
X152270000Y-129540000D02*
X153540000Y-130810000D01*
X150241000Y-129540000D02*
X152270000Y-129540000D01*
X142240000Y-120650000D02*
X150241000Y-129540000D01*
X160471001Y-125024999D02*
X160871997Y-125024999D01*
X154686000Y-130810000D02*
X160471001Y-125024999D01*
X153540000Y-130810000D02*
X154686000Y-130810000D01*
%TO.N,/SCSI_C_D*%
X137160000Y-118110000D02*
X142240000Y-118110000D01*
X152270000Y-127000000D02*
X153540000Y-128270000D01*
X150368000Y-127000000D02*
X152270000Y-127000000D01*
X142240000Y-118110000D02*
X150368000Y-127000000D01*
X162290500Y-122999500D02*
X163290000Y-122000000D01*
X159956500Y-122999500D02*
X162290500Y-122999500D01*
X154686000Y-128270000D02*
X159956500Y-122999500D01*
X153540000Y-128270000D02*
X154686000Y-128270000D01*
%TO.N,/SCSI_I_O*%
X137160000Y-123190000D02*
X142240000Y-123190000D01*
X152270000Y-132080000D02*
X153540000Y-133350000D01*
X150241000Y-132080000D02*
X152270000Y-132080000D01*
X142240000Y-123190000D02*
X150241000Y-132080000D01*
%TO.N,/SCSI_SEL*%
X137160000Y-115570000D02*
X141986000Y-115570000D01*
X150368000Y-124460000D02*
X152270000Y-124460000D01*
X152270000Y-124460000D02*
X153540000Y-125730000D01*
X142240000Y-115570000D02*
X150368000Y-124460000D01*
X162284400Y-121005600D02*
X163290000Y-120000000D01*
X159791400Y-121005600D02*
X162284400Y-121005600D01*
X155067000Y-125730000D02*
X159791400Y-121005600D01*
X153540000Y-125730000D02*
X155067000Y-125730000D01*
%TO.N,/SCSI_MSG*%
X137160000Y-113030000D02*
X142240000Y-113030000D01*
X152270000Y-121920000D02*
X153540000Y-123190000D01*
X150241000Y-121920000D02*
X152270000Y-121920000D01*
X142240000Y-113030000D02*
X150241000Y-121920000D01*
X159385000Y-118999000D02*
X162291000Y-118999000D01*
X155194000Y-123190000D02*
X159385000Y-118999000D01*
X162291000Y-118999000D02*
X163290000Y-118000000D01*
X153540000Y-123190000D02*
X155194000Y-123190000D01*
%TO.N,/SCSI_RST*%
X137160000Y-125730000D02*
X142240000Y-125730000D01*
X156190000Y-118000000D02*
X153540000Y-120650000D01*
X161290000Y-118000000D02*
X156190000Y-118000000D01*
%TO.N,/SCSI_ACK*%
X137160000Y-110490000D02*
X142240000Y-110490000D01*
X152270000Y-116840000D02*
X153540000Y-118110000D01*
X150114000Y-116840000D02*
X152270000Y-116840000D01*
X142240000Y-110490000D02*
X150114000Y-116840000D01*
X130937000Y-115570000D02*
X132588000Y-115570000D01*
X130175000Y-113157000D02*
X130175000Y-114808000D01*
X130175000Y-114808000D02*
X130937000Y-115570000D01*
X131572000Y-111760000D02*
X130175000Y-113157000D01*
X153540000Y-118110000D02*
X154657600Y-116992400D01*
X154657600Y-116992400D02*
X162297600Y-116992400D01*
X162297600Y-116992400D02*
X163290000Y-116000000D01*
X132588000Y-115570000D02*
X137160000Y-110490000D01*
%TO.N,/SCSI_BSY*%
X137160000Y-107950000D02*
X142240000Y-107950000D01*
X152270000Y-114300000D02*
X153540000Y-115570000D01*
X150368000Y-114300000D02*
X152270000Y-114300000D01*
X142240000Y-107950000D02*
X150368000Y-114300000D01*
X162278800Y-115011200D02*
X163290000Y-114000000D01*
X160020000Y-115570000D02*
X160578800Y-115011200D01*
X160578800Y-115011200D02*
X162278800Y-115011200D01*
X153540000Y-115570000D02*
X160020000Y-115570000D01*
X131572000Y-114300000D02*
X137160000Y-107950000D01*
%TO.N,/SCSI_ATN*%
X137160000Y-128270000D02*
X142240000Y-128270000D01*
X136652000Y-128270000D02*
X137160000Y-128270000D01*
X160228000Y-114000000D02*
X161290000Y-114000000D01*
X156718000Y-110490000D02*
X160228000Y-114000000D01*
X153540000Y-110490000D02*
X156718000Y-110490000D01*
X135763000Y-126873000D02*
X137160000Y-128270000D01*
X135763000Y-121031000D02*
X135763000Y-126873000D01*
X131572000Y-116840000D02*
X135763000Y-121031000D01*
D32*
%TO.N,/SCSI_TERMPWR*%
X163054000Y-112000000D02*
X163290000Y-112000000D01*
D31*
X162288000Y-110998000D02*
X163290000Y-112000000D01*
X160528000Y-110998000D02*
X162288000Y-110998000D01*
D33*
X155067000Y-104521000D02*
X155067000Y-105537000D01*
X153540000Y-102994000D02*
X155067000Y-104521000D01*
D32*
X153540000Y-102870000D02*
X153540000Y-102994000D01*
D33*
X146446000Y-73660000D02*
X147383500Y-72722500D01*
X143764000Y-73660000D02*
X146446000Y-73660000D01*
D32*
X146685000Y-97790000D02*
X145796000Y-97790000D01*
D33*
X152273000Y-101600000D02*
X149355000Y-101600000D01*
D32*
X160020000Y-110490000D02*
X160528000Y-110998000D01*
D33*
X155067000Y-105537000D02*
X160020000Y-110490000D01*
D32*
X160037501Y-112313999D02*
X160037501Y-110507501D01*
X160736001Y-113012499D02*
X160037501Y-112313999D01*
X160037501Y-110507501D02*
X160020000Y-110490000D01*
X160764499Y-113012499D02*
X160736001Y-113012499D01*
D31*
X162277501Y-113012499D02*
X160736001Y-113012499D01*
X163290000Y-112000000D02*
X162277501Y-113012499D01*
D33*
X153540000Y-102870000D02*
X152273000Y-101600000D01*
X148336000Y-99441000D02*
X146685000Y-97790000D01*
X148336000Y-100581000D02*
X148336000Y-99441000D01*
X149355000Y-101600000D02*
X148336000Y-100581000D01*
D31*
%TO.N,/SCSI_DBP*%
X137160000Y-97790000D02*
X142240000Y-97790000D01*
X129286000Y-104648000D02*
X129286000Y-107950000D01*
X130937000Y-102870000D02*
X129286000Y-104648000D01*
X132080000Y-102870000D02*
X130937000Y-102870000D01*
X137160000Y-97790000D02*
X132080000Y-102870000D01*
X160794700Y-108991400D02*
X162281400Y-108991400D01*
X162281400Y-108991400D02*
X163290000Y-110000000D01*
X154813000Y-103009700D02*
X160794700Y-108991400D01*
X154813000Y-93218000D02*
X154813000Y-103009700D01*
X154305000Y-92710000D02*
X154813000Y-93218000D01*
X153540000Y-92710000D02*
X154305000Y-92710000D01*
X153540000Y-92713000D02*
X153540000Y-92710000D01*
X150622000Y-93980000D02*
X152273000Y-93980000D01*
X152273000Y-93980000D02*
X153540000Y-92713000D01*
X142240000Y-97790000D02*
X150622000Y-93980000D01*
%TO.N,/SCSI_DB7*%
X142240000Y-95250000D02*
X137160000Y-95250000D01*
X130937000Y-100330000D02*
X132080000Y-100330000D01*
X128524000Y-102945998D02*
X130937000Y-100330000D01*
X128524000Y-116332000D02*
X128524000Y-102945998D01*
X131572000Y-119380000D02*
X128524000Y-116332000D01*
X162300200Y-107010200D02*
X163290000Y-108000000D01*
X160603699Y-107010200D02*
X162300200Y-107010200D01*
X153540000Y-90170000D02*
X154686000Y-90170000D01*
X155448000Y-101854501D02*
X160603699Y-107010200D01*
X155448000Y-90932000D02*
X155448000Y-101854501D01*
X154686000Y-90170000D02*
X155448000Y-90932000D01*
X132080000Y-100330000D02*
X137160000Y-95250000D01*
X153540000Y-90173000D02*
X153540000Y-90170000D01*
X152273000Y-91440000D02*
X153540000Y-90173000D01*
X150622000Y-91440000D02*
X152273000Y-91440000D01*
X142240000Y-95250000D02*
X150622000Y-91440000D01*
%TO.N,/SCSI_DB6*%
X137160000Y-92710000D02*
X142240000Y-92710000D01*
X162293600Y-105003600D02*
X163290000Y-106000000D01*
X160613099Y-105003600D02*
X162293600Y-105003600D01*
X156210000Y-100600501D02*
X160613099Y-105003600D01*
X156210000Y-89154000D02*
X156210000Y-100600501D01*
X154686000Y-87630000D02*
X156210000Y-89154000D01*
X153540000Y-87630000D02*
X154686000Y-87630000D01*
X152273000Y-88900000D02*
X153540000Y-87633000D01*
X150622000Y-88900000D02*
X152273000Y-88900000D01*
X153540000Y-87633000D02*
X153540000Y-87630000D01*
X142240000Y-92710000D02*
X150622000Y-88900000D01*
X132080000Y-97790000D02*
X137160000Y-92710000D01*
X130937000Y-97790000D02*
X132080000Y-97790000D01*
X127762000Y-118110000D02*
X127762000Y-101167998D01*
X127762000Y-101167998D02*
X130937000Y-97790000D01*
X131572000Y-121920000D02*
X127762000Y-118110000D01*
%TO.N,/SCSI_DB5*%
X137160000Y-90170000D02*
X142240000Y-90170000D01*
X127000000Y-99389998D02*
X127000000Y-119888000D01*
X127000000Y-119888000D02*
X131572000Y-124460000D01*
X130937000Y-95250000D02*
X127000000Y-99389998D01*
X132080000Y-95250000D02*
X130937000Y-95250000D01*
X154686000Y-85090000D02*
X153540000Y-85090000D01*
X163290000Y-104000000D02*
X162287000Y-102997000D01*
X156845000Y-99187000D02*
X156845000Y-87249000D01*
X160655000Y-102997000D02*
X156845000Y-99187000D01*
X156845000Y-87249000D02*
X154686000Y-85090000D01*
X162287000Y-102997000D02*
X160655000Y-102997000D01*
X137160000Y-90170000D02*
X132080000Y-95250000D01*
X150622000Y-86360000D02*
X142240000Y-90170000D01*
X152273000Y-86360000D02*
X150622000Y-86360000D01*
X153540000Y-85093000D02*
X152273000Y-86360000D01*
X153540000Y-85090000D02*
X153540000Y-85093000D01*
%TO.N,/SCSI_DB4*%
X137160000Y-87630000D02*
X142240000Y-87630000D01*
X150622000Y-83820000D02*
X151257000Y-83820000D01*
X151257000Y-83820000D02*
X153540000Y-82550000D01*
X142240000Y-87630000D02*
X150622000Y-83820000D01*
X162280400Y-100990400D02*
X163290000Y-102000000D01*
X153540000Y-82550000D02*
X154686000Y-82550000D01*
X157607000Y-85471000D02*
X157607000Y-98183700D01*
X157607000Y-98183700D02*
X160413700Y-100990400D01*
X154686000Y-82550000D02*
X157607000Y-85471000D01*
X160413700Y-100990400D02*
X162280400Y-100990400D01*
%TO.N,/SCSI_DB3*%
X162314999Y-99024999D02*
X163290000Y-100000000D01*
X142240000Y-85090000D02*
X137160000Y-85090000D01*
X154686000Y-80010000D02*
X153540000Y-80010000D01*
X158242000Y-83566000D02*
X154686000Y-80010000D01*
X158242000Y-96605199D02*
X158242000Y-83566000D01*
X160646001Y-99009200D02*
X158242000Y-96605199D01*
X162306000Y-99009200D02*
X160646001Y-99009200D01*
X137160000Y-85090000D02*
X132588000Y-92710000D01*
X120269000Y-116840000D02*
X116332000Y-116840000D01*
X126238000Y-110871000D02*
X120269000Y-116840000D01*
X126238000Y-97611998D02*
X126238000Y-110871000D01*
X131139998Y-92710000D02*
X126238000Y-97611998D01*
X132588000Y-92710000D02*
X131139998Y-92710000D01*
X152273000Y-81280000D02*
X150622000Y-81280000D01*
X150622000Y-81280000D02*
X142240000Y-85090000D01*
X153540000Y-80013000D02*
X152273000Y-81280000D01*
X153540000Y-80010000D02*
X153540000Y-80013000D01*
%TO.N,/SCSI_DB2*%
X137160000Y-82550000D02*
X142240000Y-82550000D01*
X162292600Y-97002600D02*
X163290000Y-98000000D01*
X158877000Y-81534000D02*
X158877000Y-95186500D01*
X160693100Y-97002600D02*
X162292600Y-97002600D01*
X158877000Y-95186500D02*
X160693100Y-97002600D01*
X154813000Y-77470000D02*
X158877000Y-81534000D01*
X153540000Y-77470000D02*
X154813000Y-77470000D01*
X132588000Y-90170000D02*
X137160000Y-82550000D01*
X131064000Y-90170000D02*
X132588000Y-90170000D01*
X125476000Y-95360000D02*
X131064000Y-90170000D01*
X125476000Y-110236000D02*
X125476000Y-95360000D01*
X121412000Y-114300000D02*
X125476000Y-110236000D01*
X116332000Y-114300000D02*
X121412000Y-114300000D01*
X153540000Y-77473000D02*
X153540000Y-77470000D01*
X152273000Y-78740000D02*
X153540000Y-77473000D01*
X150622000Y-78740000D02*
X152273000Y-78740000D01*
X142240000Y-82550000D02*
X150622000Y-78740000D01*
%TO.N,/SCSI_DB1*%
X137160000Y-80010000D02*
X142240000Y-80010000D01*
X159512000Y-79756000D02*
X154686000Y-74930000D01*
X154686000Y-74930000D02*
X153540000Y-74930000D01*
X163290000Y-96000000D02*
X162286000Y-94996000D01*
X159512000Y-93726000D02*
X159512000Y-79756000D01*
X160782000Y-94996000D02*
X159512000Y-93726000D01*
X162286000Y-94996000D02*
X160782000Y-94996000D01*
X150622000Y-76200000D02*
X142240000Y-80010000D01*
X152273000Y-76200000D02*
X150622000Y-76200000D01*
X153540000Y-74933000D02*
X152273000Y-76200000D01*
X153540000Y-74930000D02*
X153540000Y-74933000D01*
%TO.N,/SCSI_DB0*%
X137160000Y-77470000D02*
X142240000Y-77470000D01*
X152270000Y-73660000D02*
X153540000Y-72390000D01*
X150622000Y-73660000D02*
X152270000Y-73660000D01*
X143002000Y-77470000D02*
X150622000Y-73660000D01*
X142240000Y-77470000D02*
X143002000Y-77470000D01*
X153540000Y-72390000D02*
X154686000Y-72390000D01*
X160655000Y-92989400D02*
X162279400Y-92989400D01*
X162279400Y-92989400D02*
X163290000Y-94000000D01*
X160147000Y-77851000D02*
X160147000Y-92456000D01*
X154686000Y-72390000D02*
X160147000Y-77851000D01*
X160147000Y-92456000D02*
X160655000Y-92989400D01*
X137160000Y-77470000D02*
X133477000Y-84963000D01*
X133477000Y-86995000D02*
X133477000Y-84963000D01*
X131572000Y-88900000D02*
X133477000Y-86995000D01*
D32*
%TO.N,/SD_MISO*%
X114046000Y-106426000D02*
X116332000Y-104140000D01*
X110490000Y-106426000D02*
X114046000Y-106426000D01*
X110417000Y-106499000D02*
X110490000Y-106426000D01*
X110490000Y-106468795D02*
X110490000Y-106426000D01*
X104111499Y-107696000D02*
X109220000Y-107696000D01*
X100494499Y-111313000D02*
X104111499Y-107696000D01*
X109220000Y-107696000D02*
X110490000Y-106426000D01*
X96658000Y-111313000D02*
X100494499Y-111313000D01*
%TO.N,/SD_CSK*%
X110413000Y-111429000D02*
X110490000Y-111506000D01*
X110413000Y-111964000D02*
X110413000Y-111429000D01*
X108864000Y-113513000D02*
X110413000Y-111964000D01*
X96150000Y-113513000D02*
X108864000Y-113513000D01*
%TO.N,+3V3*%
X109601000Y-114046000D02*
X110490000Y-114046000D01*
X109034000Y-114613000D02*
X109601000Y-114046000D01*
X124714000Y-85598000D02*
X124714000Y-109982000D01*
X131572000Y-78740000D02*
X124714000Y-85598000D01*
X96150000Y-114613000D02*
X109034000Y-114613000D01*
%TO.N,/SD_MOSI*%
X115129919Y-106680000D02*
X116332000Y-106680000D01*
X113538000Y-108271919D02*
X115129919Y-106680000D01*
X113538000Y-117094000D02*
X113538000Y-108271919D01*
X111506000Y-119126000D02*
X113538000Y-117094000D01*
X110490000Y-119126000D02*
X111506000Y-119126000D01*
X109702600Y-118338600D02*
X110490000Y-119126000D01*
X100050600Y-118338600D02*
X109702600Y-118338600D01*
X97425000Y-115713000D02*
X100050600Y-118338600D01*
X96536000Y-115713000D02*
X97425000Y-115713000D01*
%TO.N,/SD_CS*%
X115126002Y-107950000D02*
X117348000Y-107950000D01*
X114554000Y-108522002D02*
X115126002Y-107950000D01*
X114554000Y-117602000D02*
X114554000Y-108522002D01*
X117856000Y-100584000D02*
X116332000Y-99060000D01*
X117856000Y-107442000D02*
X117856000Y-100584000D01*
X110490000Y-121666000D02*
X114554000Y-117602000D01*
X117348000Y-107950000D02*
X117856000Y-107442000D01*
X110253000Y-121429000D02*
X110490000Y-121666000D01*
X107797600Y-118973600D02*
X110490000Y-121666000D01*
X97255000Y-116813000D02*
X99415600Y-118973600D01*
X99415600Y-118973600D02*
X107797600Y-118973600D01*
X96493000Y-116813000D02*
X97255000Y-116813000D01*
%TO.N,/TERMGROUND_SWITCHED*%
X138430000Y-103759000D02*
X144526000Y-103759000D01*
X144526000Y-103759000D02*
X145796000Y-105410000D01*
X137160000Y-105410000D02*
X138430000Y-103759000D01*
%TO.N,/TERMPOWER_SWITCHED*%
X142748000Y-105410000D02*
X142240000Y-105410000D01*
%TO.N,/DEBUG_RX*%
X110871000Y-91059000D02*
X116332000Y-96520000D01*
X109982000Y-90170000D02*
X110871000Y-91059000D01*
X107442000Y-90170000D02*
X109982000Y-90170000D01*
D33*
%TO.N,+5V*%
X147889200Y-70916800D02*
X147383500Y-71422500D01*
X155498800Y-70916800D02*
X147889200Y-70916800D01*
X160020000Y-75438000D02*
X155498800Y-70916800D01*
X160782000Y-75438000D02*
X160020000Y-75438000D01*
X134978588Y-80413412D02*
X131572000Y-83820000D01*
X136913470Y-75692000D02*
X134978588Y-77626882D01*
X139954000Y-75692000D02*
X136913470Y-75692000D01*
X134978588Y-77626882D02*
X134978588Y-80413412D01*
X141224000Y-74422000D02*
X139954000Y-75692000D01*
X141224000Y-73406000D02*
X141224000Y-74422000D01*
X143207500Y-71422500D02*
X141224000Y-73406000D01*
X147383500Y-71422500D02*
X143207500Y-71422500D01*
%TO.N,/SCSI_+5*%
X161290000Y-90000000D02*
X163290000Y-90000000D01*
X164465000Y-91175000D02*
X164465000Y-126825000D01*
X164465000Y-126825000D02*
X163290000Y-128000000D01*
X163290000Y-90000000D02*
X164465000Y-91175000D01*
X161290000Y-128000000D02*
X163290000Y-128000000D01*
X164465000Y-88825000D02*
X163290000Y-90000000D01*
X164465000Y-78867000D02*
X164465000Y-88825000D01*
X163322000Y-77724000D02*
X164465000Y-78867000D01*
X163322000Y-75946000D02*
X163322000Y-77724000D01*
D32*
%TO.N,/SD_DAT1*%
X107696000Y-106680000D02*
X110490000Y-103886000D01*
X103886000Y-106680000D02*
X107696000Y-106680000D01*
X100303000Y-110263000D02*
X103886000Y-106680000D01*
X96658000Y-110263000D02*
X100303000Y-110263000D01*
%TO.N,/SD_DAT2*%
X110490000Y-124206000D02*
X108153200Y-121869200D01*
X107391200Y-119583200D02*
X98328200Y-119583200D01*
X108153200Y-120345200D02*
X107391200Y-119583200D01*
X98328200Y-119583200D02*
X96658000Y-117913000D01*
X108153200Y-121869200D02*
X108153200Y-120345200D01*
%TD*%
D34*
%TO.N,GND*%
X133967303Y-70145187D02*
X133658187Y-70454303D01*
X133415316Y-70817785D01*
X133248023Y-71221665D01*
X133162738Y-71650422D01*
X133162738Y-72087578D01*
X133248023Y-72516335D01*
X133415316Y-72920215D01*
X133658187Y-73283697D01*
X133967303Y-73592813D01*
X134330785Y-73835684D01*
X134734665Y-74002977D01*
X135163422Y-74088262D01*
X135600578Y-74088262D01*
X136029335Y-74002977D01*
X136433215Y-73835684D01*
X136796697Y-73592813D01*
X137105813Y-73283697D01*
X137348684Y-72920215D01*
X137515977Y-72516335D01*
X137601262Y-72087578D01*
X137601262Y-71650422D01*
X137515977Y-71221665D01*
X137348684Y-70817785D01*
X137105813Y-70454303D01*
X136796697Y-70145187D01*
X136467164Y-69925000D01*
X163795280Y-69925000D01*
X164184785Y-69963191D01*
X164526060Y-70066228D01*
X164840822Y-70233590D01*
X165117083Y-70458903D01*
X165344317Y-70733582D01*
X165513870Y-71047164D01*
X165619286Y-71387708D01*
X165660001Y-71775082D01*
X165660000Y-133950280D01*
X165621809Y-134339784D01*
X165518771Y-134681063D01*
X165351409Y-134995825D01*
X165126097Y-135272083D01*
X164851418Y-135499317D01*
X164537838Y-135668869D01*
X164197288Y-135774287D01*
X163809928Y-135815000D01*
X136467164Y-135815000D01*
X136796697Y-135594813D01*
X137105813Y-135285697D01*
X137348684Y-134922215D01*
X137515977Y-134518335D01*
X137601262Y-134089578D01*
X137601262Y-133706890D01*
X149558524Y-133706890D01*
X149603175Y-133854099D01*
X149728359Y-134116920D01*
X149902412Y-134350269D01*
X150118645Y-134545178D01*
X150368748Y-134694157D01*
X150643109Y-134791481D01*
X150873000Y-134670814D01*
X150873000Y-133477000D01*
X149679845Y-133477000D01*
X149558524Y-133706890D01*
X137601262Y-133706890D01*
X137601262Y-133652422D01*
X137515977Y-133223665D01*
X137348684Y-132819785D01*
X137105813Y-132456303D01*
X136796697Y-132147187D01*
X136433215Y-131904316D01*
X136029335Y-131737023D01*
X135600578Y-131651738D01*
X135163422Y-131651738D01*
X134734665Y-131737023D01*
X134330785Y-131904316D01*
X133967303Y-132147187D01*
X133658187Y-132456303D01*
X133415316Y-132819785D01*
X133248023Y-133223665D01*
X133162738Y-133652422D01*
X133162738Y-134089578D01*
X133248023Y-134518335D01*
X133415316Y-134922215D01*
X133658187Y-135285697D01*
X133967303Y-135594813D01*
X134296836Y-135815000D01*
X98367164Y-135815000D01*
X98696697Y-135594813D01*
X99005813Y-135285697D01*
X99248684Y-134922215D01*
X99415977Y-134518335D01*
X99501262Y-134089578D01*
X99501262Y-133652422D01*
X99415977Y-133223665D01*
X99248684Y-132819785D01*
X99005813Y-132456303D01*
X98696697Y-132147187D01*
X98333215Y-131904316D01*
X97929335Y-131737023D01*
X97500578Y-131651738D01*
X97063422Y-131651738D01*
X96634665Y-131737023D01*
X96230785Y-131904316D01*
X95867303Y-132147187D01*
X95558187Y-132456303D01*
X95315316Y-132819785D01*
X95198000Y-133103010D01*
X95198000Y-128028397D01*
X115483208Y-128028397D01*
X115560843Y-128277472D01*
X115824883Y-128403371D01*
X116108411Y-128475339D01*
X116400531Y-128490611D01*
X116690019Y-128448599D01*
X116965747Y-128350919D01*
X117103157Y-128277472D01*
X117180792Y-128028397D01*
X116332000Y-127179605D01*
X115483208Y-128028397D01*
X95198000Y-128028397D01*
X95198000Y-127068531D01*
X114841389Y-127068531D01*
X114883401Y-127358019D01*
X114981081Y-127633747D01*
X115054528Y-127771157D01*
X115303603Y-127848792D01*
X116152395Y-127000000D01*
X116511605Y-127000000D01*
X117360397Y-127848792D01*
X117609472Y-127771157D01*
X117735371Y-127507117D01*
X117807339Y-127223589D01*
X117822611Y-126931469D01*
X117780599Y-126641981D01*
X117682919Y-126366253D01*
X117609472Y-126228843D01*
X117360397Y-126151208D01*
X116511605Y-127000000D01*
X116152395Y-127000000D01*
X115303603Y-126151208D01*
X115054528Y-126228843D01*
X114928629Y-126492883D01*
X114856661Y-126776411D01*
X114841389Y-127068531D01*
X95198000Y-127068531D01*
X95198000Y-121148000D01*
X95469928Y-121148000D01*
X95482188Y-121272482D01*
X95518498Y-121392180D01*
X95577463Y-121502494D01*
X95656815Y-121599185D01*
X95753506Y-121678537D01*
X95863820Y-121737502D01*
X95983518Y-121773812D01*
X96108000Y-121786072D01*
X96497250Y-121783000D01*
X96656000Y-121624250D01*
X96656000Y-120500000D01*
X96910000Y-120500000D01*
X96910000Y-121624250D01*
X97068750Y-121783000D01*
X97458000Y-121786072D01*
X97582482Y-121773812D01*
X97702180Y-121737502D01*
X97812494Y-121678537D01*
X97909185Y-121599185D01*
X97988537Y-121502494D01*
X98047502Y-121392180D01*
X98083812Y-121272482D01*
X98096072Y-121148000D01*
X101669928Y-121148000D01*
X101682188Y-121272482D01*
X101718498Y-121392180D01*
X101777463Y-121502494D01*
X101856815Y-121599185D01*
X101953506Y-121678537D01*
X102063820Y-121737502D01*
X102183518Y-121773812D01*
X102308000Y-121786072D01*
X102522250Y-121783000D01*
X102681000Y-121624250D01*
X102681000Y-120675000D01*
X102935000Y-120675000D01*
X102935000Y-121624250D01*
X103093750Y-121783000D01*
X103308000Y-121786072D01*
X103432482Y-121773812D01*
X103552180Y-121737502D01*
X103662494Y-121678537D01*
X103759185Y-121599185D01*
X103838537Y-121502494D01*
X103897502Y-121392180D01*
X103933812Y-121272482D01*
X103946072Y-121148000D01*
X105369928Y-121148000D01*
X105382188Y-121272482D01*
X105418498Y-121392180D01*
X105477463Y-121502494D01*
X105556815Y-121599185D01*
X105653506Y-121678537D01*
X105763820Y-121737502D01*
X105883518Y-121773812D01*
X106008000Y-121786072D01*
X106222250Y-121783000D01*
X106381000Y-121624250D01*
X106381000Y-120675000D01*
X105531750Y-120675000D01*
X105373000Y-120833750D01*
X105369928Y-121148000D01*
X103946072Y-121148000D01*
X103943000Y-120833750D01*
X103784250Y-120675000D01*
X102935000Y-120675000D01*
X102681000Y-120675000D01*
X101831750Y-120675000D01*
X101673000Y-120833750D01*
X101669928Y-121148000D01*
X98096072Y-121148000D01*
X98093000Y-120658750D01*
X97934250Y-120500000D01*
X96910000Y-120500000D01*
X96656000Y-120500000D01*
X95631750Y-120500000D01*
X95473000Y-120658750D01*
X95469928Y-121148000D01*
X95198000Y-121148000D01*
X95198000Y-113513000D01*
X95386323Y-113513000D01*
X95400997Y-113661986D01*
X95444454Y-113805247D01*
X95469928Y-113852905D01*
X95469928Y-113938000D01*
X95482188Y-114062482D01*
X95482345Y-114063000D01*
X95482188Y-114063518D01*
X95469928Y-114188000D01*
X95469928Y-114273095D01*
X95444454Y-114320753D01*
X95400997Y-114464014D01*
X95386323Y-114613000D01*
X95400997Y-114761986D01*
X95444454Y-114905247D01*
X95469928Y-114952905D01*
X95469928Y-115038000D01*
X95482188Y-115162482D01*
X95482345Y-115163000D01*
X95482188Y-115163518D01*
X95469928Y-115288000D01*
X95469928Y-116138000D01*
X95482188Y-116262482D01*
X95482345Y-116263000D01*
X95482188Y-116263518D01*
X95469928Y-116388000D01*
X95469928Y-117238000D01*
X95482188Y-117362482D01*
X95482345Y-117363000D01*
X95482188Y-117363518D01*
X95469928Y-117488000D01*
X95469928Y-118338000D01*
X95482188Y-118462482D01*
X95518498Y-118582180D01*
X95577463Y-118692494D01*
X95656815Y-118789185D01*
X95753506Y-118868537D01*
X95863820Y-118927502D01*
X95983518Y-118963812D01*
X96026041Y-118968000D01*
X95983518Y-118972188D01*
X95863820Y-119008498D01*
X95753506Y-119067463D01*
X95656815Y-119146815D01*
X95577463Y-119243506D01*
X95518498Y-119353820D01*
X95482188Y-119473518D01*
X95469928Y-119598000D01*
X95473000Y-120087250D01*
X95631750Y-120246000D01*
X96656000Y-120246000D01*
X96656000Y-120226000D01*
X96910000Y-120226000D01*
X96910000Y-120246000D01*
X97934250Y-120246000D01*
X97941820Y-120238430D01*
X98035953Y-120288746D01*
X98179214Y-120332203D01*
X98290867Y-120343200D01*
X98290876Y-120343200D01*
X98328199Y-120346876D01*
X98365522Y-120343200D01*
X101753950Y-120343200D01*
X101831750Y-120421000D01*
X102681000Y-120421000D01*
X102681000Y-120401000D01*
X102935000Y-120401000D01*
X102935000Y-120421000D01*
X103784250Y-120421000D01*
X103862050Y-120343200D01*
X105453950Y-120343200D01*
X105531750Y-120421000D01*
X106381000Y-120421000D01*
X106381000Y-120401000D01*
X106635000Y-120401000D01*
X106635000Y-120421000D01*
X106655000Y-120421000D01*
X106655000Y-120675000D01*
X106635000Y-120675000D01*
X106635000Y-121624250D01*
X106793750Y-121783000D01*
X107008000Y-121786072D01*
X107132482Y-121773812D01*
X107252180Y-121737502D01*
X107362494Y-121678537D01*
X107393200Y-121653337D01*
X107393200Y-121831877D01*
X107389524Y-121869200D01*
X107393200Y-121906522D01*
X107393200Y-121906532D01*
X107404197Y-122018185D01*
X107437819Y-122129024D01*
X107447654Y-122161446D01*
X107518226Y-122293476D01*
X107554190Y-122337298D01*
X107613199Y-122409201D01*
X107642203Y-122433004D01*
X109001928Y-123792730D01*
X109001928Y-125056000D01*
X109014188Y-125180482D01*
X109050498Y-125300180D01*
X109109463Y-125410494D01*
X109188815Y-125507185D01*
X109285506Y-125586537D01*
X109395820Y-125645502D01*
X109515518Y-125681812D01*
X109640000Y-125694072D01*
X111340000Y-125694072D01*
X111464482Y-125681812D01*
X111584180Y-125645502D01*
X111694494Y-125586537D01*
X111791185Y-125507185D01*
X111806603Y-125488397D01*
X115483208Y-125488397D01*
X115558514Y-125729999D01*
X115483208Y-125971603D01*
X116332000Y-126820395D01*
X117180792Y-125971603D01*
X117105486Y-125729999D01*
X117180792Y-125488397D01*
X116332000Y-124639605D01*
X115483208Y-125488397D01*
X111806603Y-125488397D01*
X111870537Y-125410494D01*
X111929502Y-125300180D01*
X111965812Y-125180482D01*
X111978072Y-125056000D01*
X111978072Y-124528531D01*
X114841389Y-124528531D01*
X114883401Y-124818019D01*
X114981081Y-125093747D01*
X115054528Y-125231157D01*
X115303603Y-125308792D01*
X116152395Y-124460000D01*
X116511605Y-124460000D01*
X117360397Y-125308792D01*
X117609472Y-125231157D01*
X117735371Y-124967117D01*
X117807339Y-124683589D01*
X117822611Y-124391469D01*
X117780599Y-124101981D01*
X117682919Y-123826253D01*
X117609472Y-123688843D01*
X117360397Y-123611208D01*
X116511605Y-124460000D01*
X116152395Y-124460000D01*
X115303603Y-123611208D01*
X115054528Y-123688843D01*
X114928629Y-123952883D01*
X114856661Y-124236411D01*
X114841389Y-124528531D01*
X111978072Y-124528531D01*
X111978072Y-123356000D01*
X111965812Y-123231518D01*
X111929502Y-123111820D01*
X111870537Y-123001506D01*
X111791185Y-122904815D01*
X111694494Y-122825463D01*
X111584180Y-122766498D01*
X111511620Y-122744487D01*
X111643475Y-122612632D01*
X111805990Y-122369411D01*
X111917932Y-122099158D01*
X111975000Y-121812260D01*
X111975000Y-121519740D01*
X111931209Y-121299592D01*
X115065004Y-118165798D01*
X115094001Y-118142001D01*
X115158007Y-118064010D01*
X115188974Y-118026277D01*
X115259546Y-117894247D01*
X115265735Y-117873842D01*
X115385368Y-117993475D01*
X115559760Y-118110000D01*
X115385368Y-118226525D01*
X115178525Y-118433368D01*
X115016010Y-118676589D01*
X114904068Y-118946842D01*
X114847000Y-119233740D01*
X114847000Y-119526260D01*
X114904068Y-119813158D01*
X115016010Y-120083411D01*
X115178525Y-120326632D01*
X115385368Y-120533475D01*
X115559760Y-120650000D01*
X115385368Y-120766525D01*
X115178525Y-120973368D01*
X115016010Y-121216589D01*
X114904068Y-121486842D01*
X114847000Y-121773740D01*
X114847000Y-122066260D01*
X114904068Y-122353158D01*
X115016010Y-122623411D01*
X115178525Y-122866632D01*
X115385368Y-123073475D01*
X115558729Y-123189311D01*
X115483208Y-123431603D01*
X116332000Y-124280395D01*
X117180792Y-123431603D01*
X117105271Y-123189311D01*
X117278632Y-123073475D01*
X117485475Y-122866632D01*
X117647990Y-122623411D01*
X117759932Y-122353158D01*
X117817000Y-122066260D01*
X117817000Y-121773740D01*
X117759932Y-121486842D01*
X117647990Y-121216589D01*
X117485475Y-120973368D01*
X117278632Y-120766525D01*
X117104240Y-120650000D01*
X117278632Y-120533475D01*
X117485475Y-120326632D01*
X117647990Y-120083411D01*
X117759932Y-119813158D01*
X117817000Y-119526260D01*
X117817000Y-119233740D01*
X117759932Y-118946842D01*
X117647990Y-118676589D01*
X117485475Y-118433368D01*
X117278632Y-118226525D01*
X117104240Y-118110000D01*
X117278632Y-117993475D01*
X117485475Y-117786632D01*
X117618531Y-117587500D01*
X120232295Y-117587500D01*
X120269000Y-117591115D01*
X120305705Y-117587500D01*
X120305715Y-117587500D01*
X120415535Y-117576684D01*
X120556440Y-117533941D01*
X120686298Y-117464530D01*
X120800119Y-117371119D01*
X120823529Y-117342594D01*
X126252501Y-111913623D01*
X126252501Y-119851285D01*
X126248885Y-119888000D01*
X126263317Y-120034535D01*
X126306059Y-120175439D01*
X126375470Y-120305298D01*
X126409593Y-120346876D01*
X126468882Y-120419119D01*
X126497401Y-120442524D01*
X130133723Y-124078848D01*
X130087000Y-124313740D01*
X130087000Y-124606260D01*
X130144068Y-124893158D01*
X130256010Y-125163411D01*
X130418525Y-125406632D01*
X130550380Y-125538487D01*
X130477820Y-125560498D01*
X130367506Y-125619463D01*
X130270815Y-125698815D01*
X130191463Y-125795506D01*
X130132498Y-125905820D01*
X130096188Y-126025518D01*
X130083928Y-126150000D01*
X130083928Y-127850000D01*
X130096188Y-127974482D01*
X130132498Y-128094180D01*
X130191463Y-128204494D01*
X130270815Y-128301185D01*
X130367506Y-128380537D01*
X130477820Y-128439502D01*
X130597518Y-128475812D01*
X130722000Y-128488072D01*
X132422000Y-128488072D01*
X132546482Y-128475812D01*
X132666180Y-128439502D01*
X132776494Y-128380537D01*
X132873185Y-128301185D01*
X132952537Y-128204494D01*
X133011502Y-128094180D01*
X133047812Y-127974482D01*
X133060072Y-127850000D01*
X133060072Y-126150000D01*
X133047812Y-126025518D01*
X133011502Y-125905820D01*
X132952537Y-125795506D01*
X132873185Y-125698815D01*
X132776494Y-125619463D01*
X132666180Y-125560498D01*
X132593620Y-125538487D01*
X132725475Y-125406632D01*
X132887990Y-125163411D01*
X132999932Y-124893158D01*
X133057000Y-124606260D01*
X133057000Y-124313740D01*
X132999932Y-124026842D01*
X132887990Y-123756589D01*
X132725475Y-123513368D01*
X132518632Y-123306525D01*
X132344240Y-123190000D01*
X132518632Y-123073475D01*
X132725475Y-122866632D01*
X132887990Y-122623411D01*
X132999932Y-122353158D01*
X133057000Y-122066260D01*
X133057000Y-121773740D01*
X132999932Y-121486842D01*
X132887990Y-121216589D01*
X132725475Y-120973368D01*
X132518632Y-120766525D01*
X132344240Y-120650000D01*
X132518632Y-120533475D01*
X132725475Y-120326632D01*
X132887990Y-120083411D01*
X132999932Y-119813158D01*
X133057000Y-119526260D01*
X133057000Y-119382123D01*
X135015500Y-121340624D01*
X135015501Y-126836285D01*
X135011885Y-126873000D01*
X135026317Y-127019535D01*
X135069059Y-127160439D01*
X135138470Y-127290298D01*
X135194048Y-127358019D01*
X135231882Y-127404119D01*
X135260401Y-127427524D01*
X135764245Y-127931369D01*
X135725000Y-128128665D01*
X135725000Y-128411335D01*
X135780147Y-128688574D01*
X135888320Y-128949727D01*
X136045363Y-129184759D01*
X136245241Y-129384637D01*
X136480273Y-129541680D01*
X136741426Y-129649853D01*
X137018665Y-129705000D01*
X137301335Y-129705000D01*
X137578574Y-129649853D01*
X137839727Y-129541680D01*
X138074759Y-129384637D01*
X138274637Y-129184759D01*
X138386396Y-129017500D01*
X141013604Y-129017500D01*
X141125363Y-129184759D01*
X141325241Y-129384637D01*
X141560273Y-129541680D01*
X141821426Y-129649853D01*
X142098665Y-129705000D01*
X142381335Y-129705000D01*
X142658574Y-129649853D01*
X142919727Y-129541680D01*
X143154759Y-129384637D01*
X143354637Y-129184759D01*
X143511680Y-128949727D01*
X143619853Y-128688574D01*
X143675000Y-128411335D01*
X143675000Y-128128665D01*
X143619853Y-127851426D01*
X143511680Y-127590273D01*
X143354637Y-127355241D01*
X143154759Y-127155363D01*
X142922241Y-127000000D01*
X143154759Y-126844637D01*
X143354637Y-126644759D01*
X143511680Y-126409727D01*
X143619853Y-126148574D01*
X143670030Y-125896320D01*
X149674006Y-132567406D01*
X149709881Y-132611119D01*
X149713564Y-132614142D01*
X149603175Y-132845901D01*
X149558524Y-132993110D01*
X149679845Y-133223000D01*
X150873000Y-133223000D01*
X150873000Y-133203000D01*
X151127000Y-133203000D01*
X151127000Y-133223000D01*
X151147000Y-133223000D01*
X151147000Y-133477000D01*
X151127000Y-133477000D01*
X151127000Y-134670814D01*
X151356891Y-134791481D01*
X151631252Y-134694157D01*
X151881355Y-134545178D01*
X152097588Y-134350269D01*
X152268900Y-134120594D01*
X152386525Y-134296632D01*
X152593368Y-134503475D01*
X152836589Y-134665990D01*
X153106842Y-134777932D01*
X153393740Y-134835000D01*
X153686260Y-134835000D01*
X153973158Y-134777932D01*
X154243411Y-134665990D01*
X154486632Y-134503475D01*
X154693475Y-134296632D01*
X154855990Y-134053411D01*
X154967932Y-133783158D01*
X155025000Y-133496260D01*
X155025000Y-133203740D01*
X154967932Y-132916842D01*
X154855990Y-132646589D01*
X154693475Y-132403368D01*
X154486632Y-132196525D01*
X154312240Y-132080000D01*
X154486632Y-131963475D01*
X154693475Y-131756632D01*
X154834069Y-131546219D01*
X154973440Y-131503941D01*
X155103298Y-131434530D01*
X155217119Y-131341119D01*
X155240529Y-131312594D01*
X160074840Y-126478284D01*
X160160527Y-126663629D01*
X160311697Y-126871227D01*
X160444060Y-126993319D01*
X160272456Y-127164923D01*
X160129093Y-127379482D01*
X160030342Y-127617887D01*
X159980000Y-127870976D01*
X159980000Y-128129024D01*
X160030342Y-128382113D01*
X160129093Y-128620518D01*
X160272456Y-128835077D01*
X160454923Y-129017544D01*
X160669482Y-129160907D01*
X160907887Y-129259658D01*
X161160976Y-129310000D01*
X161419024Y-129310000D01*
X161672113Y-129259658D01*
X161910518Y-129160907D01*
X162125077Y-129017544D01*
X162290000Y-128852621D01*
X162454923Y-129017544D01*
X162669482Y-129160907D01*
X162907887Y-129259658D01*
X163160976Y-129310000D01*
X163419024Y-129310000D01*
X163672113Y-129259658D01*
X163910518Y-129160907D01*
X164125077Y-129017544D01*
X164307544Y-128835077D01*
X164450907Y-128620518D01*
X164549658Y-128382113D01*
X164600000Y-128129024D01*
X164600000Y-127870976D01*
X164594116Y-127841396D01*
X165009618Y-127425895D01*
X165040528Y-127400528D01*
X165130991Y-127290298D01*
X165141749Y-127277190D01*
X165188352Y-127190000D01*
X165216963Y-127136473D01*
X165263280Y-126983788D01*
X165275000Y-126864791D01*
X165275000Y-126864788D01*
X165278919Y-126825000D01*
X165275000Y-126785212D01*
X165275000Y-91214788D01*
X165278919Y-91175000D01*
X165269418Y-91078535D01*
X165263280Y-91016212D01*
X165216963Y-90863527D01*
X165175238Y-90785465D01*
X165141749Y-90722810D01*
X165077531Y-90644561D01*
X165040528Y-90599472D01*
X165009619Y-90574106D01*
X164594116Y-90158604D01*
X164600000Y-90129024D01*
X164600000Y-89870976D01*
X164594116Y-89841396D01*
X165009618Y-89425895D01*
X165040528Y-89400528D01*
X165108833Y-89317298D01*
X165141749Y-89277190D01*
X165216962Y-89136474D01*
X165216963Y-89136473D01*
X165263280Y-88983788D01*
X165275000Y-88864791D01*
X165275000Y-88864788D01*
X165278919Y-88825000D01*
X165275000Y-88785212D01*
X165275000Y-78906787D01*
X165278919Y-78866999D01*
X165273780Y-78814822D01*
X165263280Y-78708212D01*
X165216963Y-78555527D01*
X165161926Y-78452560D01*
X165141749Y-78414810D01*
X165089049Y-78350595D01*
X165040528Y-78291472D01*
X165009619Y-78266106D01*
X164132000Y-77388488D01*
X164132000Y-77190770D01*
X164268632Y-77099475D01*
X164475475Y-76892632D01*
X164637990Y-76649411D01*
X164749932Y-76379158D01*
X164807000Y-76092260D01*
X164807000Y-75799740D01*
X164749932Y-75512842D01*
X164637990Y-75242589D01*
X164475475Y-74999368D01*
X164268632Y-74792525D01*
X164025411Y-74630010D01*
X163755158Y-74518068D01*
X163468260Y-74461000D01*
X163175740Y-74461000D01*
X162888842Y-74518068D01*
X162618589Y-74630010D01*
X162375368Y-74792525D01*
X162243513Y-74924380D01*
X162221502Y-74851820D01*
X162162537Y-74741506D01*
X162083185Y-74644815D01*
X161986494Y-74565463D01*
X161876180Y-74506498D01*
X161756482Y-74470188D01*
X161632000Y-74457928D01*
X160185441Y-74457928D01*
X156099700Y-70372188D01*
X156074328Y-70341272D01*
X155950989Y-70240051D01*
X155810273Y-70164837D01*
X155657588Y-70118520D01*
X155538591Y-70106800D01*
X155538588Y-70106800D01*
X155498800Y-70102881D01*
X155459012Y-70106800D01*
X147928988Y-70106800D01*
X147889200Y-70102881D01*
X147849412Y-70106800D01*
X147849409Y-70106800D01*
X147730412Y-70118520D01*
X147577727Y-70164837D01*
X147437011Y-70240051D01*
X147382937Y-70284428D01*
X146633500Y-70284428D01*
X146509018Y-70296688D01*
X146389320Y-70332998D01*
X146279006Y-70391963D01*
X146182315Y-70471315D01*
X146102963Y-70568006D01*
X146079180Y-70612500D01*
X143247288Y-70612500D01*
X143207500Y-70608581D01*
X143167712Y-70612500D01*
X143167709Y-70612500D01*
X143048712Y-70624220D01*
X142933067Y-70659301D01*
X142896026Y-70670537D01*
X142813628Y-70714580D01*
X142755311Y-70745751D01*
X142631972Y-70846972D01*
X142606607Y-70877880D01*
X141312560Y-72171928D01*
X140374000Y-72171928D01*
X140249518Y-72184188D01*
X140129820Y-72220498D01*
X140019506Y-72279463D01*
X139922815Y-72358815D01*
X139843463Y-72455506D01*
X139784498Y-72565820D01*
X139748188Y-72685518D01*
X139735928Y-72810000D01*
X139735928Y-74510000D01*
X139748188Y-74634482D01*
X139775609Y-74724878D01*
X139618488Y-74882000D01*
X136953257Y-74882000D01*
X136913469Y-74878081D01*
X136873681Y-74882000D01*
X136873679Y-74882000D01*
X136754682Y-74893720D01*
X136601997Y-74940037D01*
X136562432Y-74961185D01*
X136461280Y-75015251D01*
X136410409Y-75057000D01*
X136337942Y-75116472D01*
X136312577Y-75147380D01*
X134433975Y-77025983D01*
X134403060Y-77051354D01*
X134344174Y-77123108D01*
X134301839Y-77174693D01*
X134270953Y-77232477D01*
X134226625Y-77315410D01*
X134180308Y-77468095D01*
X134172469Y-77547688D01*
X134164669Y-77626882D01*
X134168588Y-77666670D01*
X134168589Y-80077898D01*
X133059114Y-81187373D01*
X133020599Y-80921981D01*
X132922919Y-80646253D01*
X132849472Y-80508843D01*
X132600397Y-80431208D01*
X131751605Y-81280000D01*
X131765748Y-81294143D01*
X131586143Y-81473748D01*
X131572000Y-81459605D01*
X130723208Y-82308397D01*
X130798729Y-82550689D01*
X130625368Y-82666525D01*
X130418525Y-82873368D01*
X130256010Y-83116589D01*
X130144068Y-83386842D01*
X130087000Y-83673740D01*
X130087000Y-83966260D01*
X130144068Y-84253158D01*
X130256010Y-84523411D01*
X130418525Y-84766632D01*
X130625368Y-84973475D01*
X130799760Y-85090000D01*
X130625368Y-85206525D01*
X130418525Y-85413368D01*
X130256010Y-85656589D01*
X130144068Y-85926842D01*
X130087000Y-86213740D01*
X130087000Y-86506260D01*
X130144068Y-86793158D01*
X130256010Y-87063411D01*
X130418525Y-87306632D01*
X130625368Y-87513475D01*
X130799760Y-87630000D01*
X130625368Y-87746525D01*
X130418525Y-87953368D01*
X130256010Y-88196589D01*
X130144068Y-88466842D01*
X130087000Y-88753740D01*
X130087000Y-89046260D01*
X130144068Y-89333158D01*
X130256010Y-89603411D01*
X130378406Y-89786590D01*
X125474000Y-94341685D01*
X125474000Y-85912801D01*
X130083768Y-81303034D01*
X130081389Y-81348531D01*
X130123401Y-81638019D01*
X130221081Y-81913747D01*
X130294528Y-82051157D01*
X130543603Y-82128792D01*
X131392395Y-81280000D01*
X131378253Y-81265858D01*
X131557858Y-81086253D01*
X131572000Y-81100395D01*
X132420792Y-80251603D01*
X132345271Y-80009311D01*
X132518632Y-79893475D01*
X132725475Y-79686632D01*
X132887990Y-79443411D01*
X132999932Y-79173158D01*
X133057000Y-78886260D01*
X133057000Y-78593740D01*
X132999932Y-78306842D01*
X132887990Y-78036589D01*
X132725475Y-77793368D01*
X132518632Y-77586525D01*
X132275411Y-77424010D01*
X132005158Y-77312068D01*
X131718260Y-77255000D01*
X131425740Y-77255000D01*
X131138842Y-77312068D01*
X130868589Y-77424010D01*
X130625368Y-77586525D01*
X130418525Y-77793368D01*
X130256010Y-78036589D01*
X130144068Y-78306842D01*
X130087000Y-78593740D01*
X130087000Y-78886260D01*
X130130790Y-79106408D01*
X124203003Y-85034196D01*
X124173999Y-85057999D01*
X124147737Y-85090000D01*
X124079026Y-85173724D01*
X124048232Y-85231335D01*
X124008454Y-85305754D01*
X123964997Y-85449015D01*
X123954000Y-85560668D01*
X123954000Y-85560678D01*
X123950324Y-85598000D01*
X123954000Y-85635322D01*
X123954001Y-109278288D01*
X123910063Y-109322226D01*
X123796795Y-109491744D01*
X123718774Y-109680102D01*
X123679000Y-109880061D01*
X123679000Y-110083939D01*
X123718774Y-110283898D01*
X123796795Y-110472256D01*
X123910063Y-110641774D01*
X123961583Y-110693294D01*
X121102377Y-113552500D01*
X117618531Y-113552500D01*
X117485475Y-113353368D01*
X117278632Y-113146525D01*
X117104240Y-113030000D01*
X117278632Y-112913475D01*
X117485475Y-112706632D01*
X117647990Y-112463411D01*
X117759932Y-112193158D01*
X117817000Y-111906260D01*
X117817000Y-111613740D01*
X117759932Y-111326842D01*
X117647990Y-111056589D01*
X117485475Y-110813368D01*
X117278632Y-110606525D01*
X117104240Y-110490000D01*
X117278632Y-110373475D01*
X117485475Y-110166632D01*
X117647990Y-109923411D01*
X117759932Y-109653158D01*
X117817000Y-109366260D01*
X117817000Y-109073740D01*
X117759932Y-108786842D01*
X117693711Y-108626969D01*
X117772276Y-108584974D01*
X117888001Y-108490001D01*
X117911803Y-108460998D01*
X118367003Y-108005798D01*
X118396001Y-107982001D01*
X118490974Y-107866276D01*
X118561546Y-107734247D01*
X118605003Y-107590986D01*
X118616000Y-107479333D01*
X118616000Y-107479324D01*
X118619676Y-107442001D01*
X118616000Y-107404678D01*
X118616000Y-100621322D01*
X118619676Y-100583999D01*
X118616000Y-100546676D01*
X118616000Y-100546667D01*
X118605003Y-100435014D01*
X118561546Y-100291753D01*
X118490974Y-100159724D01*
X118465779Y-100129024D01*
X118419799Y-100072996D01*
X118419795Y-100072992D01*
X118396001Y-100043999D01*
X118367008Y-100020205D01*
X117773210Y-99426407D01*
X117817000Y-99206260D01*
X117817000Y-98913740D01*
X117759932Y-98626842D01*
X117647990Y-98356589D01*
X117485475Y-98113368D01*
X117278632Y-97906525D01*
X117104240Y-97790000D01*
X117278632Y-97673475D01*
X117485475Y-97466632D01*
X117647990Y-97223411D01*
X117759932Y-96953158D01*
X117817000Y-96666260D01*
X117817000Y-96373740D01*
X117759932Y-96086842D01*
X117647990Y-95816589D01*
X117485475Y-95573368D01*
X117278632Y-95366525D01*
X117104240Y-95250000D01*
X117278632Y-95133475D01*
X117485475Y-94926632D01*
X117647990Y-94683411D01*
X117759932Y-94413158D01*
X117817000Y-94126260D01*
X117817000Y-93833740D01*
X117759932Y-93546842D01*
X117647990Y-93276589D01*
X117485475Y-93033368D01*
X117278632Y-92826525D01*
X117104240Y-92710000D01*
X117278632Y-92593475D01*
X117485475Y-92386632D01*
X117647990Y-92143411D01*
X117759932Y-91873158D01*
X117817000Y-91586260D01*
X117817000Y-91293740D01*
X117759932Y-91006842D01*
X117647990Y-90736589D01*
X117485475Y-90493368D01*
X117278632Y-90286525D01*
X117104240Y-90170000D01*
X117278632Y-90053475D01*
X117485475Y-89846632D01*
X117647990Y-89603411D01*
X117759932Y-89333158D01*
X117817000Y-89046260D01*
X117817000Y-88753740D01*
X117759932Y-88466842D01*
X117647990Y-88196589D01*
X117485475Y-87953368D01*
X117278632Y-87746525D01*
X117104240Y-87630000D01*
X117278632Y-87513475D01*
X117485475Y-87306632D01*
X117647990Y-87063411D01*
X117759932Y-86793158D01*
X117817000Y-86506260D01*
X117817000Y-86213740D01*
X117759932Y-85926842D01*
X117647990Y-85656589D01*
X117485475Y-85413368D01*
X117278632Y-85206525D01*
X117104240Y-85090000D01*
X117278632Y-84973475D01*
X117485475Y-84766632D01*
X117647990Y-84523411D01*
X117759932Y-84253158D01*
X117817000Y-83966260D01*
X117817000Y-83673740D01*
X117759932Y-83386842D01*
X117647990Y-83116589D01*
X117485475Y-82873368D01*
X117278632Y-82666525D01*
X117104240Y-82550000D01*
X117278632Y-82433475D01*
X117485475Y-82226632D01*
X117647990Y-81983411D01*
X117759932Y-81713158D01*
X117817000Y-81426260D01*
X117817000Y-81133740D01*
X117759932Y-80846842D01*
X117647990Y-80576589D01*
X117485475Y-80333368D01*
X117278632Y-80126525D01*
X117104240Y-80010000D01*
X117278632Y-79893475D01*
X117485475Y-79686632D01*
X117647990Y-79443411D01*
X117759932Y-79173158D01*
X117817000Y-78886260D01*
X117817000Y-78593740D01*
X117759932Y-78306842D01*
X117647990Y-78036589D01*
X117485475Y-77793368D01*
X117278632Y-77586525D01*
X117035411Y-77424010D01*
X116765158Y-77312068D01*
X116478260Y-77255000D01*
X116185740Y-77255000D01*
X115898842Y-77312068D01*
X115628589Y-77424010D01*
X115385368Y-77586525D01*
X115178525Y-77793368D01*
X115016010Y-78036589D01*
X114904068Y-78306842D01*
X114847000Y-78593740D01*
X114847000Y-78886260D01*
X114904068Y-79173158D01*
X115016010Y-79443411D01*
X115178525Y-79686632D01*
X115385368Y-79893475D01*
X115559760Y-80010000D01*
X115385368Y-80126525D01*
X115178525Y-80333368D01*
X115016010Y-80576589D01*
X114904068Y-80846842D01*
X114847000Y-81133740D01*
X114847000Y-81426260D01*
X114904068Y-81713158D01*
X115016010Y-81983411D01*
X115178525Y-82226632D01*
X115385368Y-82433475D01*
X115559760Y-82550000D01*
X115385368Y-82666525D01*
X115178525Y-82873368D01*
X115016010Y-83116589D01*
X114904068Y-83386842D01*
X114847000Y-83673740D01*
X114847000Y-83966260D01*
X114904068Y-84253158D01*
X115016010Y-84523411D01*
X115178525Y-84766632D01*
X115385368Y-84973475D01*
X115559760Y-85090000D01*
X115385368Y-85206525D01*
X115178525Y-85413368D01*
X115016010Y-85656589D01*
X114904068Y-85926842D01*
X114847000Y-86213740D01*
X114847000Y-86506260D01*
X114904068Y-86793158D01*
X115016010Y-87063411D01*
X115178525Y-87306632D01*
X115385368Y-87513475D01*
X115559760Y-87630000D01*
X115385368Y-87746525D01*
X115178525Y-87953368D01*
X115016010Y-88196589D01*
X114904068Y-88466842D01*
X114847000Y-88753740D01*
X114847000Y-89046260D01*
X114904068Y-89333158D01*
X115016010Y-89603411D01*
X115178525Y-89846632D01*
X115385368Y-90053475D01*
X115559760Y-90170000D01*
X115385368Y-90286525D01*
X115178525Y-90493368D01*
X115016010Y-90736589D01*
X114904068Y-91006842D01*
X114847000Y-91293740D01*
X114847000Y-91586260D01*
X114904068Y-91873158D01*
X115016010Y-92143411D01*
X115178525Y-92386632D01*
X115385368Y-92593475D01*
X115559760Y-92710000D01*
X115385368Y-92826525D01*
X115178525Y-93033368D01*
X115016010Y-93276589D01*
X114904068Y-93546842D01*
X114847000Y-93833740D01*
X114847000Y-93960198D01*
X111434804Y-90548003D01*
X111434799Y-90547997D01*
X110545803Y-89659002D01*
X110522001Y-89629999D01*
X110406276Y-89535026D01*
X110274247Y-89464454D01*
X110130986Y-89420997D01*
X110019333Y-89410000D01*
X110019322Y-89410000D01*
X109982000Y-89406324D01*
X109944678Y-89410000D01*
X108720178Y-89410000D01*
X108595475Y-89223368D01*
X108388632Y-89016525D01*
X108145411Y-88854010D01*
X107875158Y-88742068D01*
X107588260Y-88685000D01*
X107295740Y-88685000D01*
X107008842Y-88742068D01*
X106738589Y-88854010D01*
X106495368Y-89016525D01*
X106288525Y-89223368D01*
X106126010Y-89466589D01*
X106014068Y-89736842D01*
X105957000Y-90023740D01*
X105957000Y-90316260D01*
X106014068Y-90603158D01*
X106126010Y-90873411D01*
X106288525Y-91116632D01*
X106495368Y-91323475D01*
X106669760Y-91440000D01*
X106495368Y-91556525D01*
X106288525Y-91763368D01*
X106126010Y-92006589D01*
X106014068Y-92276842D01*
X105957000Y-92563740D01*
X105957000Y-92856260D01*
X106014068Y-93143158D01*
X106126010Y-93413411D01*
X106288525Y-93656632D01*
X106495368Y-93863475D01*
X106677534Y-93985195D01*
X106560645Y-94054822D01*
X106344412Y-94249731D01*
X106170359Y-94483080D01*
X106045175Y-94745901D01*
X106000524Y-94893110D01*
X106121845Y-95123000D01*
X107315000Y-95123000D01*
X107315000Y-95103000D01*
X107569000Y-95103000D01*
X107569000Y-95123000D01*
X108762155Y-95123000D01*
X108883476Y-94893110D01*
X108838825Y-94745901D01*
X108713641Y-94483080D01*
X108539588Y-94249731D01*
X108323355Y-94054822D01*
X108206466Y-93985195D01*
X108388632Y-93863475D01*
X108595475Y-93656632D01*
X108757990Y-93413411D01*
X108869932Y-93143158D01*
X108927000Y-92856260D01*
X108927000Y-92563740D01*
X108869932Y-92276842D01*
X108757990Y-92006589D01*
X108595475Y-91763368D01*
X108388632Y-91556525D01*
X108214240Y-91440000D01*
X108388632Y-91323475D01*
X108595475Y-91116632D01*
X108720178Y-90930000D01*
X109667199Y-90930000D01*
X110359997Y-91622799D01*
X110360003Y-91622804D01*
X114890790Y-96153592D01*
X114847000Y-96373740D01*
X114847000Y-96666260D01*
X114904068Y-96953158D01*
X115016010Y-97223411D01*
X115178525Y-97466632D01*
X115385368Y-97673475D01*
X115559760Y-97790000D01*
X115385368Y-97906525D01*
X115178525Y-98113368D01*
X115016010Y-98356589D01*
X114904068Y-98626842D01*
X114847000Y-98913740D01*
X114847000Y-99206260D01*
X114904068Y-99493158D01*
X115016010Y-99763411D01*
X115178525Y-100006632D01*
X115385368Y-100213475D01*
X115559760Y-100330000D01*
X115385368Y-100446525D01*
X115178525Y-100653368D01*
X115016010Y-100896589D01*
X114904068Y-101166842D01*
X114847000Y-101453740D01*
X114847000Y-101746260D01*
X114904068Y-102033158D01*
X115016010Y-102303411D01*
X115178525Y-102546632D01*
X115385368Y-102753475D01*
X115559760Y-102870000D01*
X115385368Y-102986525D01*
X115178525Y-103193368D01*
X115016010Y-103436589D01*
X114904068Y-103706842D01*
X114847000Y-103993740D01*
X114847000Y-104286260D01*
X114890790Y-104506408D01*
X113731199Y-105666000D01*
X111768178Y-105666000D01*
X111643475Y-105479368D01*
X111436632Y-105272525D01*
X111262240Y-105156000D01*
X111436632Y-105039475D01*
X111643475Y-104832632D01*
X111805990Y-104589411D01*
X111917932Y-104319158D01*
X111975000Y-104032260D01*
X111975000Y-103739740D01*
X111917932Y-103452842D01*
X111805990Y-103182589D01*
X111643475Y-102939368D01*
X111436632Y-102732525D01*
X111193411Y-102570010D01*
X110923158Y-102458068D01*
X110636260Y-102401000D01*
X110343740Y-102401000D01*
X110056842Y-102458068D01*
X109786589Y-102570010D01*
X109543368Y-102732525D01*
X109336525Y-102939368D01*
X109174010Y-103182589D01*
X109062068Y-103452842D01*
X109005000Y-103739740D01*
X109005000Y-104032260D01*
X109048790Y-104252408D01*
X107381199Y-105920000D01*
X103923322Y-105920000D01*
X103885999Y-105916324D01*
X103848676Y-105920000D01*
X103848667Y-105920000D01*
X103737014Y-105930997D01*
X103593753Y-105974454D01*
X103461724Y-106045026D01*
X103345999Y-106139999D01*
X103322201Y-106168997D01*
X99988199Y-109503000D01*
X98544686Y-109503000D01*
X98543000Y-109338750D01*
X98384250Y-109180000D01*
X97135000Y-109180000D01*
X97135000Y-109200000D01*
X96881000Y-109200000D01*
X96881000Y-109180000D01*
X95631750Y-109180000D01*
X95473000Y-109338750D01*
X95469928Y-109638000D01*
X95482188Y-109762482D01*
X95482345Y-109763000D01*
X95482188Y-109763518D01*
X95469928Y-109888000D01*
X95469928Y-110638000D01*
X95482188Y-110762482D01*
X95482345Y-110763000D01*
X95482188Y-110763518D01*
X95469928Y-110888000D01*
X95469928Y-111738000D01*
X95482188Y-111862482D01*
X95482345Y-111863000D01*
X95482188Y-111863518D01*
X95469928Y-111988000D01*
X95473000Y-112127250D01*
X95631750Y-112286000D01*
X95786176Y-112286000D01*
X95863820Y-112327502D01*
X95983518Y-112363812D01*
X96108000Y-112376072D01*
X97208000Y-112376072D01*
X97332482Y-112363812D01*
X97452180Y-112327502D01*
X97529824Y-112286000D01*
X97684250Y-112286000D01*
X97843000Y-112127250D01*
X97844197Y-112073000D01*
X100457177Y-112073000D01*
X100494499Y-112076676D01*
X100531821Y-112073000D01*
X100531832Y-112073000D01*
X100643485Y-112062003D01*
X100755579Y-112028000D01*
X106169928Y-112028000D01*
X106182188Y-112152482D01*
X106218498Y-112272180D01*
X106277463Y-112382494D01*
X106356815Y-112479185D01*
X106453506Y-112558537D01*
X106563820Y-112617502D01*
X106683518Y-112653812D01*
X106808000Y-112666072D01*
X107197250Y-112663000D01*
X107356000Y-112504250D01*
X107356000Y-111205000D01*
X107610000Y-111205000D01*
X107610000Y-112504250D01*
X107768750Y-112663000D01*
X108158000Y-112666072D01*
X108282482Y-112653812D01*
X108402180Y-112617502D01*
X108512494Y-112558537D01*
X108609185Y-112479185D01*
X108688537Y-112382494D01*
X108747502Y-112272180D01*
X108783812Y-112152482D01*
X108796072Y-112028000D01*
X108793000Y-111363750D01*
X108634250Y-111205000D01*
X107610000Y-111205000D01*
X107356000Y-111205000D01*
X106331750Y-111205000D01*
X106173000Y-111363750D01*
X106169928Y-112028000D01*
X100755579Y-112028000D01*
X100786746Y-112018546D01*
X100918775Y-111947974D01*
X101034500Y-111853001D01*
X101058303Y-111823997D01*
X102754301Y-110128000D01*
X106169928Y-110128000D01*
X106173000Y-110792250D01*
X106331750Y-110951000D01*
X107356000Y-110951000D01*
X107356000Y-109651750D01*
X107610000Y-109651750D01*
X107610000Y-110951000D01*
X108634250Y-110951000D01*
X108793000Y-110792250D01*
X108796072Y-110128000D01*
X108783812Y-110003518D01*
X108747502Y-109883820D01*
X108688537Y-109773506D01*
X108609185Y-109676815D01*
X108512494Y-109597463D01*
X108402180Y-109538498D01*
X108282482Y-109502188D01*
X108158000Y-109489928D01*
X107768750Y-109493000D01*
X107610000Y-109651750D01*
X107356000Y-109651750D01*
X107197250Y-109493000D01*
X106808000Y-109489928D01*
X106683518Y-109502188D01*
X106563820Y-109538498D01*
X106453506Y-109597463D01*
X106356815Y-109676815D01*
X106277463Y-109773506D01*
X106218498Y-109883820D01*
X106182188Y-110003518D01*
X106169928Y-110128000D01*
X102754301Y-110128000D01*
X104426302Y-108456000D01*
X109095986Y-108456000D01*
X109093175Y-108461901D01*
X109048524Y-108609110D01*
X109169845Y-108839000D01*
X110363000Y-108839000D01*
X110363000Y-108819000D01*
X110617000Y-108819000D01*
X110617000Y-108839000D01*
X111810155Y-108839000D01*
X111931476Y-108609110D01*
X111886825Y-108461901D01*
X111761641Y-108199080D01*
X111587588Y-107965731D01*
X111371355Y-107770822D01*
X111254466Y-107701195D01*
X111436632Y-107579475D01*
X111643475Y-107372632D01*
X111768178Y-107186000D01*
X113549117Y-107186000D01*
X113026998Y-107708120D01*
X112998000Y-107731918D01*
X112974202Y-107760916D01*
X112974201Y-107760917D01*
X112903026Y-107847643D01*
X112832454Y-107979673D01*
X112810533Y-108051939D01*
X112788998Y-108122933D01*
X112788398Y-108129024D01*
X112774324Y-108271919D01*
X112778001Y-108309251D01*
X112778000Y-116779198D01*
X111510653Y-118046546D01*
X111436632Y-117972525D01*
X111254466Y-117850805D01*
X111371355Y-117781178D01*
X111587588Y-117586269D01*
X111761641Y-117352920D01*
X111886825Y-117090099D01*
X111931476Y-116942890D01*
X111810155Y-116713000D01*
X110617000Y-116713000D01*
X110617000Y-116733000D01*
X110363000Y-116733000D01*
X110363000Y-116713000D01*
X109169845Y-116713000D01*
X109048524Y-116942890D01*
X109093175Y-117090099D01*
X109218359Y-117352920D01*
X109386692Y-117578600D01*
X108794132Y-117578600D01*
X108793000Y-117333750D01*
X108634250Y-117175000D01*
X107610000Y-117175000D01*
X107610000Y-117195000D01*
X107356000Y-117195000D01*
X107356000Y-117175000D01*
X106331750Y-117175000D01*
X106173000Y-117333750D01*
X106171868Y-117578600D01*
X100365402Y-117578600D01*
X98884802Y-116098000D01*
X106169928Y-116098000D01*
X106173000Y-116762250D01*
X106331750Y-116921000D01*
X107356000Y-116921000D01*
X107356000Y-115621750D01*
X107610000Y-115621750D01*
X107610000Y-116921000D01*
X108634250Y-116921000D01*
X108793000Y-116762250D01*
X108796072Y-116098000D01*
X108783812Y-115973518D01*
X108747502Y-115853820D01*
X108688537Y-115743506D01*
X108609185Y-115646815D01*
X108512494Y-115567463D01*
X108402180Y-115508498D01*
X108282482Y-115472188D01*
X108158000Y-115459928D01*
X107768750Y-115463000D01*
X107610000Y-115621750D01*
X107356000Y-115621750D01*
X107197250Y-115463000D01*
X106808000Y-115459928D01*
X106683518Y-115472188D01*
X106563820Y-115508498D01*
X106453506Y-115567463D01*
X106356815Y-115646815D01*
X106277463Y-115743506D01*
X106218498Y-115853820D01*
X106182188Y-115973518D01*
X106169928Y-116098000D01*
X98884802Y-116098000D01*
X98159801Y-115373000D01*
X108996678Y-115373000D01*
X109034000Y-115376676D01*
X109071322Y-115373000D01*
X109071333Y-115373000D01*
X109182986Y-115362003D01*
X109326247Y-115318546D01*
X109458276Y-115247974D01*
X109531650Y-115187757D01*
X109543368Y-115199475D01*
X109725534Y-115321195D01*
X109608645Y-115390822D01*
X109392412Y-115585731D01*
X109218359Y-115819080D01*
X109093175Y-116081901D01*
X109048524Y-116229110D01*
X109169845Y-116459000D01*
X110363000Y-116459000D01*
X110363000Y-116439000D01*
X110617000Y-116439000D01*
X110617000Y-116459000D01*
X111810155Y-116459000D01*
X111931476Y-116229110D01*
X111886825Y-116081901D01*
X111761641Y-115819080D01*
X111587588Y-115585731D01*
X111371355Y-115390822D01*
X111254466Y-115321195D01*
X111436632Y-115199475D01*
X111643475Y-114992632D01*
X111805990Y-114749411D01*
X111917932Y-114479158D01*
X111975000Y-114192260D01*
X111975000Y-113899740D01*
X111917932Y-113612842D01*
X111805990Y-113342589D01*
X111643475Y-113099368D01*
X111436632Y-112892525D01*
X111262240Y-112776000D01*
X111436632Y-112659475D01*
X111643475Y-112452632D01*
X111805990Y-112209411D01*
X111917932Y-111939158D01*
X111975000Y-111652260D01*
X111975000Y-111359740D01*
X111917932Y-111072842D01*
X111805990Y-110802589D01*
X111643475Y-110559368D01*
X111436632Y-110352525D01*
X111254466Y-110230805D01*
X111371355Y-110161178D01*
X111587588Y-109966269D01*
X111761641Y-109732920D01*
X111886825Y-109470099D01*
X111931476Y-109322890D01*
X111810155Y-109093000D01*
X110617000Y-109093000D01*
X110617000Y-109113000D01*
X110363000Y-109113000D01*
X110363000Y-109093000D01*
X109169845Y-109093000D01*
X109048524Y-109322890D01*
X109093175Y-109470099D01*
X109218359Y-109732920D01*
X109392412Y-109966269D01*
X109608645Y-110161178D01*
X109725534Y-110230805D01*
X109543368Y-110352525D01*
X109336525Y-110559368D01*
X109174010Y-110802589D01*
X109062068Y-111072842D01*
X109005000Y-111359740D01*
X109005000Y-111652260D01*
X109062068Y-111939158D01*
X109150221Y-112151978D01*
X108549199Y-112753000D01*
X97844197Y-112753000D01*
X97843000Y-112698750D01*
X97684250Y-112540000D01*
X97529824Y-112540000D01*
X97452180Y-112498498D01*
X97332482Y-112462188D01*
X97208000Y-112449928D01*
X96108000Y-112449928D01*
X95983518Y-112462188D01*
X95863820Y-112498498D01*
X95786176Y-112540000D01*
X95631750Y-112540000D01*
X95473000Y-112698750D01*
X95469928Y-112838000D01*
X95482188Y-112962482D01*
X95482345Y-112963000D01*
X95482188Y-112963518D01*
X95469928Y-113088000D01*
X95469928Y-113173095D01*
X95444454Y-113220753D01*
X95400997Y-113364014D01*
X95386323Y-113513000D01*
X95198000Y-113513000D01*
X95198000Y-108468000D01*
X95469928Y-108468000D01*
X95473000Y-108767250D01*
X95631750Y-108926000D01*
X96881000Y-108926000D01*
X96881000Y-107991750D01*
X97135000Y-107991750D01*
X97135000Y-108926000D01*
X98384250Y-108926000D01*
X98543000Y-108767250D01*
X98546072Y-108468000D01*
X98533812Y-108343518D01*
X98497502Y-108223820D01*
X98438537Y-108113506D01*
X98359185Y-108016815D01*
X98262494Y-107937463D01*
X98152180Y-107878498D01*
X98032482Y-107842188D01*
X97908000Y-107829928D01*
X97293750Y-107833000D01*
X97135000Y-107991750D01*
X96881000Y-107991750D01*
X96722250Y-107833000D01*
X96108000Y-107829928D01*
X95983518Y-107842188D01*
X95863820Y-107878498D01*
X95753506Y-107937463D01*
X95656815Y-108016815D01*
X95577463Y-108113506D01*
X95518498Y-108223820D01*
X95482188Y-108343518D01*
X95469928Y-108468000D01*
X95198000Y-108468000D01*
X95198000Y-96940000D01*
X105953928Y-96940000D01*
X105953928Y-98640000D01*
X105966188Y-98764482D01*
X106002498Y-98884180D01*
X106061463Y-98994494D01*
X106140815Y-99091185D01*
X106237506Y-99170537D01*
X106347820Y-99229502D01*
X106467518Y-99265812D01*
X106592000Y-99278072D01*
X108292000Y-99278072D01*
X108416482Y-99265812D01*
X108536180Y-99229502D01*
X108646494Y-99170537D01*
X108743185Y-99091185D01*
X108822537Y-98994494D01*
X108881502Y-98884180D01*
X108917812Y-98764482D01*
X108930072Y-98640000D01*
X108930072Y-96940000D01*
X108917812Y-96815518D01*
X108881502Y-96695820D01*
X108822537Y-96585506D01*
X108743185Y-96488815D01*
X108646494Y-96409463D01*
X108536180Y-96350498D01*
X108455534Y-96326034D01*
X108539588Y-96250269D01*
X108713641Y-96016920D01*
X108838825Y-95754099D01*
X108883476Y-95606890D01*
X108762155Y-95377000D01*
X107569000Y-95377000D01*
X107569000Y-95397000D01*
X107315000Y-95397000D01*
X107315000Y-95377000D01*
X106121845Y-95377000D01*
X106000524Y-95606890D01*
X106045175Y-95754099D01*
X106170359Y-96016920D01*
X106344412Y-96250269D01*
X106428466Y-96326034D01*
X106347820Y-96350498D01*
X106237506Y-96409463D01*
X106140815Y-96488815D01*
X106061463Y-96585506D01*
X106002498Y-96695820D01*
X105966188Y-96815518D01*
X105953928Y-96940000D01*
X95198000Y-96940000D01*
X95198000Y-86228514D01*
X104710000Y-86228514D01*
X104710000Y-86491486D01*
X104761304Y-86749405D01*
X104861939Y-86992359D01*
X105008038Y-87211013D01*
X105193987Y-87396962D01*
X105412641Y-87543061D01*
X105655595Y-87643696D01*
X105913514Y-87695000D01*
X106176486Y-87695000D01*
X106434405Y-87643696D01*
X106677359Y-87543061D01*
X106896013Y-87396962D01*
X107081962Y-87211013D01*
X107228061Y-86992359D01*
X107328696Y-86749405D01*
X107380000Y-86491486D01*
X107380000Y-86228514D01*
X107328696Y-85970595D01*
X107228061Y-85727641D01*
X107081962Y-85508987D01*
X106896013Y-85323038D01*
X106677359Y-85176939D01*
X106434405Y-85076304D01*
X106176486Y-85025000D01*
X105913514Y-85025000D01*
X105655595Y-85076304D01*
X105412641Y-85176939D01*
X105193987Y-85323038D01*
X105008038Y-85508987D01*
X104861939Y-85727641D01*
X104761304Y-85970595D01*
X104710000Y-86228514D01*
X95198000Y-86228514D01*
X95198000Y-80380000D01*
X97521928Y-80380000D01*
X97521928Y-82180000D01*
X97534188Y-82304482D01*
X97570498Y-82424180D01*
X97629463Y-82534494D01*
X97708815Y-82631185D01*
X97805506Y-82710537D01*
X97915820Y-82769502D01*
X98035518Y-82805812D01*
X98160000Y-82818072D01*
X99960000Y-82818072D01*
X100084482Y-82805812D01*
X100204180Y-82769502D01*
X100314494Y-82710537D01*
X100411185Y-82631185D01*
X100490537Y-82534494D01*
X100549502Y-82424180D01*
X100585812Y-82304482D01*
X100598072Y-82180000D01*
X100598072Y-80380000D01*
X100585812Y-80255518D01*
X100549502Y-80135820D01*
X100490537Y-80025506D01*
X100411185Y-79928815D01*
X100314494Y-79849463D01*
X100204180Y-79790498D01*
X100185873Y-79784944D01*
X100252312Y-79718505D01*
X100420299Y-79467095D01*
X100536011Y-79187743D01*
X100595000Y-78891184D01*
X100595000Y-78608514D01*
X104710000Y-78608514D01*
X104710000Y-78871486D01*
X104761304Y-79129405D01*
X104861939Y-79372359D01*
X105008038Y-79591013D01*
X105193987Y-79776962D01*
X105412641Y-79923061D01*
X105655595Y-80023696D01*
X105913514Y-80075000D01*
X106176486Y-80075000D01*
X106434405Y-80023696D01*
X106677359Y-79923061D01*
X106896013Y-79776962D01*
X107081962Y-79591013D01*
X107228061Y-79372359D01*
X107328696Y-79129405D01*
X107380000Y-78871486D01*
X107380000Y-78608514D01*
X107328696Y-78350595D01*
X107228061Y-78107641D01*
X107081962Y-77888987D01*
X106896013Y-77703038D01*
X106677359Y-77556939D01*
X106434405Y-77456304D01*
X106176486Y-77405000D01*
X105913514Y-77405000D01*
X105655595Y-77456304D01*
X105412641Y-77556939D01*
X105193987Y-77703038D01*
X105008038Y-77888987D01*
X104861939Y-78107641D01*
X104761304Y-78350595D01*
X104710000Y-78608514D01*
X100595000Y-78608514D01*
X100595000Y-78588816D01*
X100536011Y-78292257D01*
X100420299Y-78012905D01*
X100252312Y-77761495D01*
X100038505Y-77547688D01*
X99787095Y-77379701D01*
X99507743Y-77263989D01*
X99211184Y-77205000D01*
X98908816Y-77205000D01*
X98612257Y-77263989D01*
X98332905Y-77379701D01*
X98081495Y-77547688D01*
X97867688Y-77761495D01*
X97699701Y-78012905D01*
X97583989Y-78292257D01*
X97525000Y-78588816D01*
X97525000Y-78891184D01*
X97583989Y-79187743D01*
X97699701Y-79467095D01*
X97867688Y-79718505D01*
X97934127Y-79784944D01*
X97915820Y-79790498D01*
X97805506Y-79849463D01*
X97708815Y-79928815D01*
X97629463Y-80025506D01*
X97570498Y-80135820D01*
X97534188Y-80255518D01*
X97521928Y-80380000D01*
X95198000Y-80380000D01*
X95198000Y-72636990D01*
X95315316Y-72920215D01*
X95558187Y-73283697D01*
X95867303Y-73592813D01*
X96230785Y-73835684D01*
X96634665Y-74002977D01*
X97063422Y-74088262D01*
X97500578Y-74088262D01*
X97929335Y-74002977D01*
X98333215Y-73835684D01*
X98696697Y-73592813D01*
X99005813Y-73283697D01*
X99248684Y-72920215D01*
X99415977Y-72516335D01*
X99501262Y-72087578D01*
X99501262Y-71650422D01*
X99415977Y-71221665D01*
X99248684Y-70817785D01*
X99005813Y-70454303D01*
X98696697Y-70145187D01*
X98367164Y-69925000D01*
X134296836Y-69925000D01*
X133967303Y-70145187D01*
%TA.AperFunction,Conductor*%
D35*
G36*
X133967303Y-70145187D02*
G01*
X133658187Y-70454303D01*
X133415316Y-70817785D01*
X133248023Y-71221665D01*
X133162738Y-71650422D01*
X133162738Y-72087578D01*
X133248023Y-72516335D01*
X133415316Y-72920215D01*
X133658187Y-73283697D01*
X133967303Y-73592813D01*
X134330785Y-73835684D01*
X134734665Y-74002977D01*
X135163422Y-74088262D01*
X135600578Y-74088262D01*
X136029335Y-74002977D01*
X136433215Y-73835684D01*
X136796697Y-73592813D01*
X137105813Y-73283697D01*
X137348684Y-72920215D01*
X137515977Y-72516335D01*
X137601262Y-72087578D01*
X137601262Y-71650422D01*
X137515977Y-71221665D01*
X137348684Y-70817785D01*
X137105813Y-70454303D01*
X136796697Y-70145187D01*
X136467164Y-69925000D01*
X163795280Y-69925000D01*
X164184785Y-69963191D01*
X164526060Y-70066228D01*
X164840822Y-70233590D01*
X165117083Y-70458903D01*
X165344317Y-70733582D01*
X165513870Y-71047164D01*
X165619286Y-71387708D01*
X165660001Y-71775082D01*
X165660000Y-133950280D01*
X165621809Y-134339784D01*
X165518771Y-134681063D01*
X165351409Y-134995825D01*
X165126097Y-135272083D01*
X164851418Y-135499317D01*
X164537838Y-135668869D01*
X164197288Y-135774287D01*
X163809928Y-135815000D01*
X136467164Y-135815000D01*
X136796697Y-135594813D01*
X137105813Y-135285697D01*
X137348684Y-134922215D01*
X137515977Y-134518335D01*
X137601262Y-134089578D01*
X137601262Y-133706890D01*
X149558524Y-133706890D01*
X149603175Y-133854099D01*
X149728359Y-134116920D01*
X149902412Y-134350269D01*
X150118645Y-134545178D01*
X150368748Y-134694157D01*
X150643109Y-134791481D01*
X150873000Y-134670814D01*
X150873000Y-133477000D01*
X149679845Y-133477000D01*
X149558524Y-133706890D01*
X137601262Y-133706890D01*
X137601262Y-133652422D01*
X137515977Y-133223665D01*
X137348684Y-132819785D01*
X137105813Y-132456303D01*
X136796697Y-132147187D01*
X136433215Y-131904316D01*
X136029335Y-131737023D01*
X135600578Y-131651738D01*
X135163422Y-131651738D01*
X134734665Y-131737023D01*
X134330785Y-131904316D01*
X133967303Y-132147187D01*
X133658187Y-132456303D01*
X133415316Y-132819785D01*
X133248023Y-133223665D01*
X133162738Y-133652422D01*
X133162738Y-134089578D01*
X133248023Y-134518335D01*
X133415316Y-134922215D01*
X133658187Y-135285697D01*
X133967303Y-135594813D01*
X134296836Y-135815000D01*
X98367164Y-135815000D01*
X98696697Y-135594813D01*
X99005813Y-135285697D01*
X99248684Y-134922215D01*
X99415977Y-134518335D01*
X99501262Y-134089578D01*
X99501262Y-133652422D01*
X99415977Y-133223665D01*
X99248684Y-132819785D01*
X99005813Y-132456303D01*
X98696697Y-132147187D01*
X98333215Y-131904316D01*
X97929335Y-131737023D01*
X97500578Y-131651738D01*
X97063422Y-131651738D01*
X96634665Y-131737023D01*
X96230785Y-131904316D01*
X95867303Y-132147187D01*
X95558187Y-132456303D01*
X95315316Y-132819785D01*
X95198000Y-133103010D01*
X95198000Y-128028397D01*
X115483208Y-128028397D01*
X115560843Y-128277472D01*
X115824883Y-128403371D01*
X116108411Y-128475339D01*
X116400531Y-128490611D01*
X116690019Y-128448599D01*
X116965747Y-128350919D01*
X117103157Y-128277472D01*
X117180792Y-128028397D01*
X116332000Y-127179605D01*
X115483208Y-128028397D01*
X95198000Y-128028397D01*
X95198000Y-127068531D01*
X114841389Y-127068531D01*
X114883401Y-127358019D01*
X114981081Y-127633747D01*
X115054528Y-127771157D01*
X115303603Y-127848792D01*
X116152395Y-127000000D01*
X116511605Y-127000000D01*
X117360397Y-127848792D01*
X117609472Y-127771157D01*
X117735371Y-127507117D01*
X117807339Y-127223589D01*
X117822611Y-126931469D01*
X117780599Y-126641981D01*
X117682919Y-126366253D01*
X117609472Y-126228843D01*
X117360397Y-126151208D01*
X116511605Y-127000000D01*
X116152395Y-127000000D01*
X115303603Y-126151208D01*
X115054528Y-126228843D01*
X114928629Y-126492883D01*
X114856661Y-126776411D01*
X114841389Y-127068531D01*
X95198000Y-127068531D01*
X95198000Y-121148000D01*
X95469928Y-121148000D01*
X95482188Y-121272482D01*
X95518498Y-121392180D01*
X95577463Y-121502494D01*
X95656815Y-121599185D01*
X95753506Y-121678537D01*
X95863820Y-121737502D01*
X95983518Y-121773812D01*
X96108000Y-121786072D01*
X96497250Y-121783000D01*
X96656000Y-121624250D01*
X96656000Y-120500000D01*
X96910000Y-120500000D01*
X96910000Y-121624250D01*
X97068750Y-121783000D01*
X97458000Y-121786072D01*
X97582482Y-121773812D01*
X97702180Y-121737502D01*
X97812494Y-121678537D01*
X97909185Y-121599185D01*
X97988537Y-121502494D01*
X98047502Y-121392180D01*
X98083812Y-121272482D01*
X98096072Y-121148000D01*
X101669928Y-121148000D01*
X101682188Y-121272482D01*
X101718498Y-121392180D01*
X101777463Y-121502494D01*
X101856815Y-121599185D01*
X101953506Y-121678537D01*
X102063820Y-121737502D01*
X102183518Y-121773812D01*
X102308000Y-121786072D01*
X102522250Y-121783000D01*
X102681000Y-121624250D01*
X102681000Y-120675000D01*
X102935000Y-120675000D01*
X102935000Y-121624250D01*
X103093750Y-121783000D01*
X103308000Y-121786072D01*
X103432482Y-121773812D01*
X103552180Y-121737502D01*
X103662494Y-121678537D01*
X103759185Y-121599185D01*
X103838537Y-121502494D01*
X103897502Y-121392180D01*
X103933812Y-121272482D01*
X103946072Y-121148000D01*
X105369928Y-121148000D01*
X105382188Y-121272482D01*
X105418498Y-121392180D01*
X105477463Y-121502494D01*
X105556815Y-121599185D01*
X105653506Y-121678537D01*
X105763820Y-121737502D01*
X105883518Y-121773812D01*
X106008000Y-121786072D01*
X106222250Y-121783000D01*
X106381000Y-121624250D01*
X106381000Y-120675000D01*
X105531750Y-120675000D01*
X105373000Y-120833750D01*
X105369928Y-121148000D01*
X103946072Y-121148000D01*
X103943000Y-120833750D01*
X103784250Y-120675000D01*
X102935000Y-120675000D01*
X102681000Y-120675000D01*
X101831750Y-120675000D01*
X101673000Y-120833750D01*
X101669928Y-121148000D01*
X98096072Y-121148000D01*
X98093000Y-120658750D01*
X97934250Y-120500000D01*
X96910000Y-120500000D01*
X96656000Y-120500000D01*
X95631750Y-120500000D01*
X95473000Y-120658750D01*
X95469928Y-121148000D01*
X95198000Y-121148000D01*
X95198000Y-113513000D01*
X95386323Y-113513000D01*
X95400997Y-113661986D01*
X95444454Y-113805247D01*
X95469928Y-113852905D01*
X95469928Y-113938000D01*
X95482188Y-114062482D01*
X95482345Y-114063000D01*
X95482188Y-114063518D01*
X95469928Y-114188000D01*
X95469928Y-114273095D01*
X95444454Y-114320753D01*
X95400997Y-114464014D01*
X95386323Y-114613000D01*
X95400997Y-114761986D01*
X95444454Y-114905247D01*
X95469928Y-114952905D01*
X95469928Y-115038000D01*
X95482188Y-115162482D01*
X95482345Y-115163000D01*
X95482188Y-115163518D01*
X95469928Y-115288000D01*
X95469928Y-116138000D01*
X95482188Y-116262482D01*
X95482345Y-116263000D01*
X95482188Y-116263518D01*
X95469928Y-116388000D01*
X95469928Y-117238000D01*
X95482188Y-117362482D01*
X95482345Y-117363000D01*
X95482188Y-117363518D01*
X95469928Y-117488000D01*
X95469928Y-118338000D01*
X95482188Y-118462482D01*
X95518498Y-118582180D01*
X95577463Y-118692494D01*
X95656815Y-118789185D01*
X95753506Y-118868537D01*
X95863820Y-118927502D01*
X95983518Y-118963812D01*
X96026041Y-118968000D01*
X95983518Y-118972188D01*
X95863820Y-119008498D01*
X95753506Y-119067463D01*
X95656815Y-119146815D01*
X95577463Y-119243506D01*
X95518498Y-119353820D01*
X95482188Y-119473518D01*
X95469928Y-119598000D01*
X95473000Y-120087250D01*
X95631750Y-120246000D01*
X96656000Y-120246000D01*
X96656000Y-120226000D01*
X96910000Y-120226000D01*
X96910000Y-120246000D01*
X97934250Y-120246000D01*
X97941820Y-120238430D01*
X98035953Y-120288746D01*
X98179214Y-120332203D01*
X98290867Y-120343200D01*
X98290876Y-120343200D01*
X98328199Y-120346876D01*
X98365522Y-120343200D01*
X101753950Y-120343200D01*
X101831750Y-120421000D01*
X102681000Y-120421000D01*
X102681000Y-120401000D01*
X102935000Y-120401000D01*
X102935000Y-120421000D01*
X103784250Y-120421000D01*
X103862050Y-120343200D01*
X105453950Y-120343200D01*
X105531750Y-120421000D01*
X106381000Y-120421000D01*
X106381000Y-120401000D01*
X106635000Y-120401000D01*
X106635000Y-120421000D01*
X106655000Y-120421000D01*
X106655000Y-120675000D01*
X106635000Y-120675000D01*
X106635000Y-121624250D01*
X106793750Y-121783000D01*
X107008000Y-121786072D01*
X107132482Y-121773812D01*
X107252180Y-121737502D01*
X107362494Y-121678537D01*
X107393200Y-121653337D01*
X107393200Y-121831877D01*
X107389524Y-121869200D01*
X107393200Y-121906522D01*
X107393200Y-121906532D01*
X107404197Y-122018185D01*
X107437819Y-122129024D01*
X107447654Y-122161446D01*
X107518226Y-122293476D01*
X107554190Y-122337298D01*
X107613199Y-122409201D01*
X107642203Y-122433004D01*
X109001928Y-123792730D01*
X109001928Y-125056000D01*
X109014188Y-125180482D01*
X109050498Y-125300180D01*
X109109463Y-125410494D01*
X109188815Y-125507185D01*
X109285506Y-125586537D01*
X109395820Y-125645502D01*
X109515518Y-125681812D01*
X109640000Y-125694072D01*
X111340000Y-125694072D01*
X111464482Y-125681812D01*
X111584180Y-125645502D01*
X111694494Y-125586537D01*
X111791185Y-125507185D01*
X111806603Y-125488397D01*
X115483208Y-125488397D01*
X115558514Y-125729999D01*
X115483208Y-125971603D01*
X116332000Y-126820395D01*
X117180792Y-125971603D01*
X117105486Y-125729999D01*
X117180792Y-125488397D01*
X116332000Y-124639605D01*
X115483208Y-125488397D01*
X111806603Y-125488397D01*
X111870537Y-125410494D01*
X111929502Y-125300180D01*
X111965812Y-125180482D01*
X111978072Y-125056000D01*
X111978072Y-124528531D01*
X114841389Y-124528531D01*
X114883401Y-124818019D01*
X114981081Y-125093747D01*
X115054528Y-125231157D01*
X115303603Y-125308792D01*
X116152395Y-124460000D01*
X116511605Y-124460000D01*
X117360397Y-125308792D01*
X117609472Y-125231157D01*
X117735371Y-124967117D01*
X117807339Y-124683589D01*
X117822611Y-124391469D01*
X117780599Y-124101981D01*
X117682919Y-123826253D01*
X117609472Y-123688843D01*
X117360397Y-123611208D01*
X116511605Y-124460000D01*
X116152395Y-124460000D01*
X115303603Y-123611208D01*
X115054528Y-123688843D01*
X114928629Y-123952883D01*
X114856661Y-124236411D01*
X114841389Y-124528531D01*
X111978072Y-124528531D01*
X111978072Y-123356000D01*
X111965812Y-123231518D01*
X111929502Y-123111820D01*
X111870537Y-123001506D01*
X111791185Y-122904815D01*
X111694494Y-122825463D01*
X111584180Y-122766498D01*
X111511620Y-122744487D01*
X111643475Y-122612632D01*
X111805990Y-122369411D01*
X111917932Y-122099158D01*
X111975000Y-121812260D01*
X111975000Y-121519740D01*
X111931209Y-121299592D01*
X115065004Y-118165798D01*
X115094001Y-118142001D01*
X115158007Y-118064010D01*
X115188974Y-118026277D01*
X115259546Y-117894247D01*
X115265735Y-117873842D01*
X115385368Y-117993475D01*
X115559760Y-118110000D01*
X115385368Y-118226525D01*
X115178525Y-118433368D01*
X115016010Y-118676589D01*
X114904068Y-118946842D01*
X114847000Y-119233740D01*
X114847000Y-119526260D01*
X114904068Y-119813158D01*
X115016010Y-120083411D01*
X115178525Y-120326632D01*
X115385368Y-120533475D01*
X115559760Y-120650000D01*
X115385368Y-120766525D01*
X115178525Y-120973368D01*
X115016010Y-121216589D01*
X114904068Y-121486842D01*
X114847000Y-121773740D01*
X114847000Y-122066260D01*
X114904068Y-122353158D01*
X115016010Y-122623411D01*
X115178525Y-122866632D01*
X115385368Y-123073475D01*
X115558729Y-123189311D01*
X115483208Y-123431603D01*
X116332000Y-124280395D01*
X117180792Y-123431603D01*
X117105271Y-123189311D01*
X117278632Y-123073475D01*
X117485475Y-122866632D01*
X117647990Y-122623411D01*
X117759932Y-122353158D01*
X117817000Y-122066260D01*
X117817000Y-121773740D01*
X117759932Y-121486842D01*
X117647990Y-121216589D01*
X117485475Y-120973368D01*
X117278632Y-120766525D01*
X117104240Y-120650000D01*
X117278632Y-120533475D01*
X117485475Y-120326632D01*
X117647990Y-120083411D01*
X117759932Y-119813158D01*
X117817000Y-119526260D01*
X117817000Y-119233740D01*
X117759932Y-118946842D01*
X117647990Y-118676589D01*
X117485475Y-118433368D01*
X117278632Y-118226525D01*
X117104240Y-118110000D01*
X117278632Y-117993475D01*
X117485475Y-117786632D01*
X117618531Y-117587500D01*
X120232295Y-117587500D01*
X120269000Y-117591115D01*
X120305705Y-117587500D01*
X120305715Y-117587500D01*
X120415535Y-117576684D01*
X120556440Y-117533941D01*
X120686298Y-117464530D01*
X120800119Y-117371119D01*
X120823529Y-117342594D01*
X126252501Y-111913623D01*
X126252501Y-119851285D01*
X126248885Y-119888000D01*
X126263317Y-120034535D01*
X126306059Y-120175439D01*
X126375470Y-120305298D01*
X126409593Y-120346876D01*
X126468882Y-120419119D01*
X126497401Y-120442524D01*
X130133723Y-124078848D01*
X130087000Y-124313740D01*
X130087000Y-124606260D01*
X130144068Y-124893158D01*
X130256010Y-125163411D01*
X130418525Y-125406632D01*
X130550380Y-125538487D01*
X130477820Y-125560498D01*
X130367506Y-125619463D01*
X130270815Y-125698815D01*
X130191463Y-125795506D01*
X130132498Y-125905820D01*
X130096188Y-126025518D01*
X130083928Y-126150000D01*
X130083928Y-127850000D01*
X130096188Y-127974482D01*
X130132498Y-128094180D01*
X130191463Y-128204494D01*
X130270815Y-128301185D01*
X130367506Y-128380537D01*
X130477820Y-128439502D01*
X130597518Y-128475812D01*
X130722000Y-128488072D01*
X132422000Y-128488072D01*
X132546482Y-128475812D01*
X132666180Y-128439502D01*
X132776494Y-128380537D01*
X132873185Y-128301185D01*
X132952537Y-128204494D01*
X133011502Y-128094180D01*
X133047812Y-127974482D01*
X133060072Y-127850000D01*
X133060072Y-126150000D01*
X133047812Y-126025518D01*
X133011502Y-125905820D01*
X132952537Y-125795506D01*
X132873185Y-125698815D01*
X132776494Y-125619463D01*
X132666180Y-125560498D01*
X132593620Y-125538487D01*
X132725475Y-125406632D01*
X132887990Y-125163411D01*
X132999932Y-124893158D01*
X133057000Y-124606260D01*
X133057000Y-124313740D01*
X132999932Y-124026842D01*
X132887990Y-123756589D01*
X132725475Y-123513368D01*
X132518632Y-123306525D01*
X132344240Y-123190000D01*
X132518632Y-123073475D01*
X132725475Y-122866632D01*
X132887990Y-122623411D01*
X132999932Y-122353158D01*
X133057000Y-122066260D01*
X133057000Y-121773740D01*
X132999932Y-121486842D01*
X132887990Y-121216589D01*
X132725475Y-120973368D01*
X132518632Y-120766525D01*
X132344240Y-120650000D01*
X132518632Y-120533475D01*
X132725475Y-120326632D01*
X132887990Y-120083411D01*
X132999932Y-119813158D01*
X133057000Y-119526260D01*
X133057000Y-119382123D01*
X135015500Y-121340624D01*
X135015501Y-126836285D01*
X135011885Y-126873000D01*
X135026317Y-127019535D01*
X135069059Y-127160439D01*
X135138470Y-127290298D01*
X135194048Y-127358019D01*
X135231882Y-127404119D01*
X135260401Y-127427524D01*
X135764245Y-127931369D01*
X135725000Y-128128665D01*
X135725000Y-128411335D01*
X135780147Y-128688574D01*
X135888320Y-128949727D01*
X136045363Y-129184759D01*
X136245241Y-129384637D01*
X136480273Y-129541680D01*
X136741426Y-129649853D01*
X137018665Y-129705000D01*
X137301335Y-129705000D01*
X137578574Y-129649853D01*
X137839727Y-129541680D01*
X138074759Y-129384637D01*
X138274637Y-129184759D01*
X138386396Y-129017500D01*
X141013604Y-129017500D01*
X141125363Y-129184759D01*
X141325241Y-129384637D01*
X141560273Y-129541680D01*
X141821426Y-129649853D01*
X142098665Y-129705000D01*
X142381335Y-129705000D01*
X142658574Y-129649853D01*
X142919727Y-129541680D01*
X143154759Y-129384637D01*
X143354637Y-129184759D01*
X143511680Y-128949727D01*
X143619853Y-128688574D01*
X143675000Y-128411335D01*
X143675000Y-128128665D01*
X143619853Y-127851426D01*
X143511680Y-127590273D01*
X143354637Y-127355241D01*
X143154759Y-127155363D01*
X142922241Y-127000000D01*
X143154759Y-126844637D01*
X143354637Y-126644759D01*
X143511680Y-126409727D01*
X143619853Y-126148574D01*
X143670030Y-125896320D01*
X149674006Y-132567406D01*
X149709881Y-132611119D01*
X149713564Y-132614142D01*
X149603175Y-132845901D01*
X149558524Y-132993110D01*
X149679845Y-133223000D01*
X150873000Y-133223000D01*
X150873000Y-133203000D01*
X151127000Y-133203000D01*
X151127000Y-133223000D01*
X151147000Y-133223000D01*
X151147000Y-133477000D01*
X151127000Y-133477000D01*
X151127000Y-134670814D01*
X151356891Y-134791481D01*
X151631252Y-134694157D01*
X151881355Y-134545178D01*
X152097588Y-134350269D01*
X152268900Y-134120594D01*
X152386525Y-134296632D01*
X152593368Y-134503475D01*
X152836589Y-134665990D01*
X153106842Y-134777932D01*
X153393740Y-134835000D01*
X153686260Y-134835000D01*
X153973158Y-134777932D01*
X154243411Y-134665990D01*
X154486632Y-134503475D01*
X154693475Y-134296632D01*
X154855990Y-134053411D01*
X154967932Y-133783158D01*
X155025000Y-133496260D01*
X155025000Y-133203740D01*
X154967932Y-132916842D01*
X154855990Y-132646589D01*
X154693475Y-132403368D01*
X154486632Y-132196525D01*
X154312240Y-132080000D01*
X154486632Y-131963475D01*
X154693475Y-131756632D01*
X154834069Y-131546219D01*
X154973440Y-131503941D01*
X155103298Y-131434530D01*
X155217119Y-131341119D01*
X155240529Y-131312594D01*
X160074840Y-126478284D01*
X160160527Y-126663629D01*
X160311697Y-126871227D01*
X160444060Y-126993319D01*
X160272456Y-127164923D01*
X160129093Y-127379482D01*
X160030342Y-127617887D01*
X159980000Y-127870976D01*
X159980000Y-128129024D01*
X160030342Y-128382113D01*
X160129093Y-128620518D01*
X160272456Y-128835077D01*
X160454923Y-129017544D01*
X160669482Y-129160907D01*
X160907887Y-129259658D01*
X161160976Y-129310000D01*
X161419024Y-129310000D01*
X161672113Y-129259658D01*
X161910518Y-129160907D01*
X162125077Y-129017544D01*
X162290000Y-128852621D01*
X162454923Y-129017544D01*
X162669482Y-129160907D01*
X162907887Y-129259658D01*
X163160976Y-129310000D01*
X163419024Y-129310000D01*
X163672113Y-129259658D01*
X163910518Y-129160907D01*
X164125077Y-129017544D01*
X164307544Y-128835077D01*
X164450907Y-128620518D01*
X164549658Y-128382113D01*
X164600000Y-128129024D01*
X164600000Y-127870976D01*
X164594116Y-127841396D01*
X165009618Y-127425895D01*
X165040528Y-127400528D01*
X165130991Y-127290298D01*
X165141749Y-127277190D01*
X165188352Y-127190000D01*
X165216963Y-127136473D01*
X165263280Y-126983788D01*
X165275000Y-126864791D01*
X165275000Y-126864788D01*
X165278919Y-126825000D01*
X165275000Y-126785212D01*
X165275000Y-91214788D01*
X165278919Y-91175000D01*
X165269418Y-91078535D01*
X165263280Y-91016212D01*
X165216963Y-90863527D01*
X165175238Y-90785465D01*
X165141749Y-90722810D01*
X165077531Y-90644561D01*
X165040528Y-90599472D01*
X165009619Y-90574106D01*
X164594116Y-90158604D01*
X164600000Y-90129024D01*
X164600000Y-89870976D01*
X164594116Y-89841396D01*
X165009618Y-89425895D01*
X165040528Y-89400528D01*
X165108833Y-89317298D01*
X165141749Y-89277190D01*
X165216962Y-89136474D01*
X165216963Y-89136473D01*
X165263280Y-88983788D01*
X165275000Y-88864791D01*
X165275000Y-88864788D01*
X165278919Y-88825000D01*
X165275000Y-88785212D01*
X165275000Y-78906787D01*
X165278919Y-78866999D01*
X165273780Y-78814822D01*
X165263280Y-78708212D01*
X165216963Y-78555527D01*
X165161926Y-78452560D01*
X165141749Y-78414810D01*
X165089049Y-78350595D01*
X165040528Y-78291472D01*
X165009619Y-78266106D01*
X164132000Y-77388488D01*
X164132000Y-77190770D01*
X164268632Y-77099475D01*
X164475475Y-76892632D01*
X164637990Y-76649411D01*
X164749932Y-76379158D01*
X164807000Y-76092260D01*
X164807000Y-75799740D01*
X164749932Y-75512842D01*
X164637990Y-75242589D01*
X164475475Y-74999368D01*
X164268632Y-74792525D01*
X164025411Y-74630010D01*
X163755158Y-74518068D01*
X163468260Y-74461000D01*
X163175740Y-74461000D01*
X162888842Y-74518068D01*
X162618589Y-74630010D01*
X162375368Y-74792525D01*
X162243513Y-74924380D01*
X162221502Y-74851820D01*
X162162537Y-74741506D01*
X162083185Y-74644815D01*
X161986494Y-74565463D01*
X161876180Y-74506498D01*
X161756482Y-74470188D01*
X161632000Y-74457928D01*
X160185441Y-74457928D01*
X156099700Y-70372188D01*
X156074328Y-70341272D01*
X155950989Y-70240051D01*
X155810273Y-70164837D01*
X155657588Y-70118520D01*
X155538591Y-70106800D01*
X155538588Y-70106800D01*
X155498800Y-70102881D01*
X155459012Y-70106800D01*
X147928988Y-70106800D01*
X147889200Y-70102881D01*
X147849412Y-70106800D01*
X147849409Y-70106800D01*
X147730412Y-70118520D01*
X147577727Y-70164837D01*
X147437011Y-70240051D01*
X147382937Y-70284428D01*
X146633500Y-70284428D01*
X146509018Y-70296688D01*
X146389320Y-70332998D01*
X146279006Y-70391963D01*
X146182315Y-70471315D01*
X146102963Y-70568006D01*
X146079180Y-70612500D01*
X143247288Y-70612500D01*
X143207500Y-70608581D01*
X143167712Y-70612500D01*
X143167709Y-70612500D01*
X143048712Y-70624220D01*
X142933067Y-70659301D01*
X142896026Y-70670537D01*
X142813628Y-70714580D01*
X142755311Y-70745751D01*
X142631972Y-70846972D01*
X142606607Y-70877880D01*
X141312560Y-72171928D01*
X140374000Y-72171928D01*
X140249518Y-72184188D01*
X140129820Y-72220498D01*
X140019506Y-72279463D01*
X139922815Y-72358815D01*
X139843463Y-72455506D01*
X139784498Y-72565820D01*
X139748188Y-72685518D01*
X139735928Y-72810000D01*
X139735928Y-74510000D01*
X139748188Y-74634482D01*
X139775609Y-74724878D01*
X139618488Y-74882000D01*
X136953257Y-74882000D01*
X136913469Y-74878081D01*
X136873681Y-74882000D01*
X136873679Y-74882000D01*
X136754682Y-74893720D01*
X136601997Y-74940037D01*
X136562432Y-74961185D01*
X136461280Y-75015251D01*
X136410409Y-75057000D01*
X136337942Y-75116472D01*
X136312577Y-75147380D01*
X134433975Y-77025983D01*
X134403060Y-77051354D01*
X134344174Y-77123108D01*
X134301839Y-77174693D01*
X134270953Y-77232477D01*
X134226625Y-77315410D01*
X134180308Y-77468095D01*
X134172469Y-77547688D01*
X134164669Y-77626882D01*
X134168588Y-77666670D01*
X134168589Y-80077898D01*
X133059114Y-81187373D01*
X133020599Y-80921981D01*
X132922919Y-80646253D01*
X132849472Y-80508843D01*
X132600397Y-80431208D01*
X131751605Y-81280000D01*
X131765748Y-81294143D01*
X131586143Y-81473748D01*
X131572000Y-81459605D01*
X130723208Y-82308397D01*
X130798729Y-82550689D01*
X130625368Y-82666525D01*
X130418525Y-82873368D01*
X130256010Y-83116589D01*
X130144068Y-83386842D01*
X130087000Y-83673740D01*
X130087000Y-83966260D01*
X130144068Y-84253158D01*
X130256010Y-84523411D01*
X130418525Y-84766632D01*
X130625368Y-84973475D01*
X130799760Y-85090000D01*
X130625368Y-85206525D01*
X130418525Y-85413368D01*
X130256010Y-85656589D01*
X130144068Y-85926842D01*
X130087000Y-86213740D01*
X130087000Y-86506260D01*
X130144068Y-86793158D01*
X130256010Y-87063411D01*
X130418525Y-87306632D01*
X130625368Y-87513475D01*
X130799760Y-87630000D01*
X130625368Y-87746525D01*
X130418525Y-87953368D01*
X130256010Y-88196589D01*
X130144068Y-88466842D01*
X130087000Y-88753740D01*
X130087000Y-89046260D01*
X130144068Y-89333158D01*
X130256010Y-89603411D01*
X130378406Y-89786590D01*
X125474000Y-94341685D01*
X125474000Y-85912801D01*
X130083768Y-81303034D01*
X130081389Y-81348531D01*
X130123401Y-81638019D01*
X130221081Y-81913747D01*
X130294528Y-82051157D01*
X130543603Y-82128792D01*
X131392395Y-81280000D01*
X131378253Y-81265858D01*
X131557858Y-81086253D01*
X131572000Y-81100395D01*
X132420792Y-80251603D01*
X132345271Y-80009311D01*
X132518632Y-79893475D01*
X132725475Y-79686632D01*
X132887990Y-79443411D01*
X132999932Y-79173158D01*
X133057000Y-78886260D01*
X133057000Y-78593740D01*
X132999932Y-78306842D01*
X132887990Y-78036589D01*
X132725475Y-77793368D01*
X132518632Y-77586525D01*
X132275411Y-77424010D01*
X132005158Y-77312068D01*
X131718260Y-77255000D01*
X131425740Y-77255000D01*
X131138842Y-77312068D01*
X130868589Y-77424010D01*
X130625368Y-77586525D01*
X130418525Y-77793368D01*
X130256010Y-78036589D01*
X130144068Y-78306842D01*
X130087000Y-78593740D01*
X130087000Y-78886260D01*
X130130790Y-79106408D01*
X124203003Y-85034196D01*
X124173999Y-85057999D01*
X124147737Y-85090000D01*
X124079026Y-85173724D01*
X124048232Y-85231335D01*
X124008454Y-85305754D01*
X123964997Y-85449015D01*
X123954000Y-85560668D01*
X123954000Y-85560678D01*
X123950324Y-85598000D01*
X123954000Y-85635322D01*
X123954001Y-109278288D01*
X123910063Y-109322226D01*
X123796795Y-109491744D01*
X123718774Y-109680102D01*
X123679000Y-109880061D01*
X123679000Y-110083939D01*
X123718774Y-110283898D01*
X123796795Y-110472256D01*
X123910063Y-110641774D01*
X123961583Y-110693294D01*
X121102377Y-113552500D01*
X117618531Y-113552500D01*
X117485475Y-113353368D01*
X117278632Y-113146525D01*
X117104240Y-113030000D01*
X117278632Y-112913475D01*
X117485475Y-112706632D01*
X117647990Y-112463411D01*
X117759932Y-112193158D01*
X117817000Y-111906260D01*
X117817000Y-111613740D01*
X117759932Y-111326842D01*
X117647990Y-111056589D01*
X117485475Y-110813368D01*
X117278632Y-110606525D01*
X117104240Y-110490000D01*
X117278632Y-110373475D01*
X117485475Y-110166632D01*
X117647990Y-109923411D01*
X117759932Y-109653158D01*
X117817000Y-109366260D01*
X117817000Y-109073740D01*
X117759932Y-108786842D01*
X117693711Y-108626969D01*
X117772276Y-108584974D01*
X117888001Y-108490001D01*
X117911803Y-108460998D01*
X118367003Y-108005798D01*
X118396001Y-107982001D01*
X118490974Y-107866276D01*
X118561546Y-107734247D01*
X118605003Y-107590986D01*
X118616000Y-107479333D01*
X118616000Y-107479324D01*
X118619676Y-107442001D01*
X118616000Y-107404678D01*
X118616000Y-100621322D01*
X118619676Y-100583999D01*
X118616000Y-100546676D01*
X118616000Y-100546667D01*
X118605003Y-100435014D01*
X118561546Y-100291753D01*
X118490974Y-100159724D01*
X118465779Y-100129024D01*
X118419799Y-100072996D01*
X118419795Y-100072992D01*
X118396001Y-100043999D01*
X118367008Y-100020205D01*
X117773210Y-99426407D01*
X117817000Y-99206260D01*
X117817000Y-98913740D01*
X117759932Y-98626842D01*
X117647990Y-98356589D01*
X117485475Y-98113368D01*
X117278632Y-97906525D01*
X117104240Y-97790000D01*
X117278632Y-97673475D01*
X117485475Y-97466632D01*
X117647990Y-97223411D01*
X117759932Y-96953158D01*
X117817000Y-96666260D01*
X117817000Y-96373740D01*
X117759932Y-96086842D01*
X117647990Y-95816589D01*
X117485475Y-95573368D01*
X117278632Y-95366525D01*
X117104240Y-95250000D01*
X117278632Y-95133475D01*
X117485475Y-94926632D01*
X117647990Y-94683411D01*
X117759932Y-94413158D01*
X117817000Y-94126260D01*
X117817000Y-93833740D01*
X117759932Y-93546842D01*
X117647990Y-93276589D01*
X117485475Y-93033368D01*
X117278632Y-92826525D01*
X117104240Y-92710000D01*
X117278632Y-92593475D01*
X117485475Y-92386632D01*
X117647990Y-92143411D01*
X117759932Y-91873158D01*
X117817000Y-91586260D01*
X117817000Y-91293740D01*
X117759932Y-91006842D01*
X117647990Y-90736589D01*
X117485475Y-90493368D01*
X117278632Y-90286525D01*
X117104240Y-90170000D01*
X117278632Y-90053475D01*
X117485475Y-89846632D01*
X117647990Y-89603411D01*
X117759932Y-89333158D01*
X117817000Y-89046260D01*
X117817000Y-88753740D01*
X117759932Y-88466842D01*
X117647990Y-88196589D01*
X117485475Y-87953368D01*
X117278632Y-87746525D01*
X117104240Y-87630000D01*
X117278632Y-87513475D01*
X117485475Y-87306632D01*
X117647990Y-87063411D01*
X117759932Y-86793158D01*
X117817000Y-86506260D01*
X117817000Y-86213740D01*
X117759932Y-85926842D01*
X117647990Y-85656589D01*
X117485475Y-85413368D01*
X117278632Y-85206525D01*
X117104240Y-85090000D01*
X117278632Y-84973475D01*
X117485475Y-84766632D01*
X117647990Y-84523411D01*
X117759932Y-84253158D01*
X117817000Y-83966260D01*
X117817000Y-83673740D01*
X117759932Y-83386842D01*
X117647990Y-83116589D01*
X117485475Y-82873368D01*
X117278632Y-82666525D01*
X117104240Y-82550000D01*
X117278632Y-82433475D01*
X117485475Y-82226632D01*
X117647990Y-81983411D01*
X117759932Y-81713158D01*
X117817000Y-81426260D01*
X117817000Y-81133740D01*
X117759932Y-80846842D01*
X117647990Y-80576589D01*
X117485475Y-80333368D01*
X117278632Y-80126525D01*
X117104240Y-80010000D01*
X117278632Y-79893475D01*
X117485475Y-79686632D01*
X117647990Y-79443411D01*
X117759932Y-79173158D01*
X117817000Y-78886260D01*
X117817000Y-78593740D01*
X117759932Y-78306842D01*
X117647990Y-78036589D01*
X117485475Y-77793368D01*
X117278632Y-77586525D01*
X117035411Y-77424010D01*
X116765158Y-77312068D01*
X116478260Y-77255000D01*
X116185740Y-77255000D01*
X115898842Y-77312068D01*
X115628589Y-77424010D01*
X115385368Y-77586525D01*
X115178525Y-77793368D01*
X115016010Y-78036589D01*
X114904068Y-78306842D01*
X114847000Y-78593740D01*
X114847000Y-78886260D01*
X114904068Y-79173158D01*
X115016010Y-79443411D01*
X115178525Y-79686632D01*
X115385368Y-79893475D01*
X115559760Y-80010000D01*
X115385368Y-80126525D01*
X115178525Y-80333368D01*
X115016010Y-80576589D01*
X114904068Y-80846842D01*
X114847000Y-81133740D01*
X114847000Y-81426260D01*
X114904068Y-81713158D01*
X115016010Y-81983411D01*
X115178525Y-82226632D01*
X115385368Y-82433475D01*
X115559760Y-82550000D01*
X115385368Y-82666525D01*
X115178525Y-82873368D01*
X115016010Y-83116589D01*
X114904068Y-83386842D01*
X114847000Y-83673740D01*
X114847000Y-83966260D01*
X114904068Y-84253158D01*
X115016010Y-84523411D01*
X115178525Y-84766632D01*
X115385368Y-84973475D01*
X115559760Y-85090000D01*
X115385368Y-85206525D01*
X115178525Y-85413368D01*
X115016010Y-85656589D01*
X114904068Y-85926842D01*
X114847000Y-86213740D01*
X114847000Y-86506260D01*
X114904068Y-86793158D01*
X115016010Y-87063411D01*
X115178525Y-87306632D01*
X115385368Y-87513475D01*
X115559760Y-87630000D01*
X115385368Y-87746525D01*
X115178525Y-87953368D01*
X115016010Y-88196589D01*
X114904068Y-88466842D01*
X114847000Y-88753740D01*
X114847000Y-89046260D01*
X114904068Y-89333158D01*
X115016010Y-89603411D01*
X115178525Y-89846632D01*
X115385368Y-90053475D01*
X115559760Y-90170000D01*
X115385368Y-90286525D01*
X115178525Y-90493368D01*
X115016010Y-90736589D01*
X114904068Y-91006842D01*
X114847000Y-91293740D01*
X114847000Y-91586260D01*
X114904068Y-91873158D01*
X115016010Y-92143411D01*
X115178525Y-92386632D01*
X115385368Y-92593475D01*
X115559760Y-92710000D01*
X115385368Y-92826525D01*
X115178525Y-93033368D01*
X115016010Y-93276589D01*
X114904068Y-93546842D01*
X114847000Y-93833740D01*
X114847000Y-93960198D01*
X111434804Y-90548003D01*
X111434799Y-90547997D01*
X110545803Y-89659002D01*
X110522001Y-89629999D01*
X110406276Y-89535026D01*
X110274247Y-89464454D01*
X110130986Y-89420997D01*
X110019333Y-89410000D01*
X110019322Y-89410000D01*
X109982000Y-89406324D01*
X109944678Y-89410000D01*
X108720178Y-89410000D01*
X108595475Y-89223368D01*
X108388632Y-89016525D01*
X108145411Y-88854010D01*
X107875158Y-88742068D01*
X107588260Y-88685000D01*
X107295740Y-88685000D01*
X107008842Y-88742068D01*
X106738589Y-88854010D01*
X106495368Y-89016525D01*
X106288525Y-89223368D01*
X106126010Y-89466589D01*
X106014068Y-89736842D01*
X105957000Y-90023740D01*
X105957000Y-90316260D01*
X106014068Y-90603158D01*
X106126010Y-90873411D01*
X106288525Y-91116632D01*
X106495368Y-91323475D01*
X106669760Y-91440000D01*
X106495368Y-91556525D01*
X106288525Y-91763368D01*
X106126010Y-92006589D01*
X106014068Y-92276842D01*
X105957000Y-92563740D01*
X105957000Y-92856260D01*
X106014068Y-93143158D01*
X106126010Y-93413411D01*
X106288525Y-93656632D01*
X106495368Y-93863475D01*
X106677534Y-93985195D01*
X106560645Y-94054822D01*
X106344412Y-94249731D01*
X106170359Y-94483080D01*
X106045175Y-94745901D01*
X106000524Y-94893110D01*
X106121845Y-95123000D01*
X107315000Y-95123000D01*
X107315000Y-95103000D01*
X107569000Y-95103000D01*
X107569000Y-95123000D01*
X108762155Y-95123000D01*
X108883476Y-94893110D01*
X108838825Y-94745901D01*
X108713641Y-94483080D01*
X108539588Y-94249731D01*
X108323355Y-94054822D01*
X108206466Y-93985195D01*
X108388632Y-93863475D01*
X108595475Y-93656632D01*
X108757990Y-93413411D01*
X108869932Y-93143158D01*
X108927000Y-92856260D01*
X108927000Y-92563740D01*
X108869932Y-92276842D01*
X108757990Y-92006589D01*
X108595475Y-91763368D01*
X108388632Y-91556525D01*
X108214240Y-91440000D01*
X108388632Y-91323475D01*
X108595475Y-91116632D01*
X108720178Y-90930000D01*
X109667199Y-90930000D01*
X110359997Y-91622799D01*
X110360003Y-91622804D01*
X114890790Y-96153592D01*
X114847000Y-96373740D01*
X114847000Y-96666260D01*
X114904068Y-96953158D01*
X115016010Y-97223411D01*
X115178525Y-97466632D01*
X115385368Y-97673475D01*
X115559760Y-97790000D01*
X115385368Y-97906525D01*
X115178525Y-98113368D01*
X115016010Y-98356589D01*
X114904068Y-98626842D01*
X114847000Y-98913740D01*
X114847000Y-99206260D01*
X114904068Y-99493158D01*
X115016010Y-99763411D01*
X115178525Y-100006632D01*
X115385368Y-100213475D01*
X115559760Y-100330000D01*
X115385368Y-100446525D01*
X115178525Y-100653368D01*
X115016010Y-100896589D01*
X114904068Y-101166842D01*
X114847000Y-101453740D01*
X114847000Y-101746260D01*
X114904068Y-102033158D01*
X115016010Y-102303411D01*
X115178525Y-102546632D01*
X115385368Y-102753475D01*
X115559760Y-102870000D01*
X115385368Y-102986525D01*
X115178525Y-103193368D01*
X115016010Y-103436589D01*
X114904068Y-103706842D01*
X114847000Y-103993740D01*
X114847000Y-104286260D01*
X114890790Y-104506408D01*
X113731199Y-105666000D01*
X111768178Y-105666000D01*
X111643475Y-105479368D01*
X111436632Y-105272525D01*
X111262240Y-105156000D01*
X111436632Y-105039475D01*
X111643475Y-104832632D01*
X111805990Y-104589411D01*
X111917932Y-104319158D01*
X111975000Y-104032260D01*
X111975000Y-103739740D01*
X111917932Y-103452842D01*
X111805990Y-103182589D01*
X111643475Y-102939368D01*
X111436632Y-102732525D01*
X111193411Y-102570010D01*
X110923158Y-102458068D01*
X110636260Y-102401000D01*
X110343740Y-102401000D01*
X110056842Y-102458068D01*
X109786589Y-102570010D01*
X109543368Y-102732525D01*
X109336525Y-102939368D01*
X109174010Y-103182589D01*
X109062068Y-103452842D01*
X109005000Y-103739740D01*
X109005000Y-104032260D01*
X109048790Y-104252408D01*
X107381199Y-105920000D01*
X103923322Y-105920000D01*
X103885999Y-105916324D01*
X103848676Y-105920000D01*
X103848667Y-105920000D01*
X103737014Y-105930997D01*
X103593753Y-105974454D01*
X103461724Y-106045026D01*
X103345999Y-106139999D01*
X103322201Y-106168997D01*
X99988199Y-109503000D01*
X98544686Y-109503000D01*
X98543000Y-109338750D01*
X98384250Y-109180000D01*
X97135000Y-109180000D01*
X97135000Y-109200000D01*
X96881000Y-109200000D01*
X96881000Y-109180000D01*
X95631750Y-109180000D01*
X95473000Y-109338750D01*
X95469928Y-109638000D01*
X95482188Y-109762482D01*
X95482345Y-109763000D01*
X95482188Y-109763518D01*
X95469928Y-109888000D01*
X95469928Y-110638000D01*
X95482188Y-110762482D01*
X95482345Y-110763000D01*
X95482188Y-110763518D01*
X95469928Y-110888000D01*
X95469928Y-111738000D01*
X95482188Y-111862482D01*
X95482345Y-111863000D01*
X95482188Y-111863518D01*
X95469928Y-111988000D01*
X95473000Y-112127250D01*
X95631750Y-112286000D01*
X95786176Y-112286000D01*
X95863820Y-112327502D01*
X95983518Y-112363812D01*
X96108000Y-112376072D01*
X97208000Y-112376072D01*
X97332482Y-112363812D01*
X97452180Y-112327502D01*
X97529824Y-112286000D01*
X97684250Y-112286000D01*
X97843000Y-112127250D01*
X97844197Y-112073000D01*
X100457177Y-112073000D01*
X100494499Y-112076676D01*
X100531821Y-112073000D01*
X100531832Y-112073000D01*
X100643485Y-112062003D01*
X100755579Y-112028000D01*
X106169928Y-112028000D01*
X106182188Y-112152482D01*
X106218498Y-112272180D01*
X106277463Y-112382494D01*
X106356815Y-112479185D01*
X106453506Y-112558537D01*
X106563820Y-112617502D01*
X106683518Y-112653812D01*
X106808000Y-112666072D01*
X107197250Y-112663000D01*
X107356000Y-112504250D01*
X107356000Y-111205000D01*
X107610000Y-111205000D01*
X107610000Y-112504250D01*
X107768750Y-112663000D01*
X108158000Y-112666072D01*
X108282482Y-112653812D01*
X108402180Y-112617502D01*
X108512494Y-112558537D01*
X108609185Y-112479185D01*
X108688537Y-112382494D01*
X108747502Y-112272180D01*
X108783812Y-112152482D01*
X108796072Y-112028000D01*
X108793000Y-111363750D01*
X108634250Y-111205000D01*
X107610000Y-111205000D01*
X107356000Y-111205000D01*
X106331750Y-111205000D01*
X106173000Y-111363750D01*
X106169928Y-112028000D01*
X100755579Y-112028000D01*
X100786746Y-112018546D01*
X100918775Y-111947974D01*
X101034500Y-111853001D01*
X101058303Y-111823997D01*
X102754301Y-110128000D01*
X106169928Y-110128000D01*
X106173000Y-110792250D01*
X106331750Y-110951000D01*
X107356000Y-110951000D01*
X107356000Y-109651750D01*
X107610000Y-109651750D01*
X107610000Y-110951000D01*
X108634250Y-110951000D01*
X108793000Y-110792250D01*
X108796072Y-110128000D01*
X108783812Y-110003518D01*
X108747502Y-109883820D01*
X108688537Y-109773506D01*
X108609185Y-109676815D01*
X108512494Y-109597463D01*
X108402180Y-109538498D01*
X108282482Y-109502188D01*
X108158000Y-109489928D01*
X107768750Y-109493000D01*
X107610000Y-109651750D01*
X107356000Y-109651750D01*
X107197250Y-109493000D01*
X106808000Y-109489928D01*
X106683518Y-109502188D01*
X106563820Y-109538498D01*
X106453506Y-109597463D01*
X106356815Y-109676815D01*
X106277463Y-109773506D01*
X106218498Y-109883820D01*
X106182188Y-110003518D01*
X106169928Y-110128000D01*
X102754301Y-110128000D01*
X104426302Y-108456000D01*
X109095986Y-108456000D01*
X109093175Y-108461901D01*
X109048524Y-108609110D01*
X109169845Y-108839000D01*
X110363000Y-108839000D01*
X110363000Y-108819000D01*
X110617000Y-108819000D01*
X110617000Y-108839000D01*
X111810155Y-108839000D01*
X111931476Y-108609110D01*
X111886825Y-108461901D01*
X111761641Y-108199080D01*
X111587588Y-107965731D01*
X111371355Y-107770822D01*
X111254466Y-107701195D01*
X111436632Y-107579475D01*
X111643475Y-107372632D01*
X111768178Y-107186000D01*
X113549117Y-107186000D01*
X113026998Y-107708120D01*
X112998000Y-107731918D01*
X112974202Y-107760916D01*
X112974201Y-107760917D01*
X112903026Y-107847643D01*
X112832454Y-107979673D01*
X112810533Y-108051939D01*
X112788998Y-108122933D01*
X112788398Y-108129024D01*
X112774324Y-108271919D01*
X112778001Y-108309251D01*
X112778000Y-116779198D01*
X111510653Y-118046546D01*
X111436632Y-117972525D01*
X111254466Y-117850805D01*
X111371355Y-117781178D01*
X111587588Y-117586269D01*
X111761641Y-117352920D01*
X111886825Y-117090099D01*
X111931476Y-116942890D01*
X111810155Y-116713000D01*
X110617000Y-116713000D01*
X110617000Y-116733000D01*
X110363000Y-116733000D01*
X110363000Y-116713000D01*
X109169845Y-116713000D01*
X109048524Y-116942890D01*
X109093175Y-117090099D01*
X109218359Y-117352920D01*
X109386692Y-117578600D01*
X108794132Y-117578600D01*
X108793000Y-117333750D01*
X108634250Y-117175000D01*
X107610000Y-117175000D01*
X107610000Y-117195000D01*
X107356000Y-117195000D01*
X107356000Y-117175000D01*
X106331750Y-117175000D01*
X106173000Y-117333750D01*
X106171868Y-117578600D01*
X100365402Y-117578600D01*
X98884802Y-116098000D01*
X106169928Y-116098000D01*
X106173000Y-116762250D01*
X106331750Y-116921000D01*
X107356000Y-116921000D01*
X107356000Y-115621750D01*
X107610000Y-115621750D01*
X107610000Y-116921000D01*
X108634250Y-116921000D01*
X108793000Y-116762250D01*
X108796072Y-116098000D01*
X108783812Y-115973518D01*
X108747502Y-115853820D01*
X108688537Y-115743506D01*
X108609185Y-115646815D01*
X108512494Y-115567463D01*
X108402180Y-115508498D01*
X108282482Y-115472188D01*
X108158000Y-115459928D01*
X107768750Y-115463000D01*
X107610000Y-115621750D01*
X107356000Y-115621750D01*
X107197250Y-115463000D01*
X106808000Y-115459928D01*
X106683518Y-115472188D01*
X106563820Y-115508498D01*
X106453506Y-115567463D01*
X106356815Y-115646815D01*
X106277463Y-115743506D01*
X106218498Y-115853820D01*
X106182188Y-115973518D01*
X106169928Y-116098000D01*
X98884802Y-116098000D01*
X98159801Y-115373000D01*
X108996678Y-115373000D01*
X109034000Y-115376676D01*
X109071322Y-115373000D01*
X109071333Y-115373000D01*
X109182986Y-115362003D01*
X109326247Y-115318546D01*
X109458276Y-115247974D01*
X109531650Y-115187757D01*
X109543368Y-115199475D01*
X109725534Y-115321195D01*
X109608645Y-115390822D01*
X109392412Y-115585731D01*
X109218359Y-115819080D01*
X109093175Y-116081901D01*
X109048524Y-116229110D01*
X109169845Y-116459000D01*
X110363000Y-116459000D01*
X110363000Y-116439000D01*
X110617000Y-116439000D01*
X110617000Y-116459000D01*
X111810155Y-116459000D01*
X111931476Y-116229110D01*
X111886825Y-116081901D01*
X111761641Y-115819080D01*
X111587588Y-115585731D01*
X111371355Y-115390822D01*
X111254466Y-115321195D01*
X111436632Y-115199475D01*
X111643475Y-114992632D01*
X111805990Y-114749411D01*
X111917932Y-114479158D01*
X111975000Y-114192260D01*
X111975000Y-113899740D01*
X111917932Y-113612842D01*
X111805990Y-113342589D01*
X111643475Y-113099368D01*
X111436632Y-112892525D01*
X111262240Y-112776000D01*
X111436632Y-112659475D01*
X111643475Y-112452632D01*
X111805990Y-112209411D01*
X111917932Y-111939158D01*
X111975000Y-111652260D01*
X111975000Y-111359740D01*
X111917932Y-111072842D01*
X111805990Y-110802589D01*
X111643475Y-110559368D01*
X111436632Y-110352525D01*
X111254466Y-110230805D01*
X111371355Y-110161178D01*
X111587588Y-109966269D01*
X111761641Y-109732920D01*
X111886825Y-109470099D01*
X111931476Y-109322890D01*
X111810155Y-109093000D01*
X110617000Y-109093000D01*
X110617000Y-109113000D01*
X110363000Y-109113000D01*
X110363000Y-109093000D01*
X109169845Y-109093000D01*
X109048524Y-109322890D01*
X109093175Y-109470099D01*
X109218359Y-109732920D01*
X109392412Y-109966269D01*
X109608645Y-110161178D01*
X109725534Y-110230805D01*
X109543368Y-110352525D01*
X109336525Y-110559368D01*
X109174010Y-110802589D01*
X109062068Y-111072842D01*
X109005000Y-111359740D01*
X109005000Y-111652260D01*
X109062068Y-111939158D01*
X109150221Y-112151978D01*
X108549199Y-112753000D01*
X97844197Y-112753000D01*
X97843000Y-112698750D01*
X97684250Y-112540000D01*
X97529824Y-112540000D01*
X97452180Y-112498498D01*
X97332482Y-112462188D01*
X97208000Y-112449928D01*
X96108000Y-112449928D01*
X95983518Y-112462188D01*
X95863820Y-112498498D01*
X95786176Y-112540000D01*
X95631750Y-112540000D01*
X95473000Y-112698750D01*
X95469928Y-112838000D01*
X95482188Y-112962482D01*
X95482345Y-112963000D01*
X95482188Y-112963518D01*
X95469928Y-113088000D01*
X95469928Y-113173095D01*
X95444454Y-113220753D01*
X95400997Y-113364014D01*
X95386323Y-113513000D01*
X95198000Y-113513000D01*
X95198000Y-108468000D01*
X95469928Y-108468000D01*
X95473000Y-108767250D01*
X95631750Y-108926000D01*
X96881000Y-108926000D01*
X96881000Y-107991750D01*
X97135000Y-107991750D01*
X97135000Y-108926000D01*
X98384250Y-108926000D01*
X98543000Y-108767250D01*
X98546072Y-108468000D01*
X98533812Y-108343518D01*
X98497502Y-108223820D01*
X98438537Y-108113506D01*
X98359185Y-108016815D01*
X98262494Y-107937463D01*
X98152180Y-107878498D01*
X98032482Y-107842188D01*
X97908000Y-107829928D01*
X97293750Y-107833000D01*
X97135000Y-107991750D01*
X96881000Y-107991750D01*
X96722250Y-107833000D01*
X96108000Y-107829928D01*
X95983518Y-107842188D01*
X95863820Y-107878498D01*
X95753506Y-107937463D01*
X95656815Y-108016815D01*
X95577463Y-108113506D01*
X95518498Y-108223820D01*
X95482188Y-108343518D01*
X95469928Y-108468000D01*
X95198000Y-108468000D01*
X95198000Y-96940000D01*
X105953928Y-96940000D01*
X105953928Y-98640000D01*
X105966188Y-98764482D01*
X106002498Y-98884180D01*
X106061463Y-98994494D01*
X106140815Y-99091185D01*
X106237506Y-99170537D01*
X106347820Y-99229502D01*
X106467518Y-99265812D01*
X106592000Y-99278072D01*
X108292000Y-99278072D01*
X108416482Y-99265812D01*
X108536180Y-99229502D01*
X108646494Y-99170537D01*
X108743185Y-99091185D01*
X108822537Y-98994494D01*
X108881502Y-98884180D01*
X108917812Y-98764482D01*
X108930072Y-98640000D01*
X108930072Y-96940000D01*
X108917812Y-96815518D01*
X108881502Y-96695820D01*
X108822537Y-96585506D01*
X108743185Y-96488815D01*
X108646494Y-96409463D01*
X108536180Y-96350498D01*
X108455534Y-96326034D01*
X108539588Y-96250269D01*
X108713641Y-96016920D01*
X108838825Y-95754099D01*
X108883476Y-95606890D01*
X108762155Y-95377000D01*
X107569000Y-95377000D01*
X107569000Y-95397000D01*
X107315000Y-95397000D01*
X107315000Y-95377000D01*
X106121845Y-95377000D01*
X106000524Y-95606890D01*
X106045175Y-95754099D01*
X106170359Y-96016920D01*
X106344412Y-96250269D01*
X106428466Y-96326034D01*
X106347820Y-96350498D01*
X106237506Y-96409463D01*
X106140815Y-96488815D01*
X106061463Y-96585506D01*
X106002498Y-96695820D01*
X105966188Y-96815518D01*
X105953928Y-96940000D01*
X95198000Y-96940000D01*
X95198000Y-86228514D01*
X104710000Y-86228514D01*
X104710000Y-86491486D01*
X104761304Y-86749405D01*
X104861939Y-86992359D01*
X105008038Y-87211013D01*
X105193987Y-87396962D01*
X105412641Y-87543061D01*
X105655595Y-87643696D01*
X105913514Y-87695000D01*
X106176486Y-87695000D01*
X106434405Y-87643696D01*
X106677359Y-87543061D01*
X106896013Y-87396962D01*
X107081962Y-87211013D01*
X107228061Y-86992359D01*
X107328696Y-86749405D01*
X107380000Y-86491486D01*
X107380000Y-86228514D01*
X107328696Y-85970595D01*
X107228061Y-85727641D01*
X107081962Y-85508987D01*
X106896013Y-85323038D01*
X106677359Y-85176939D01*
X106434405Y-85076304D01*
X106176486Y-85025000D01*
X105913514Y-85025000D01*
X105655595Y-85076304D01*
X105412641Y-85176939D01*
X105193987Y-85323038D01*
X105008038Y-85508987D01*
X104861939Y-85727641D01*
X104761304Y-85970595D01*
X104710000Y-86228514D01*
X95198000Y-86228514D01*
X95198000Y-80380000D01*
X97521928Y-80380000D01*
X97521928Y-82180000D01*
X97534188Y-82304482D01*
X97570498Y-82424180D01*
X97629463Y-82534494D01*
X97708815Y-82631185D01*
X97805506Y-82710537D01*
X97915820Y-82769502D01*
X98035518Y-82805812D01*
X98160000Y-82818072D01*
X99960000Y-82818072D01*
X100084482Y-82805812D01*
X100204180Y-82769502D01*
X100314494Y-82710537D01*
X100411185Y-82631185D01*
X100490537Y-82534494D01*
X100549502Y-82424180D01*
X100585812Y-82304482D01*
X100598072Y-82180000D01*
X100598072Y-80380000D01*
X100585812Y-80255518D01*
X100549502Y-80135820D01*
X100490537Y-80025506D01*
X100411185Y-79928815D01*
X100314494Y-79849463D01*
X100204180Y-79790498D01*
X100185873Y-79784944D01*
X100252312Y-79718505D01*
X100420299Y-79467095D01*
X100536011Y-79187743D01*
X100595000Y-78891184D01*
X100595000Y-78608514D01*
X104710000Y-78608514D01*
X104710000Y-78871486D01*
X104761304Y-79129405D01*
X104861939Y-79372359D01*
X105008038Y-79591013D01*
X105193987Y-79776962D01*
X105412641Y-79923061D01*
X105655595Y-80023696D01*
X105913514Y-80075000D01*
X106176486Y-80075000D01*
X106434405Y-80023696D01*
X106677359Y-79923061D01*
X106896013Y-79776962D01*
X107081962Y-79591013D01*
X107228061Y-79372359D01*
X107328696Y-79129405D01*
X107380000Y-78871486D01*
X107380000Y-78608514D01*
X107328696Y-78350595D01*
X107228061Y-78107641D01*
X107081962Y-77888987D01*
X106896013Y-77703038D01*
X106677359Y-77556939D01*
X106434405Y-77456304D01*
X106176486Y-77405000D01*
X105913514Y-77405000D01*
X105655595Y-77456304D01*
X105412641Y-77556939D01*
X105193987Y-77703038D01*
X105008038Y-77888987D01*
X104861939Y-78107641D01*
X104761304Y-78350595D01*
X104710000Y-78608514D01*
X100595000Y-78608514D01*
X100595000Y-78588816D01*
X100536011Y-78292257D01*
X100420299Y-78012905D01*
X100252312Y-77761495D01*
X100038505Y-77547688D01*
X99787095Y-77379701D01*
X99507743Y-77263989D01*
X99211184Y-77205000D01*
X98908816Y-77205000D01*
X98612257Y-77263989D01*
X98332905Y-77379701D01*
X98081495Y-77547688D01*
X97867688Y-77761495D01*
X97699701Y-78012905D01*
X97583989Y-78292257D01*
X97525000Y-78588816D01*
X97525000Y-78891184D01*
X97583989Y-79187743D01*
X97699701Y-79467095D01*
X97867688Y-79718505D01*
X97934127Y-79784944D01*
X97915820Y-79790498D01*
X97805506Y-79849463D01*
X97708815Y-79928815D01*
X97629463Y-80025506D01*
X97570498Y-80135820D01*
X97534188Y-80255518D01*
X97521928Y-80380000D01*
X95198000Y-80380000D01*
X95198000Y-72636990D01*
X95315316Y-72920215D01*
X95558187Y-73283697D01*
X95867303Y-73592813D01*
X96230785Y-73835684D01*
X96634665Y-74002977D01*
X97063422Y-74088262D01*
X97500578Y-74088262D01*
X97929335Y-74002977D01*
X98333215Y-73835684D01*
X98696697Y-73592813D01*
X99005813Y-73283697D01*
X99248684Y-72920215D01*
X99415977Y-72516335D01*
X99501262Y-72087578D01*
X99501262Y-71650422D01*
X99415977Y-71221665D01*
X99248684Y-70817785D01*
X99005813Y-70454303D01*
X98696697Y-70145187D01*
X98367164Y-69925000D01*
X134296836Y-69925000D01*
X133967303Y-70145187D01*
G37*
%TD.AperFunction*%
D34*
X151127000Y-130683000D02*
X151147000Y-130683000D01*
X151147000Y-130937000D01*
X151127000Y-130937000D01*
X151127000Y-130957000D01*
X150873000Y-130957000D01*
X150873000Y-130937000D01*
X150853000Y-130937000D01*
X150853000Y-130683000D01*
X150873000Y-130683000D01*
X150873000Y-130663000D01*
X151127000Y-130663000D01*
X151127000Y-130683000D01*
%TA.AperFunction,Conductor*%
D35*
G36*
X151127000Y-130683000D02*
G01*
X151147000Y-130683000D01*
X151147000Y-130937000D01*
X151127000Y-130937000D01*
X151127000Y-130957000D01*
X150873000Y-130957000D01*
X150873000Y-130937000D01*
X150853000Y-130937000D01*
X150853000Y-130683000D01*
X150873000Y-130683000D01*
X150873000Y-130663000D01*
X151127000Y-130663000D01*
X151127000Y-130683000D01*
G37*
%TD.AperFunction*%
D34*
X151127000Y-128143000D02*
X151147000Y-128143000D01*
X151147000Y-128397000D01*
X151127000Y-128397000D01*
X151127000Y-128417000D01*
X150873000Y-128417000D01*
X150873000Y-128397000D01*
X150853000Y-128397000D01*
X150853000Y-128143000D01*
X150873000Y-128143000D01*
X150873000Y-128123000D01*
X151127000Y-128123000D01*
X151127000Y-128143000D01*
%TA.AperFunction,Conductor*%
D35*
G36*
X151127000Y-128143000D02*
G01*
X151147000Y-128143000D01*
X151147000Y-128397000D01*
X151127000Y-128397000D01*
X151127000Y-128417000D01*
X150873000Y-128417000D01*
X150873000Y-128397000D01*
X150853000Y-128397000D01*
X150853000Y-128143000D01*
X150873000Y-128143000D01*
X150873000Y-128123000D01*
X151127000Y-128123000D01*
X151127000Y-128143000D01*
G37*
%TD.AperFunction*%
D34*
X161417000Y-125873000D02*
X163163000Y-125873000D01*
X163163000Y-125853000D01*
X163417000Y-125853000D01*
X163417000Y-125873000D01*
X163437000Y-125873000D01*
X163437000Y-126127000D01*
X163417000Y-126127000D01*
X163417000Y-126147000D01*
X163163000Y-126147000D01*
X163163000Y-126127000D01*
X161417000Y-126127000D01*
X161417000Y-126147000D01*
X161163000Y-126147000D01*
X161163000Y-126127000D01*
X161143000Y-126127000D01*
X161143000Y-125873000D01*
X161163000Y-125873000D01*
X161163000Y-125853000D01*
X161417000Y-125853000D01*
X161417000Y-125873000D01*
%TA.AperFunction,Conductor*%
D35*
G36*
X161417000Y-125873000D02*
G01*
X163163000Y-125873000D01*
X163163000Y-125853000D01*
X163417000Y-125853000D01*
X163417000Y-125873000D01*
X163437000Y-125873000D01*
X163437000Y-126127000D01*
X163417000Y-126127000D01*
X163417000Y-126147000D01*
X163163000Y-126147000D01*
X163163000Y-126127000D01*
X161417000Y-126127000D01*
X161417000Y-126147000D01*
X161163000Y-126147000D01*
X161163000Y-126127000D01*
X161143000Y-126127000D01*
X161143000Y-125873000D01*
X161163000Y-125873000D01*
X161163000Y-125853000D01*
X161417000Y-125853000D01*
X161417000Y-125873000D01*
G37*
%TD.AperFunction*%
D34*
X151127000Y-125603000D02*
X151147000Y-125603000D01*
X151147000Y-125857000D01*
X151127000Y-125857000D01*
X151127000Y-125877000D01*
X150873000Y-125877000D01*
X150873000Y-125857000D01*
X150853000Y-125857000D01*
X150853000Y-125603000D01*
X150873000Y-125603000D01*
X150873000Y-125583000D01*
X151127000Y-125583000D01*
X151127000Y-125603000D01*
%TA.AperFunction,Conductor*%
D35*
G36*
X151127000Y-125603000D02*
G01*
X151147000Y-125603000D01*
X151147000Y-125857000D01*
X151127000Y-125857000D01*
X151127000Y-125877000D01*
X150873000Y-125877000D01*
X150873000Y-125857000D01*
X150853000Y-125857000D01*
X150853000Y-125603000D01*
X150873000Y-125603000D01*
X150873000Y-125583000D01*
X151127000Y-125583000D01*
X151127000Y-125603000D01*
G37*
%TD.AperFunction*%
D34*
X160145776Y-119873000D02*
X161163000Y-119873000D01*
X161163000Y-119853000D01*
X161417000Y-119853000D01*
X161417000Y-119873000D01*
X161437000Y-119873000D01*
X161437000Y-120127000D01*
X161417000Y-120127000D01*
X161417000Y-120147000D01*
X161163000Y-120147000D01*
X161163000Y-120127000D01*
X160145776Y-120127000D01*
X160065661Y-120258100D01*
X159828112Y-120258100D01*
X159791400Y-120254484D01*
X159754688Y-120258100D01*
X159754685Y-120258100D01*
X159644865Y-120268916D01*
X159516461Y-120307867D01*
X159503960Y-120311659D01*
X159374101Y-120381070D01*
X159288799Y-120451076D01*
X159288795Y-120451080D01*
X159260281Y-120474481D01*
X159236880Y-120502995D01*
X154798832Y-124941045D01*
X154693475Y-124783368D01*
X154486632Y-124576525D01*
X154312240Y-124460000D01*
X154486632Y-124343475D01*
X154693475Y-124136632D01*
X154826531Y-123937500D01*
X155157295Y-123937500D01*
X155194000Y-123941115D01*
X155230705Y-123937500D01*
X155230715Y-123937500D01*
X155340535Y-123926684D01*
X155481440Y-123883941D01*
X155611298Y-123814530D01*
X155725119Y-123721119D01*
X155748529Y-123692594D01*
X159694624Y-119746500D01*
X160068472Y-119746500D01*
X160145776Y-119873000D01*
%TA.AperFunction,Conductor*%
D35*
G36*
X160145776Y-119873000D02*
G01*
X161163000Y-119873000D01*
X161163000Y-119853000D01*
X161417000Y-119853000D01*
X161417000Y-119873000D01*
X161437000Y-119873000D01*
X161437000Y-120127000D01*
X161417000Y-120127000D01*
X161417000Y-120147000D01*
X161163000Y-120147000D01*
X161163000Y-120127000D01*
X160145776Y-120127000D01*
X160065661Y-120258100D01*
X159828112Y-120258100D01*
X159791400Y-120254484D01*
X159754688Y-120258100D01*
X159754685Y-120258100D01*
X159644865Y-120268916D01*
X159516461Y-120307867D01*
X159503960Y-120311659D01*
X159374101Y-120381070D01*
X159288799Y-120451076D01*
X159288795Y-120451080D01*
X159260281Y-120474481D01*
X159236880Y-120502995D01*
X154798832Y-124941045D01*
X154693475Y-124783368D01*
X154486632Y-124576525D01*
X154312240Y-124460000D01*
X154486632Y-124343475D01*
X154693475Y-124136632D01*
X154826531Y-123937500D01*
X155157295Y-123937500D01*
X155194000Y-123941115D01*
X155230705Y-123937500D01*
X155230715Y-123937500D01*
X155340535Y-123926684D01*
X155481440Y-123883941D01*
X155611298Y-123814530D01*
X155725119Y-123721119D01*
X155748529Y-123692594D01*
X159694624Y-119746500D01*
X160068472Y-119746500D01*
X160145776Y-119873000D01*
G37*
%TD.AperFunction*%
D34*
X161417000Y-123873000D02*
X161437000Y-123873000D01*
X161437000Y-124127000D01*
X161417000Y-124127000D01*
X161417000Y-124147000D01*
X161163000Y-124147000D01*
X161163000Y-124127000D01*
X161143000Y-124127000D01*
X161143000Y-123873000D01*
X161163000Y-123873000D01*
X161163000Y-123853000D01*
X161417000Y-123853000D01*
X161417000Y-123873000D01*
%TA.AperFunction,Conductor*%
D35*
G36*
X161417000Y-123873000D02*
G01*
X161437000Y-123873000D01*
X161437000Y-124127000D01*
X161417000Y-124127000D01*
X161417000Y-124147000D01*
X161163000Y-124147000D01*
X161163000Y-124127000D01*
X161143000Y-124127000D01*
X161143000Y-123873000D01*
X161163000Y-123873000D01*
X161163000Y-123853000D01*
X161417000Y-123853000D01*
X161417000Y-123873000D01*
G37*
%TD.AperFunction*%
D34*
X151127000Y-123063000D02*
X151147000Y-123063000D01*
X151147000Y-123317000D01*
X151127000Y-123317000D01*
X151127000Y-123337000D01*
X150873000Y-123337000D01*
X150873000Y-123317000D01*
X150853000Y-123317000D01*
X150853000Y-123063000D01*
X150873000Y-123063000D01*
X150873000Y-123043000D01*
X151127000Y-123043000D01*
X151127000Y-123063000D01*
%TA.AperFunction,Conductor*%
D35*
G36*
X151127000Y-123063000D02*
G01*
X151147000Y-123063000D01*
X151147000Y-123317000D01*
X151127000Y-123317000D01*
X151127000Y-123337000D01*
X150873000Y-123337000D01*
X150873000Y-123317000D01*
X150853000Y-123317000D01*
X150853000Y-123063000D01*
X150873000Y-123063000D01*
X150873000Y-123043000D01*
X151127000Y-123043000D01*
X151127000Y-123063000D01*
G37*
%TD.AperFunction*%
D34*
X149642328Y-117419906D02*
X149677872Y-117449076D01*
X149603175Y-117605901D01*
X149558524Y-117753110D01*
X149679845Y-117983000D01*
X150873000Y-117983000D01*
X150873000Y-117963000D01*
X151127000Y-117963000D01*
X151127000Y-117983000D01*
X151147000Y-117983000D01*
X151147000Y-118237000D01*
X151127000Y-118237000D01*
X151127000Y-120523000D01*
X151147000Y-120523000D01*
X151147000Y-120777000D01*
X151127000Y-120777000D01*
X151127000Y-120797000D01*
X150873000Y-120797000D01*
X150873000Y-120777000D01*
X150853000Y-120777000D01*
X150853000Y-120523000D01*
X150873000Y-120523000D01*
X150873000Y-118237000D01*
X149679845Y-118237000D01*
X149558524Y-118466890D01*
X149603175Y-118614099D01*
X149728359Y-118876920D01*
X149902412Y-119110269D01*
X150118645Y-119305178D01*
X150244255Y-119380000D01*
X150118645Y-119454822D01*
X149902412Y-119649731D01*
X149728359Y-119883080D01*
X149619369Y-120111902D01*
X143620309Y-113446279D01*
X143675000Y-113171335D01*
X143675000Y-112888665D01*
X143619853Y-112611426D01*
X143589777Y-112538816D01*
X149642328Y-117419906D01*
%TA.AperFunction,Conductor*%
D35*
G36*
X149642328Y-117419906D02*
G01*
X149677872Y-117449076D01*
X149603175Y-117605901D01*
X149558524Y-117753110D01*
X149679845Y-117983000D01*
X150873000Y-117983000D01*
X150873000Y-117963000D01*
X151127000Y-117963000D01*
X151127000Y-117983000D01*
X151147000Y-117983000D01*
X151147000Y-118237000D01*
X151127000Y-118237000D01*
X151127000Y-120523000D01*
X151147000Y-120523000D01*
X151147000Y-120777000D01*
X151127000Y-120777000D01*
X151127000Y-120797000D01*
X150873000Y-120797000D01*
X150873000Y-120777000D01*
X150853000Y-120777000D01*
X150853000Y-120523000D01*
X150873000Y-120523000D01*
X150873000Y-118237000D01*
X149679845Y-118237000D01*
X149558524Y-118466890D01*
X149603175Y-118614099D01*
X149728359Y-118876920D01*
X149902412Y-119110269D01*
X150118645Y-119305178D01*
X150244255Y-119380000D01*
X150118645Y-119454822D01*
X149902412Y-119649731D01*
X149728359Y-119883080D01*
X149619369Y-120111902D01*
X143620309Y-113446279D01*
X143675000Y-113171335D01*
X143675000Y-112888665D01*
X143619853Y-112611426D01*
X143589777Y-112538816D01*
X149642328Y-117419906D01*
G37*
%TD.AperFunction*%
D34*
X161417000Y-115873000D02*
X161437000Y-115873000D01*
X161437000Y-116127000D01*
X161417000Y-116127000D01*
X161417000Y-116147000D01*
X161163000Y-116147000D01*
X161163000Y-116127000D01*
X161143000Y-116127000D01*
X161143000Y-115873000D01*
X161163000Y-115873000D01*
X161163000Y-115853000D01*
X161417000Y-115853000D01*
X161417000Y-115873000D01*
%TA.AperFunction,Conductor*%
D35*
G36*
X161417000Y-115873000D02*
G01*
X161437000Y-115873000D01*
X161437000Y-116127000D01*
X161417000Y-116127000D01*
X161417000Y-116147000D01*
X161163000Y-116147000D01*
X161163000Y-116127000D01*
X161143000Y-116127000D01*
X161143000Y-115873000D01*
X161163000Y-115873000D01*
X161163000Y-115853000D01*
X161417000Y-115853000D01*
X161417000Y-115873000D01*
G37*
%TD.AperFunction*%
D34*
X151127000Y-115443000D02*
X151147000Y-115443000D01*
X151147000Y-115697000D01*
X151127000Y-115697000D01*
X151127000Y-115717000D01*
X150873000Y-115717000D01*
X150873000Y-115697000D01*
X150853000Y-115697000D01*
X150853000Y-115443000D01*
X150873000Y-115443000D01*
X150873000Y-115423000D01*
X151127000Y-115423000D01*
X151127000Y-115443000D01*
%TA.AperFunction,Conductor*%
D35*
G36*
X151127000Y-115443000D02*
G01*
X151147000Y-115443000D01*
X151147000Y-115697000D01*
X151127000Y-115697000D01*
X151127000Y-115717000D01*
X150873000Y-115717000D01*
X150873000Y-115697000D01*
X150853000Y-115697000D01*
X150853000Y-115443000D01*
X150873000Y-115443000D01*
X150873000Y-115423000D01*
X151127000Y-115423000D01*
X151127000Y-115443000D01*
G37*
%TD.AperFunction*%
D34*
X144307928Y-98640000D02*
X144320188Y-98764482D01*
X144356498Y-98884180D01*
X144415463Y-98994494D01*
X144494815Y-99091185D01*
X144591506Y-99170537D01*
X144701820Y-99229502D01*
X144774380Y-99251513D01*
X144642525Y-99383368D01*
X144480010Y-99626589D01*
X144368068Y-99896842D01*
X144311000Y-100183740D01*
X144311000Y-100476260D01*
X144368068Y-100763158D01*
X144480010Y-101033411D01*
X144642525Y-101276632D01*
X144849368Y-101483475D01*
X145092589Y-101645990D01*
X145362842Y-101757932D01*
X145649740Y-101815000D01*
X145942260Y-101815000D01*
X146229158Y-101757932D01*
X146499411Y-101645990D01*
X146742632Y-101483475D01*
X146949475Y-101276632D01*
X147111990Y-101033411D01*
X147223932Y-100763158D01*
X147281000Y-100476260D01*
X147281000Y-100183740D01*
X147223932Y-99896842D01*
X147111990Y-99626589D01*
X146949475Y-99383368D01*
X146817620Y-99251513D01*
X146890180Y-99229502D01*
X146948054Y-99198567D01*
X147526001Y-99776514D01*
X147526000Y-100541211D01*
X147522081Y-100581000D01*
X147526000Y-100620788D01*
X147526000Y-100620790D01*
X147537720Y-100739787D01*
X147584037Y-100892472D01*
X147584038Y-100892473D01*
X147659251Y-101033189D01*
X147677463Y-101055380D01*
X147760472Y-101156528D01*
X147791387Y-101181899D01*
X148754105Y-102144618D01*
X148779472Y-102175528D01*
X148884039Y-102261343D01*
X148902811Y-102276749D01*
X149043526Y-102351963D01*
X149079063Y-102362743D01*
X149196212Y-102398280D01*
X149315209Y-102410000D01*
X149315212Y-102410000D01*
X149355000Y-102413919D01*
X149394788Y-102410000D01*
X149589799Y-102410000D01*
X149558524Y-102513110D01*
X149679845Y-102743000D01*
X150873000Y-102743000D01*
X150873000Y-102723000D01*
X151127000Y-102723000D01*
X151127000Y-102743000D01*
X151147000Y-102743000D01*
X151147000Y-102997000D01*
X151127000Y-102997000D01*
X151127000Y-105283000D01*
X153413000Y-105283000D01*
X153413000Y-105263000D01*
X153667000Y-105263000D01*
X153667000Y-105283000D01*
X153687000Y-105283000D01*
X153687000Y-105537000D01*
X153667000Y-105537000D01*
X153667000Y-107823000D01*
X154860155Y-107823000D01*
X154981476Y-107593110D01*
X154936825Y-107445901D01*
X154811641Y-107183080D01*
X154637588Y-106949731D01*
X154421355Y-106754822D01*
X154295745Y-106680000D01*
X154421355Y-106605178D01*
X154637588Y-106410269D01*
X154704735Y-106320247D01*
X159277502Y-110893015D01*
X159277501Y-111992377D01*
X157272529Y-109987406D01*
X157249119Y-109958881D01*
X157135298Y-109865470D01*
X157005440Y-109796059D01*
X156864535Y-109753316D01*
X156754715Y-109742500D01*
X156754705Y-109742500D01*
X156718000Y-109738885D01*
X156681295Y-109742500D01*
X154826531Y-109742500D01*
X154693475Y-109543368D01*
X154486632Y-109336525D01*
X154304466Y-109214805D01*
X154421355Y-109145178D01*
X154637588Y-108950269D01*
X154811641Y-108716920D01*
X154936825Y-108454099D01*
X154981476Y-108306890D01*
X154860155Y-108077000D01*
X153667000Y-108077000D01*
X153667000Y-108097000D01*
X153413000Y-108097000D01*
X153413000Y-108077000D01*
X151127000Y-108077000D01*
X151127000Y-110363000D01*
X151147000Y-110363000D01*
X151147000Y-110617000D01*
X151127000Y-110617000D01*
X151127000Y-112903000D01*
X153413000Y-112903000D01*
X153413000Y-112883000D01*
X153667000Y-112883000D01*
X153667000Y-112903000D01*
X154860155Y-112903000D01*
X154981476Y-112673110D01*
X154936825Y-112525901D01*
X154811641Y-112263080D01*
X154637588Y-112029731D01*
X154421355Y-111834822D01*
X154304466Y-111765195D01*
X154486632Y-111643475D01*
X154693475Y-111436632D01*
X154826531Y-111237500D01*
X156408377Y-111237500D01*
X159673480Y-114502605D01*
X159696881Y-114531119D01*
X159725395Y-114554520D01*
X159725399Y-114554524D01*
X159810701Y-114624530D01*
X159874333Y-114658542D01*
X159710376Y-114822500D01*
X154826531Y-114822500D01*
X154693475Y-114623368D01*
X154486632Y-114416525D01*
X154304466Y-114294805D01*
X154421355Y-114225178D01*
X154637588Y-114030269D01*
X154811641Y-113796920D01*
X154936825Y-113534099D01*
X154981476Y-113386890D01*
X154860155Y-113157000D01*
X153667000Y-113157000D01*
X153667000Y-113177000D01*
X153413000Y-113177000D01*
X153413000Y-113157000D01*
X151127000Y-113157000D01*
X151127000Y-113177000D01*
X150873000Y-113177000D01*
X150873000Y-113157000D01*
X150853000Y-113157000D01*
X150853000Y-112903000D01*
X150873000Y-112903000D01*
X150873000Y-110617000D01*
X149679845Y-110617000D01*
X149558524Y-110846890D01*
X149603175Y-110994099D01*
X149728359Y-111256920D01*
X149902412Y-111490269D01*
X150118645Y-111685178D01*
X150244255Y-111760000D01*
X150118645Y-111834822D01*
X149902412Y-112029731D01*
X149728359Y-112263080D01*
X149603175Y-112525901D01*
X149558524Y-112673110D01*
X149599751Y-112751231D01*
X145356049Y-109435840D01*
X145510250Y-109435000D01*
X145669000Y-109276250D01*
X145669000Y-108077000D01*
X145923000Y-108077000D01*
X145923000Y-109276250D01*
X146081750Y-109435000D01*
X146646000Y-109438072D01*
X146770482Y-109425812D01*
X146890180Y-109389502D01*
X147000494Y-109330537D01*
X147097185Y-109251185D01*
X147176537Y-109154494D01*
X147235502Y-109044180D01*
X147271812Y-108924482D01*
X147284072Y-108800000D01*
X147281388Y-108306890D01*
X149558524Y-108306890D01*
X149603175Y-108454099D01*
X149728359Y-108716920D01*
X149902412Y-108950269D01*
X150118645Y-109145178D01*
X150244255Y-109220000D01*
X150118645Y-109294822D01*
X149902412Y-109489731D01*
X149728359Y-109723080D01*
X149603175Y-109985901D01*
X149558524Y-110133110D01*
X149679845Y-110363000D01*
X150873000Y-110363000D01*
X150873000Y-108077000D01*
X149679845Y-108077000D01*
X149558524Y-108306890D01*
X147281388Y-108306890D01*
X147281000Y-108235750D01*
X147122250Y-108077000D01*
X145923000Y-108077000D01*
X145669000Y-108077000D01*
X144469750Y-108077000D01*
X144311000Y-108235750D01*
X144308920Y-108617770D01*
X143669631Y-108118326D01*
X143675000Y-108091335D01*
X143675000Y-107808665D01*
X143619853Y-107531426D01*
X143511680Y-107270273D01*
X143354637Y-107035241D01*
X143156039Y-106836643D01*
X143164482Y-106835812D01*
X143284180Y-106799502D01*
X143394494Y-106740537D01*
X143491185Y-106661185D01*
X143570537Y-106564494D01*
X143629502Y-106454180D01*
X143665812Y-106334482D01*
X143678072Y-106210000D01*
X143678072Y-104610000D01*
X143669110Y-104519000D01*
X144151775Y-104519000D01*
X144415632Y-104862013D01*
X144368068Y-104976842D01*
X144311000Y-105263740D01*
X144311000Y-105556260D01*
X144368068Y-105843158D01*
X144480010Y-106113411D01*
X144642525Y-106356632D01*
X144774380Y-106488487D01*
X144701820Y-106510498D01*
X144591506Y-106569463D01*
X144494815Y-106648815D01*
X144415463Y-106745506D01*
X144356498Y-106855820D01*
X144320188Y-106975518D01*
X144307928Y-107100000D01*
X144311000Y-107664250D01*
X144469750Y-107823000D01*
X145669000Y-107823000D01*
X145669000Y-107803000D01*
X145923000Y-107803000D01*
X145923000Y-107823000D01*
X147122250Y-107823000D01*
X147281000Y-107664250D01*
X147284072Y-107100000D01*
X147271812Y-106975518D01*
X147235502Y-106855820D01*
X147176537Y-106745506D01*
X147097185Y-106648815D01*
X147000494Y-106569463D01*
X146890180Y-106510498D01*
X146817620Y-106488487D01*
X146949475Y-106356632D01*
X147111990Y-106113411D01*
X147223932Y-105843158D01*
X147239102Y-105766890D01*
X149558524Y-105766890D01*
X149603175Y-105914099D01*
X149728359Y-106176920D01*
X149902412Y-106410269D01*
X150118645Y-106605178D01*
X150244255Y-106680000D01*
X150118645Y-106754822D01*
X149902412Y-106949731D01*
X149728359Y-107183080D01*
X149603175Y-107445901D01*
X149558524Y-107593110D01*
X149679845Y-107823000D01*
X150873000Y-107823000D01*
X150873000Y-105537000D01*
X151127000Y-105537000D01*
X151127000Y-107823000D01*
X153413000Y-107823000D01*
X153413000Y-105537000D01*
X151127000Y-105537000D01*
X150873000Y-105537000D01*
X149679845Y-105537000D01*
X149558524Y-105766890D01*
X147239102Y-105766890D01*
X147281000Y-105556260D01*
X147281000Y-105263740D01*
X147223932Y-104976842D01*
X147111990Y-104706589D01*
X146949475Y-104463368D01*
X146742632Y-104256525D01*
X146499411Y-104094010D01*
X146229158Y-103982068D01*
X145942260Y-103925000D01*
X145649740Y-103925000D01*
X145617470Y-103931419D01*
X145166669Y-103345378D01*
X145160974Y-103334724D01*
X145121084Y-103286118D01*
X145105631Y-103266029D01*
X145097420Y-103257283D01*
X145072478Y-103226890D01*
X149558524Y-103226890D01*
X149603175Y-103374099D01*
X149728359Y-103636920D01*
X149902412Y-103870269D01*
X150118645Y-104065178D01*
X150244255Y-104140000D01*
X150118645Y-104214822D01*
X149902412Y-104409731D01*
X149728359Y-104643080D01*
X149603175Y-104905901D01*
X149558524Y-105053110D01*
X149679845Y-105283000D01*
X150873000Y-105283000D01*
X150873000Y-102997000D01*
X149679845Y-102997000D01*
X149558524Y-103226890D01*
X145072478Y-103226890D01*
X145066001Y-103218999D01*
X145046290Y-103202822D01*
X145028839Y-103184235D01*
X144988556Y-103155442D01*
X144950276Y-103124026D01*
X144927787Y-103112005D01*
X144907046Y-103097180D01*
X144861933Y-103076805D01*
X144818247Y-103053454D01*
X144793835Y-103046049D01*
X144770609Y-103035559D01*
X144722388Y-103024376D01*
X144674986Y-103009997D01*
X144649608Y-103007497D01*
X144624773Y-103001738D01*
X144575286Y-103000177D01*
X144563333Y-102999000D01*
X144537955Y-102999000D01*
X144475141Y-102997019D01*
X144463231Y-102999000D01*
X138492769Y-102999000D01*
X138480859Y-102997019D01*
X138418044Y-102999000D01*
X138392667Y-102999000D01*
X138380714Y-103000177D01*
X138331226Y-103001738D01*
X138306391Y-103007498D01*
X138281014Y-103009997D01*
X138233615Y-103024375D01*
X138185390Y-103035559D01*
X138162161Y-103046050D01*
X138137753Y-103053454D01*
X138094081Y-103076798D01*
X138048953Y-103097179D01*
X138028205Y-103112010D01*
X138005724Y-103124026D01*
X137967454Y-103155434D01*
X137927160Y-103184235D01*
X137909706Y-103202826D01*
X137889999Y-103218999D01*
X137858587Y-103257275D01*
X137850368Y-103266029D01*
X137834901Y-103286137D01*
X137795026Y-103334724D01*
X137789333Y-103345374D01*
X137307369Y-103971928D01*
X136360000Y-103971928D01*
X136235518Y-103984188D01*
X136115820Y-104020498D01*
X136005506Y-104079463D01*
X135908815Y-104158815D01*
X135829463Y-104255506D01*
X135770498Y-104365820D01*
X135734188Y-104485518D01*
X135721928Y-104610000D01*
X135721928Y-106210000D01*
X135734188Y-106334482D01*
X135770498Y-106454180D01*
X135829463Y-106564494D01*
X135908815Y-106661185D01*
X136005506Y-106740537D01*
X136115820Y-106799502D01*
X136235518Y-106835812D01*
X136243961Y-106836643D01*
X136045363Y-107035241D01*
X135888320Y-107270273D01*
X135780147Y-107531426D01*
X135725000Y-107808665D01*
X135725000Y-108091335D01*
X135780147Y-108368574D01*
X135785200Y-108380773D01*
X133035464Y-111505474D01*
X132999932Y-111326842D01*
X132887990Y-111056589D01*
X132725475Y-110813368D01*
X132518632Y-110606525D01*
X132344240Y-110490000D01*
X132518632Y-110373475D01*
X132725475Y-110166632D01*
X132887990Y-109923411D01*
X132999932Y-109653158D01*
X133057000Y-109366260D01*
X133057000Y-109073740D01*
X132999932Y-108786842D01*
X132887990Y-108516589D01*
X132725475Y-108273368D01*
X132518632Y-108066525D01*
X132344240Y-107950000D01*
X132518632Y-107833475D01*
X132725475Y-107626632D01*
X132887990Y-107383411D01*
X132999932Y-107113158D01*
X133057000Y-106826260D01*
X133057000Y-106533740D01*
X132999932Y-106246842D01*
X132887990Y-105976589D01*
X132725475Y-105733368D01*
X132518632Y-105526525D01*
X132344240Y-105410000D01*
X132518632Y-105293475D01*
X132725475Y-105086632D01*
X132887990Y-104843411D01*
X132999932Y-104573158D01*
X133057000Y-104286260D01*
X133057000Y-103993740D01*
X132999932Y-103706842D01*
X132887990Y-103436589D01*
X132760835Y-103246288D01*
X135721928Y-100285196D01*
X135721928Y-101130000D01*
X135734188Y-101254482D01*
X135770498Y-101374180D01*
X135829463Y-101484494D01*
X135908815Y-101581185D01*
X136005506Y-101660537D01*
X136115820Y-101719502D01*
X136235518Y-101755812D01*
X136360000Y-101768072D01*
X137960000Y-101768072D01*
X138084482Y-101755812D01*
X138204180Y-101719502D01*
X138314494Y-101660537D01*
X138411185Y-101581185D01*
X138490537Y-101484494D01*
X138549502Y-101374180D01*
X138585812Y-101254482D01*
X138598072Y-101130000D01*
X138598072Y-99530000D01*
X138585812Y-99405518D01*
X138549502Y-99285820D01*
X138490537Y-99175506D01*
X138411185Y-99078815D01*
X138314494Y-98999463D01*
X138204180Y-98940498D01*
X138084482Y-98904188D01*
X138076039Y-98903357D01*
X138274637Y-98704759D01*
X138386396Y-98537500D01*
X141013604Y-98537500D01*
X141125363Y-98704759D01*
X141323961Y-98903357D01*
X141315518Y-98904188D01*
X141195820Y-98940498D01*
X141085506Y-98999463D01*
X140988815Y-99078815D01*
X140909463Y-99175506D01*
X140850498Y-99285820D01*
X140814188Y-99405518D01*
X140801928Y-99530000D01*
X140801928Y-101130000D01*
X140814188Y-101254482D01*
X140850498Y-101374180D01*
X140909463Y-101484494D01*
X140988815Y-101581185D01*
X141085506Y-101660537D01*
X141195820Y-101719502D01*
X141315518Y-101755812D01*
X141440000Y-101768072D01*
X143040000Y-101768072D01*
X143164482Y-101755812D01*
X143284180Y-101719502D01*
X143394494Y-101660537D01*
X143491185Y-101581185D01*
X143570537Y-101484494D01*
X143629502Y-101374180D01*
X143665812Y-101254482D01*
X143678072Y-101130000D01*
X143678072Y-99530000D01*
X143665812Y-99405518D01*
X143629502Y-99285820D01*
X143570537Y-99175506D01*
X143491185Y-99078815D01*
X143394494Y-98999463D01*
X143284180Y-98940498D01*
X143164482Y-98904188D01*
X143156039Y-98903357D01*
X143354637Y-98704759D01*
X143511680Y-98469727D01*
X143619853Y-98208574D01*
X143668988Y-97961557D01*
X144307928Y-97671130D01*
X144307928Y-98640000D01*
%TA.AperFunction,Conductor*%
D35*
G36*
X144307928Y-98640000D02*
G01*
X144320188Y-98764482D01*
X144356498Y-98884180D01*
X144415463Y-98994494D01*
X144494815Y-99091185D01*
X144591506Y-99170537D01*
X144701820Y-99229502D01*
X144774380Y-99251513D01*
X144642525Y-99383368D01*
X144480010Y-99626589D01*
X144368068Y-99896842D01*
X144311000Y-100183740D01*
X144311000Y-100476260D01*
X144368068Y-100763158D01*
X144480010Y-101033411D01*
X144642525Y-101276632D01*
X144849368Y-101483475D01*
X145092589Y-101645990D01*
X145362842Y-101757932D01*
X145649740Y-101815000D01*
X145942260Y-101815000D01*
X146229158Y-101757932D01*
X146499411Y-101645990D01*
X146742632Y-101483475D01*
X146949475Y-101276632D01*
X147111990Y-101033411D01*
X147223932Y-100763158D01*
X147281000Y-100476260D01*
X147281000Y-100183740D01*
X147223932Y-99896842D01*
X147111990Y-99626589D01*
X146949475Y-99383368D01*
X146817620Y-99251513D01*
X146890180Y-99229502D01*
X146948054Y-99198567D01*
X147526001Y-99776514D01*
X147526000Y-100541211D01*
X147522081Y-100581000D01*
X147526000Y-100620788D01*
X147526000Y-100620790D01*
X147537720Y-100739787D01*
X147584037Y-100892472D01*
X147584038Y-100892473D01*
X147659251Y-101033189D01*
X147677463Y-101055380D01*
X147760472Y-101156528D01*
X147791387Y-101181899D01*
X148754105Y-102144618D01*
X148779472Y-102175528D01*
X148884039Y-102261343D01*
X148902811Y-102276749D01*
X149043526Y-102351963D01*
X149079063Y-102362743D01*
X149196212Y-102398280D01*
X149315209Y-102410000D01*
X149315212Y-102410000D01*
X149355000Y-102413919D01*
X149394788Y-102410000D01*
X149589799Y-102410000D01*
X149558524Y-102513110D01*
X149679845Y-102743000D01*
X150873000Y-102743000D01*
X150873000Y-102723000D01*
X151127000Y-102723000D01*
X151127000Y-102743000D01*
X151147000Y-102743000D01*
X151147000Y-102997000D01*
X151127000Y-102997000D01*
X151127000Y-105283000D01*
X153413000Y-105283000D01*
X153413000Y-105263000D01*
X153667000Y-105263000D01*
X153667000Y-105283000D01*
X153687000Y-105283000D01*
X153687000Y-105537000D01*
X153667000Y-105537000D01*
X153667000Y-107823000D01*
X154860155Y-107823000D01*
X154981476Y-107593110D01*
X154936825Y-107445901D01*
X154811641Y-107183080D01*
X154637588Y-106949731D01*
X154421355Y-106754822D01*
X154295745Y-106680000D01*
X154421355Y-106605178D01*
X154637588Y-106410269D01*
X154704735Y-106320247D01*
X159277502Y-110893015D01*
X159277501Y-111992377D01*
X157272529Y-109987406D01*
X157249119Y-109958881D01*
X157135298Y-109865470D01*
X157005440Y-109796059D01*
X156864535Y-109753316D01*
X156754715Y-109742500D01*
X156754705Y-109742500D01*
X156718000Y-109738885D01*
X156681295Y-109742500D01*
X154826531Y-109742500D01*
X154693475Y-109543368D01*
X154486632Y-109336525D01*
X154304466Y-109214805D01*
X154421355Y-109145178D01*
X154637588Y-108950269D01*
X154811641Y-108716920D01*
X154936825Y-108454099D01*
X154981476Y-108306890D01*
X154860155Y-108077000D01*
X153667000Y-108077000D01*
X153667000Y-108097000D01*
X153413000Y-108097000D01*
X153413000Y-108077000D01*
X151127000Y-108077000D01*
X151127000Y-110363000D01*
X151147000Y-110363000D01*
X151147000Y-110617000D01*
X151127000Y-110617000D01*
X151127000Y-112903000D01*
X153413000Y-112903000D01*
X153413000Y-112883000D01*
X153667000Y-112883000D01*
X153667000Y-112903000D01*
X154860155Y-112903000D01*
X154981476Y-112673110D01*
X154936825Y-112525901D01*
X154811641Y-112263080D01*
X154637588Y-112029731D01*
X154421355Y-111834822D01*
X154304466Y-111765195D01*
X154486632Y-111643475D01*
X154693475Y-111436632D01*
X154826531Y-111237500D01*
X156408377Y-111237500D01*
X159673480Y-114502605D01*
X159696881Y-114531119D01*
X159725395Y-114554520D01*
X159725399Y-114554524D01*
X159810701Y-114624530D01*
X159874333Y-114658542D01*
X159710376Y-114822500D01*
X154826531Y-114822500D01*
X154693475Y-114623368D01*
X154486632Y-114416525D01*
X154304466Y-114294805D01*
X154421355Y-114225178D01*
X154637588Y-114030269D01*
X154811641Y-113796920D01*
X154936825Y-113534099D01*
X154981476Y-113386890D01*
X154860155Y-113157000D01*
X153667000Y-113157000D01*
X153667000Y-113177000D01*
X153413000Y-113177000D01*
X153413000Y-113157000D01*
X151127000Y-113157000D01*
X151127000Y-113177000D01*
X150873000Y-113177000D01*
X150873000Y-113157000D01*
X150853000Y-113157000D01*
X150853000Y-112903000D01*
X150873000Y-112903000D01*
X150873000Y-110617000D01*
X149679845Y-110617000D01*
X149558524Y-110846890D01*
X149603175Y-110994099D01*
X149728359Y-111256920D01*
X149902412Y-111490269D01*
X150118645Y-111685178D01*
X150244255Y-111760000D01*
X150118645Y-111834822D01*
X149902412Y-112029731D01*
X149728359Y-112263080D01*
X149603175Y-112525901D01*
X149558524Y-112673110D01*
X149599751Y-112751231D01*
X145356049Y-109435840D01*
X145510250Y-109435000D01*
X145669000Y-109276250D01*
X145669000Y-108077000D01*
X145923000Y-108077000D01*
X145923000Y-109276250D01*
X146081750Y-109435000D01*
X146646000Y-109438072D01*
X146770482Y-109425812D01*
X146890180Y-109389502D01*
X147000494Y-109330537D01*
X147097185Y-109251185D01*
X147176537Y-109154494D01*
X147235502Y-109044180D01*
X147271812Y-108924482D01*
X147284072Y-108800000D01*
X147281388Y-108306890D01*
X149558524Y-108306890D01*
X149603175Y-108454099D01*
X149728359Y-108716920D01*
X149902412Y-108950269D01*
X150118645Y-109145178D01*
X150244255Y-109220000D01*
X150118645Y-109294822D01*
X149902412Y-109489731D01*
X149728359Y-109723080D01*
X149603175Y-109985901D01*
X149558524Y-110133110D01*
X149679845Y-110363000D01*
X150873000Y-110363000D01*
X150873000Y-108077000D01*
X149679845Y-108077000D01*
X149558524Y-108306890D01*
X147281388Y-108306890D01*
X147281000Y-108235750D01*
X147122250Y-108077000D01*
X145923000Y-108077000D01*
X145669000Y-108077000D01*
X144469750Y-108077000D01*
X144311000Y-108235750D01*
X144308920Y-108617770D01*
X143669631Y-108118326D01*
X143675000Y-108091335D01*
X143675000Y-107808665D01*
X143619853Y-107531426D01*
X143511680Y-107270273D01*
X143354637Y-107035241D01*
X143156039Y-106836643D01*
X143164482Y-106835812D01*
X143284180Y-106799502D01*
X143394494Y-106740537D01*
X143491185Y-106661185D01*
X143570537Y-106564494D01*
X143629502Y-106454180D01*
X143665812Y-106334482D01*
X143678072Y-106210000D01*
X143678072Y-104610000D01*
X143669110Y-104519000D01*
X144151775Y-104519000D01*
X144415632Y-104862013D01*
X144368068Y-104976842D01*
X144311000Y-105263740D01*
X144311000Y-105556260D01*
X144368068Y-105843158D01*
X144480010Y-106113411D01*
X144642525Y-106356632D01*
X144774380Y-106488487D01*
X144701820Y-106510498D01*
X144591506Y-106569463D01*
X144494815Y-106648815D01*
X144415463Y-106745506D01*
X144356498Y-106855820D01*
X144320188Y-106975518D01*
X144307928Y-107100000D01*
X144311000Y-107664250D01*
X144469750Y-107823000D01*
X145669000Y-107823000D01*
X145669000Y-107803000D01*
X145923000Y-107803000D01*
X145923000Y-107823000D01*
X147122250Y-107823000D01*
X147281000Y-107664250D01*
X147284072Y-107100000D01*
X147271812Y-106975518D01*
X147235502Y-106855820D01*
X147176537Y-106745506D01*
X147097185Y-106648815D01*
X147000494Y-106569463D01*
X146890180Y-106510498D01*
X146817620Y-106488487D01*
X146949475Y-106356632D01*
X147111990Y-106113411D01*
X147223932Y-105843158D01*
X147239102Y-105766890D01*
X149558524Y-105766890D01*
X149603175Y-105914099D01*
X149728359Y-106176920D01*
X149902412Y-106410269D01*
X150118645Y-106605178D01*
X150244255Y-106680000D01*
X150118645Y-106754822D01*
X149902412Y-106949731D01*
X149728359Y-107183080D01*
X149603175Y-107445901D01*
X149558524Y-107593110D01*
X149679845Y-107823000D01*
X150873000Y-107823000D01*
X150873000Y-105537000D01*
X151127000Y-105537000D01*
X151127000Y-107823000D01*
X153413000Y-107823000D01*
X153413000Y-105537000D01*
X151127000Y-105537000D01*
X150873000Y-105537000D01*
X149679845Y-105537000D01*
X149558524Y-105766890D01*
X147239102Y-105766890D01*
X147281000Y-105556260D01*
X147281000Y-105263740D01*
X147223932Y-104976842D01*
X147111990Y-104706589D01*
X146949475Y-104463368D01*
X146742632Y-104256525D01*
X146499411Y-104094010D01*
X146229158Y-103982068D01*
X145942260Y-103925000D01*
X145649740Y-103925000D01*
X145617470Y-103931419D01*
X145166669Y-103345378D01*
X145160974Y-103334724D01*
X145121084Y-103286118D01*
X145105631Y-103266029D01*
X145097420Y-103257283D01*
X145072478Y-103226890D01*
X149558524Y-103226890D01*
X149603175Y-103374099D01*
X149728359Y-103636920D01*
X149902412Y-103870269D01*
X150118645Y-104065178D01*
X150244255Y-104140000D01*
X150118645Y-104214822D01*
X149902412Y-104409731D01*
X149728359Y-104643080D01*
X149603175Y-104905901D01*
X149558524Y-105053110D01*
X149679845Y-105283000D01*
X150873000Y-105283000D01*
X150873000Y-102997000D01*
X149679845Y-102997000D01*
X149558524Y-103226890D01*
X145072478Y-103226890D01*
X145066001Y-103218999D01*
X145046290Y-103202822D01*
X145028839Y-103184235D01*
X144988556Y-103155442D01*
X144950276Y-103124026D01*
X144927787Y-103112005D01*
X144907046Y-103097180D01*
X144861933Y-103076805D01*
X144818247Y-103053454D01*
X144793835Y-103046049D01*
X144770609Y-103035559D01*
X144722388Y-103024376D01*
X144674986Y-103009997D01*
X144649608Y-103007497D01*
X144624773Y-103001738D01*
X144575286Y-103000177D01*
X144563333Y-102999000D01*
X144537955Y-102999000D01*
X144475141Y-102997019D01*
X144463231Y-102999000D01*
X138492769Y-102999000D01*
X138480859Y-102997019D01*
X138418044Y-102999000D01*
X138392667Y-102999000D01*
X138380714Y-103000177D01*
X138331226Y-103001738D01*
X138306391Y-103007498D01*
X138281014Y-103009997D01*
X138233615Y-103024375D01*
X138185390Y-103035559D01*
X138162161Y-103046050D01*
X138137753Y-103053454D01*
X138094081Y-103076798D01*
X138048953Y-103097179D01*
X138028205Y-103112010D01*
X138005724Y-103124026D01*
X137967454Y-103155434D01*
X137927160Y-103184235D01*
X137909706Y-103202826D01*
X137889999Y-103218999D01*
X137858587Y-103257275D01*
X137850368Y-103266029D01*
X137834901Y-103286137D01*
X137795026Y-103334724D01*
X137789333Y-103345374D01*
X137307369Y-103971928D01*
X136360000Y-103971928D01*
X136235518Y-103984188D01*
X136115820Y-104020498D01*
X136005506Y-104079463D01*
X135908815Y-104158815D01*
X135829463Y-104255506D01*
X135770498Y-104365820D01*
X135734188Y-104485518D01*
X135721928Y-104610000D01*
X135721928Y-106210000D01*
X135734188Y-106334482D01*
X135770498Y-106454180D01*
X135829463Y-106564494D01*
X135908815Y-106661185D01*
X136005506Y-106740537D01*
X136115820Y-106799502D01*
X136235518Y-106835812D01*
X136243961Y-106836643D01*
X136045363Y-107035241D01*
X135888320Y-107270273D01*
X135780147Y-107531426D01*
X135725000Y-107808665D01*
X135725000Y-108091335D01*
X135780147Y-108368574D01*
X135785200Y-108380773D01*
X133035464Y-111505474D01*
X132999932Y-111326842D01*
X132887990Y-111056589D01*
X132725475Y-110813368D01*
X132518632Y-110606525D01*
X132344240Y-110490000D01*
X132518632Y-110373475D01*
X132725475Y-110166632D01*
X132887990Y-109923411D01*
X132999932Y-109653158D01*
X133057000Y-109366260D01*
X133057000Y-109073740D01*
X132999932Y-108786842D01*
X132887990Y-108516589D01*
X132725475Y-108273368D01*
X132518632Y-108066525D01*
X132344240Y-107950000D01*
X132518632Y-107833475D01*
X132725475Y-107626632D01*
X132887990Y-107383411D01*
X132999932Y-107113158D01*
X133057000Y-106826260D01*
X133057000Y-106533740D01*
X132999932Y-106246842D01*
X132887990Y-105976589D01*
X132725475Y-105733368D01*
X132518632Y-105526525D01*
X132344240Y-105410000D01*
X132518632Y-105293475D01*
X132725475Y-105086632D01*
X132887990Y-104843411D01*
X132999932Y-104573158D01*
X133057000Y-104286260D01*
X133057000Y-103993740D01*
X132999932Y-103706842D01*
X132887990Y-103436589D01*
X132760835Y-103246288D01*
X135721928Y-100285196D01*
X135721928Y-101130000D01*
X135734188Y-101254482D01*
X135770498Y-101374180D01*
X135829463Y-101484494D01*
X135908815Y-101581185D01*
X136005506Y-101660537D01*
X136115820Y-101719502D01*
X136235518Y-101755812D01*
X136360000Y-101768072D01*
X137960000Y-101768072D01*
X138084482Y-101755812D01*
X138204180Y-101719502D01*
X138314494Y-101660537D01*
X138411185Y-101581185D01*
X138490537Y-101484494D01*
X138549502Y-101374180D01*
X138585812Y-101254482D01*
X138598072Y-101130000D01*
X138598072Y-99530000D01*
X138585812Y-99405518D01*
X138549502Y-99285820D01*
X138490537Y-99175506D01*
X138411185Y-99078815D01*
X138314494Y-98999463D01*
X138204180Y-98940498D01*
X138084482Y-98904188D01*
X138076039Y-98903357D01*
X138274637Y-98704759D01*
X138386396Y-98537500D01*
X141013604Y-98537500D01*
X141125363Y-98704759D01*
X141323961Y-98903357D01*
X141315518Y-98904188D01*
X141195820Y-98940498D01*
X141085506Y-98999463D01*
X140988815Y-99078815D01*
X140909463Y-99175506D01*
X140850498Y-99285820D01*
X140814188Y-99405518D01*
X140801928Y-99530000D01*
X140801928Y-101130000D01*
X140814188Y-101254482D01*
X140850498Y-101374180D01*
X140909463Y-101484494D01*
X140988815Y-101581185D01*
X141085506Y-101660537D01*
X141195820Y-101719502D01*
X141315518Y-101755812D01*
X141440000Y-101768072D01*
X143040000Y-101768072D01*
X143164482Y-101755812D01*
X143284180Y-101719502D01*
X143394494Y-101660537D01*
X143491185Y-101581185D01*
X143570537Y-101484494D01*
X143629502Y-101374180D01*
X143665812Y-101254482D01*
X143678072Y-101130000D01*
X143678072Y-99530000D01*
X143665812Y-99405518D01*
X143629502Y-99285820D01*
X143570537Y-99175506D01*
X143491185Y-99078815D01*
X143394494Y-98999463D01*
X143284180Y-98940498D01*
X143164482Y-98904188D01*
X143156039Y-98903357D01*
X143354637Y-98704759D01*
X143511680Y-98469727D01*
X143619853Y-98208574D01*
X143668988Y-97961557D01*
X144307928Y-97671130D01*
X144307928Y-98640000D01*
G37*
%TD.AperFunction*%
D34*
X161417000Y-111873000D02*
X161437000Y-111873000D01*
X161437000Y-112127000D01*
X161417000Y-112127000D01*
X161417000Y-112147000D01*
X161163000Y-112147000D01*
X161163000Y-112127000D01*
X161143000Y-112127000D01*
X161143000Y-111873000D01*
X161163000Y-111873000D01*
X161163000Y-111853000D01*
X161417000Y-111853000D01*
X161417000Y-111873000D01*
%TA.AperFunction,Conductor*%
D35*
G36*
X161417000Y-111873000D02*
G01*
X161437000Y-111873000D01*
X161437000Y-112127000D01*
X161417000Y-112127000D01*
X161417000Y-112147000D01*
X161163000Y-112147000D01*
X161163000Y-112127000D01*
X161143000Y-112127000D01*
X161143000Y-111873000D01*
X161163000Y-111873000D01*
X161163000Y-111853000D01*
X161417000Y-111853000D01*
X161417000Y-111873000D01*
G37*
%TD.AperFunction*%
D34*
X161417000Y-109873000D02*
X161437000Y-109873000D01*
X161437000Y-110127000D01*
X161417000Y-110127000D01*
X161417000Y-110147000D01*
X161163000Y-110147000D01*
X161163000Y-110127000D01*
X161143000Y-110127000D01*
X161143000Y-109873000D01*
X161163000Y-109873000D01*
X161163000Y-109853000D01*
X161417000Y-109853000D01*
X161417000Y-109873000D01*
%TA.AperFunction,Conductor*%
D35*
G36*
X161417000Y-109873000D02*
G01*
X161437000Y-109873000D01*
X161437000Y-110127000D01*
X161417000Y-110127000D01*
X161417000Y-110147000D01*
X161163000Y-110147000D01*
X161163000Y-110127000D01*
X161143000Y-110127000D01*
X161143000Y-109873000D01*
X161163000Y-109873000D01*
X161163000Y-109853000D01*
X161417000Y-109853000D01*
X161417000Y-109873000D01*
G37*
%TD.AperFunction*%
D34*
X161417000Y-107873000D02*
X161437000Y-107873000D01*
X161437000Y-108127000D01*
X161417000Y-108127000D01*
X161417000Y-108147000D01*
X161163000Y-108147000D01*
X161163000Y-108127000D01*
X161143000Y-108127000D01*
X161143000Y-107873000D01*
X161163000Y-107873000D01*
X161163000Y-107853000D01*
X161417000Y-107853000D01*
X161417000Y-107873000D01*
%TA.AperFunction,Conductor*%
D35*
G36*
X161417000Y-107873000D02*
G01*
X161437000Y-107873000D01*
X161437000Y-108127000D01*
X161417000Y-108127000D01*
X161417000Y-108147000D01*
X161163000Y-108147000D01*
X161163000Y-108127000D01*
X161143000Y-108127000D01*
X161143000Y-107873000D01*
X161163000Y-107873000D01*
X161163000Y-107853000D01*
X161417000Y-107853000D01*
X161417000Y-107873000D01*
G37*
%TD.AperFunction*%
D34*
X161417000Y-103873000D02*
X161437000Y-103873000D01*
X161437000Y-104127000D01*
X161417000Y-104127000D01*
X161417000Y-104147000D01*
X161163000Y-104147000D01*
X161163000Y-104127000D01*
X161143000Y-104127000D01*
X161143000Y-103873000D01*
X161163000Y-103873000D01*
X161163000Y-103853000D01*
X161417000Y-103853000D01*
X161417000Y-103873000D01*
%TA.AperFunction,Conductor*%
D35*
G36*
X161417000Y-103873000D02*
G01*
X161437000Y-103873000D01*
X161437000Y-104127000D01*
X161417000Y-104127000D01*
X161417000Y-104147000D01*
X161163000Y-104147000D01*
X161163000Y-104127000D01*
X161143000Y-104127000D01*
X161143000Y-103873000D01*
X161163000Y-103873000D01*
X161163000Y-103853000D01*
X161417000Y-103853000D01*
X161417000Y-103873000D01*
G37*
%TD.AperFunction*%
D34*
X161417000Y-101873000D02*
X161437000Y-101873000D01*
X161437000Y-102127000D01*
X161417000Y-102127000D01*
X161417000Y-102147000D01*
X161163000Y-102147000D01*
X161163000Y-102127000D01*
X161143000Y-102127000D01*
X161143000Y-101873000D01*
X161163000Y-101873000D01*
X161163000Y-101853000D01*
X161417000Y-101853000D01*
X161417000Y-101873000D01*
%TA.AperFunction,Conductor*%
D35*
G36*
X161417000Y-101873000D02*
G01*
X161437000Y-101873000D01*
X161437000Y-102127000D01*
X161417000Y-102127000D01*
X161417000Y-102147000D01*
X161163000Y-102147000D01*
X161163000Y-102127000D01*
X161143000Y-102127000D01*
X161143000Y-101873000D01*
X161163000Y-101873000D01*
X161163000Y-101853000D01*
X161417000Y-101853000D01*
X161417000Y-101873000D01*
G37*
%TD.AperFunction*%
D34*
X151127000Y-95123000D02*
X153413000Y-95123000D01*
X153413000Y-95103000D01*
X153667000Y-95103000D01*
X153667000Y-95123000D01*
X153687000Y-95123000D01*
X153687000Y-95377000D01*
X153667000Y-95377000D01*
X153667000Y-97663000D01*
X153687000Y-97663000D01*
X153687000Y-97917000D01*
X153667000Y-97917000D01*
X153667000Y-100203000D01*
X153687000Y-100203000D01*
X153687000Y-100457000D01*
X153667000Y-100457000D01*
X153667000Y-100477000D01*
X153413000Y-100477000D01*
X153413000Y-100457000D01*
X151127000Y-100457000D01*
X151127000Y-100477000D01*
X150873000Y-100477000D01*
X150873000Y-100457000D01*
X149679845Y-100457000D01*
X149568500Y-100667987D01*
X149146000Y-100245488D01*
X149146000Y-99480791D01*
X149149919Y-99441000D01*
X149134280Y-99282212D01*
X149087963Y-99129526D01*
X149012749Y-98988811D01*
X148948904Y-98911015D01*
X148911528Y-98865472D01*
X148880618Y-98840105D01*
X148187403Y-98146890D01*
X149558524Y-98146890D01*
X149603175Y-98294099D01*
X149728359Y-98556920D01*
X149902412Y-98790269D01*
X150118645Y-98985178D01*
X150244255Y-99060000D01*
X150118645Y-99134822D01*
X149902412Y-99329731D01*
X149728359Y-99563080D01*
X149603175Y-99825901D01*
X149558524Y-99973110D01*
X149679845Y-100203000D01*
X150873000Y-100203000D01*
X150873000Y-97917000D01*
X151127000Y-97917000D01*
X151127000Y-100203000D01*
X153413000Y-100203000D01*
X153413000Y-97917000D01*
X151127000Y-97917000D01*
X150873000Y-97917000D01*
X149679845Y-97917000D01*
X149558524Y-98146890D01*
X148187403Y-98146890D01*
X147284072Y-97243560D01*
X147284072Y-96940000D01*
X147271812Y-96815518D01*
X147235502Y-96695820D01*
X147176537Y-96585506D01*
X147097185Y-96488815D01*
X147030115Y-96433773D01*
X149515000Y-95304280D01*
X149515000Y-95377002D01*
X149679844Y-95377002D01*
X149558524Y-95606890D01*
X149603175Y-95754099D01*
X149728359Y-96016920D01*
X149902412Y-96250269D01*
X150118645Y-96445178D01*
X150244255Y-96520000D01*
X150118645Y-96594822D01*
X149902412Y-96789731D01*
X149728359Y-97023080D01*
X149603175Y-97285901D01*
X149558524Y-97433110D01*
X149679845Y-97663000D01*
X150873000Y-97663000D01*
X150873000Y-95377000D01*
X151127000Y-95377000D01*
X151127000Y-97663000D01*
X153413000Y-97663000D01*
X153413000Y-95377000D01*
X151127000Y-95377000D01*
X150873000Y-95377000D01*
X150853000Y-95377000D01*
X150853000Y-95123000D01*
X150873000Y-95123000D01*
X150873000Y-95103000D01*
X151127000Y-95103000D01*
X151127000Y-95123000D01*
%TA.AperFunction,Conductor*%
D35*
G36*
X151127000Y-95123000D02*
G01*
X153413000Y-95123000D01*
X153413000Y-95103000D01*
X153667000Y-95103000D01*
X153667000Y-95123000D01*
X153687000Y-95123000D01*
X153687000Y-95377000D01*
X153667000Y-95377000D01*
X153667000Y-97663000D01*
X153687000Y-97663000D01*
X153687000Y-97917000D01*
X153667000Y-97917000D01*
X153667000Y-100203000D01*
X153687000Y-100203000D01*
X153687000Y-100457000D01*
X153667000Y-100457000D01*
X153667000Y-100477000D01*
X153413000Y-100477000D01*
X153413000Y-100457000D01*
X151127000Y-100457000D01*
X151127000Y-100477000D01*
X150873000Y-100477000D01*
X150873000Y-100457000D01*
X149679845Y-100457000D01*
X149568500Y-100667987D01*
X149146000Y-100245488D01*
X149146000Y-99480791D01*
X149149919Y-99441000D01*
X149134280Y-99282212D01*
X149087963Y-99129526D01*
X149012749Y-98988811D01*
X148948904Y-98911015D01*
X148911528Y-98865472D01*
X148880618Y-98840105D01*
X148187403Y-98146890D01*
X149558524Y-98146890D01*
X149603175Y-98294099D01*
X149728359Y-98556920D01*
X149902412Y-98790269D01*
X150118645Y-98985178D01*
X150244255Y-99060000D01*
X150118645Y-99134822D01*
X149902412Y-99329731D01*
X149728359Y-99563080D01*
X149603175Y-99825901D01*
X149558524Y-99973110D01*
X149679845Y-100203000D01*
X150873000Y-100203000D01*
X150873000Y-97917000D01*
X151127000Y-97917000D01*
X151127000Y-100203000D01*
X153413000Y-100203000D01*
X153413000Y-97917000D01*
X151127000Y-97917000D01*
X150873000Y-97917000D01*
X149679845Y-97917000D01*
X149558524Y-98146890D01*
X148187403Y-98146890D01*
X147284072Y-97243560D01*
X147284072Y-96940000D01*
X147271812Y-96815518D01*
X147235502Y-96695820D01*
X147176537Y-96585506D01*
X147097185Y-96488815D01*
X147030115Y-96433773D01*
X149515000Y-95304280D01*
X149515000Y-95377002D01*
X149679844Y-95377002D01*
X149558524Y-95606890D01*
X149603175Y-95754099D01*
X149728359Y-96016920D01*
X149902412Y-96250269D01*
X150118645Y-96445178D01*
X150244255Y-96520000D01*
X150118645Y-96594822D01*
X149902412Y-96789731D01*
X149728359Y-97023080D01*
X149603175Y-97285901D01*
X149558524Y-97433110D01*
X149679845Y-97663000D01*
X150873000Y-97663000D01*
X150873000Y-95377000D01*
X151127000Y-95377000D01*
X151127000Y-97663000D01*
X153413000Y-97663000D01*
X153413000Y-95377000D01*
X151127000Y-95377000D01*
X150873000Y-95377000D01*
X150853000Y-95377000D01*
X150853000Y-95123000D01*
X150873000Y-95123000D01*
X150873000Y-95103000D01*
X151127000Y-95103000D01*
X151127000Y-95123000D01*
G37*
%TD.AperFunction*%
D34*
X161417000Y-99873000D02*
X161437000Y-99873000D01*
X161437000Y-100127000D01*
X161417000Y-100127000D01*
X161417000Y-100147000D01*
X161163000Y-100147000D01*
X161163000Y-100127000D01*
X161143000Y-100127000D01*
X161143000Y-99873000D01*
X161163000Y-99873000D01*
X161163000Y-99853000D01*
X161417000Y-99853000D01*
X161417000Y-99873000D01*
%TA.AperFunction,Conductor*%
D35*
G36*
X161417000Y-99873000D02*
G01*
X161437000Y-99873000D01*
X161437000Y-100127000D01*
X161417000Y-100127000D01*
X161417000Y-100147000D01*
X161163000Y-100147000D01*
X161163000Y-100127000D01*
X161143000Y-100127000D01*
X161143000Y-99873000D01*
X161163000Y-99873000D01*
X161163000Y-99853000D01*
X161417000Y-99853000D01*
X161417000Y-99873000D01*
G37*
%TD.AperFunction*%
D34*
X161417000Y-97873000D02*
X161437000Y-97873000D01*
X161437000Y-98127000D01*
X161417000Y-98127000D01*
X161417000Y-98147000D01*
X161163000Y-98147000D01*
X161163000Y-98127000D01*
X161143000Y-98127000D01*
X161143000Y-97873000D01*
X161163000Y-97873000D01*
X161163000Y-97853000D01*
X161417000Y-97853000D01*
X161417000Y-97873000D01*
%TA.AperFunction,Conductor*%
D35*
G36*
X161417000Y-97873000D02*
G01*
X161437000Y-97873000D01*
X161437000Y-98127000D01*
X161417000Y-98127000D01*
X161417000Y-98147000D01*
X161163000Y-98147000D01*
X161163000Y-98127000D01*
X161143000Y-98127000D01*
X161143000Y-97873000D01*
X161163000Y-97873000D01*
X161163000Y-97853000D01*
X161417000Y-97853000D01*
X161417000Y-97873000D01*
G37*
%TD.AperFunction*%
D34*
X161417000Y-95873000D02*
X161437000Y-95873000D01*
X161437000Y-96127000D01*
X161417000Y-96127000D01*
X161417000Y-96147000D01*
X161163000Y-96147000D01*
X161163000Y-96127000D01*
X161143000Y-96127000D01*
X161143000Y-95873000D01*
X161163000Y-95873000D01*
X161163000Y-95853000D01*
X161417000Y-95853000D01*
X161417000Y-95873000D01*
%TA.AperFunction,Conductor*%
D35*
G36*
X161417000Y-95873000D02*
G01*
X161437000Y-95873000D01*
X161437000Y-96127000D01*
X161417000Y-96127000D01*
X161417000Y-96147000D01*
X161163000Y-96147000D01*
X161163000Y-96127000D01*
X161143000Y-96127000D01*
X161143000Y-95873000D01*
X161163000Y-95873000D01*
X161163000Y-95853000D01*
X161417000Y-95853000D01*
X161417000Y-95873000D01*
G37*
%TD.AperFunction*%
D34*
X161417000Y-93873000D02*
X161437000Y-93873000D01*
X161437000Y-94127000D01*
X161417000Y-94127000D01*
X161417000Y-94147000D01*
X161163000Y-94147000D01*
X161163000Y-94127000D01*
X161143000Y-94127000D01*
X161143000Y-93873000D01*
X161163000Y-93873000D01*
X161163000Y-93853000D01*
X161417000Y-93853000D01*
X161417000Y-93873000D01*
%TA.AperFunction,Conductor*%
D35*
G36*
X161417000Y-93873000D02*
G01*
X161437000Y-93873000D01*
X161437000Y-94127000D01*
X161417000Y-94127000D01*
X161417000Y-94147000D01*
X161163000Y-94147000D01*
X161163000Y-94127000D01*
X161143000Y-94127000D01*
X161143000Y-93873000D01*
X161163000Y-93873000D01*
X161163000Y-93853000D01*
X161417000Y-93853000D01*
X161417000Y-93873000D01*
G37*
%TD.AperFunction*%
D34*
X151127000Y-92583000D02*
X151147000Y-92583000D01*
X151147000Y-92837000D01*
X151127000Y-92837000D01*
X151127000Y-92857000D01*
X150873000Y-92857000D01*
X150873000Y-92837000D01*
X150853000Y-92837000D01*
X150853000Y-92583000D01*
X150873000Y-92583000D01*
X150873000Y-92563000D01*
X151127000Y-92563000D01*
X151127000Y-92583000D01*
%TA.AperFunction,Conductor*%
D35*
G36*
X151127000Y-92583000D02*
G01*
X151147000Y-92583000D01*
X151147000Y-92837000D01*
X151127000Y-92837000D01*
X151127000Y-92857000D01*
X150873000Y-92857000D01*
X150873000Y-92837000D01*
X150853000Y-92837000D01*
X150853000Y-92583000D01*
X150873000Y-92583000D01*
X150873000Y-92563000D01*
X151127000Y-92563000D01*
X151127000Y-92583000D01*
G37*
%TD.AperFunction*%
D34*
X161417000Y-91873000D02*
X163163000Y-91873000D01*
X163163000Y-91853000D01*
X163417000Y-91853000D01*
X163417000Y-91873000D01*
X163437000Y-91873000D01*
X163437000Y-92127000D01*
X163417000Y-92127000D01*
X163417000Y-92147000D01*
X163163000Y-92147000D01*
X163163000Y-92127000D01*
X161417000Y-92127000D01*
X161417000Y-92147000D01*
X161163000Y-92147000D01*
X161163000Y-92127000D01*
X161143000Y-92127000D01*
X161143000Y-91873000D01*
X161163000Y-91873000D01*
X161163000Y-91853000D01*
X161417000Y-91853000D01*
X161417000Y-91873000D01*
%TA.AperFunction,Conductor*%
D35*
G36*
X161417000Y-91873000D02*
G01*
X163163000Y-91873000D01*
X163163000Y-91853000D01*
X163417000Y-91853000D01*
X163417000Y-91873000D01*
X163437000Y-91873000D01*
X163437000Y-92127000D01*
X163417000Y-92127000D01*
X163417000Y-92147000D01*
X163163000Y-92147000D01*
X163163000Y-92127000D01*
X161417000Y-92127000D01*
X161417000Y-92147000D01*
X161163000Y-92147000D01*
X161163000Y-92127000D01*
X161143000Y-92127000D01*
X161143000Y-91873000D01*
X161163000Y-91873000D01*
X161163000Y-91853000D01*
X161417000Y-91853000D01*
X161417000Y-91873000D01*
G37*
%TD.AperFunction*%
D34*
X151127000Y-90043000D02*
X151147000Y-90043000D01*
X151147000Y-90297000D01*
X151127000Y-90297000D01*
X151127000Y-90317000D01*
X150873000Y-90317000D01*
X150873000Y-90297000D01*
X150853000Y-90297000D01*
X150853000Y-90043000D01*
X150873000Y-90043000D01*
X150873000Y-90023000D01*
X151127000Y-90023000D01*
X151127000Y-90043000D01*
%TA.AperFunction,Conductor*%
D35*
G36*
X151127000Y-90043000D02*
G01*
X151147000Y-90043000D01*
X151147000Y-90297000D01*
X151127000Y-90297000D01*
X151127000Y-90317000D01*
X150873000Y-90317000D01*
X150873000Y-90297000D01*
X150853000Y-90297000D01*
X150853000Y-90043000D01*
X150873000Y-90043000D01*
X150873000Y-90023000D01*
X151127000Y-90023000D01*
X151127000Y-90043000D01*
G37*
%TD.AperFunction*%
D34*
X151127000Y-87503000D02*
X151147000Y-87503000D01*
X151147000Y-87757000D01*
X151127000Y-87757000D01*
X151127000Y-87777000D01*
X150873000Y-87777000D01*
X150873000Y-87757000D01*
X150853000Y-87757000D01*
X150853000Y-87503000D01*
X150873000Y-87503000D01*
X150873000Y-87483000D01*
X151127000Y-87483000D01*
X151127000Y-87503000D01*
%TA.AperFunction,Conductor*%
D35*
G36*
X151127000Y-87503000D02*
G01*
X151147000Y-87503000D01*
X151147000Y-87757000D01*
X151127000Y-87757000D01*
X151127000Y-87777000D01*
X150873000Y-87777000D01*
X150873000Y-87757000D01*
X150853000Y-87757000D01*
X150853000Y-87503000D01*
X150873000Y-87503000D01*
X150873000Y-87483000D01*
X151127000Y-87483000D01*
X151127000Y-87503000D01*
G37*
%TD.AperFunction*%
D34*
X151127000Y-84963000D02*
X151147000Y-84963000D01*
X151147000Y-85217000D01*
X151127000Y-85217000D01*
X151127000Y-85237000D01*
X150873000Y-85237000D01*
X150873000Y-85217000D01*
X150853000Y-85217000D01*
X150853000Y-84963000D01*
X150873000Y-84963000D01*
X150873000Y-84943000D01*
X151127000Y-84943000D01*
X151127000Y-84963000D01*
%TA.AperFunction,Conductor*%
D35*
G36*
X151127000Y-84963000D02*
G01*
X151147000Y-84963000D01*
X151147000Y-85217000D01*
X151127000Y-85217000D01*
X151127000Y-85237000D01*
X150873000Y-85237000D01*
X150873000Y-85217000D01*
X150853000Y-85217000D01*
X150853000Y-84963000D01*
X150873000Y-84963000D01*
X150873000Y-84943000D01*
X151127000Y-84943000D01*
X151127000Y-84963000D01*
G37*
%TD.AperFunction*%
D34*
X151127000Y-82423000D02*
X151147000Y-82423000D01*
X151147000Y-82677000D01*
X151127000Y-82677000D01*
X151127000Y-82697000D01*
X150873000Y-82697000D01*
X150873000Y-82677000D01*
X150853000Y-82677000D01*
X150853000Y-82423000D01*
X150873000Y-82423000D01*
X150873000Y-82403000D01*
X151127000Y-82403000D01*
X151127000Y-82423000D01*
%TA.AperFunction,Conductor*%
D35*
G36*
X151127000Y-82423000D02*
G01*
X151147000Y-82423000D01*
X151147000Y-82677000D01*
X151127000Y-82677000D01*
X151127000Y-82697000D01*
X150873000Y-82697000D01*
X150873000Y-82677000D01*
X150853000Y-82677000D01*
X150853000Y-82423000D01*
X150873000Y-82423000D01*
X150873000Y-82403000D01*
X151127000Y-82403000D01*
X151127000Y-82423000D01*
G37*
%TD.AperFunction*%
D34*
X151127000Y-79883000D02*
X151147000Y-79883000D01*
X151147000Y-80137000D01*
X151127000Y-80137000D01*
X151127000Y-80157000D01*
X150873000Y-80157000D01*
X150873000Y-80137000D01*
X150853000Y-80137000D01*
X150853000Y-79883000D01*
X150873000Y-79883000D01*
X150873000Y-79863000D01*
X151127000Y-79863000D01*
X151127000Y-79883000D01*
%TA.AperFunction,Conductor*%
D35*
G36*
X151127000Y-79883000D02*
G01*
X151147000Y-79883000D01*
X151147000Y-80137000D01*
X151127000Y-80137000D01*
X151127000Y-80157000D01*
X150873000Y-80157000D01*
X150873000Y-80137000D01*
X150853000Y-80137000D01*
X150853000Y-79883000D01*
X150873000Y-79883000D01*
X150873000Y-79863000D01*
X151127000Y-79863000D01*
X151127000Y-79883000D01*
G37*
%TD.AperFunction*%
D34*
X151127000Y-77343000D02*
X151147000Y-77343000D01*
X151147000Y-77597000D01*
X151127000Y-77597000D01*
X151127000Y-77617000D01*
X150873000Y-77617000D01*
X150873000Y-77597000D01*
X150853000Y-77597000D01*
X150853000Y-77343000D01*
X150873000Y-77343000D01*
X150873000Y-77323000D01*
X151127000Y-77323000D01*
X151127000Y-77343000D01*
%TA.AperFunction,Conductor*%
D35*
G36*
X151127000Y-77343000D02*
G01*
X151147000Y-77343000D01*
X151147000Y-77597000D01*
X151127000Y-77597000D01*
X151127000Y-77617000D01*
X150873000Y-77617000D01*
X150873000Y-77597000D01*
X150853000Y-77597000D01*
X150853000Y-77343000D01*
X150873000Y-77343000D01*
X150873000Y-77323000D01*
X151127000Y-77323000D01*
X151127000Y-77343000D01*
G37*
%TD.AperFunction*%
D34*
X149515000Y-72104250D02*
X149673750Y-72263000D01*
X150873000Y-72263000D01*
X150873000Y-72243000D01*
X151127000Y-72243000D01*
X151127000Y-72263000D01*
X151147000Y-72263000D01*
X151147000Y-72517000D01*
X151127000Y-72517000D01*
X151127000Y-72537000D01*
X150873000Y-72537000D01*
X150873000Y-72517000D01*
X149673750Y-72517000D01*
X149515000Y-72675750D01*
X149511928Y-73240000D01*
X149524188Y-73364482D01*
X149526478Y-73372031D01*
X143289778Y-76490382D01*
X143154759Y-76355363D01*
X142919727Y-76198320D01*
X142658574Y-76090147D01*
X142381335Y-76035000D01*
X142098665Y-76035000D01*
X141821426Y-76090147D01*
X141560273Y-76198320D01*
X141325241Y-76355363D01*
X141125363Y-76555241D01*
X141013604Y-76722500D01*
X138386396Y-76722500D01*
X138274637Y-76555241D01*
X138221396Y-76502000D01*
X139914212Y-76502000D01*
X139954000Y-76505919D01*
X139993788Y-76502000D01*
X139993791Y-76502000D01*
X140112788Y-76490280D01*
X140265473Y-76443963D01*
X140406189Y-76368749D01*
X140529528Y-76267528D01*
X140554899Y-76236613D01*
X141643441Y-75148072D01*
X142074000Y-75148072D01*
X142198482Y-75135812D01*
X142318180Y-75099502D01*
X142428494Y-75040537D01*
X142525185Y-74961185D01*
X142604537Y-74864494D01*
X142663502Y-74754180D01*
X142685513Y-74681620D01*
X142817368Y-74813475D01*
X143060589Y-74975990D01*
X143330842Y-75087932D01*
X143617740Y-75145000D01*
X143910260Y-75145000D01*
X144197158Y-75087932D01*
X144467411Y-74975990D01*
X144710632Y-74813475D01*
X144917475Y-74606632D01*
X145008770Y-74470000D01*
X146406212Y-74470000D01*
X146446000Y-74473919D01*
X146485788Y-74470000D01*
X146485791Y-74470000D01*
X146604788Y-74458280D01*
X146757473Y-74411963D01*
X146898189Y-74336749D01*
X147021528Y-74235528D01*
X147046899Y-74204613D01*
X147390940Y-73860572D01*
X148133500Y-73860572D01*
X148257982Y-73848312D01*
X148377680Y-73812002D01*
X148487994Y-73753037D01*
X148584685Y-73673685D01*
X148664037Y-73576994D01*
X148723002Y-73466680D01*
X148759312Y-73346982D01*
X148771572Y-73222500D01*
X148771572Y-72222500D01*
X148759312Y-72098018D01*
X148751571Y-72072500D01*
X148759312Y-72046982D01*
X148771572Y-71922500D01*
X148771572Y-71726800D01*
X149512945Y-71726800D01*
X149515000Y-72104250D01*
%TA.AperFunction,Conductor*%
D35*
G36*
X149515000Y-72104250D02*
G01*
X149673750Y-72263000D01*
X150873000Y-72263000D01*
X150873000Y-72243000D01*
X151127000Y-72243000D01*
X151127000Y-72263000D01*
X151147000Y-72263000D01*
X151147000Y-72517000D01*
X151127000Y-72517000D01*
X151127000Y-72537000D01*
X150873000Y-72537000D01*
X150873000Y-72517000D01*
X149673750Y-72517000D01*
X149515000Y-72675750D01*
X149511928Y-73240000D01*
X149524188Y-73364482D01*
X149526478Y-73372031D01*
X143289778Y-76490382D01*
X143154759Y-76355363D01*
X142919727Y-76198320D01*
X142658574Y-76090147D01*
X142381335Y-76035000D01*
X142098665Y-76035000D01*
X141821426Y-76090147D01*
X141560273Y-76198320D01*
X141325241Y-76355363D01*
X141125363Y-76555241D01*
X141013604Y-76722500D01*
X138386396Y-76722500D01*
X138274637Y-76555241D01*
X138221396Y-76502000D01*
X139914212Y-76502000D01*
X139954000Y-76505919D01*
X139993788Y-76502000D01*
X139993791Y-76502000D01*
X140112788Y-76490280D01*
X140265473Y-76443963D01*
X140406189Y-76368749D01*
X140529528Y-76267528D01*
X140554899Y-76236613D01*
X141643441Y-75148072D01*
X142074000Y-75148072D01*
X142198482Y-75135812D01*
X142318180Y-75099502D01*
X142428494Y-75040537D01*
X142525185Y-74961185D01*
X142604537Y-74864494D01*
X142663502Y-74754180D01*
X142685513Y-74681620D01*
X142817368Y-74813475D01*
X143060589Y-74975990D01*
X143330842Y-75087932D01*
X143617740Y-75145000D01*
X143910260Y-75145000D01*
X144197158Y-75087932D01*
X144467411Y-74975990D01*
X144710632Y-74813475D01*
X144917475Y-74606632D01*
X145008770Y-74470000D01*
X146406212Y-74470000D01*
X146446000Y-74473919D01*
X146485788Y-74470000D01*
X146485791Y-74470000D01*
X146604788Y-74458280D01*
X146757473Y-74411963D01*
X146898189Y-74336749D01*
X147021528Y-74235528D01*
X147046899Y-74204613D01*
X147390940Y-73860572D01*
X148133500Y-73860572D01*
X148257982Y-73848312D01*
X148377680Y-73812002D01*
X148487994Y-73753037D01*
X148584685Y-73673685D01*
X148664037Y-73576994D01*
X148723002Y-73466680D01*
X148759312Y-73346982D01*
X148771572Y-73222500D01*
X148771572Y-72222500D01*
X148759312Y-72098018D01*
X148751571Y-72072500D01*
X148759312Y-72046982D01*
X148771572Y-71922500D01*
X148771572Y-71726800D01*
X149512945Y-71726800D01*
X149515000Y-72104250D01*
G37*
%TD.AperFunction*%
D34*
X151127000Y-74803000D02*
X151147000Y-74803000D01*
X151147000Y-75057000D01*
X151127000Y-75057000D01*
X151127000Y-75077000D01*
X150873000Y-75077000D01*
X150873000Y-75057000D01*
X150853000Y-75057000D01*
X150853000Y-74803000D01*
X150873000Y-74803000D01*
X150873000Y-74783000D01*
X151127000Y-74783000D01*
X151127000Y-74803000D01*
%TA.AperFunction,Conductor*%
D35*
G36*
X151127000Y-74803000D02*
G01*
X151147000Y-74803000D01*
X151147000Y-75057000D01*
X151127000Y-75057000D01*
X151127000Y-75077000D01*
X150873000Y-75077000D01*
X150873000Y-75057000D01*
X150853000Y-75057000D01*
X150853000Y-74803000D01*
X150873000Y-74803000D01*
X150873000Y-74783000D01*
X151127000Y-74783000D01*
X151127000Y-74803000D01*
G37*
%TD.AperFunction*%
%TD*%
M02*
