%TF.GenerationSoftware,KiCad,Pcbnew,(5.1.8-0-10_14)*%
%TF.CreationDate,2021-04-04T23:03:52-06:00*%
%TF.ProjectId,bluescsi_powerbook,626c7565-7363-4736-995f-706f77657262,rev?*%
%TF.SameCoordinates,Original*%
%TF.FileFunction,Legend,Bot*%
%TF.FilePolarity,Positive*%
%FSLAX46Y46*%
G04 Gerber Fmt 4.6, Leading zero omitted, Abs format (unit mm)*
G04 Created by KiCad (PCBNEW (5.1.8-0-10_14)) date 2021-04-04 23:03:52*
%MOMM*%
%LPD*%
G01*
G04 APERTURE LIST*
%ADD10C,0.150000*%
%ADD11C,0.200000*%
G04 APERTURE END LIST*
D10*
X118706380Y-83298309D02*
X119420666Y-83298309D01*
X119563523Y-83250690D01*
X119658761Y-83155452D01*
X119706380Y-83012595D01*
X119706380Y-82917357D01*
X119706380Y-83774500D02*
X118706380Y-83774500D01*
X118706380Y-84155452D01*
X118754000Y-84250690D01*
X118801619Y-84298309D01*
X118896857Y-84345928D01*
X119039714Y-84345928D01*
X119134952Y-84298309D01*
X119182571Y-84250690D01*
X119230190Y-84155452D01*
X119230190Y-83774500D01*
X119706380Y-85298309D02*
X119706380Y-84726880D01*
X119706380Y-85012595D02*
X118706380Y-85012595D01*
X118849238Y-84917357D01*
X118944476Y-84822119D01*
X118992095Y-84726880D01*
X119611142Y-85726880D02*
X119658761Y-85774500D01*
X119706380Y-85726880D01*
X119658761Y-85679261D01*
X119611142Y-85726880D01*
X119706380Y-85726880D01*
X119087333Y-85726880D02*
X119134952Y-85774500D01*
X119182571Y-85726880D01*
X119134952Y-85679261D01*
X119087333Y-85726880D01*
X119182571Y-85726880D01*
X119420666Y-86917357D02*
X119420666Y-87393547D01*
X119706380Y-86822119D02*
X118706380Y-87155452D01*
X119706380Y-87488785D01*
X119039714Y-88250690D02*
X119706380Y-88250690D01*
X119039714Y-87822119D02*
X119563523Y-87822119D01*
X119658761Y-87869738D01*
X119706380Y-87964976D01*
X119706380Y-88107833D01*
X119658761Y-88203071D01*
X119611142Y-88250690D01*
X119039714Y-88584023D02*
X119039714Y-88964976D01*
X118706380Y-88726880D02*
X119563523Y-88726880D01*
X119658761Y-88774500D01*
X119706380Y-88869738D01*
X119706380Y-88964976D01*
X119706380Y-89441166D02*
X119658761Y-89345928D01*
X119611142Y-89298309D01*
X119515904Y-89250690D01*
X119230190Y-89250690D01*
X119134952Y-89298309D01*
X119087333Y-89345928D01*
X119039714Y-89441166D01*
X119039714Y-89584023D01*
X119087333Y-89679261D01*
X119134952Y-89726880D01*
X119230190Y-89774500D01*
X119515904Y-89774500D01*
X119611142Y-89726880D01*
X119658761Y-89679261D01*
X119706380Y-89584023D01*
X119706380Y-89441166D01*
X119706380Y-90203071D02*
X119039714Y-90203071D01*
X119134952Y-90203071D02*
X119087333Y-90250690D01*
X119039714Y-90345928D01*
X119039714Y-90488785D01*
X119087333Y-90584023D01*
X119182571Y-90631642D01*
X119706380Y-90631642D01*
X119182571Y-90631642D02*
X119087333Y-90679261D01*
X119039714Y-90774500D01*
X119039714Y-90917357D01*
X119087333Y-91012595D01*
X119182571Y-91060214D01*
X119706380Y-91060214D01*
X119706380Y-91964976D02*
X119182571Y-91964976D01*
X119087333Y-91917357D01*
X119039714Y-91822119D01*
X119039714Y-91631642D01*
X119087333Y-91536404D01*
X119658761Y-91964976D02*
X119706380Y-91869738D01*
X119706380Y-91631642D01*
X119658761Y-91536404D01*
X119563523Y-91488785D01*
X119468285Y-91488785D01*
X119373047Y-91536404D01*
X119325428Y-91631642D01*
X119325428Y-91869738D01*
X119277809Y-91964976D01*
X119039714Y-92298309D02*
X119039714Y-92679261D01*
X118706380Y-92441166D02*
X119563523Y-92441166D01*
X119658761Y-92488785D01*
X119706380Y-92584023D01*
X119706380Y-92679261D01*
X119706380Y-93012595D02*
X119039714Y-93012595D01*
X118706380Y-93012595D02*
X118754000Y-92964976D01*
X118801619Y-93012595D01*
X118754000Y-93060214D01*
X118706380Y-93012595D01*
X118801619Y-93012595D01*
X119658761Y-93917357D02*
X119706380Y-93822119D01*
X119706380Y-93631642D01*
X119658761Y-93536404D01*
X119611142Y-93488785D01*
X119515904Y-93441166D01*
X119230190Y-93441166D01*
X119134952Y-93488785D01*
X119087333Y-93536404D01*
X119039714Y-93631642D01*
X119039714Y-93822119D01*
X119087333Y-93917357D01*
X119706380Y-94774500D02*
X119182571Y-94774500D01*
X119087333Y-94726880D01*
X119039714Y-94631642D01*
X119039714Y-94441166D01*
X119087333Y-94345928D01*
X119658761Y-94774500D02*
X119706380Y-94679261D01*
X119706380Y-94441166D01*
X119658761Y-94345928D01*
X119563523Y-94298309D01*
X119468285Y-94298309D01*
X119373047Y-94345928D01*
X119325428Y-94441166D01*
X119325428Y-94679261D01*
X119277809Y-94774500D01*
X119706380Y-95393547D02*
X119658761Y-95298309D01*
X119563523Y-95250690D01*
X118706380Y-95250690D01*
X119706380Y-95917357D02*
X119658761Y-95822119D01*
X119563523Y-95774500D01*
X118706380Y-95774500D01*
X119039714Y-96203071D02*
X119706380Y-96441166D01*
X119039714Y-96679261D02*
X119706380Y-96441166D01*
X119944476Y-96345928D01*
X119992095Y-96298309D01*
X120039714Y-96203071D01*
X119706380Y-97822119D02*
X118706380Y-97822119D01*
X119087333Y-97822119D02*
X119039714Y-97917357D01*
X119039714Y-98107833D01*
X119087333Y-98203071D01*
X119134952Y-98250690D01*
X119230190Y-98298309D01*
X119515904Y-98298309D01*
X119611142Y-98250690D01*
X119658761Y-98203071D01*
X119706380Y-98107833D01*
X119706380Y-97917357D01*
X119658761Y-97822119D01*
X119706380Y-98726880D02*
X119039714Y-98726880D01*
X119230190Y-98726880D02*
X119134952Y-98774499D01*
X119087333Y-98822119D01*
X119039714Y-98917357D01*
X119039714Y-99012595D01*
X119706380Y-99345928D02*
X119039714Y-99345928D01*
X118706380Y-99345928D02*
X118754000Y-99298309D01*
X118801619Y-99345928D01*
X118754000Y-99393547D01*
X118706380Y-99345928D01*
X118801619Y-99345928D01*
X119706380Y-100250690D02*
X118706380Y-100250690D01*
X119658761Y-100250690D02*
X119706380Y-100155452D01*
X119706380Y-99964976D01*
X119658761Y-99869738D01*
X119611142Y-99822119D01*
X119515904Y-99774499D01*
X119230190Y-99774499D01*
X119134952Y-99822119D01*
X119087333Y-99869738D01*
X119039714Y-99964976D01*
X119039714Y-100155452D01*
X119087333Y-100250690D01*
X119039714Y-101155452D02*
X119849238Y-101155452D01*
X119944476Y-101107833D01*
X119992095Y-101060214D01*
X120039714Y-100964976D01*
X120039714Y-100822119D01*
X119992095Y-100726880D01*
X119658761Y-101155452D02*
X119706380Y-101060214D01*
X119706380Y-100869738D01*
X119658761Y-100774499D01*
X119611142Y-100726880D01*
X119515904Y-100679261D01*
X119230190Y-100679261D01*
X119134952Y-100726880D01*
X119087333Y-100774499D01*
X119039714Y-100869738D01*
X119039714Y-101060214D01*
X119087333Y-101155452D01*
X119658761Y-102012595D02*
X119706380Y-101917357D01*
X119706380Y-101726880D01*
X119658761Y-101631642D01*
X119563523Y-101584023D01*
X119182571Y-101584023D01*
X119087333Y-101631642D01*
X119039714Y-101726880D01*
X119039714Y-101917357D01*
X119087333Y-102012595D01*
X119182571Y-102060214D01*
X119277809Y-102060214D01*
X119373047Y-101584023D01*
X119658761Y-102441166D02*
X119706380Y-102536404D01*
X119706380Y-102726880D01*
X119658761Y-102822119D01*
X119563523Y-102869738D01*
X119515904Y-102869738D01*
X119420666Y-102822119D01*
X119373047Y-102726880D01*
X119373047Y-102584023D01*
X119325428Y-102488785D01*
X119230190Y-102441166D01*
X119182571Y-102441166D01*
X119087333Y-102488785D01*
X119039714Y-102584023D01*
X119039714Y-102726880D01*
X119087333Y-102822119D01*
X118706380Y-103917357D02*
X118706380Y-104488785D01*
X119706380Y-104203071D02*
X118706380Y-104203071D01*
X119182571Y-104822119D02*
X119182571Y-105155452D01*
X119706380Y-105298309D02*
X119706380Y-104822119D01*
X118706380Y-104822119D01*
X118706380Y-105298309D01*
X119706380Y-106298309D02*
X119230190Y-105964976D01*
X119706380Y-105726880D02*
X118706380Y-105726880D01*
X118706380Y-106107833D01*
X118754000Y-106203071D01*
X118801619Y-106250690D01*
X118896857Y-106298309D01*
X119039714Y-106298309D01*
X119134952Y-106250690D01*
X119182571Y-106203071D01*
X119230190Y-106107833D01*
X119230190Y-105726880D01*
X119706380Y-106726880D02*
X118706380Y-106726880D01*
X119420666Y-107060214D01*
X118706380Y-107393547D01*
X119706380Y-107393547D01*
X119706380Y-107869738D02*
X118706380Y-107869738D01*
X118706380Y-108250690D01*
X118754000Y-108345928D01*
X118801619Y-108393547D01*
X118896857Y-108441166D01*
X119039714Y-108441166D01*
X119134952Y-108393547D01*
X119182571Y-108345928D01*
X119230190Y-108250690D01*
X119230190Y-107869738D01*
X118706380Y-108774499D02*
X119706380Y-109012595D01*
X118992095Y-109203071D01*
X119706380Y-109393547D01*
X118706380Y-109631642D01*
X119706380Y-110584023D02*
X119230190Y-110250690D01*
X119706380Y-110012595D02*
X118706380Y-110012595D01*
X118706380Y-110393547D01*
X118754000Y-110488785D01*
X118801619Y-110536404D01*
X118896857Y-110584023D01*
X119039714Y-110584023D01*
X119134952Y-110536404D01*
X119182571Y-110488785D01*
X119230190Y-110393547D01*
X119230190Y-110012595D01*
X119706380Y-112203071D02*
X119182571Y-112203071D01*
X119087333Y-112155452D01*
X119039714Y-112060214D01*
X119039714Y-111869738D01*
X119087333Y-111774499D01*
X119658761Y-112203071D02*
X119706380Y-112107833D01*
X119706380Y-111869738D01*
X119658761Y-111774499D01*
X119563523Y-111726880D01*
X119468285Y-111726880D01*
X119373047Y-111774499D01*
X119325428Y-111869738D01*
X119325428Y-112107833D01*
X119277809Y-112203071D01*
X119039714Y-112679261D02*
X119706380Y-112679261D01*
X119134952Y-112679261D02*
X119087333Y-112726880D01*
X119039714Y-112822119D01*
X119039714Y-112964976D01*
X119087333Y-113060214D01*
X119182571Y-113107833D01*
X119706380Y-113107833D01*
X119706380Y-114012595D02*
X118706380Y-114012595D01*
X119658761Y-114012595D02*
X119706380Y-113917357D01*
X119706380Y-113726880D01*
X119658761Y-113631642D01*
X119611142Y-113584023D01*
X119515904Y-113536404D01*
X119230190Y-113536404D01*
X119134952Y-113584023D01*
X119087333Y-113631642D01*
X119039714Y-113726880D01*
X119039714Y-113917357D01*
X119087333Y-114012595D01*
X119658761Y-115203071D02*
X119706380Y-115345928D01*
X119706380Y-115584023D01*
X119658761Y-115679261D01*
X119611142Y-115726880D01*
X119515904Y-115774499D01*
X119420666Y-115774499D01*
X119325428Y-115726880D01*
X119277809Y-115679261D01*
X119230190Y-115584023D01*
X119182571Y-115393547D01*
X119134952Y-115298309D01*
X119087333Y-115250690D01*
X118992095Y-115203071D01*
X118896857Y-115203071D01*
X118801619Y-115250690D01*
X118754000Y-115298309D01*
X118706380Y-115393547D01*
X118706380Y-115631642D01*
X118754000Y-115774499D01*
X118706380Y-116060214D02*
X118706380Y-116631642D01*
X119706380Y-116345928D02*
X118706380Y-116345928D01*
X119706380Y-116964976D02*
X118706380Y-116964976D01*
X119420666Y-117298309D01*
X118706380Y-117631642D01*
X119706380Y-117631642D01*
X118706380Y-118012595D02*
X118706380Y-118631642D01*
X119087333Y-118298309D01*
X119087333Y-118441166D01*
X119134952Y-118536404D01*
X119182571Y-118584023D01*
X119277809Y-118631642D01*
X119515904Y-118631642D01*
X119611142Y-118584023D01*
X119658761Y-118536404D01*
X119706380Y-118441166D01*
X119706380Y-118155452D01*
X119658761Y-118060214D01*
X119611142Y-118012595D01*
X118801619Y-119012595D02*
X118754000Y-119060214D01*
X118706380Y-119155452D01*
X118706380Y-119393547D01*
X118754000Y-119488785D01*
X118801619Y-119536404D01*
X118896857Y-119584023D01*
X118992095Y-119584023D01*
X119134952Y-119536404D01*
X119706380Y-118964976D01*
X119706380Y-119584023D01*
X119325428Y-120774499D02*
X119325428Y-121536404D01*
X119706380Y-121155452D02*
X118944476Y-121155452D01*
X118706380Y-122488785D02*
X118706380Y-122012595D01*
X119182571Y-121964976D01*
X119134952Y-122012595D01*
X119087333Y-122107833D01*
X119087333Y-122345928D01*
X119134952Y-122441166D01*
X119182571Y-122488785D01*
X119277809Y-122536404D01*
X119515904Y-122536404D01*
X119611142Y-122488785D01*
X119658761Y-122441166D01*
X119706380Y-122345928D01*
X119706380Y-122107833D01*
X119658761Y-122012595D01*
X119611142Y-121964976D01*
X118706380Y-122822119D02*
X119706380Y-123155452D01*
X118706380Y-123488785D01*
X120356380Y-83298309D02*
X121070666Y-83298309D01*
X121213523Y-83250690D01*
X121308761Y-83155452D01*
X121356380Y-83012595D01*
X121356380Y-82917357D01*
X121356380Y-83822119D02*
X121356380Y-84012595D01*
X121308761Y-84107833D01*
X121261142Y-84155452D01*
X121118285Y-84250690D01*
X120927809Y-84298309D01*
X120546857Y-84298309D01*
X120451619Y-84250690D01*
X120404000Y-84203071D01*
X120356380Y-84107833D01*
X120356380Y-83917357D01*
X120404000Y-83822119D01*
X120451619Y-83774500D01*
X120546857Y-83726880D01*
X120784952Y-83726880D01*
X120880190Y-83774500D01*
X120927809Y-83822119D01*
X120975428Y-83917357D01*
X120975428Y-84107833D01*
X120927809Y-84203071D01*
X120880190Y-84250690D01*
X120784952Y-84298309D01*
X121261142Y-84726880D02*
X121308761Y-84774500D01*
X121356380Y-84726880D01*
X121308761Y-84679261D01*
X121261142Y-84726880D01*
X121356380Y-84726880D01*
X120737333Y-84726880D02*
X120784952Y-84774500D01*
X120832571Y-84726880D01*
X120784952Y-84679261D01*
X120737333Y-84726880D01*
X120832571Y-84726880D01*
X120832571Y-86298309D02*
X120880190Y-86441166D01*
X120927809Y-86488785D01*
X121023047Y-86536404D01*
X121165904Y-86536404D01*
X121261142Y-86488785D01*
X121308761Y-86441166D01*
X121356380Y-86345928D01*
X121356380Y-85964976D01*
X120356380Y-85964976D01*
X120356380Y-86298309D01*
X120404000Y-86393547D01*
X120451619Y-86441166D01*
X120546857Y-86488785D01*
X120642095Y-86488785D01*
X120737333Y-86441166D01*
X120784952Y-86393547D01*
X120832571Y-86298309D01*
X120832571Y-85964976D01*
X121356380Y-86964976D02*
X120689714Y-86964976D01*
X120880190Y-86964976D02*
X120784952Y-87012595D01*
X120737333Y-87060214D01*
X120689714Y-87155452D01*
X120689714Y-87250690D01*
X121356380Y-87584023D02*
X120689714Y-87584023D01*
X120356380Y-87584023D02*
X120404000Y-87536404D01*
X120451619Y-87584023D01*
X120404000Y-87631642D01*
X120356380Y-87584023D01*
X120451619Y-87584023D01*
X121356380Y-88488785D02*
X120356380Y-88488785D01*
X121308761Y-88488785D02*
X121356380Y-88393547D01*
X121356380Y-88203071D01*
X121308761Y-88107833D01*
X121261142Y-88060214D01*
X121165904Y-88012595D01*
X120880190Y-88012595D01*
X120784952Y-88060214D01*
X120737333Y-88107833D01*
X120689714Y-88203071D01*
X120689714Y-88393547D01*
X120737333Y-88488785D01*
X120689714Y-89393547D02*
X121499238Y-89393547D01*
X121594476Y-89345928D01*
X121642095Y-89298309D01*
X121689714Y-89203071D01*
X121689714Y-89060214D01*
X121642095Y-88964976D01*
X121308761Y-89393547D02*
X121356380Y-89298309D01*
X121356380Y-89107833D01*
X121308761Y-89012595D01*
X121261142Y-88964976D01*
X121165904Y-88917357D01*
X120880190Y-88917357D01*
X120784952Y-88964976D01*
X120737333Y-89012595D01*
X120689714Y-89107833D01*
X120689714Y-89298309D01*
X120737333Y-89393547D01*
X121308761Y-90250690D02*
X121356380Y-90155452D01*
X121356380Y-89964976D01*
X121308761Y-89869738D01*
X121213523Y-89822119D01*
X120832571Y-89822119D01*
X120737333Y-89869738D01*
X120689714Y-89964976D01*
X120689714Y-90155452D01*
X120737333Y-90250690D01*
X120832571Y-90298309D01*
X120927809Y-90298309D01*
X121023047Y-89822119D01*
X120356380Y-91345928D02*
X120356380Y-91917357D01*
X121356380Y-91631642D02*
X120356380Y-91631642D01*
X120832571Y-92250690D02*
X120832571Y-92584023D01*
X121356380Y-92726880D02*
X121356380Y-92250690D01*
X120356380Y-92250690D01*
X120356380Y-92726880D01*
X121356380Y-93726880D02*
X120880190Y-93393547D01*
X121356380Y-93155452D02*
X120356380Y-93155452D01*
X120356380Y-93536404D01*
X120404000Y-93631642D01*
X120451619Y-93679261D01*
X120546857Y-93726880D01*
X120689714Y-93726880D01*
X120784952Y-93679261D01*
X120832571Y-93631642D01*
X120880190Y-93536404D01*
X120880190Y-93155452D01*
X121356380Y-94155452D02*
X120356380Y-94155452D01*
X121070666Y-94488785D01*
X120356380Y-94822119D01*
X121356380Y-94822119D01*
X121356380Y-95298309D02*
X120356380Y-95298309D01*
X120356380Y-95679261D01*
X120404000Y-95774499D01*
X120451619Y-95822119D01*
X120546857Y-95869738D01*
X120689714Y-95869738D01*
X120784952Y-95822119D01*
X120832571Y-95774499D01*
X120880190Y-95679261D01*
X120880190Y-95298309D01*
X120356380Y-96203071D02*
X121356380Y-96441166D01*
X120642095Y-96631642D01*
X121356380Y-96822119D01*
X120356380Y-97060214D01*
X121356380Y-98012595D02*
X120880190Y-97679261D01*
X121356380Y-97441166D02*
X120356380Y-97441166D01*
X120356380Y-97822119D01*
X120404000Y-97917357D01*
X120451619Y-97964976D01*
X120546857Y-98012595D01*
X120689714Y-98012595D01*
X120784952Y-97964976D01*
X120832571Y-97917357D01*
X120880190Y-97822119D01*
X120880190Y-97441166D01*
X121356380Y-99631642D02*
X120832571Y-99631642D01*
X120737333Y-99584023D01*
X120689714Y-99488785D01*
X120689714Y-99298309D01*
X120737333Y-99203071D01*
X121308761Y-99631642D02*
X121356380Y-99536404D01*
X121356380Y-99298309D01*
X121308761Y-99203071D01*
X121213523Y-99155452D01*
X121118285Y-99155452D01*
X121023047Y-99203071D01*
X120975428Y-99298309D01*
X120975428Y-99536404D01*
X120927809Y-99631642D01*
X120689714Y-100107833D02*
X121356380Y-100107833D01*
X120784952Y-100107833D02*
X120737333Y-100155452D01*
X120689714Y-100250690D01*
X120689714Y-100393547D01*
X120737333Y-100488785D01*
X120832571Y-100536404D01*
X121356380Y-100536404D01*
X121356380Y-101441166D02*
X120356380Y-101441166D01*
X121308761Y-101441166D02*
X121356380Y-101345928D01*
X121356380Y-101155452D01*
X121308761Y-101060214D01*
X121261142Y-101012595D01*
X121165904Y-100964976D01*
X120880190Y-100964976D01*
X120784952Y-101012595D01*
X120737333Y-101060214D01*
X120689714Y-101155452D01*
X120689714Y-101345928D01*
X120737333Y-101441166D01*
X121308761Y-102631642D02*
X121356380Y-102774499D01*
X121356380Y-103012595D01*
X121308761Y-103107833D01*
X121261142Y-103155452D01*
X121165904Y-103203071D01*
X121070666Y-103203071D01*
X120975428Y-103155452D01*
X120927809Y-103107833D01*
X120880190Y-103012595D01*
X120832571Y-102822119D01*
X120784952Y-102726880D01*
X120737333Y-102679261D01*
X120642095Y-102631642D01*
X120546857Y-102631642D01*
X120451619Y-102679261D01*
X120404000Y-102726880D01*
X120356380Y-102822119D01*
X120356380Y-103060214D01*
X120404000Y-103203071D01*
X120356380Y-103488785D02*
X120356380Y-104060214D01*
X121356380Y-103774499D02*
X120356380Y-103774499D01*
X121356380Y-104393547D02*
X120356380Y-104393547D01*
X121070666Y-104726880D01*
X120356380Y-105060214D01*
X121356380Y-105060214D01*
X120356380Y-105441166D02*
X120356380Y-106060214D01*
X120737333Y-105726880D01*
X120737333Y-105869738D01*
X120784952Y-105964976D01*
X120832571Y-106012595D01*
X120927809Y-106060214D01*
X121165904Y-106060214D01*
X121261142Y-106012595D01*
X121308761Y-105964976D01*
X121356380Y-105869738D01*
X121356380Y-105584023D01*
X121308761Y-105488785D01*
X121261142Y-105441166D01*
X120451619Y-106441166D02*
X120404000Y-106488785D01*
X120356380Y-106584023D01*
X120356380Y-106822119D01*
X120404000Y-106917357D01*
X120451619Y-106964976D01*
X120546857Y-107012595D01*
X120642095Y-107012595D01*
X120784952Y-106964976D01*
X121356380Y-106393547D01*
X121356380Y-107012595D01*
X120975428Y-108203071D02*
X120975428Y-108964976D01*
X121356380Y-108584023D02*
X120594476Y-108584023D01*
X120356380Y-109917357D02*
X120356380Y-109441166D01*
X120832571Y-109393547D01*
X120784952Y-109441166D01*
X120737333Y-109536404D01*
X120737333Y-109774499D01*
X120784952Y-109869738D01*
X120832571Y-109917357D01*
X120927809Y-109964976D01*
X121165904Y-109964976D01*
X121261142Y-109917357D01*
X121308761Y-109869738D01*
X121356380Y-109774499D01*
X121356380Y-109536404D01*
X121308761Y-109441166D01*
X121261142Y-109393547D01*
X120356380Y-110250690D02*
X121356380Y-110584023D01*
X120356380Y-110917357D01*
X122006380Y-83298309D02*
X122720666Y-83298309D01*
X122863523Y-83250690D01*
X122958761Y-83155452D01*
X123006380Y-83012595D01*
X123006380Y-82917357D01*
X123006380Y-84298309D02*
X123006380Y-83726880D01*
X123006380Y-84012595D02*
X122006380Y-84012595D01*
X122149238Y-83917357D01*
X122244476Y-83822119D01*
X122292095Y-83726880D01*
X122006380Y-84917357D02*
X122006380Y-85012595D01*
X122054000Y-85107833D01*
X122101619Y-85155452D01*
X122196857Y-85203071D01*
X122387333Y-85250690D01*
X122625428Y-85250690D01*
X122815904Y-85203071D01*
X122911142Y-85155452D01*
X122958761Y-85107833D01*
X123006380Y-85012595D01*
X123006380Y-84917357D01*
X122958761Y-84822119D01*
X122911142Y-84774500D01*
X122815904Y-84726880D01*
X122625428Y-84679261D01*
X122387333Y-84679261D01*
X122196857Y-84726880D01*
X122101619Y-84774500D01*
X122054000Y-84822119D01*
X122006380Y-84917357D01*
X122911142Y-85679261D02*
X122958761Y-85726880D01*
X123006380Y-85679261D01*
X122958761Y-85631642D01*
X122911142Y-85679261D01*
X123006380Y-85679261D01*
X122387333Y-85679261D02*
X122434952Y-85726880D01*
X122482571Y-85679261D01*
X122434952Y-85631642D01*
X122387333Y-85679261D01*
X122482571Y-85679261D01*
X122482571Y-87250690D02*
X122530190Y-87393547D01*
X122577809Y-87441166D01*
X122673047Y-87488785D01*
X122815904Y-87488785D01*
X122911142Y-87441166D01*
X122958761Y-87393547D01*
X123006380Y-87298309D01*
X123006380Y-86917357D01*
X122006380Y-86917357D01*
X122006380Y-87250690D01*
X122054000Y-87345928D01*
X122101619Y-87393547D01*
X122196857Y-87441166D01*
X122292095Y-87441166D01*
X122387333Y-87393547D01*
X122434952Y-87345928D01*
X122482571Y-87250690D01*
X122482571Y-86917357D01*
X123006380Y-87917357D02*
X122339714Y-87917357D01*
X122530190Y-87917357D02*
X122434952Y-87964976D01*
X122387333Y-88012595D01*
X122339714Y-88107833D01*
X122339714Y-88203071D01*
X123006380Y-88536404D02*
X122339714Y-88536404D01*
X122006380Y-88536404D02*
X122054000Y-88488785D01*
X122101619Y-88536404D01*
X122054000Y-88584023D01*
X122006380Y-88536404D01*
X122101619Y-88536404D01*
X123006380Y-89441166D02*
X122006380Y-89441166D01*
X122958761Y-89441166D02*
X123006380Y-89345928D01*
X123006380Y-89155452D01*
X122958761Y-89060214D01*
X122911142Y-89012595D01*
X122815904Y-88964976D01*
X122530190Y-88964976D01*
X122434952Y-89012595D01*
X122387333Y-89060214D01*
X122339714Y-89155452D01*
X122339714Y-89345928D01*
X122387333Y-89441166D01*
X122339714Y-90345928D02*
X123149238Y-90345928D01*
X123244476Y-90298309D01*
X123292095Y-90250690D01*
X123339714Y-90155452D01*
X123339714Y-90012595D01*
X123292095Y-89917357D01*
X122958761Y-90345928D02*
X123006380Y-90250690D01*
X123006380Y-90060214D01*
X122958761Y-89964976D01*
X122911142Y-89917357D01*
X122815904Y-89869738D01*
X122530190Y-89869738D01*
X122434952Y-89917357D01*
X122387333Y-89964976D01*
X122339714Y-90060214D01*
X122339714Y-90250690D01*
X122387333Y-90345928D01*
X122958761Y-91203071D02*
X123006380Y-91107833D01*
X123006380Y-90917357D01*
X122958761Y-90822119D01*
X122863523Y-90774499D01*
X122482571Y-90774499D01*
X122387333Y-90822119D01*
X122339714Y-90917357D01*
X122339714Y-91107833D01*
X122387333Y-91203071D01*
X122482571Y-91250690D01*
X122577809Y-91250690D01*
X122673047Y-90774499D01*
X123006380Y-92441166D02*
X122006380Y-92441166D01*
X122720666Y-92774499D01*
X122006380Y-93107833D01*
X123006380Y-93107833D01*
X122006380Y-93774499D02*
X122006380Y-93964976D01*
X122054000Y-94060214D01*
X122149238Y-94155452D01*
X122339714Y-94203071D01*
X122673047Y-94203071D01*
X122863523Y-94155452D01*
X122958761Y-94060214D01*
X123006380Y-93964976D01*
X123006380Y-93774499D01*
X122958761Y-93679261D01*
X122863523Y-93584023D01*
X122673047Y-93536404D01*
X122339714Y-93536404D01*
X122149238Y-93584023D01*
X122054000Y-93679261D01*
X122006380Y-93774499D01*
X122006380Y-94488785D02*
X122006380Y-95060214D01*
X123006380Y-94774499D02*
X122006380Y-94774499D01*
X122006380Y-95584023D02*
X122006380Y-95774499D01*
X122054000Y-95869738D01*
X122149238Y-95964976D01*
X122339714Y-96012595D01*
X122673047Y-96012595D01*
X122863523Y-95964976D01*
X122958761Y-95869738D01*
X123006380Y-95774499D01*
X123006380Y-95584023D01*
X122958761Y-95488785D01*
X122863523Y-95393547D01*
X122673047Y-95345928D01*
X122339714Y-95345928D01*
X122149238Y-95393547D01*
X122054000Y-95488785D01*
X122006380Y-95584023D01*
X123006380Y-97012595D02*
X122530190Y-96679261D01*
X123006380Y-96441166D02*
X122006380Y-96441166D01*
X122006380Y-96822119D01*
X122054000Y-96917357D01*
X122101619Y-96964976D01*
X122196857Y-97012595D01*
X122339714Y-97012595D01*
X122434952Y-96964976D01*
X122482571Y-96917357D01*
X122530190Y-96822119D01*
X122530190Y-96441166D01*
X123006380Y-97441166D02*
X122006380Y-97441166D01*
X122006380Y-97822119D01*
X122054000Y-97917357D01*
X122101619Y-97964976D01*
X122196857Y-98012595D01*
X122339714Y-98012595D01*
X122434952Y-97964976D01*
X122482571Y-97917357D01*
X122530190Y-97822119D01*
X122530190Y-97441166D01*
X122006380Y-98345928D02*
X123006380Y-98584023D01*
X122292095Y-98774499D01*
X123006380Y-98964976D01*
X122006380Y-99203071D01*
X123006380Y-100155452D02*
X122530190Y-99822119D01*
X123006380Y-99584023D02*
X122006380Y-99584023D01*
X122006380Y-99964976D01*
X122054000Y-100060214D01*
X122101619Y-100107833D01*
X122196857Y-100155452D01*
X122339714Y-100155452D01*
X122434952Y-100107833D01*
X122482571Y-100060214D01*
X122530190Y-99964976D01*
X122530190Y-99584023D01*
X123006380Y-101774499D02*
X122482571Y-101774499D01*
X122387333Y-101726880D01*
X122339714Y-101631642D01*
X122339714Y-101441166D01*
X122387333Y-101345928D01*
X122958761Y-101774499D02*
X123006380Y-101679261D01*
X123006380Y-101441166D01*
X122958761Y-101345928D01*
X122863523Y-101298309D01*
X122768285Y-101298309D01*
X122673047Y-101345928D01*
X122625428Y-101441166D01*
X122625428Y-101679261D01*
X122577809Y-101774499D01*
X122339714Y-102250690D02*
X123006380Y-102250690D01*
X122434952Y-102250690D02*
X122387333Y-102298309D01*
X122339714Y-102393547D01*
X122339714Y-102536404D01*
X122387333Y-102631642D01*
X122482571Y-102679261D01*
X123006380Y-102679261D01*
X123006380Y-103584023D02*
X122006380Y-103584023D01*
X122958761Y-103584023D02*
X123006380Y-103488785D01*
X123006380Y-103298309D01*
X122958761Y-103203071D01*
X122911142Y-103155452D01*
X122815904Y-103107833D01*
X122530190Y-103107833D01*
X122434952Y-103155452D01*
X122387333Y-103203071D01*
X122339714Y-103298309D01*
X122339714Y-103488785D01*
X122387333Y-103584023D01*
X122958761Y-104774499D02*
X123006380Y-104917357D01*
X123006380Y-105155452D01*
X122958761Y-105250690D01*
X122911142Y-105298309D01*
X122815904Y-105345928D01*
X122720666Y-105345928D01*
X122625428Y-105298309D01*
X122577809Y-105250690D01*
X122530190Y-105155452D01*
X122482571Y-104964976D01*
X122434952Y-104869738D01*
X122387333Y-104822119D01*
X122292095Y-104774499D01*
X122196857Y-104774499D01*
X122101619Y-104822119D01*
X122054000Y-104869738D01*
X122006380Y-104964976D01*
X122006380Y-105203071D01*
X122054000Y-105345928D01*
X122006380Y-105631642D02*
X122006380Y-106203071D01*
X123006380Y-105917357D02*
X122006380Y-105917357D01*
X123006380Y-106536404D02*
X122006380Y-106536404D01*
X122720666Y-106869738D01*
X122006380Y-107203071D01*
X123006380Y-107203071D01*
X122006380Y-107584023D02*
X122006380Y-108203071D01*
X122387333Y-107869738D01*
X122387333Y-108012595D01*
X122434952Y-108107833D01*
X122482571Y-108155452D01*
X122577809Y-108203071D01*
X122815904Y-108203071D01*
X122911142Y-108155452D01*
X122958761Y-108107833D01*
X123006380Y-108012595D01*
X123006380Y-107726880D01*
X122958761Y-107631642D01*
X122911142Y-107584023D01*
X122101619Y-108584023D02*
X122054000Y-108631642D01*
X122006380Y-108726880D01*
X122006380Y-108964976D01*
X122054000Y-109060214D01*
X122101619Y-109107833D01*
X122196857Y-109155452D01*
X122292095Y-109155452D01*
X122434952Y-109107833D01*
X123006380Y-108536404D01*
X123006380Y-109155452D01*
X122625428Y-110345928D02*
X122625428Y-111107833D01*
X123006380Y-110726880D02*
X122244476Y-110726880D01*
X122006380Y-112060214D02*
X122006380Y-111584023D01*
X122482571Y-111536404D01*
X122434952Y-111584023D01*
X122387333Y-111679261D01*
X122387333Y-111917357D01*
X122434952Y-112012595D01*
X122482571Y-112060214D01*
X122577809Y-112107833D01*
X122815904Y-112107833D01*
X122911142Y-112060214D01*
X122958761Y-112012595D01*
X123006380Y-111917357D01*
X123006380Y-111679261D01*
X122958761Y-111584023D01*
X122911142Y-111536404D01*
X126056380Y-86044476D02*
X125056380Y-86044476D01*
X125770666Y-86377809D01*
X125056380Y-86711142D01*
X126056380Y-86711142D01*
X125056380Y-87187333D02*
X125865904Y-87187333D01*
X125961142Y-87234952D01*
X126008761Y-87282571D01*
X126056380Y-87377809D01*
X126056380Y-87568285D01*
X126008761Y-87663523D01*
X125961142Y-87711142D01*
X125865904Y-87758761D01*
X125056380Y-87758761D01*
X126008761Y-88187333D02*
X126056380Y-88330190D01*
X126056380Y-88568285D01*
X126008761Y-88663523D01*
X125961142Y-88711142D01*
X125865904Y-88758761D01*
X125770666Y-88758761D01*
X125675428Y-88711142D01*
X125627809Y-88663523D01*
X125580190Y-88568285D01*
X125532571Y-88377809D01*
X125484952Y-88282571D01*
X125437333Y-88234952D01*
X125342095Y-88187333D01*
X125246857Y-88187333D01*
X125151619Y-88234952D01*
X125104000Y-88282571D01*
X125056380Y-88377809D01*
X125056380Y-88615904D01*
X125104000Y-88758761D01*
X125056380Y-89044476D02*
X125056380Y-89615904D01*
X126056380Y-89330190D02*
X125056380Y-89330190D01*
X126056380Y-90711142D02*
X125056380Y-90711142D01*
X125437333Y-90711142D02*
X125389714Y-90806380D01*
X125389714Y-90996857D01*
X125437333Y-91092095D01*
X125484952Y-91139714D01*
X125580190Y-91187333D01*
X125865904Y-91187333D01*
X125961142Y-91139714D01*
X126008761Y-91092095D01*
X126056380Y-90996857D01*
X126056380Y-90806380D01*
X126008761Y-90711142D01*
X126056380Y-91615904D02*
X125389714Y-91615904D01*
X125580190Y-91615904D02*
X125484952Y-91663523D01*
X125437333Y-91711142D01*
X125389714Y-91806380D01*
X125389714Y-91901619D01*
X126008761Y-92615904D02*
X126056380Y-92520666D01*
X126056380Y-92330190D01*
X126008761Y-92234952D01*
X125913523Y-92187333D01*
X125532571Y-92187333D01*
X125437333Y-92234952D01*
X125389714Y-92330190D01*
X125389714Y-92520666D01*
X125437333Y-92615904D01*
X125532571Y-92663523D01*
X125627809Y-92663523D01*
X125723047Y-92187333D01*
X126056380Y-93520666D02*
X125532571Y-93520666D01*
X125437333Y-93473047D01*
X125389714Y-93377809D01*
X125389714Y-93187333D01*
X125437333Y-93092095D01*
X126008761Y-93520666D02*
X126056380Y-93425428D01*
X126056380Y-93187333D01*
X126008761Y-93092095D01*
X125913523Y-93044476D01*
X125818285Y-93044476D01*
X125723047Y-93092095D01*
X125675428Y-93187333D01*
X125675428Y-93425428D01*
X125627809Y-93520666D01*
X126056380Y-93996857D02*
X125056380Y-93996857D01*
X125675428Y-94092095D02*
X126056380Y-94377809D01*
X125389714Y-94377809D02*
X125770666Y-93996857D01*
X125389714Y-95568285D02*
X126246857Y-95568285D01*
X126342095Y-95520666D01*
X126389714Y-95425428D01*
X126389714Y-95377809D01*
X125056380Y-95568285D02*
X125104000Y-95520666D01*
X125151619Y-95568285D01*
X125104000Y-95615904D01*
X125056380Y-95568285D01*
X125151619Y-95568285D01*
X126056380Y-96187333D02*
X126008761Y-96092095D01*
X125961142Y-96044476D01*
X125865904Y-95996857D01*
X125580190Y-95996857D01*
X125484952Y-96044476D01*
X125437333Y-96092095D01*
X125389714Y-96187333D01*
X125389714Y-96330190D01*
X125437333Y-96425428D01*
X125484952Y-96473047D01*
X125580190Y-96520666D01*
X125865904Y-96520666D01*
X125961142Y-96473047D01*
X126008761Y-96425428D01*
X126056380Y-96330190D01*
X126056380Y-96187333D01*
X126056380Y-96949238D02*
X125389714Y-96949238D01*
X125056380Y-96949238D02*
X125104000Y-96901619D01*
X125151619Y-96949238D01*
X125104000Y-96996857D01*
X125056380Y-96949238D01*
X125151619Y-96949238D01*
X125389714Y-97425428D02*
X126056380Y-97425428D01*
X125484952Y-97425428D02*
X125437333Y-97473047D01*
X125389714Y-97568285D01*
X125389714Y-97711142D01*
X125437333Y-97806380D01*
X125532571Y-97853999D01*
X126056380Y-97853999D01*
X125389714Y-98187333D02*
X125389714Y-98568285D01*
X125056380Y-98330190D02*
X125913523Y-98330190D01*
X126008761Y-98377809D01*
X126056380Y-98473047D01*
X126056380Y-98568285D01*
X125056380Y-99949238D02*
X125770666Y-99949238D01*
X125913523Y-99901619D01*
X126008761Y-99806380D01*
X126056380Y-99663523D01*
X126056380Y-99568285D01*
X126056380Y-100425428D02*
X125056380Y-100425428D01*
X125056380Y-100806380D01*
X125104000Y-100901619D01*
X125151619Y-100949238D01*
X125246857Y-100996857D01*
X125389714Y-100996857D01*
X125484952Y-100949238D01*
X125532571Y-100901619D01*
X125580190Y-100806380D01*
X125580190Y-100425428D01*
X126056380Y-101949238D02*
X126056380Y-101377809D01*
X126056380Y-101663523D02*
X125056380Y-101663523D01*
X125199238Y-101568285D01*
X125294476Y-101473047D01*
X125342095Y-101377809D01*
X126056380Y-103139714D02*
X125056380Y-103139714D01*
X125437333Y-103139714D02*
X125389714Y-103234952D01*
X125389714Y-103425428D01*
X125437333Y-103520666D01*
X125484952Y-103568285D01*
X125580190Y-103615904D01*
X125865904Y-103615904D01*
X125961142Y-103568285D01*
X126008761Y-103520666D01*
X126056380Y-103425428D01*
X126056380Y-103234952D01*
X126008761Y-103139714D01*
X126008761Y-104425428D02*
X126056380Y-104330190D01*
X126056380Y-104139714D01*
X126008761Y-104044476D01*
X125913523Y-103996857D01*
X125532571Y-103996857D01*
X125437333Y-104044476D01*
X125389714Y-104139714D01*
X125389714Y-104330190D01*
X125437333Y-104425428D01*
X125532571Y-104473047D01*
X125627809Y-104473047D01*
X125723047Y-103996857D01*
X125389714Y-104758761D02*
X125389714Y-105139714D01*
X126056380Y-104901619D02*
X125199238Y-104901619D01*
X125104000Y-104949238D01*
X125056380Y-105044476D01*
X125056380Y-105139714D01*
X126056380Y-105615904D02*
X126008761Y-105520666D01*
X125961142Y-105473047D01*
X125865904Y-105425428D01*
X125580190Y-105425428D01*
X125484952Y-105473047D01*
X125437333Y-105520666D01*
X125389714Y-105615904D01*
X125389714Y-105758761D01*
X125437333Y-105853999D01*
X125484952Y-105901619D01*
X125580190Y-105949238D01*
X125865904Y-105949238D01*
X125961142Y-105901619D01*
X126008761Y-105853999D01*
X126056380Y-105758761D01*
X126056380Y-105615904D01*
X126056380Y-106377809D02*
X125389714Y-106377809D01*
X125580190Y-106377809D02*
X125484952Y-106425428D01*
X125437333Y-106473047D01*
X125389714Y-106568285D01*
X125389714Y-106663523D01*
X126008761Y-107377809D02*
X126056380Y-107282571D01*
X126056380Y-107092095D01*
X126008761Y-106996857D01*
X125913523Y-106949238D01*
X125532571Y-106949238D01*
X125437333Y-106996857D01*
X125389714Y-107092095D01*
X125389714Y-107282571D01*
X125437333Y-107377809D01*
X125532571Y-107425428D01*
X125627809Y-107425428D01*
X125723047Y-106949238D01*
X126008761Y-108568285D02*
X126056380Y-108663523D01*
X126056380Y-108853999D01*
X126008761Y-108949238D01*
X125913523Y-108996857D01*
X125865904Y-108996857D01*
X125770666Y-108949238D01*
X125723047Y-108853999D01*
X125723047Y-108711142D01*
X125675428Y-108615904D01*
X125580190Y-108568285D01*
X125532571Y-108568285D01*
X125437333Y-108615904D01*
X125389714Y-108711142D01*
X125389714Y-108853999D01*
X125437333Y-108949238D01*
X126056380Y-109425428D02*
X125056380Y-109425428D01*
X126056380Y-109853999D02*
X125532571Y-109853999D01*
X125437333Y-109806380D01*
X125389714Y-109711142D01*
X125389714Y-109568285D01*
X125437333Y-109473047D01*
X125484952Y-109425428D01*
X126056380Y-110473047D02*
X126008761Y-110377809D01*
X125961142Y-110330190D01*
X125865904Y-110282571D01*
X125580190Y-110282571D01*
X125484952Y-110330190D01*
X125437333Y-110377809D01*
X125389714Y-110473047D01*
X125389714Y-110615904D01*
X125437333Y-110711142D01*
X125484952Y-110758761D01*
X125580190Y-110806380D01*
X125865904Y-110806380D01*
X125961142Y-110758761D01*
X126008761Y-110711142D01*
X126056380Y-110615904D01*
X126056380Y-110473047D01*
X126056380Y-111234952D02*
X125389714Y-111234952D01*
X125580190Y-111234952D02*
X125484952Y-111282571D01*
X125437333Y-111330190D01*
X125389714Y-111425428D01*
X125389714Y-111520666D01*
X125389714Y-111711142D02*
X125389714Y-112092095D01*
X125056380Y-111853999D02*
X125913523Y-111853999D01*
X126008761Y-111901619D01*
X126056380Y-111996857D01*
X126056380Y-112092095D01*
X126056380Y-112425428D02*
X125389714Y-112425428D01*
X125056380Y-112425428D02*
X125104000Y-112377809D01*
X125151619Y-112425428D01*
X125104000Y-112473047D01*
X125056380Y-112425428D01*
X125151619Y-112425428D01*
X125389714Y-112901619D02*
X126056380Y-112901619D01*
X125484952Y-112901619D02*
X125437333Y-112949238D01*
X125389714Y-113044476D01*
X125389714Y-113187333D01*
X125437333Y-113282571D01*
X125532571Y-113330190D01*
X126056380Y-113330190D01*
X125389714Y-114234952D02*
X126199238Y-114234952D01*
X126294476Y-114187333D01*
X126342095Y-114139714D01*
X126389714Y-114044476D01*
X126389714Y-113901619D01*
X126342095Y-113806380D01*
X126008761Y-114234952D02*
X126056380Y-114139714D01*
X126056380Y-113949238D01*
X126008761Y-113853999D01*
X125961142Y-113806380D01*
X125865904Y-113758761D01*
X125580190Y-113758761D01*
X125484952Y-113806380D01*
X125437333Y-113853999D01*
X125389714Y-113949238D01*
X125389714Y-114139714D01*
X125437333Y-114234952D01*
X125056380Y-115758761D02*
X125770666Y-115758761D01*
X125913523Y-115711142D01*
X126008761Y-115615904D01*
X126056380Y-115473047D01*
X126056380Y-115377809D01*
X126056380Y-116758761D02*
X126056380Y-116187333D01*
X126056380Y-116473047D02*
X125056380Y-116473047D01*
X125199238Y-116377809D01*
X125294476Y-116282571D01*
X125342095Y-116187333D01*
X125056380Y-117377809D02*
X125056380Y-117473047D01*
X125104000Y-117568285D01*
X125151619Y-117615904D01*
X125246857Y-117663523D01*
X125437333Y-117711142D01*
X125675428Y-117711142D01*
X125865904Y-117663523D01*
X125961142Y-117615904D01*
X126008761Y-117568285D01*
X126056380Y-117473047D01*
X126056380Y-117377809D01*
X126008761Y-117282571D01*
X125961142Y-117234952D01*
X125865904Y-117187333D01*
X125675428Y-117139714D01*
X125437333Y-117139714D01*
X125246857Y-117187333D01*
X125151619Y-117234952D01*
X125104000Y-117282571D01*
X125056380Y-117377809D01*
X127706380Y-83258761D02*
X126706380Y-83258761D01*
X126706380Y-83496857D01*
X126754000Y-83639714D01*
X126849238Y-83734952D01*
X126944476Y-83782571D01*
X127134952Y-83830190D01*
X127277809Y-83830190D01*
X127468285Y-83782571D01*
X127563523Y-83734952D01*
X127658761Y-83639714D01*
X127706380Y-83496857D01*
X127706380Y-83258761D01*
X126706380Y-84449238D02*
X126706380Y-84639714D01*
X126754000Y-84734952D01*
X126849238Y-84830190D01*
X127039714Y-84877809D01*
X127373047Y-84877809D01*
X127563523Y-84830190D01*
X127658761Y-84734952D01*
X127706380Y-84639714D01*
X127706380Y-84449238D01*
X127658761Y-84354000D01*
X127563523Y-84258761D01*
X127373047Y-84211142D01*
X127039714Y-84211142D01*
X126849238Y-84258761D01*
X126754000Y-84354000D01*
X126706380Y-84449238D01*
X127706380Y-86068285D02*
X126706380Y-86068285D01*
X127706380Y-86639714D01*
X126706380Y-86639714D01*
X126706380Y-87306380D02*
X126706380Y-87496857D01*
X126754000Y-87592095D01*
X126849238Y-87687333D01*
X127039714Y-87734952D01*
X127373047Y-87734952D01*
X127563523Y-87687333D01*
X127658761Y-87592095D01*
X127706380Y-87496857D01*
X127706380Y-87306380D01*
X127658761Y-87211142D01*
X127563523Y-87115904D01*
X127373047Y-87068285D01*
X127039714Y-87068285D01*
X126849238Y-87115904D01*
X126754000Y-87211142D01*
X126706380Y-87306380D01*
X126706380Y-88020666D02*
X126706380Y-88592095D01*
X127706380Y-88306380D02*
X126706380Y-88306380D01*
X127658761Y-89639714D02*
X127706380Y-89734952D01*
X127706380Y-89925428D01*
X127658761Y-90020666D01*
X127563523Y-90068285D01*
X127515904Y-90068285D01*
X127420666Y-90020666D01*
X127373047Y-89925428D01*
X127373047Y-89782571D01*
X127325428Y-89687333D01*
X127230190Y-89639714D01*
X127182571Y-89639714D01*
X127087333Y-89687333D01*
X127039714Y-89782571D01*
X127039714Y-89925428D01*
X127087333Y-90020666D01*
X127706380Y-90496857D02*
X126706380Y-90496857D01*
X127706380Y-90925428D02*
X127182571Y-90925428D01*
X127087333Y-90877809D01*
X127039714Y-90782571D01*
X127039714Y-90639714D01*
X127087333Y-90544476D01*
X127134952Y-90496857D01*
X127706380Y-91544476D02*
X127658761Y-91449238D01*
X127611142Y-91401619D01*
X127515904Y-91354000D01*
X127230190Y-91354000D01*
X127134952Y-91401619D01*
X127087333Y-91449238D01*
X127039714Y-91544476D01*
X127039714Y-91687333D01*
X127087333Y-91782571D01*
X127134952Y-91830190D01*
X127230190Y-91877809D01*
X127515904Y-91877809D01*
X127611142Y-91830190D01*
X127658761Y-91782571D01*
X127706380Y-91687333D01*
X127706380Y-91544476D01*
X127706380Y-92306380D02*
X127039714Y-92306380D01*
X127230190Y-92306380D02*
X127134952Y-92354000D01*
X127087333Y-92401619D01*
X127039714Y-92496857D01*
X127039714Y-92592095D01*
X127039714Y-92782571D02*
X127039714Y-93163523D01*
X126706380Y-92925428D02*
X127563523Y-92925428D01*
X127658761Y-92973047D01*
X127706380Y-93068285D01*
X127706380Y-93163523D01*
X127706380Y-94258761D02*
X126706380Y-94258761D01*
X127087333Y-94258761D02*
X127039714Y-94354000D01*
X127039714Y-94544476D01*
X127087333Y-94639714D01*
X127134952Y-94687333D01*
X127230190Y-94734952D01*
X127515904Y-94734952D01*
X127611142Y-94687333D01*
X127658761Y-94639714D01*
X127706380Y-94544476D01*
X127706380Y-94354000D01*
X127658761Y-94258761D01*
X127706380Y-95306380D02*
X127658761Y-95211142D01*
X127611142Y-95163523D01*
X127515904Y-95115904D01*
X127230190Y-95115904D01*
X127134952Y-95163523D01*
X127087333Y-95211142D01*
X127039714Y-95306380D01*
X127039714Y-95449238D01*
X127087333Y-95544476D01*
X127134952Y-95592095D01*
X127230190Y-95639714D01*
X127515904Y-95639714D01*
X127611142Y-95592095D01*
X127658761Y-95544476D01*
X127706380Y-95449238D01*
X127706380Y-95306380D01*
X127039714Y-95925428D02*
X127039714Y-96306380D01*
X126706380Y-96068285D02*
X127563523Y-96068285D01*
X127658761Y-96115904D01*
X127706380Y-96211142D01*
X127706380Y-96306380D01*
X127706380Y-96639714D02*
X126706380Y-96639714D01*
X127706380Y-97068285D02*
X127182571Y-97068285D01*
X127087333Y-97020666D01*
X127039714Y-96925428D01*
X127039714Y-96782571D01*
X127087333Y-96687333D01*
X127134952Y-96639714D01*
X126706380Y-98592095D02*
X127420666Y-98592095D01*
X127563523Y-98544476D01*
X127658761Y-98449238D01*
X127706380Y-98306380D01*
X127706380Y-98211142D01*
X127706380Y-99115904D02*
X127706380Y-99306380D01*
X127658761Y-99401619D01*
X127611142Y-99449238D01*
X127468285Y-99544476D01*
X127277809Y-99592095D01*
X126896857Y-99592095D01*
X126801619Y-99544476D01*
X126754000Y-99496857D01*
X126706380Y-99401619D01*
X126706380Y-99211142D01*
X126754000Y-99115904D01*
X126801619Y-99068285D01*
X126896857Y-99020666D01*
X127134952Y-99020666D01*
X127230190Y-99068285D01*
X127277809Y-99115904D01*
X127325428Y-99211142D01*
X127325428Y-99401619D01*
X127277809Y-99496857D01*
X127230190Y-99544476D01*
X127134952Y-99592095D01*
X127706380Y-101211142D02*
X127182571Y-101211142D01*
X127087333Y-101163523D01*
X127039714Y-101068285D01*
X127039714Y-100877809D01*
X127087333Y-100782571D01*
X127658761Y-101211142D02*
X127706380Y-101115904D01*
X127706380Y-100877809D01*
X127658761Y-100782571D01*
X127563523Y-100734952D01*
X127468285Y-100734952D01*
X127373047Y-100782571D01*
X127325428Y-100877809D01*
X127325428Y-101115904D01*
X127277809Y-101211142D01*
X127039714Y-101687333D02*
X127706380Y-101687333D01*
X127134952Y-101687333D02*
X127087333Y-101734952D01*
X127039714Y-101830190D01*
X127039714Y-101973047D01*
X127087333Y-102068285D01*
X127182571Y-102115904D01*
X127706380Y-102115904D01*
X127706380Y-103020666D02*
X126706380Y-103020666D01*
X127658761Y-103020666D02*
X127706380Y-102925428D01*
X127706380Y-102734952D01*
X127658761Y-102639714D01*
X127611142Y-102592095D01*
X127515904Y-102544476D01*
X127230190Y-102544476D01*
X127134952Y-102592095D01*
X127087333Y-102639714D01*
X127039714Y-102734952D01*
X127039714Y-102925428D01*
X127087333Y-103020666D01*
X126706380Y-104544476D02*
X127420666Y-104544476D01*
X127563523Y-104496857D01*
X127658761Y-104401619D01*
X127706380Y-104258761D01*
X127706380Y-104163523D01*
X127706380Y-105544476D02*
X127706380Y-104973047D01*
X127706380Y-105258761D02*
X126706380Y-105258761D01*
X126849238Y-105163523D01*
X126944476Y-105068285D01*
X126992095Y-104973047D01*
X126706380Y-106163523D02*
X126706380Y-106258761D01*
X126754000Y-106353999D01*
X126801619Y-106401619D01*
X126896857Y-106449238D01*
X127087333Y-106496857D01*
X127325428Y-106496857D01*
X127515904Y-106449238D01*
X127611142Y-106401619D01*
X127658761Y-106353999D01*
X127706380Y-106258761D01*
X127706380Y-106163523D01*
X127658761Y-106068285D01*
X127611142Y-106020666D01*
X127515904Y-105973047D01*
X127325428Y-105925428D01*
X127087333Y-105925428D01*
X126896857Y-105973047D01*
X126801619Y-106020666D01*
X126754000Y-106068285D01*
X126706380Y-106163523D01*
X127706380Y-108115904D02*
X127182571Y-108115904D01*
X127087333Y-108068285D01*
X127039714Y-107973047D01*
X127039714Y-107782571D01*
X127087333Y-107687333D01*
X127658761Y-108115904D02*
X127706380Y-108020666D01*
X127706380Y-107782571D01*
X127658761Y-107687333D01*
X127563523Y-107639714D01*
X127468285Y-107639714D01*
X127373047Y-107687333D01*
X127325428Y-107782571D01*
X127325428Y-108020666D01*
X127277809Y-108115904D01*
X127039714Y-108449238D02*
X127039714Y-108830190D01*
X126706380Y-108592095D02*
X127563523Y-108592095D01*
X127658761Y-108639714D01*
X127706380Y-108734952D01*
X127706380Y-108830190D01*
X127039714Y-109782571D02*
X127039714Y-110163523D01*
X126706380Y-109925428D02*
X127563523Y-109925428D01*
X127658761Y-109973047D01*
X127706380Y-110068285D01*
X127706380Y-110163523D01*
X127706380Y-110496857D02*
X126706380Y-110496857D01*
X127706380Y-110925428D02*
X127182571Y-110925428D01*
X127087333Y-110877809D01*
X127039714Y-110782571D01*
X127039714Y-110639714D01*
X127087333Y-110544476D01*
X127134952Y-110496857D01*
X127658761Y-111782571D02*
X127706380Y-111687333D01*
X127706380Y-111496857D01*
X127658761Y-111401619D01*
X127563523Y-111353999D01*
X127182571Y-111353999D01*
X127087333Y-111401619D01*
X127039714Y-111496857D01*
X127039714Y-111687333D01*
X127087333Y-111782571D01*
X127182571Y-111830190D01*
X127277809Y-111830190D01*
X127373047Y-111353999D01*
X127658761Y-112973047D02*
X127706380Y-113068285D01*
X127706380Y-113258761D01*
X127658761Y-113353999D01*
X127563523Y-113401619D01*
X127515904Y-113401619D01*
X127420666Y-113353999D01*
X127373047Y-113258761D01*
X127373047Y-113115904D01*
X127325428Y-113020666D01*
X127230190Y-112973047D01*
X127182571Y-112973047D01*
X127087333Y-113020666D01*
X127039714Y-113115904D01*
X127039714Y-113258761D01*
X127087333Y-113353999D01*
X127706380Y-114258761D02*
X127182571Y-114258761D01*
X127087333Y-114211142D01*
X127039714Y-114115904D01*
X127039714Y-113925428D01*
X127087333Y-113830190D01*
X127658761Y-114258761D02*
X127706380Y-114163523D01*
X127706380Y-113925428D01*
X127658761Y-113830190D01*
X127563523Y-113782571D01*
X127468285Y-113782571D01*
X127373047Y-113830190D01*
X127325428Y-113925428D01*
X127325428Y-114163523D01*
X127277809Y-114258761D01*
X127706380Y-114734952D02*
X127039714Y-114734952D01*
X127134952Y-114734952D02*
X127087333Y-114782571D01*
X127039714Y-114877809D01*
X127039714Y-115020666D01*
X127087333Y-115115904D01*
X127182571Y-115163523D01*
X127706380Y-115163523D01*
X127182571Y-115163523D02*
X127087333Y-115211142D01*
X127039714Y-115306380D01*
X127039714Y-115449238D01*
X127087333Y-115544476D01*
X127182571Y-115592095D01*
X127706380Y-115592095D01*
X127658761Y-116449238D02*
X127706380Y-116353999D01*
X127706380Y-116163523D01*
X127658761Y-116068285D01*
X127563523Y-116020666D01*
X127182571Y-116020666D01*
X127087333Y-116068285D01*
X127039714Y-116163523D01*
X127039714Y-116353999D01*
X127087333Y-116449238D01*
X127182571Y-116496857D01*
X127277809Y-116496857D01*
X127373047Y-116020666D01*
X127039714Y-117544476D02*
X127039714Y-117925428D01*
X126706380Y-117687333D02*
X127563523Y-117687333D01*
X127658761Y-117734952D01*
X127706380Y-117830190D01*
X127706380Y-117925428D01*
X127706380Y-118258761D02*
X127039714Y-118258761D01*
X126706380Y-118258761D02*
X126754000Y-118211142D01*
X126801619Y-118258761D01*
X126754000Y-118306380D01*
X126706380Y-118258761D01*
X126801619Y-118258761D01*
X127706380Y-118734952D02*
X127039714Y-118734952D01*
X127134952Y-118734952D02*
X127087333Y-118782571D01*
X127039714Y-118877809D01*
X127039714Y-119020666D01*
X127087333Y-119115904D01*
X127182571Y-119163523D01*
X127706380Y-119163523D01*
X127182571Y-119163523D02*
X127087333Y-119211142D01*
X127039714Y-119306380D01*
X127039714Y-119449238D01*
X127087333Y-119544476D01*
X127182571Y-119592095D01*
X127706380Y-119592095D01*
X127658761Y-120449238D02*
X127706380Y-120353999D01*
X127706380Y-120163523D01*
X127658761Y-120068285D01*
X127563523Y-120020666D01*
X127182571Y-120020666D01*
X127087333Y-120068285D01*
X127039714Y-120163523D01*
X127039714Y-120353999D01*
X127087333Y-120449238D01*
X127182571Y-120496857D01*
X127277809Y-120496857D01*
X127373047Y-120020666D01*
X129356380Y-86020666D02*
X128356380Y-86020666D01*
X128356380Y-86258761D01*
X128404000Y-86401619D01*
X128499238Y-86496857D01*
X128594476Y-86544476D01*
X128784952Y-86592095D01*
X128927809Y-86592095D01*
X129118285Y-86544476D01*
X129213523Y-86496857D01*
X129308761Y-86401619D01*
X129356380Y-86258761D01*
X129356380Y-86020666D01*
X128356380Y-87211142D02*
X128356380Y-87401619D01*
X128404000Y-87496857D01*
X128499238Y-87592095D01*
X128689714Y-87639714D01*
X129023047Y-87639714D01*
X129213523Y-87592095D01*
X129308761Y-87496857D01*
X129356380Y-87401619D01*
X129356380Y-87211142D01*
X129308761Y-87115904D01*
X129213523Y-87020666D01*
X129023047Y-86973047D01*
X128689714Y-86973047D01*
X128499238Y-87020666D01*
X128404000Y-87115904D01*
X128356380Y-87211142D01*
X129356380Y-88830190D02*
X128356380Y-88830190D01*
X129356380Y-89401619D01*
X128356380Y-89401619D01*
X128356380Y-90068285D02*
X128356380Y-90258761D01*
X128404000Y-90354000D01*
X128499238Y-90449238D01*
X128689714Y-90496857D01*
X129023047Y-90496857D01*
X129213523Y-90449238D01*
X129308761Y-90354000D01*
X129356380Y-90258761D01*
X129356380Y-90068285D01*
X129308761Y-89973047D01*
X129213523Y-89877809D01*
X129023047Y-89830190D01*
X128689714Y-89830190D01*
X128499238Y-89877809D01*
X128404000Y-89973047D01*
X128356380Y-90068285D01*
X128356380Y-90782571D02*
X128356380Y-91354000D01*
X129356380Y-91068285D02*
X128356380Y-91068285D01*
X129308761Y-92401619D02*
X129356380Y-92496857D01*
X129356380Y-92687333D01*
X129308761Y-92782571D01*
X129213523Y-92830190D01*
X129165904Y-92830190D01*
X129070666Y-92782571D01*
X129023047Y-92687333D01*
X129023047Y-92544476D01*
X128975428Y-92449238D01*
X128880190Y-92401619D01*
X128832571Y-92401619D01*
X128737333Y-92449238D01*
X128689714Y-92544476D01*
X128689714Y-92687333D01*
X128737333Y-92782571D01*
X129356380Y-93258761D02*
X128356380Y-93258761D01*
X129356380Y-93687333D02*
X128832571Y-93687333D01*
X128737333Y-93639714D01*
X128689714Y-93544476D01*
X128689714Y-93401619D01*
X128737333Y-93306380D01*
X128784952Y-93258761D01*
X129356380Y-94306380D02*
X129308761Y-94211142D01*
X129261142Y-94163523D01*
X129165904Y-94115904D01*
X128880190Y-94115904D01*
X128784952Y-94163523D01*
X128737333Y-94211142D01*
X128689714Y-94306380D01*
X128689714Y-94449238D01*
X128737333Y-94544476D01*
X128784952Y-94592095D01*
X128880190Y-94639714D01*
X129165904Y-94639714D01*
X129261142Y-94592095D01*
X129308761Y-94544476D01*
X129356380Y-94449238D01*
X129356380Y-94306380D01*
X129356380Y-95068285D02*
X128689714Y-95068285D01*
X128880190Y-95068285D02*
X128784952Y-95115904D01*
X128737333Y-95163523D01*
X128689714Y-95258761D01*
X128689714Y-95354000D01*
X128689714Y-95544476D02*
X128689714Y-95925428D01*
X128356380Y-95687333D02*
X129213523Y-95687333D01*
X129308761Y-95734952D01*
X129356380Y-95830190D01*
X129356380Y-95925428D01*
X128356380Y-97306380D02*
X129070666Y-97306380D01*
X129213523Y-97258761D01*
X129308761Y-97163523D01*
X129356380Y-97020666D01*
X129356380Y-96925428D01*
X129356380Y-98306380D02*
X129356380Y-97734952D01*
X129356380Y-98020666D02*
X128356380Y-98020666D01*
X128499238Y-97925428D01*
X128594476Y-97830190D01*
X128642095Y-97734952D01*
X128356380Y-98925428D02*
X128356380Y-99020666D01*
X128404000Y-99115904D01*
X128451619Y-99163523D01*
X128546857Y-99211142D01*
X128737333Y-99258761D01*
X128975428Y-99258761D01*
X129165904Y-99211142D01*
X129261142Y-99163523D01*
X129308761Y-99115904D01*
X129356380Y-99020666D01*
X129356380Y-98925428D01*
X129308761Y-98830190D01*
X129261142Y-98782571D01*
X129165904Y-98734952D01*
X128975428Y-98687333D01*
X128737333Y-98687333D01*
X128546857Y-98734952D01*
X128451619Y-98782571D01*
X128404000Y-98830190D01*
X128356380Y-98925428D01*
X128689714Y-100353999D02*
X129356380Y-100544476D01*
X128880190Y-100734952D01*
X129356380Y-100925428D01*
X128689714Y-101115904D01*
X129356380Y-101496857D02*
X128356380Y-101496857D01*
X129356380Y-101925428D02*
X128832571Y-101925428D01*
X128737333Y-101877809D01*
X128689714Y-101782571D01*
X128689714Y-101639714D01*
X128737333Y-101544476D01*
X128784952Y-101496857D01*
X129356380Y-102401619D02*
X128689714Y-102401619D01*
X128356380Y-102401619D02*
X128404000Y-102353999D01*
X128451619Y-102401619D01*
X128404000Y-102449238D01*
X128356380Y-102401619D01*
X128451619Y-102401619D01*
X129356380Y-103020666D02*
X129308761Y-102925428D01*
X129213523Y-102877809D01*
X128356380Y-102877809D01*
X129308761Y-103782571D02*
X129356380Y-103687333D01*
X129356380Y-103496857D01*
X129308761Y-103401619D01*
X129213523Y-103353999D01*
X128832571Y-103353999D01*
X128737333Y-103401619D01*
X128689714Y-103496857D01*
X128689714Y-103687333D01*
X128737333Y-103782571D01*
X128832571Y-103830190D01*
X128927809Y-103830190D01*
X129023047Y-103353999D01*
X128356380Y-105306380D02*
X129070666Y-105306380D01*
X129213523Y-105258761D01*
X129308761Y-105163523D01*
X129356380Y-105020666D01*
X129356380Y-104925428D01*
X129356380Y-105782571D02*
X128356380Y-105782571D01*
X128356380Y-106163523D01*
X128404000Y-106258761D01*
X128451619Y-106306380D01*
X128546857Y-106353999D01*
X128689714Y-106353999D01*
X128784952Y-106306380D01*
X128832571Y-106258761D01*
X128880190Y-106163523D01*
X128880190Y-105782571D01*
X129356380Y-107306380D02*
X129356380Y-106734952D01*
X129356380Y-107020666D02*
X128356380Y-107020666D01*
X128499238Y-106925428D01*
X128594476Y-106830190D01*
X128642095Y-106734952D01*
X129356380Y-108496857D02*
X128689714Y-108496857D01*
X128356380Y-108496857D02*
X128404000Y-108449238D01*
X128451619Y-108496857D01*
X128404000Y-108544476D01*
X128356380Y-108496857D01*
X128451619Y-108496857D01*
X129308761Y-108925428D02*
X129356380Y-109020666D01*
X129356380Y-109211142D01*
X129308761Y-109306380D01*
X129213523Y-109353999D01*
X129165904Y-109353999D01*
X129070666Y-109306380D01*
X129023047Y-109211142D01*
X129023047Y-109068285D01*
X128975428Y-108973047D01*
X128880190Y-108925428D01*
X128832571Y-108925428D01*
X128737333Y-108973047D01*
X128689714Y-109068285D01*
X128689714Y-109211142D01*
X128737333Y-109306380D01*
X129308761Y-110973047D02*
X129356380Y-110877809D01*
X129356380Y-110687333D01*
X129308761Y-110592095D01*
X129261142Y-110544476D01*
X129165904Y-110496857D01*
X128880190Y-110496857D01*
X128784952Y-110544476D01*
X128737333Y-110592095D01*
X128689714Y-110687333D01*
X128689714Y-110877809D01*
X128737333Y-110973047D01*
X129356380Y-111544476D02*
X129308761Y-111449238D01*
X129261142Y-111401619D01*
X129165904Y-111353999D01*
X128880190Y-111353999D01*
X128784952Y-111401619D01*
X128737333Y-111449238D01*
X128689714Y-111544476D01*
X128689714Y-111687333D01*
X128737333Y-111782571D01*
X128784952Y-111830190D01*
X128880190Y-111877809D01*
X129165904Y-111877809D01*
X129261142Y-111830190D01*
X129308761Y-111782571D01*
X129356380Y-111687333D01*
X129356380Y-111544476D01*
X128689714Y-112306380D02*
X129356380Y-112306380D01*
X128784952Y-112306380D02*
X128737333Y-112353999D01*
X128689714Y-112449238D01*
X128689714Y-112592095D01*
X128737333Y-112687333D01*
X128832571Y-112734952D01*
X129356380Y-112734952D01*
X128689714Y-113211142D02*
X129356380Y-113211142D01*
X128784952Y-113211142D02*
X128737333Y-113258761D01*
X128689714Y-113353999D01*
X128689714Y-113496857D01*
X128737333Y-113592095D01*
X128832571Y-113639714D01*
X129356380Y-113639714D01*
X129308761Y-114496857D02*
X129356380Y-114401619D01*
X129356380Y-114211142D01*
X129308761Y-114115904D01*
X129213523Y-114068285D01*
X128832571Y-114068285D01*
X128737333Y-114115904D01*
X128689714Y-114211142D01*
X128689714Y-114401619D01*
X128737333Y-114496857D01*
X128832571Y-114544476D01*
X128927809Y-114544476D01*
X129023047Y-114068285D01*
X129308761Y-115401619D02*
X129356380Y-115306380D01*
X129356380Y-115115904D01*
X129308761Y-115020666D01*
X129261142Y-114973047D01*
X129165904Y-114925428D01*
X128880190Y-114925428D01*
X128784952Y-114973047D01*
X128737333Y-115020666D01*
X128689714Y-115115904D01*
X128689714Y-115306380D01*
X128737333Y-115401619D01*
X128689714Y-115687333D02*
X128689714Y-116068285D01*
X128356380Y-115830190D02*
X129213523Y-115830190D01*
X129308761Y-115877809D01*
X129356380Y-115973047D01*
X129356380Y-116068285D01*
X129308761Y-116782571D02*
X129356380Y-116687333D01*
X129356380Y-116496857D01*
X129308761Y-116401619D01*
X129213523Y-116353999D01*
X128832571Y-116353999D01*
X128737333Y-116401619D01*
X128689714Y-116496857D01*
X128689714Y-116687333D01*
X128737333Y-116782571D01*
X128832571Y-116830190D01*
X128927809Y-116830190D01*
X129023047Y-116353999D01*
X129356380Y-117687333D02*
X128356380Y-117687333D01*
X129308761Y-117687333D02*
X129356380Y-117592095D01*
X129356380Y-117401619D01*
X129308761Y-117306380D01*
X129261142Y-117258761D01*
X129165904Y-117211142D01*
X128880190Y-117211142D01*
X128784952Y-117258761D01*
X128737333Y-117306380D01*
X128689714Y-117401619D01*
X128689714Y-117592095D01*
X128737333Y-117687333D01*
X159688500Y-105703714D02*
X160450404Y-105989428D01*
X159688500Y-106275142D01*
X159212309Y-106370380D02*
X159212309Y-105370380D01*
X158640880Y-106370380D02*
X159069452Y-105798952D01*
X158640880Y-105370380D02*
X159212309Y-105941809D01*
X158212309Y-105846571D02*
X157878976Y-105846571D01*
X157736119Y-106370380D02*
X158212309Y-106370380D01*
X158212309Y-105370380D01*
X157736119Y-105370380D01*
X157117071Y-105894190D02*
X157117071Y-106370380D01*
X157450404Y-105370380D02*
X157117071Y-105894190D01*
X156783738Y-105370380D01*
D11*
X133910666Y-130288142D02*
X133910666Y-131300047D01*
X133970190Y-131419095D01*
X134029714Y-131478619D01*
X134148761Y-131538142D01*
X134327333Y-131538142D01*
X134446380Y-131478619D01*
X133910666Y-131061952D02*
X134029714Y-131121476D01*
X134267809Y-131121476D01*
X134386857Y-131061952D01*
X134446380Y-131002428D01*
X134505904Y-130883380D01*
X134505904Y-130526238D01*
X134446380Y-130407190D01*
X134386857Y-130347666D01*
X134267809Y-130288142D01*
X134029714Y-130288142D01*
X133910666Y-130347666D01*
X133315428Y-131121476D02*
X133315428Y-130288142D01*
X133315428Y-129871476D02*
X133374952Y-129931000D01*
X133315428Y-129990523D01*
X133255904Y-129931000D01*
X133315428Y-129871476D01*
X133315428Y-129990523D01*
X132898761Y-130288142D02*
X132422571Y-130288142D01*
X132720190Y-129871476D02*
X132720190Y-130942904D01*
X132660666Y-131061952D01*
X132541619Y-131121476D01*
X132422571Y-131121476D01*
X132005904Y-131121476D02*
X132005904Y-129871476D01*
X131470190Y-131121476D02*
X131470190Y-130466714D01*
X131529714Y-130347666D01*
X131648761Y-130288142D01*
X131827333Y-130288142D01*
X131946380Y-130347666D01*
X132005904Y-130407190D01*
X130339238Y-130288142D02*
X130339238Y-131121476D01*
X130874952Y-130288142D02*
X130874952Y-130942904D01*
X130815428Y-131061952D01*
X130696380Y-131121476D01*
X130517809Y-131121476D01*
X130398761Y-131061952D01*
X130339238Y-131002428D01*
X129744000Y-131121476D02*
X129744000Y-129871476D01*
X129744000Y-130347666D02*
X129624952Y-130288142D01*
X129386857Y-130288142D01*
X129267809Y-130347666D01*
X129208285Y-130407190D01*
X129148761Y-130526238D01*
X129148761Y-130883380D01*
X129208285Y-131002428D01*
X129267809Y-131061952D01*
X129386857Y-131121476D01*
X129624952Y-131121476D01*
X129744000Y-131061952D01*
X128613047Y-131002428D02*
X128553523Y-131061952D01*
X128613047Y-131121476D01*
X128672571Y-131061952D01*
X128613047Y-131002428D01*
X128613047Y-131121476D01*
X127482095Y-131061952D02*
X127601142Y-131121476D01*
X127839238Y-131121476D01*
X127958285Y-131061952D01*
X128017809Y-131002428D01*
X128077333Y-130883380D01*
X128077333Y-130526238D01*
X128017809Y-130407190D01*
X127958285Y-130347666D01*
X127839238Y-130288142D01*
X127601142Y-130288142D01*
X127482095Y-130347666D01*
X126767809Y-131121476D02*
X126886857Y-131061952D01*
X126946380Y-131002428D01*
X127005904Y-130883380D01*
X127005904Y-130526238D01*
X126946380Y-130407190D01*
X126886857Y-130347666D01*
X126767809Y-130288142D01*
X126589238Y-130288142D01*
X126470190Y-130347666D01*
X126410666Y-130407190D01*
X126351142Y-130526238D01*
X126351142Y-130883380D01*
X126410666Y-131002428D01*
X126470190Y-131061952D01*
X126589238Y-131121476D01*
X126767809Y-131121476D01*
X125815428Y-131121476D02*
X125815428Y-130288142D01*
X125815428Y-130407190D02*
X125755904Y-130347666D01*
X125636857Y-130288142D01*
X125458285Y-130288142D01*
X125339238Y-130347666D01*
X125279714Y-130466714D01*
X125279714Y-131121476D01*
X125279714Y-130466714D02*
X125220190Y-130347666D01*
X125101142Y-130288142D01*
X124922571Y-130288142D01*
X124803523Y-130347666D01*
X124744000Y-130466714D01*
X124744000Y-131121476D01*
X123255904Y-129811952D02*
X124327333Y-131419095D01*
X122958285Y-131121476D02*
X122303523Y-130288142D01*
X122958285Y-130288142D02*
X122303523Y-131121476D01*
X121291619Y-130288142D02*
X121291619Y-131121476D01*
X121827333Y-130288142D02*
X121827333Y-130942904D01*
X121767809Y-131061952D01*
X121648761Y-131121476D01*
X121470190Y-131121476D01*
X121351142Y-131061952D01*
X121291619Y-131002428D01*
X120696380Y-130288142D02*
X120696380Y-131121476D01*
X120696380Y-130407190D02*
X120636857Y-130347666D01*
X120517809Y-130288142D01*
X120339238Y-130288142D01*
X120220190Y-130347666D01*
X120160666Y-130466714D01*
X120160666Y-131121476D01*
X119565428Y-131121476D02*
X119565428Y-129871476D01*
X119446380Y-130645285D02*
X119089238Y-131121476D01*
X119089238Y-130288142D02*
X119565428Y-130764333D01*
X118077333Y-131061952D02*
X118196380Y-131121476D01*
X118434476Y-131121476D01*
X118553523Y-131061952D01*
X118613047Y-130942904D01*
X118613047Y-130466714D01*
X118553523Y-130347666D01*
X118434476Y-130288142D01*
X118196380Y-130288142D01*
X118077333Y-130347666D01*
X118017809Y-130466714D01*
X118017809Y-130585761D01*
X118613047Y-130704809D01*
X117482095Y-131121476D02*
X117482095Y-130288142D01*
X117482095Y-130526238D02*
X117422571Y-130407190D01*
X117363047Y-130347666D01*
X117244000Y-130288142D01*
X117124952Y-130288142D01*
X115815428Y-129811952D02*
X116886857Y-131419095D01*
X115398761Y-131121476D02*
X115398761Y-129871476D01*
X115398761Y-130347666D02*
X115279714Y-130288142D01*
X115041619Y-130288142D01*
X114922571Y-130347666D01*
X114863047Y-130407190D01*
X114803523Y-130526238D01*
X114803523Y-130883380D01*
X114863047Y-131002428D01*
X114922571Y-131061952D01*
X115041619Y-131121476D01*
X115279714Y-131121476D01*
X115398761Y-131061952D01*
X114089238Y-131121476D02*
X114208285Y-131061952D01*
X114267809Y-130942904D01*
X114267809Y-129871476D01*
X113077333Y-130288142D02*
X113077333Y-131121476D01*
X113613047Y-130288142D02*
X113613047Y-130942904D01*
X113553523Y-131061952D01*
X113434476Y-131121476D01*
X113255904Y-131121476D01*
X113136857Y-131061952D01*
X113077333Y-131002428D01*
X112005904Y-131061952D02*
X112124952Y-131121476D01*
X112363047Y-131121476D01*
X112482095Y-131061952D01*
X112541619Y-130942904D01*
X112541619Y-130466714D01*
X112482095Y-130347666D01*
X112363047Y-130288142D01*
X112124952Y-130288142D01*
X112005904Y-130347666D01*
X111946380Y-130466714D01*
X111946380Y-130585761D01*
X112541619Y-130704809D01*
X111470190Y-131061952D02*
X111351142Y-131121476D01*
X111113047Y-131121476D01*
X110994000Y-131061952D01*
X110934476Y-130942904D01*
X110934476Y-130883380D01*
X110994000Y-130764333D01*
X111113047Y-130704809D01*
X111291619Y-130704809D01*
X111410666Y-130645285D01*
X111470190Y-130526238D01*
X111470190Y-130466714D01*
X111410666Y-130347666D01*
X111291619Y-130288142D01*
X111113047Y-130288142D01*
X110994000Y-130347666D01*
X109863047Y-131061952D02*
X109982095Y-131121476D01*
X110220190Y-131121476D01*
X110339238Y-131061952D01*
X110398761Y-131002428D01*
X110458285Y-130883380D01*
X110458285Y-130526238D01*
X110398761Y-130407190D01*
X110339238Y-130347666D01*
X110220190Y-130288142D01*
X109982095Y-130288142D01*
X109863047Y-130347666D01*
X109386857Y-131061952D02*
X109267809Y-131121476D01*
X109029714Y-131121476D01*
X108910666Y-131061952D01*
X108851142Y-130942904D01*
X108851142Y-130883380D01*
X108910666Y-130764333D01*
X109029714Y-130704809D01*
X109208285Y-130704809D01*
X109327333Y-130645285D01*
X109386857Y-130526238D01*
X109386857Y-130466714D01*
X109327333Y-130347666D01*
X109208285Y-130288142D01*
X109029714Y-130288142D01*
X108910666Y-130347666D01*
X108315428Y-131121476D02*
X108315428Y-130288142D01*
X108315428Y-129871476D02*
X108374952Y-129931000D01*
X108315428Y-129990523D01*
X108255904Y-129931000D01*
X108315428Y-129871476D01*
X108315428Y-129990523D01*
X108017809Y-131240523D02*
X107065428Y-131240523D01*
X106767809Y-130288142D02*
X106767809Y-131538142D01*
X106767809Y-130347666D02*
X106648761Y-130288142D01*
X106410666Y-130288142D01*
X106291619Y-130347666D01*
X106232095Y-130407190D01*
X106172571Y-130526238D01*
X106172571Y-130883380D01*
X106232095Y-131002428D01*
X106291619Y-131061952D01*
X106410666Y-131121476D01*
X106648761Y-131121476D01*
X106767809Y-131061952D01*
X105636857Y-131121476D02*
X105636857Y-129871476D01*
X105636857Y-130347666D02*
X105517809Y-130288142D01*
X105279714Y-130288142D01*
X105160666Y-130347666D01*
X105101142Y-130407190D01*
X105041619Y-130526238D01*
X105041619Y-130883380D01*
X105101142Y-131002428D01*
X105160666Y-131061952D01*
X105279714Y-131121476D01*
X105517809Y-131121476D01*
X105636857Y-131061952D01*
X127558285Y-72859571D02*
X127558285Y-71359571D01*
X126986857Y-71359571D01*
X126844000Y-71431000D01*
X126772571Y-71502428D01*
X126701142Y-71645285D01*
X126701142Y-71859571D01*
X126772571Y-72002428D01*
X126844000Y-72073857D01*
X126986857Y-72145285D01*
X127558285Y-72145285D01*
X125844000Y-72859571D02*
X125986857Y-72788142D01*
X126058285Y-72716714D01*
X126129714Y-72573857D01*
X126129714Y-72145285D01*
X126058285Y-72002428D01*
X125986857Y-71931000D01*
X125844000Y-71859571D01*
X125629714Y-71859571D01*
X125486857Y-71931000D01*
X125415428Y-72002428D01*
X125344000Y-72145285D01*
X125344000Y-72573857D01*
X125415428Y-72716714D01*
X125486857Y-72788142D01*
X125629714Y-72859571D01*
X125844000Y-72859571D01*
X124844000Y-71859571D02*
X124558285Y-72859571D01*
X124272571Y-72145285D01*
X123986857Y-72859571D01*
X123701142Y-71859571D01*
X122558285Y-72788142D02*
X122701142Y-72859571D01*
X122986857Y-72859571D01*
X123129714Y-72788142D01*
X123201142Y-72645285D01*
X123201142Y-72073857D01*
X123129714Y-71931000D01*
X122986857Y-71859571D01*
X122701142Y-71859571D01*
X122558285Y-71931000D01*
X122486857Y-72073857D01*
X122486857Y-72216714D01*
X123201142Y-72359571D01*
X121844000Y-72859571D02*
X121844000Y-71859571D01*
X121844000Y-72145285D02*
X121772571Y-72002428D01*
X121701142Y-71931000D01*
X121558285Y-71859571D01*
X121415428Y-71859571D01*
X120415428Y-72073857D02*
X120201142Y-72145285D01*
X120129714Y-72216714D01*
X120058285Y-72359571D01*
X120058285Y-72573857D01*
X120129714Y-72716714D01*
X120201142Y-72788142D01*
X120344000Y-72859571D01*
X120915428Y-72859571D01*
X120915428Y-71359571D01*
X120415428Y-71359571D01*
X120272571Y-71431000D01*
X120201142Y-71502428D01*
X120129714Y-71645285D01*
X120129714Y-71788142D01*
X120201142Y-71931000D01*
X120272571Y-72002428D01*
X120415428Y-72073857D01*
X120915428Y-72073857D01*
X119201142Y-72859571D02*
X119344000Y-72788142D01*
X119415428Y-72716714D01*
X119486857Y-72573857D01*
X119486857Y-72145285D01*
X119415428Y-72002428D01*
X119344000Y-71931000D01*
X119201142Y-71859571D01*
X118986857Y-71859571D01*
X118844000Y-71931000D01*
X118772571Y-72002428D01*
X118701142Y-72145285D01*
X118701142Y-72573857D01*
X118772571Y-72716714D01*
X118844000Y-72788142D01*
X118986857Y-72859571D01*
X119201142Y-72859571D01*
X117844000Y-72859571D02*
X117986857Y-72788142D01*
X118058285Y-72716714D01*
X118129714Y-72573857D01*
X118129714Y-72145285D01*
X118058285Y-72002428D01*
X117986857Y-71931000D01*
X117844000Y-71859571D01*
X117629714Y-71859571D01*
X117486857Y-71931000D01*
X117415428Y-72002428D01*
X117344000Y-72145285D01*
X117344000Y-72573857D01*
X117415428Y-72716714D01*
X117486857Y-72788142D01*
X117629714Y-72859571D01*
X117844000Y-72859571D01*
X116701142Y-72859571D02*
X116701142Y-71359571D01*
X116558285Y-72288142D02*
X116129714Y-72859571D01*
X116129714Y-71859571D02*
X116701142Y-72431000D01*
X114415428Y-72431000D02*
X113701142Y-72431000D01*
X114558285Y-72859571D02*
X114058285Y-71359571D01*
X113558285Y-72859571D01*
X112415428Y-72859571D02*
X112415428Y-71359571D01*
X112415428Y-72788142D02*
X112558285Y-72859571D01*
X112844000Y-72859571D01*
X112986857Y-72788142D01*
X113058285Y-72716714D01*
X113129714Y-72573857D01*
X113129714Y-72145285D01*
X113058285Y-72002428D01*
X112986857Y-71931000D01*
X112844000Y-71859571D01*
X112558285Y-71859571D01*
X112415428Y-71931000D01*
X111058285Y-72859571D02*
X111058285Y-72073857D01*
X111129714Y-71931000D01*
X111272571Y-71859571D01*
X111558285Y-71859571D01*
X111701142Y-71931000D01*
X111058285Y-72788142D02*
X111201142Y-72859571D01*
X111558285Y-72859571D01*
X111701142Y-72788142D01*
X111772571Y-72645285D01*
X111772571Y-72502428D01*
X111701142Y-72359571D01*
X111558285Y-72288142D01*
X111201142Y-72288142D01*
X111058285Y-72216714D01*
X110344000Y-71859571D02*
X110344000Y-73359571D01*
X110344000Y-71931000D02*
X110201142Y-71859571D01*
X109915428Y-71859571D01*
X109772571Y-71931000D01*
X109701142Y-72002428D01*
X109629714Y-72145285D01*
X109629714Y-72573857D01*
X109701142Y-72716714D01*
X109772571Y-72788142D01*
X109915428Y-72859571D01*
X110201142Y-72859571D01*
X110344000Y-72788142D01*
X109201142Y-71859571D02*
X108629714Y-71859571D01*
X108986857Y-71359571D02*
X108986857Y-72645285D01*
X108915428Y-72788142D01*
X108772571Y-72859571D01*
X108629714Y-72859571D01*
X107558285Y-72788142D02*
X107701142Y-72859571D01*
X107986857Y-72859571D01*
X108129714Y-72788142D01*
X108201142Y-72645285D01*
X108201142Y-72073857D01*
X108129714Y-71931000D01*
X107986857Y-71859571D01*
X107701142Y-71859571D01*
X107558285Y-71931000D01*
X107486857Y-72073857D01*
X107486857Y-72216714D01*
X108201142Y-72359571D01*
X106844000Y-72859571D02*
X106844000Y-71859571D01*
X106844000Y-72145285D02*
X106772571Y-72002428D01*
X106701142Y-71931000D01*
X106558285Y-71859571D01*
X106415428Y-71859571D01*
X124094000Y-74309571D02*
X123522571Y-74309571D01*
X123879714Y-75309571D02*
X123879714Y-74023857D01*
X123808285Y-73881000D01*
X123665428Y-73809571D01*
X123522571Y-73809571D01*
X122808285Y-75309571D02*
X122951142Y-75238142D01*
X123022571Y-75166714D01*
X123094000Y-75023857D01*
X123094000Y-74595285D01*
X123022571Y-74452428D01*
X122951142Y-74381000D01*
X122808285Y-74309571D01*
X122594000Y-74309571D01*
X122451142Y-74381000D01*
X122379714Y-74452428D01*
X122308285Y-74595285D01*
X122308285Y-75023857D01*
X122379714Y-75166714D01*
X122451142Y-75238142D01*
X122594000Y-75309571D01*
X122808285Y-75309571D01*
X121665428Y-75309571D02*
X121665428Y-74309571D01*
X121665428Y-74595285D02*
X121594000Y-74452428D01*
X121522571Y-74381000D01*
X121379714Y-74309571D01*
X121236857Y-74309571D01*
X119094000Y-74523857D02*
X118879714Y-74595285D01*
X118808285Y-74666714D01*
X118736857Y-74809571D01*
X118736857Y-75023857D01*
X118808285Y-75166714D01*
X118879714Y-75238142D01*
X119022571Y-75309571D01*
X119594000Y-75309571D01*
X119594000Y-73809571D01*
X119094000Y-73809571D01*
X118951142Y-73881000D01*
X118879714Y-73952428D01*
X118808285Y-74095285D01*
X118808285Y-74238142D01*
X118879714Y-74381000D01*
X118951142Y-74452428D01*
X119094000Y-74523857D01*
X119594000Y-74523857D01*
X117879714Y-75309571D02*
X118022571Y-75238142D01*
X118094000Y-75095285D01*
X118094000Y-73809571D01*
X116665428Y-74309571D02*
X116665428Y-75309571D01*
X117308285Y-74309571D02*
X117308285Y-75095285D01*
X117236857Y-75238142D01*
X117094000Y-75309571D01*
X116879714Y-75309571D01*
X116736857Y-75238142D01*
X116665428Y-75166714D01*
X115379714Y-75238142D02*
X115522571Y-75309571D01*
X115808285Y-75309571D01*
X115951142Y-75238142D01*
X116022571Y-75095285D01*
X116022571Y-74523857D01*
X115951142Y-74381000D01*
X115808285Y-74309571D01*
X115522571Y-74309571D01*
X115379714Y-74381000D01*
X115308285Y-74523857D01*
X115308285Y-74666714D01*
X116022571Y-74809571D01*
X114736857Y-75238142D02*
X114522571Y-75309571D01*
X114165428Y-75309571D01*
X114022571Y-75238142D01*
X113951142Y-75166714D01*
X113879714Y-75023857D01*
X113879714Y-74881000D01*
X113951142Y-74738142D01*
X114022571Y-74666714D01*
X114165428Y-74595285D01*
X114451142Y-74523857D01*
X114594000Y-74452428D01*
X114665428Y-74381000D01*
X114736857Y-74238142D01*
X114736857Y-74095285D01*
X114665428Y-73952428D01*
X114594000Y-73881000D01*
X114451142Y-73809571D01*
X114094000Y-73809571D01*
X113879714Y-73881000D01*
X112379714Y-75166714D02*
X112451142Y-75238142D01*
X112665428Y-75309571D01*
X112808285Y-75309571D01*
X113022571Y-75238142D01*
X113165428Y-75095285D01*
X113236857Y-74952428D01*
X113308285Y-74666714D01*
X113308285Y-74452428D01*
X113236857Y-74166714D01*
X113165428Y-74023857D01*
X113022571Y-73881000D01*
X112808285Y-73809571D01*
X112665428Y-73809571D01*
X112451142Y-73881000D01*
X112379714Y-73952428D01*
X111808285Y-75238142D02*
X111594000Y-75309571D01*
X111236857Y-75309571D01*
X111094000Y-75238142D01*
X111022571Y-75166714D01*
X110951142Y-75023857D01*
X110951142Y-74881000D01*
X111022571Y-74738142D01*
X111094000Y-74666714D01*
X111236857Y-74595285D01*
X111522571Y-74523857D01*
X111665428Y-74452428D01*
X111736857Y-74381000D01*
X111808285Y-74238142D01*
X111808285Y-74095285D01*
X111736857Y-73952428D01*
X111665428Y-73881000D01*
X111522571Y-73809571D01*
X111165428Y-73809571D01*
X110951142Y-73881000D01*
X110308285Y-75309571D02*
X110308285Y-73809571D01*
D10*
X131665071Y-134548571D02*
X131522214Y-134596190D01*
X131474595Y-134643809D01*
X131426976Y-134739047D01*
X131426976Y-134881904D01*
X131474595Y-134977142D01*
X131522214Y-135024761D01*
X131617452Y-135072380D01*
X131998404Y-135072380D01*
X131998404Y-134072380D01*
X131665071Y-134072380D01*
X131569833Y-134120000D01*
X131522214Y-134167619D01*
X131474595Y-134262857D01*
X131474595Y-134358095D01*
X131522214Y-134453333D01*
X131569833Y-134500952D01*
X131665071Y-134548571D01*
X131998404Y-134548571D01*
X130855547Y-135072380D02*
X130950785Y-135024761D01*
X130998404Y-134977142D01*
X131046023Y-134881904D01*
X131046023Y-134596190D01*
X130998404Y-134500952D01*
X130950785Y-134453333D01*
X130855547Y-134405714D01*
X130712690Y-134405714D01*
X130617452Y-134453333D01*
X130569833Y-134500952D01*
X130522214Y-134596190D01*
X130522214Y-134881904D01*
X130569833Y-134977142D01*
X130617452Y-135024761D01*
X130712690Y-135072380D01*
X130855547Y-135072380D01*
X129665071Y-135072380D02*
X129665071Y-134548571D01*
X129712690Y-134453333D01*
X129807928Y-134405714D01*
X129998404Y-134405714D01*
X130093642Y-134453333D01*
X129665071Y-135024761D02*
X129760309Y-135072380D01*
X129998404Y-135072380D01*
X130093642Y-135024761D01*
X130141261Y-134929523D01*
X130141261Y-134834285D01*
X130093642Y-134739047D01*
X129998404Y-134691428D01*
X129760309Y-134691428D01*
X129665071Y-134643809D01*
X129188880Y-135072380D02*
X129188880Y-134405714D01*
X129188880Y-134596190D02*
X129141261Y-134500952D01*
X129093642Y-134453333D01*
X128998404Y-134405714D01*
X128903166Y-134405714D01*
X128141261Y-135072380D02*
X128141261Y-134072380D01*
X128141261Y-135024761D02*
X128236500Y-135072380D01*
X128426976Y-135072380D01*
X128522214Y-135024761D01*
X128569833Y-134977142D01*
X128617452Y-134881904D01*
X128617452Y-134596190D01*
X128569833Y-134500952D01*
X128522214Y-134453333D01*
X128426976Y-134405714D01*
X128236500Y-134405714D01*
X128141261Y-134453333D01*
X126617452Y-135453333D02*
X126665071Y-135405714D01*
X126760309Y-135262857D01*
X126807928Y-135167619D01*
X126855547Y-135024761D01*
X126903166Y-134786666D01*
X126903166Y-134596190D01*
X126855547Y-134358095D01*
X126807928Y-134215238D01*
X126760309Y-134120000D01*
X126665071Y-133977142D01*
X126617452Y-133929523D01*
X125665071Y-134977142D02*
X125712690Y-135024761D01*
X125855547Y-135072380D01*
X125950785Y-135072380D01*
X126093642Y-135024761D01*
X126188880Y-134929523D01*
X126236500Y-134834285D01*
X126284119Y-134643809D01*
X126284119Y-134500952D01*
X126236500Y-134310476D01*
X126188880Y-134215238D01*
X126093642Y-134120000D01*
X125950785Y-134072380D01*
X125855547Y-134072380D01*
X125712690Y-134120000D01*
X125665071Y-134167619D01*
X125331738Y-135453333D02*
X125284119Y-135405714D01*
X125188880Y-135262857D01*
X125141261Y-135167619D01*
X125093642Y-135024761D01*
X125046023Y-134786666D01*
X125046023Y-134596190D01*
X125093642Y-134358095D01*
X125141261Y-134215238D01*
X125188880Y-134120000D01*
X125284119Y-133977142D01*
X125331738Y-133929523D01*
X123855547Y-134167619D02*
X123807928Y-134120000D01*
X123712690Y-134072380D01*
X123474595Y-134072380D01*
X123379357Y-134120000D01*
X123331738Y-134167619D01*
X123284119Y-134262857D01*
X123284119Y-134358095D01*
X123331738Y-134500952D01*
X123903166Y-135072380D01*
X123284119Y-135072380D01*
X122665071Y-134072380D02*
X122569833Y-134072380D01*
X122474595Y-134120000D01*
X122426976Y-134167619D01*
X122379357Y-134262857D01*
X122331738Y-134453333D01*
X122331738Y-134691428D01*
X122379357Y-134881904D01*
X122426976Y-134977142D01*
X122474595Y-135024761D01*
X122569833Y-135072380D01*
X122665071Y-135072380D01*
X122760309Y-135024761D01*
X122807928Y-134977142D01*
X122855547Y-134881904D01*
X122903166Y-134691428D01*
X122903166Y-134453333D01*
X122855547Y-134262857D01*
X122807928Y-134167619D01*
X122760309Y-134120000D01*
X122665071Y-134072380D01*
X121950785Y-134167619D02*
X121903166Y-134120000D01*
X121807928Y-134072380D01*
X121569833Y-134072380D01*
X121474595Y-134120000D01*
X121426976Y-134167619D01*
X121379357Y-134262857D01*
X121379357Y-134358095D01*
X121426976Y-134500952D01*
X121998404Y-135072380D01*
X121379357Y-135072380D01*
X120426976Y-135072380D02*
X120998404Y-135072380D01*
X120712690Y-135072380D02*
X120712690Y-134072380D01*
X120807928Y-134215238D01*
X120903166Y-134310476D01*
X120998404Y-134358095D01*
X119236500Y-135072380D02*
X119236500Y-134072380D01*
X118903166Y-134786666D01*
X118569833Y-134072380D01*
X118569833Y-135072380D01*
X117665071Y-135072380D02*
X117665071Y-134548571D01*
X117712690Y-134453333D01*
X117807928Y-134405714D01*
X117998404Y-134405714D01*
X118093642Y-134453333D01*
X117665071Y-135024761D02*
X117760309Y-135072380D01*
X117998404Y-135072380D01*
X118093642Y-135024761D01*
X118141261Y-134929523D01*
X118141261Y-134834285D01*
X118093642Y-134739047D01*
X117998404Y-134691428D01*
X117760309Y-134691428D01*
X117665071Y-134643809D01*
X117331738Y-134405714D02*
X116950785Y-134405714D01*
X117188880Y-134072380D02*
X117188880Y-134929523D01*
X117141261Y-135024761D01*
X117046023Y-135072380D01*
X116950785Y-135072380D01*
X116760309Y-134405714D02*
X116379357Y-134405714D01*
X116617452Y-134072380D02*
X116617452Y-134929523D01*
X116569833Y-135024761D01*
X116474595Y-135072380D01*
X116379357Y-135072380D01*
X116046023Y-135072380D02*
X116046023Y-134072380D01*
X115617452Y-135072380D02*
X115617452Y-134548571D01*
X115665071Y-134453333D01*
X115760309Y-134405714D01*
X115903166Y-134405714D01*
X115998404Y-134453333D01*
X116046023Y-134500952D01*
X114760309Y-135024761D02*
X114855547Y-135072380D01*
X115046023Y-135072380D01*
X115141261Y-135024761D01*
X115188880Y-134929523D01*
X115188880Y-134548571D01*
X115141261Y-134453333D01*
X115046023Y-134405714D01*
X114855547Y-134405714D01*
X114760309Y-134453333D01*
X114712690Y-134548571D01*
X114712690Y-134643809D01*
X115188880Y-134739047D01*
X114379357Y-134405714D02*
X114188880Y-135072380D01*
X113998404Y-134596190D01*
X113807928Y-135072380D01*
X113617452Y-134405714D01*
X112474595Y-135072380D02*
X112474595Y-134072380D01*
X111903166Y-135072380D01*
X111903166Y-134072380D01*
X111426976Y-135072380D02*
X111426976Y-134405714D01*
X111426976Y-134072380D02*
X111474595Y-134120000D01*
X111426976Y-134167619D01*
X111379357Y-134120000D01*
X111426976Y-134072380D01*
X111426976Y-134167619D01*
X110569833Y-135024761D02*
X110665071Y-135072380D01*
X110855547Y-135072380D01*
X110950785Y-135024761D01*
X110998404Y-134929523D01*
X110998404Y-134548571D01*
X110950785Y-134453333D01*
X110855547Y-134405714D01*
X110665071Y-134405714D01*
X110569833Y-134453333D01*
X110522214Y-134548571D01*
X110522214Y-134643809D01*
X110998404Y-134739047D01*
X109950785Y-135072380D02*
X110046023Y-135024761D01*
X110093642Y-134929523D01*
X110093642Y-134072380D01*
X109617452Y-135024761D02*
X109522214Y-135072380D01*
X109331738Y-135072380D01*
X109236500Y-135024761D01*
X109188880Y-134929523D01*
X109188880Y-134881904D01*
X109236500Y-134786666D01*
X109331738Y-134739047D01*
X109474595Y-134739047D01*
X109569833Y-134691428D01*
X109617452Y-134596190D01*
X109617452Y-134548571D01*
X109569833Y-134453333D01*
X109474595Y-134405714D01*
X109331738Y-134405714D01*
X109236500Y-134453333D01*
X108379357Y-135024761D02*
X108474595Y-135072380D01*
X108665071Y-135072380D01*
X108760309Y-135024761D01*
X108807928Y-134929523D01*
X108807928Y-134548571D01*
X108760309Y-134453333D01*
X108665071Y-134405714D01*
X108474595Y-134405714D01*
X108379357Y-134453333D01*
X108331738Y-134548571D01*
X108331738Y-134643809D01*
X108807928Y-134739047D01*
X107903166Y-134405714D02*
X107903166Y-135072380D01*
X107903166Y-134500952D02*
X107855547Y-134453333D01*
X107760309Y-134405714D01*
X107617452Y-134405714D01*
X107522214Y-134453333D01*
X107474595Y-134548571D01*
X107474595Y-135072380D01*
M02*
